<svg width="1379" height="873" fill="none" xmlns="http://www.w3.org/2000/svg"><g clip-path="url(#clip0_1016_234)"><path d="M734.32 552.35l40.78 200.53" stroke="url(#paint0_linear_1016_234)" stroke-width="6" stroke-linecap="round" stroke-linejoin="round"/><path d="M624.198 454.91l-1-12.35c-2.29-28.07-8.14-58.67-20.3-87.79" stroke="url(#paint1_linear_1016_234)" stroke-width="6" stroke-linecap="round" stroke-linejoin="round"/><path d="M343.24 226.65c-209.52-9.43-239.57 118.49-231.63 215.91l34.62 424.32" stroke="url(#paint2_linear_1016_234)" stroke-width="6" stroke-linecap="round" stroke-linejoin="round"/><path d="M706.998 820.19a1.374 1.374 0 01-1.545.321 1.374 1.374 0 01-.455-.321l-10.3-10.9-3.79-9.2c-4.3.57-9.93-.14-14.16-4l-2.1-2.2c5.82 7.5 6 16.43-14.19 7.4 0 0-33.87-10.11-34.6-10.2 0 0-123.33 13.63-254.53-1.2l4.93 78.77 341.06 1.05-10.32-49.52zM579.848 861h-13.66a7.707 7.707 0 01-5.623-2.153 7.69 7.69 0 01-1.741-8.553 7.708 7.708 0 017.364-4.684h13.66a7.704 7.704 0 017.365 4.684 7.716 7.716 0 010 6.022 7.702 7.702 0 01-7.365 4.684zm0-36.86h-13.66a7.704 7.704 0 01-7.114-4.753 7.7 7.7 0 017.114-10.647h13.66a7.7 7.7 0 110 15.4z" fill="url(#paint3_linear_1016_234)"/><path d="M580.079 430.94c3.26 4.69 40 62.46-40.94 69.51-52.78 4.6-111-26.37-142.29-63.08 0 0-3-2.27-3.2-2.27-21.58 4.79-42.55 10.37-51.17 15.46-10 5.92-57.41 34.56-74.88 111.34-.07.07 2.89.83 3 .91-.06-.19 128.74 38.65 128.74 38.65l-10.61 94.1s143.86 19.11 217.45 26.05l.78.1c11.61 0 24 3.24 34.19 6.86a166.18 166.18 0 0122.63 5.64l-31.56-76.41 13.17-5.41 37.21 90.1c3 1.72 6.19 3.55 9.35 5.42l-12.61-60.41s21.79-27.22 20.11-65.58c-.113-2.527-.33-5.097-.65-7.71.21-.52 46-15.42 48.57-20.91-1.77-31.3-27.21-114.3-72.03-133.62-14.34-6.68-48.68-18.94-55.69-21.33-10-3.42-24.25-6.89-39.76-10.55" fill="url(#paint4_linear_1016_234)"/><path d="M425.882 116.503l22.028-10.235-18.021-38.788-22.029 10.235 18.022 38.788z" fill="#108dff"/><path d="M402.202 85.57c23.627 0 42.78-19.153 42.78-42.78 0-23.627-19.153-42.78-42.78-42.78-23.627 0-42.78 19.153-42.78 42.78 0 23.627 19.153 42.78 42.78 42.78z" fill="url(#paint5_linear_1016_234)"/><path d="M551 80.64c-37-13.17-76.66-6.64-112.87 6.23C321.92 130 315.81 297.88 304.34 349.06c-1.84 8.19 5 16.48 13.6 16.45l137.22 18.37 6.54-61.44s-4.79-11.85-8.66-21.55l.19 6.45s-49.13 7.12-51.35-38.6c-1.39-28.55 21.64-32.74 39.12-31.91-.14-3-.19-4.74-.18-4.7 63.64-2.37 136.49-43.32 154.25-78.21 21.15 12.58 32.13 34.11 36.73 91.52 41.12-38.07 31.93-119.04-80.8-164.8z" fill="url(#paint6_linear_1016_234)"/><path d="M453.23 307.34s-49.13 7.12-51.35-38.6c-1.69-34.68 32.641-33.46 49.321-30.85" stroke="url(#paint7_linear_1016_234)" stroke-width="6" stroke-linecap="round" stroke-linejoin="round"/><path d="M631.831 245.42c-4.6-57.41-15.25-76.77-36.41-89.35-17.48 34.34-82 74.31-153 76-1.37 8-.32.86-.46 9.59.44 9 1.07 19.26 1.92 27.86 5.48 32.53 17.82 52.88 17.82 52.88 17.47 31.69 46.12 55.7 84.25 59.16 66.55 6 84.39-87.74 85.91-108.55.75-10.32 0-27.69 0-27.69l-.03.1z" stroke="url(#paint8_linear_1016_234)" stroke-width="6" stroke-linecap="round" stroke-linejoin="round"/><path d="M575.301 297.26l19.22.01-13.13-75.78" stroke="url(#paint9_linear_1016_234)" stroke-width="6" stroke-linecap="round" stroke-linejoin="round"/><path d="M526 223.08s12-15.51 25.19-6.86" stroke="url(#paint10_linear_1016_234)" stroke-width="6" stroke-linecap="round" stroke-linejoin="round"/><path d="M566.772 331.21s-19 5.05-24.19-9.8" stroke="url(#paint11_linear_1016_234)" stroke-width="6" stroke-linecap="round" stroke-linejoin="round"/><path d="M604.16 220.78s16.73-10.25 26 2.49" stroke="url(#paint12_linear_1016_234)" stroke-width="6" stroke-linecap="round" stroke-linejoin="round"/><path d="M554.768 260.346c.189-5.443-2.509-9.953-6.025-10.075-3.516-.121-6.519 4.192-6.707 9.634-.188 5.443 2.51 9.953 6.026 10.075 3.515.121 6.518-4.192 6.706-9.634z" fill="url(#paint13_linear_1016_234)"/><path d="M622.487 262.303c.188-5.442-2.509-9.952-6.025-10.074-3.516-.121-6.519 4.192-6.707 9.634-.188 5.442 2.509 9.953 6.025 10.074 3.516.122 6.519-4.191 6.707-9.634z" fill="url(#paint14_linear_1016_234)"/><path d="M571.971 243.181c.9-29.439-16.473-53.858-38.802-54.54-22.33-.682-41.16 22.63-42.06 52.07-.899 29.439 16.473 53.858 38.803 54.54 22.329.683 41.16-22.63 42.059-52.07zm107.332 7.087c.9-29.44-16.473-53.858-38.802-54.54-22.33-.683-41.16 22.63-42.06 52.07-.899 29.439 16.473 53.858 38.803 54.54 22.329.682 41.16-22.63 42.059-52.07zM597.14 239.94l-25.39.08m-80.24-8.68l-54.44 5.83" stroke="#108dff" stroke-width="6" stroke-linecap="round" stroke-linejoin="round"/><path d="M632.84 725.7c14.43 2.13 34.34 8 48.89 16.29 16.83 9.54 38.66 22.66 39.78 28.44 1.54 7.86-12.1 4.32-21.27 1.28" stroke="url(#paint15_linear_1016_234)" stroke-width="6" stroke-linecap="round" stroke-linejoin="round"/><path d="M690.22 760.9l-45.71-110.7-13.17 5.41 35.6 86.21" fill="#108dff"/><path d="M716.88 790.45c-1.09-4.87-42.54-47-57.67-54.36-9.8-4.75-32.14-14.36-52.28-14.41l-.78-.1c-73.59-6.94-217.45-26.05-217.45-26.05l10.61-94.1s-128.8-38.84-128.74-38.65c-9.9 72.58-7.86 153.28.79 182.34 5.24 17.58 24.57 33 42.61 36.31 150.09 27.49 311.91 9.6 311.91 9.6.73.1 34.6 10.21 34.6 10.21 20.85 9.35 20-.55 13.56-8.18.985.93 1.897 1.932 2.73 3 7.22 6.61 18.53 4 20.3 1.55 1.77-2.45-6.19-9.66-16.7-21.09l1.26.93c17.42 20.06 38.16 25.96 35.25 13z" stroke="url(#paint16_linear_1016_234)" stroke-width="6" stroke-linecap="round" stroke-linejoin="round"/><path d="M676.8 796.06C667.49 784 641 776 641 776c3 .29 21.2 6.43 30.06 14" fill="#fff"/><path d="M676.8 796.06C667.49 784 641 776 641 776c3 .29 21.2 6.43 30.06 14" stroke="url(#paint17_linear_1016_234)" stroke-width="6" stroke-linecap="round" stroke-linejoin="round"/><path d="M652.23 760.63s17.301 4 27.921 15.62z" fill="#fff"/><path d="M652.23 760.63s17.301 4 27.921 15.62" stroke="url(#paint18_linear_1016_234)" stroke-width="6" stroke-linecap="round" stroke-linejoin="round"/><path d="M752.229 803.74h-267.17a11 11 0 00-11 11v8a11 11 0 0011 11h267.17a11 11 0 0011-11v-8a11 11 0 00-11-11z" fill="#108dff"/><path d="M817.189 512.49c-6 0-11.12 4.49-12.49 10.86l-65.7 305.34h-283s-7.77 40.31 37.77 40.31c18.92 0 144.06-.09 283.91-.19-4.08-5.88-6.11-14.52-4.76-20.79l69.85-322.33c1.67-7.79 8-13.23 15.42-13.23l-41 .03zm-229.64 340.8a7.706 7.706 0 01-.583 2.948 7.692 7.692 0 01-7.117 4.752h-13.66a7.7 7.7 0 01-7.114-10.645 7.686 7.686 0 014.168-4.163 7.71 7.71 0 012.946-.582h13.66a7.697 7.697 0 017.7 7.69z" fill="url(#paint19_linear_1016_234)"/><path d="M570.87 816.46s-33.68-5.39-34.28 18.22v.65c.6 23.61 34.28 18.22 34.28 18.22" stroke="url(#paint20_linear_1016_234)" stroke-width="6" stroke-linecap="round" stroke-linejoin="round"/><path d="M993.398 255.029l-79.8-5.586-5.491 78.44 79.8 5.586 5.491-78.44z" fill="#108dff"/><path d="M978.796 293.758l-18.569-1.23-1.231 18.57 18.57 1.23 1.23-18.57z" stroke="url(#paint21_linear_1016_234)" stroke-width="6" stroke-linecap="round" stroke-linejoin="round"/><path d="M978.797 293.8l-19.77 17.29" stroke="url(#paint22_linear_1016_234)" stroke-width="6" stroke-linecap="round" stroke-linejoin="round"/><path d="M981.853 267.005l-58.9-4.123-1.242 17.75 58.9 4.123 1.242-17.75z" stroke="url(#paint23_linear_1016_234)" stroke-width="6.015" stroke-linecap="round" stroke-linejoin="round"/><path d="M918.648 308.94l29.89 1.98" stroke="url(#paint24_linear_1016_234)" stroke-width="6" stroke-linecap="round" stroke-linejoin="round"/><path d="M919.258 299.68l29.89 1.98" stroke="url(#paint25_linear_1016_234)" stroke-width="6" stroke-linecap="round" stroke-linejoin="round"/><path d="M919.859 290.42l29.9 1.98" stroke="url(#paint26_linear_1016_234)" stroke-width="6" stroke-linecap="round" stroke-linejoin="round"/><path d="M920.777 276.42l59.95-13.82" stroke="url(#paint27_linear_1016_234)" stroke-width="6" stroke-linecap="round" stroke-linejoin="round"/><path d="M1100.51 174.374l-67.52-22.24c-8.3-2.734-17.25 1.78-19.99 10.084l-.56 1.728c-2.74 8.304 1.77 17.253 10.08 19.988l67.52 22.239c8.3 2.735 17.25-1.779 19.99-10.083l.57-1.729c2.73-8.304-1.78-17.252-10.09-19.987z" stroke="url(#paint28_linear_1016_234)" stroke-width="6" stroke-linecap="round" stroke-linejoin="round"/><path d="M1093.03 214.73c14.31 0 25.91-11.6 25.91-25.91s-11.6-25.91-25.91-25.91-25.91 11.6-25.91 25.91 11.6 25.91 25.91 25.91z" fill="url(#paint29_linear_1016_234)"/><path d="M1232.63 405.794l-60.27-146.518-146.52 60.271 60.27 146.518 146.52-60.271z" fill="#108dff"/><path d="M1142.76 468.67l-4.88 5.7-5.7-4.89" stroke="url(#paint30_linear_1016_234)" stroke-width="6" stroke-linecap="round" stroke-linejoin="round"/><path d="M1120.09 459.11l-90.73-77.82" stroke="url(#paint31_linear_1016_234)" stroke-width="6" stroke-linecap="round" stroke-linejoin="round" stroke-dasharray="15.94 15.94"/><path d="M1023.31 376.11l-5.69-4.89 4.88-5.69" stroke="url(#paint32_linear_1016_234)" stroke-width="6" stroke-linecap="round" stroke-linejoin="round"/><path d="M1032.87 353.43l77.82-90.73" stroke="url(#paint33_linear_1016_234)" stroke-width="6" stroke-linecap="round" stroke-linejoin="round" stroke-dasharray="15.94 15.94"/><path d="M1115.88 256.66l4.88-5.7 5.69 4.88" stroke="url(#paint34_linear_1016_234)" stroke-width="6" stroke-linecap="round" stroke-linejoin="round"/><path d="M1138.55 266.22l90.73 77.81" stroke="url(#paint35_linear_1016_234)" stroke-width="6" stroke-linecap="round" stroke-linejoin="round" stroke-dasharray="15.94 15.94"/><path d="M1235.33 349.22l5.69 4.88-4.88 5.7" stroke="url(#paint36_linear_1016_234)" stroke-width="6" stroke-linecap="round" stroke-linejoin="round"/><path d="M1225.76 371.89l-77.81 90.73" stroke="url(#paint37_linear_1016_234)" stroke-width="6" stroke-linecap="round" stroke-linejoin="round" stroke-dasharray="15.94 15.94"/><path d="M1143.57 408.65s47.33 40.73 70.34 106.1" stroke="url(#paint38_linear_1016_234)" stroke-width="6" stroke-linejoin="round"/><path d="M1144 416.36a7.591 7.591 0 000-15.18 7.591 7.591 0 000 15.18z" fill="url(#paint39_linear_1016_234)"/><path d="M1271 512.49h-54.9c11.22 30.13 15.48 60.59 12.64 90.57-3.51 37-17.87 74.5-42.68 111.55a3.008 3.008 0 01-5 .001 3.059 3.059 0 01-.45-1.084 2.897 2.897 0 010-1.173c.08-.387.23-.756.45-1.084 44.74-66.82 54.18-131.66 28.85-198.22a2.725 2.725 0 01-.15-.56H858.198a3 3 0 110 6c-4.55 0-8.49 3.49-9.56 8.49l-69.86 322.34c-1.07 5 1 12.63 4.53 17a10.222 10.222 0 002.77 2.46c194.83-.13 414.482-.3 414.482-.3 6 0 11.12-4.5 12.49-10.86l70.49-327.83c1.91-8.79-4.21-17.3-12.54-17.3zm-221.07 152.76s-14.26 5.71-19-11.13c-.03 0 17.85-4.34 19 11.13zm14.26 64.34c-11.29 12-29.88 15.61-41.51 8-11.63-7.61-11.91-23.57-.62-35.61A38.679 38.679 0 011041 691a11.194 11.194 0 01-1.54-5.67c0-6.7 5-13.06 11.19-14.19h.33c1.61-4.9 4.9-14.14 8.07-17.88.25-.301.56-.548.92-.729a2.982 2.982 0 012.28-.189 3.009 3.009 0 011.76 1.485c.18.35.29.733.32 1.126.03.392-.01.788-.13 1.163-.12.375-.32.723-.57 1.024-2.2 2.58-4.94 9.9-6.65 15 1.58.93 2.88 2.27 3.76 3.877a10.23 10.23 0 011.24 5.253 15.046 15.046 0 01-4.12 10.11 23.68 23.68 0 015.74 2.67c11.62 7.57 11.89 23.51.59 35.54z" fill="url(#paint40_linear_1016_234)"/><path d="M1215.53 510.91a3.007 3.007 0 00-3.6-1.828c-.72.198-1.34.656-1.74 1.286-.4.63-.55 1.387-.42 2.122h6.33c-.19-.49-.37-1.05-.57-1.58z" fill="url(#paint41_linear_1016_234)"/><path d="M939.209 301.566l-106.924 35.011 35.01 106.924 106.925-35.01-35.011-106.925z" stroke="url(#paint42_linear_1016_234)" stroke-width="6" stroke-linecap="round" stroke-linejoin="round"/><path d="M867 442.5l72.21-141.01" stroke="url(#paint43_linear_1016_234)" stroke-width="6" stroke-linecap="round" stroke-linejoin="round"/><path d="M832.289 336.51l141.94 71.91" stroke="url(#paint44_linear_1016_234)" stroke-width="6" stroke-linecap="round" stroke-linejoin="round"/><path d="M3 869.6h1372.26" stroke="url(#paint45_linear_1016_234)" stroke-width="6" stroke-linecap="round" stroke-linejoin="round"/><path d="M681.898 778.14l-.3-.74-1.2-.88 1.5 1.62z" fill="url(#paint46_linear_1016_234)"/><path d="M641 776s21 6.34 32.22 16.23L671 790c-8.85-7.54-27.08-13.68-30-14z" fill="url(#paint47_linear_1016_234)"/><path d="M673.172 792.26l1.53 1.61c-.2-.26-.41-.52-.63-.78-.29-.28-.59-.55-.9-.83z" fill="url(#paint48_linear_1016_234)"/><path d="M674.07 793.09c.46.44.9.89 1.32 1.34-.39-.43-.86-.9-1.32-1.34z" fill="url(#paint49_linear_1016_234)"/><path d="M676.792 796.06c-.37-.48-.77-.95-1.19-1.41.4.46.82.93 1.19 1.41z" fill="url(#paint50_linear_1016_234)"/><path d="M652.23 760.63l27.921 15.62c-10.62-11.59-27.921-15.62-27.921-15.62z" fill="url(#paint51_linear_1016_234)"/><path d="M561.169 381.39v46l18.92 3.57c3.26 4.69 40 62.46-40.94 69.51-52.78 4.6-111-26.37-142.29-63.08l51.83-14.15 15.11-95.9" stroke="url(#paint52_linear_1016_234)" stroke-width="6" stroke-linecap="round" stroke-linejoin="round"/></g><defs><linearGradient id="paint0_linear_1016_234" x1="754.71" y1="552.35" x2="754.71" y2="752.88" gradientUnits="userSpaceOnUse"><stop stop-color="#108dff"/><stop offset="1" stop-color="#06162E"/></linearGradient><linearGradient id="paint1_linear_1016_234" x1="613.548" y1="354.77" x2="613.548" y2="454.91" gradientUnits="userSpaceOnUse"><stop stop-color="#108dff"/><stop offset="1" stop-color="#06162E"/></linearGradient><linearGradient id="paint2_linear_1016_234" x1="226.866" y1="226.157" x2="226.866" y2="866.88" gradientUnits="userSpaceOnUse"><stop stop-color="#108dff"/><stop offset="1" stop-color="#06162E"/></linearGradient><linearGradient id="paint3_linear_1016_234" x1="544.323" y1="789.89" x2="544.323" y2="869.71" gradientUnits="userSpaceOnUse"><stop stop-color="#108dff"/><stop offset="1" stop-color="#06162E"/></linearGradient><linearGradient id="paint4_linear_1016_234" x1="507.483" y1="427.8" x2="507.483" y2="747.91" gradientUnits="userSpaceOnUse"><stop stop-color="#108dff"/><stop offset="1" stop-color="#06162E"/></linearGradient><linearGradient id="paint5_linear_1016_234" x1="402.202" y1=".01" x2="402.202" y2="85.57" gradientUnits="userSpaceOnUse"><stop stop-color="#108dff"/><stop offset="1" stop-color="#06162E"/></linearGradient><linearGradient id="paint6_linear_1016_234" x1="479.124" y1="73.426" x2="479.124" y2="383.88" gradientUnits="userSpaceOnUse"><stop stop-color="#108dff"/><stop offset="1" stop-color="#06162E"/></linearGradient><linearGradient id="paint7_linear_1016_234" x1="427.525" y1="236.728" x2="427.525" y2="307.742" gradientUnits="userSpaceOnUse"><stop stop-color="#108dff"/><stop offset="1" stop-color="#06162E"/></linearGradient><linearGradient id="paint8_linear_1016_234" x1="536.95" y1="156.07" x2="536.95" y2="381.836" gradientUnits="userSpaceOnUse"><stop stop-color="#108dff"/><stop offset="1" stop-color="#06162E"/></linearGradient><linearGradient id="paint9_linear_1016_234" x1="584.911" y1="221.49" x2="584.911" y2="297.27" gradientUnits="userSpaceOnUse"><stop stop-color="#108dff"/><stop offset="1" stop-color="#06162E"/></linearGradient><linearGradient id="paint10_linear_1016_234" x1="538.595" y1="213.596" x2="538.595" y2="223.08" gradientUnits="userSpaceOnUse"><stop stop-color="#108dff"/><stop offset="1" stop-color="#06162E"/></linearGradient><linearGradient id="paint11_linear_1016_234" x1="554.677" y1="321.41" x2="554.677" y2="332.038" gradientUnits="userSpaceOnUse"><stop stop-color="#108dff"/><stop offset="1" stop-color="#06162E"/></linearGradient><linearGradient id="paint12_linear_1016_234" x1="617.16" y1="216.881" x2="617.16" y2="223.27" gradientUnits="userSpaceOnUse"><stop stop-color="#108dff"/><stop offset="1" stop-color="#06162E"/></linearGradient><linearGradient id="paint13_linear_1016_234" x1="542.036" y1="259.905" x2="554.768" y2="260.346" gradientUnits="userSpaceOnUse"><stop stop-color="#108dff"/><stop offset="1" stop-color="#06162E"/></linearGradient><linearGradient id="paint14_linear_1016_234" x1="609.755" y1="261.863" x2="622.487" y2="262.303" gradientUnits="userSpaceOnUse"><stop stop-color="#108dff"/><stop offset="1" stop-color="#06162E"/></linearGradient><linearGradient id="paint15_linear_1016_234" x1="677.235" y1="725.7" x2="677.235" y2="775.2" gradientUnits="userSpaceOnUse"><stop stop-color="#108dff"/><stop offset="1" stop-color="#06162E"/></linearGradient><linearGradient id="paint16_linear_1016_234" x1="490.562" y1="562.779" x2="490.562" y2="805.043" gradientUnits="userSpaceOnUse"><stop stop-color="#108dff"/><stop offset="1" stop-color="#06162E"/></linearGradient><linearGradient id="paint17_linear_1016_234" x1="658.9" y1="776" x2="658.9" y2="796.06" gradientUnits="userSpaceOnUse"><stop stop-color="#108dff"/><stop offset="1" stop-color="#06162E"/></linearGradient><linearGradient id="paint18_linear_1016_234" x1="666.19" y1="760.63" x2="666.19" y2="776.25" gradientUnits="userSpaceOnUse"><stop stop-color="#108dff"/><stop offset="1" stop-color="#06162E"/></linearGradient><linearGradient id="paint19_linear_1016_234" x1="656.843" y1="512.46" x2="656.843" y2="869" gradientUnits="userSpaceOnUse"><stop stop-color="#108dff"/><stop offset="1" stop-color="#06162E"/></linearGradient><linearGradient id="paint20_linear_1016_234" x1="553.73" y1="815.93" x2="553.73" y2="854.08" gradientUnits="userSpaceOnUse"><stop stop-color="#108dff"/><stop offset="1" stop-color="#06162E"/></linearGradient><linearGradient id="paint21_linear_1016_234" x1="969.511" y1="293.143" x2="968.281" y2="311.713" gradientUnits="userSpaceOnUse"><stop stop-color="#108dff"/><stop offset="1" stop-color="#06162E"/></linearGradient><linearGradient id="paint22_linear_1016_234" x1="968.912" y1="293.8" x2="968.912" y2="311.09" gradientUnits="userSpaceOnUse"><stop stop-color="#108dff"/><stop offset="1" stop-color="#06162E"/></linearGradient><linearGradient id="paint23_linear_1016_234" x1="952.403" y1="264.943" x2="951.161" y2="282.693" gradientUnits="userSpaceOnUse"><stop stop-color="#108dff"/><stop offset="1" stop-color="#06162E"/></linearGradient><linearGradient id="paint24_linear_1016_234" x1="933.593" y1="308.94" x2="933.593" y2="310.92" gradientUnits="userSpaceOnUse"><stop stop-color="#108dff"/><stop offset="1" stop-color="#06162E"/></linearGradient><linearGradient id="paint25_linear_1016_234" x1="934.203" y1="299.68" x2="934.203" y2="301.66" gradientUnits="userSpaceOnUse"><stop stop-color="#108dff"/><stop offset="1" stop-color="#06162E"/></linearGradient><linearGradient id="paint26_linear_1016_234" x1="934.809" y1="290.42" x2="934.809" y2="292.4" gradientUnits="userSpaceOnUse"><stop stop-color="#108dff"/><stop offset="1" stop-color="#06162E"/></linearGradient><linearGradient id="paint27_linear_1016_234" x1="950.752" y1="262.6" x2="950.752" y2="276.42" gradientUnits="userSpaceOnUse"><stop stop-color="#108dff"/><stop offset="1" stop-color="#06162E"/></linearGradient><linearGradient id="paint28_linear_1016_234" x1="1066.75" y1="163.254" x2="1056.28" y2="195.054" gradientUnits="userSpaceOnUse"><stop stop-color="#108dff"/><stop offset="1" stop-color="#06162E"/></linearGradient><linearGradient id="paint29_linear_1016_234" x1="1093.03" y1="162.91" x2="1093.03" y2="214.73" gradientUnits="userSpaceOnUse"><stop stop-color="#108dff"/><stop offset="1" stop-color="#06162E"/></linearGradient><linearGradient id="paint30_linear_1016_234" x1="1137.47" y1="468.67" x2="1137.47" y2="474.37" gradientUnits="userSpaceOnUse"><stop stop-color="#108dff"/><stop offset="1" stop-color="#06162E"/></linearGradient><linearGradient id="paint31_linear_1016_234" x1="1074.72" y1="381.29" x2="1074.72" y2="459.11" gradientUnits="userSpaceOnUse"><stop stop-color="#108dff"/><stop offset="1" stop-color="#06162E"/></linearGradient><linearGradient id="paint32_linear_1016_234" x1="1020.46" y1="365.53" x2="1020.46" y2="376.11" gradientUnits="userSpaceOnUse"><stop stop-color="#108dff"/><stop offset="1" stop-color="#06162E"/></linearGradient><linearGradient id="paint33_linear_1016_234" x1="1071.78" y1="262.7" x2="1071.78" y2="353.43" gradientUnits="userSpaceOnUse"><stop stop-color="#108dff"/><stop offset="1" stop-color="#06162E"/></linearGradient><linearGradient id="paint34_linear_1016_234" x1="1121.16" y1="250.96" x2="1121.16" y2="256.66" gradientUnits="userSpaceOnUse"><stop stop-color="#108dff"/><stop offset="1" stop-color="#06162E"/></linearGradient><linearGradient id="paint35_linear_1016_234" x1="1183.91" y1="266.22" x2="1183.91" y2="344.03" gradientUnits="userSpaceOnUse"><stop stop-color="#108dff"/><stop offset="1" stop-color="#06162E"/></linearGradient><linearGradient id="paint36_linear_1016_234" x1="1238.17" y1="349.22" x2="1238.17" y2="359.8" gradientUnits="userSpaceOnUse"><stop stop-color="#108dff"/><stop offset="1" stop-color="#06162E"/></linearGradient><linearGradient id="paint37_linear_1016_234" x1="1186.85" y1="371.89" x2="1186.85" y2="462.62" gradientUnits="userSpaceOnUse"><stop stop-color="#108dff"/><stop offset="1" stop-color="#06162E"/></linearGradient><linearGradient id="paint38_linear_1016_234" x1="1178.74" y1="408.65" x2="1178.74" y2="514.75" gradientUnits="userSpaceOnUse"><stop stop-color="#108dff"/><stop offset="1" stop-color="#06162E"/></linearGradient><linearGradient id="paint39_linear_1016_234" x1="1144" y1="401.18" x2="1144" y2="416.36" gradientUnits="userSpaceOnUse"><stop stop-color="#108dff"/><stop offset="1" stop-color="#06162E"/></linearGradient><linearGradient id="paint40_linear_1016_234" x1="1031.19" y1="512.49" x2="1031.19" y2="868.78" gradientUnits="userSpaceOnUse"><stop stop-color="#108dff"/><stop offset="1" stop-color="#06162E"/></linearGradient><linearGradient id="paint41_linear_1016_234" x1="1212.91" y1="508.975" x2="1212.91" y2="512.49" gradientUnits="userSpaceOnUse"><stop stop-color="#108dff"/><stop offset="1" stop-color="#06162E"/></linearGradient><linearGradient id="paint42_linear_1016_234" x1="885.747" y1="319.072" x2="920.757" y2="425.996" gradientUnits="userSpaceOnUse"><stop stop-color="#108dff"/><stop offset="1" stop-color="#06162E"/></linearGradient><linearGradient id="paint43_linear_1016_234" x1="903.105" y1="301.49" x2="903.105" y2="442.5" gradientUnits="userSpaceOnUse"><stop stop-color="#108dff"/><stop offset="1" stop-color="#06162E"/></linearGradient><linearGradient id="paint44_linear_1016_234" x1="903.259" y1="336.51" x2="903.259" y2="408.42" gradientUnits="userSpaceOnUse"><stop stop-color="#108dff"/><stop offset="1" stop-color="#06162E"/></linearGradient><linearGradient id="paint45_linear_1016_234" x1="689.13" y1="869.6" x2="689.13" y2="870.6" gradientUnits="userSpaceOnUse"><stop stop-color="#108dff"/><stop offset="1" stop-color="#06162E"/></linearGradient><linearGradient id="paint46_linear_1016_234" x1="681.148" y1="776.52" x2="681.148" y2="778.14" gradientUnits="userSpaceOnUse"><stop stop-color="#108dff"/><stop offset="1" stop-color="#06162E"/></linearGradient><linearGradient id="paint47_linear_1016_234" x1="657.11" y1="776" x2="657.11" y2="792.23" gradientUnits="userSpaceOnUse"><stop stop-color="#108dff"/><stop offset="1" stop-color="#06162E"/></linearGradient><linearGradient id="paint48_linear_1016_234" x1="673.937" y1="792.26" x2="673.937" y2="793.87" gradientUnits="userSpaceOnUse"><stop stop-color="#108dff"/><stop offset="1" stop-color="#06162E"/></linearGradient><linearGradient id="paint49_linear_1016_234" x1="674.73" y1="793.09" x2="674.73" y2="794.43" gradientUnits="userSpaceOnUse"><stop stop-color="#108dff"/><stop offset="1" stop-color="#06162E"/></linearGradient><linearGradient id="paint50_linear_1016_234" x1="676.197" y1="794.65" x2="676.197" y2="796.06" gradientUnits="userSpaceOnUse"><stop stop-color="#108dff"/><stop offset="1" stop-color="#06162E"/></linearGradient><linearGradient id="paint51_linear_1016_234" x1="666.19" y1="760.63" x2="666.19" y2="776.25" gradientUnits="userSpaceOnUse"><stop stop-color="#108dff"/><stop offset="1" stop-color="#06162E"/></linearGradient><linearGradient id="paint52_linear_1016_234" x1="494.037" y1="327.34" x2="494.037" y2="500.925" gradientUnits="userSpaceOnUse"><stop stop-color="#108dff"/><stop offset="1" stop-color="#06162E"/></linearGradient><clipPath id="clip0_1016_234"><path fill="#fff" d="M0 0h1378.26v872.6H0z"/></clipPath></defs></svg>