<svg width="250" height="162" fill="none" xmlns="http://www.w3.org/2000/svg"><path d="M213.605 88.796c-15.115-18.962 5.66-18.857 13.75-33.35 1.947-2.153 5.166-6.406 6.089-11.081.809-4.092 1.442-10.419-.132-17.323-1.7-7.457-6.525-17.432-19.856-22.6-6.352-2.464-13.986-3.907-22.691-4.29-6.921-.305-14.535.069-22.636 1.07-12.885 1.595-23.948 4.78-33.08 8.882-2.595-2.182-5.795-4.133-9.741-5.663-6.352-2.463-13.987-3.906-22.691-4.29-6.921-.304-14.535.07-22.636 1.072C61.085 3.56 46.105 9.32 35.391 16.375a34.697 34.697 0 00-6.196-.553c-14.972 0-27.11 9.425-27.11 21.05 0 8.31 6.201 15.494 15.205 18.917.597 5.415 1.264 12.208 1.749 19.224.643 9.297.404 17.462-.708 24.27-1.365 8.351-6.973 19.632-6.973 19.632-12.497 18.629-6.211 37.788-4.017 42.963h234.911c6.165-15.374-8.391-47.67-28.647-73.082zM18.243 110.697l-.194.192c1.333-3.235 2.347-6.965 3.034-11.173 1.146-7.026 1.392-15.415.732-24.935a453.99 453.99 0 00-1.162-13.592c6.06 15.453 13.888 33.588-2.41 49.508zM156.88 6.169a100.908 100.908 0 0111.64-2.178c12.434-1.555 30.149-2.287 43.932 3.058 12.19 4.726 16.595 13.82 18.145 20.617 1.154 5.06.761 10.138-.276 14.497a37.322 37.322 0 00-.173-2.626c-3.21-31.894-44.47-33.542-44.47-33.542-11.065-.393-20.591-.314-28.798.174z" fill="#FEE4CB"/><mask id="a" style="mask-type:luminance" maskUnits="userSpaceOnUse" x="1" y="0" width="243" height="162"><path d="M213.414 88.747c-15.115-18.962 5.659-18.857 13.75-33.35 1.946-2.153 5.165-6.406 6.089-11.08.809-4.092 1.442-10.42-.132-17.324-1.7-7.457-6.525-17.431-19.857-22.6-6.352-2.464-13.986-3.907-22.69-4.29-6.921-.304-14.535.069-22.636 1.071-12.885 1.594-23.948 4.78-33.08 8.882-2.595-2.182-5.796-4.134-9.742-5.664C118.764 1.93 111.13.486 102.426.103 95.505-.2 87.891.172 79.79 1.174 60.893 3.512 45.914 9.272 35.2 16.327a34.697 34.697 0 00-6.197-.554c-14.972 0-27.108 9.425-27.108 21.051 0 8.31 6.2 15.493 15.203 18.916.598 5.415 1.265 12.208 1.75 19.224.642 9.297.404 17.462-.708 24.27-1.365 8.351-6.974 19.633-6.974 19.633-12.496 18.629-6.21 37.788-4.016 42.962h234.91c6.164-15.373-8.391-47.67-28.647-73.082zM18.052 110.648l-.194.192c1.332-3.234 2.347-6.965 3.033-11.172 1.146-7.027 1.393-15.416.733-24.935-.33-4.749-.743-9.395-1.163-13.592 6.061 15.452 13.889 33.587-2.41 49.507zM156.688 6.12a100.99 100.99 0 0111.64-2.177C180.762 2.388 198.477 1.656 212.261 7c12.189 4.727 16.595 13.82 18.145 20.617 1.153 5.06.76 10.138-.276 14.497a37.339 37.339 0 00-.174-2.626c-3.21-31.894-44.469-33.541-44.469-33.541-11.066-.394-20.591-.315-28.799.173z" fill="#fff"/></mask><g mask="url(#a)" fill="#fff"><path opacity=".5" d="M165.127 96.035c-.361-1.724-1.767-3.01-3.447-3.01a3.26 3.26 0 00-.893.125c-.83-1.946-2.63-3.294-4.718-3.294-.54 0-1.06.09-1.55.257-1.123-2.041-3.165-3.407-5.498-3.407-2.775 0-5.138 1.933-6.034 4.638a4.085 4.085 0 00-2.141-.61c-2.433 0-4.405 2.164-4.405 4.832 0 .159.008.315.022.47h28.664zM53.053 63.794c-.361-1.724-1.767-3.01-3.448-3.01-.308 0-.607.043-.893.125-.83-1.946-2.63-3.295-4.717-3.295-.54 0-1.06.09-1.55.258-1.124-2.042-3.165-3.407-5.498-3.407-2.775 0-5.139 1.932-6.034 4.637a4.086 4.086 0 00-2.141-.61c-2.433 0-4.405 2.164-4.405 4.833 0 .158.008.314.021.468h28.665zm49.969 52.291c-.361-1.724-1.767-3.01-3.448-3.01-.308 0-.608.043-.893.125-.83-1.946-2.63-3.295-4.717-3.295-.54 0-1.06.09-1.55.258-1.124-2.042-3.166-3.407-5.498-3.407-2.775 0-5.139 1.932-6.034 4.637a4.091 4.091 0 00-2.142-.609c-2.432 0-4.404 2.163-4.404 4.832 0 .158.007.314.021.469h28.665zm119.415-77.239c-.181-.86-.883-1.503-1.723-1.503-.154 0-.303.021-.446.062-.414-.972-1.314-1.646-2.357-1.646a2.38 2.38 0 00-.774.129c-.562-1.02-1.581-1.702-2.747-1.702-1.386 0-2.567.965-3.015 2.317a2.037 2.037 0 00-1.069-.305c-1.215 0-2.201 1.08-2.201 2.414 0 .08.004.157.011.234h14.321zm-36.054-11.724c.44-2.103 2.156-3.672 4.207-3.672.376 0 .741.053 1.089.153 1.012-2.375 3.209-4.02 5.756-4.02.659 0 1.294.11 1.891.314 1.372-2.491 3.863-4.157 6.709-4.157 3.386 0 6.27 2.358 7.363 5.658a4.982 4.982 0 012.612-.744c2.968 0 5.374 2.64 5.374 5.896 0 .193-.009.384-.025.572h-34.976zM62.945 36.987c.648-3.093 3.17-5.4 6.187-5.4.553 0 1.09.078 1.602.224 1.489-3.492 4.719-5.912 8.465-5.912.968 0 1.902.162 2.78.462 2.017-3.663 5.68-6.113 9.866-6.113 4.98 0 9.22 3.468 10.827 8.321a7.333 7.333 0 013.842-1.093c4.365 0 7.903 3.882 7.903 8.67 0 .284-.013.564-.037.841H62.945z"/><path opacity=".4" d="M214.143 56.71c-.437.805-.671 1.73-1.145 2.51-.546.898-1.37 1.54-2.176 2.16-3.596 2.77-7.317 5.603-11.607 6.645-1.076.261-2.218.424-3.121 1.117-1.868 1.433-1.689 5.067.309 6.27 2.287 1.375 5.733-.236 7.415 1.95.685.888.817 2.167 1.487 3.068.897 1.204 2.474 1.412 3.888 1.513.968.07 1.936.13 2.905.182-4.323-10.63 5.846-13.407 12.968-21.615a21.661 21.661 0 01-.61-.102c-.383-.07-.786-.162-1.078-.444-.292-.281-.417-.816-.162-1.138 1.41-.661 2.845-1.327 4.338-1.667.351-.563.685-1.149.998-1.761a31.184 31.184 0 002.342-3.251c-3.158.165-6.307.431-9.448.849-2.764.367-5.88 1.089-7.303 3.714z"/></g><path d="M22.303 159.558s19.894-8.154 15.871-13.963c0 0-.064-2.08-7.546 1.051 0 0-3.014-.626-1.425-3.466 1.589-2.84 8.369-4.726 7.23-8.594-1.14-3.868-5.208-.324-7.584-.546-2.376-.221 5.415-10.733 3.573-13.355-1.84-2.622-5.27 1.327-7.033 1.026-1.764-.301 2.015-15.507-6.39-16.981-8.406-1.474-3.527 7.733-2.077 12.555 1.45 4.821-4.353-.657-7.452 2.742-3.1 3.399 11.034 7.158 7.608 10.235-3.425 3.076-5.604-.983-7.988 1.412-3.855 3.872 10.937 6.339 8.735 9.258-1.755 2.328-5.131-1.732-6.787-.1-1.657 1.632 1.68 12.659 11.265 18.726z" fill="#FEB546"/><path opacity=".52" d="M38.426 146.023a3.09 3.09 0 00-.096-.181c-.576.47-1.234.967-1.966 1.457-2.691 1.802-6.962 3.879-12.063 3.588.282-2.598.388-5.423.316-8.463 4.54-4.996 8.568-6.953 11.15-7.715.223-.066.44-.124.65-.176a4.552 4.552 0 00-.063-.188c-.204.051-.415.107-.632.171-2.582.759-6.595 2.697-11.112 7.615v-.038c-.087-3.122-.358-6.47-.81-10.014a45.856 45.856 0 013.043-5.613c1.285-2.016 3.112-4.478 5.235-6.181a2.147 2.147 0 00-.157-.132c-2.136 1.722-3.967 4.19-5.257 6.212a47.039 47.039 0 00-2.914 5.325c-.353-2.7-.81-5.513-1.37-8.424-1.561-8.12-3.567-15.118-4.663-18.686l-.22-.007c1.091 3.543 3.11 10.568 4.678 18.728.264 1.372.521 2.813.762 4.304a50.322 50.322 0 00-4.969-3.48c-2.143-1.321-5.138-2.95-8.474-4.122l-.023.024c-.042.045-.08.091-.115.137 3.344 1.167 6.349 2.8 8.495 4.124 2.91 1.795 4.871 3.398 5.134 3.616.528 3.307.97 6.852 1.219 10.44-3.937-2.873-11.573-5.27-15.391-6.351a2.196 2.196 0 00-.118.172c3.833 1.082 11.643 3.526 15.527 6.442.338 5.106.276 10.287-.507 14.976-3.9-1.441-7.186-5.286-9.265-8.277a46.497 46.497 0 01-2.904-4.793c-.065.022-.128.05-.19.083a46.785 46.785 0 002.917 4.815c2.104 3.027 5.439 6.924 9.41 8.371-.347 2.014-.828 3.935-1.468 5.719l.089.058.129-.054c.875-2.452 1.491-5.267 1.846-8.422.333.019.666.029.999.029a18.27 18.27 0 005.826-.972c1.832-.614 3.644-1.517 5.385-2.684a26.2 26.2 0 001.937-1.433z" fill="#fff"/><path d="M213.501 151.735s-2.873-14.076 9.235-28.027l1.602 5.037-.083-6.35s7.387-7.829 14.053-12.009c0 0-3.043 16.964-4.917 20.465l-4.567 3.213 4.994.042s-1.47 9.479-7.791 15.826c-6.322 6.348-12.526 1.803-12.526 1.803z" fill="#E03268"/><path d="M227.322 92.498c-5.438.055-2.675 7.796-1.845 9.85a33.58 33.58 0 00-3.894 3.801c.044-2.691 1.825-4.617 1.328-6.31-.557-1.9-2.402-3.519-4.063-.295-1.315 2.555 1.211 5.842 2.317 7.097-1.835 2.203-3.048 4.261-3.823 5.844-.406-3.11 1.396-5.567.62-7.433-.849-2.041-3.068-3.597-4.468.217-1.157 3.152 2.346 6.633 3.596 7.746-.673 1.462-.935 2.414-.962 2.516a54.423 54.423 0 00-1.258 5.619c-.421-2.731.681-5.137-.243-6.741-1.11-1.924-3.492-3.165-4.337.862-.67 3.186 2.875 6.057 4.386 7.118a52.902 52.902 0 00-.452 10.7c-1.243-2.292-1.441-6.359-3.271-8.096-1.201-1.139-2.291-.939-2.999-.567-.605.318-.999.909-1.098 1.615-.557 3.991 5.538 6.878 7.407 7.665a53.037 53.037 0 001.819 10.512c-.652-1.18-1.63-2.966-2.099-3.914-.738-1.494-2.469-3.178-3.984-3.377a3.055 3.055 0 00-.185-.019c-1.151-.074-2.071.778-2.234 1.928-.635 4.497 7.14 6.177 8.824 6.487l.018.061c2.234 7.319 5.251 11.627 5.378 11.806l.608-.424c-.029-.042-2.898-4.144-5.07-10.966 5.539-4.252 4.9-8.941 3.234-9.841-1.721-.93-4.369-.074-3.774 3.232.345 1.918.278 3.976.161 5.367a52.18 52.18 0 01-1.919-10.714c9.026-2.662 6.403-8.404 4.039-8.707-2.394-.307-3.212 1.232-3.232 4.008a11.292 11.292 0 01-.845 4.156 52.195 52.195 0 01.405-10.506c1.665.596 6.005 1.824 7.808-.815 2.254-3.298-.133-4.526-2.18-4.235-1.882.267-2.861 3.256-5.549 4.504a53.63 53.63 0 011.384-6.444c.009-.036.534-1.945 2.107-4.631 1.614.807 5.787 2.547 7.912.206 2.669-2.941.426-4.455-1.664-4.437-1.864.016-3.193 2.657-5.876 3.612 1.39-2.242 3.486-4.93 6.556-7.503 1.679.825 5.732 2.452 7.815.157 2.669-2.94.426-4.455-1.664-4.436-1.891.016-3.23 2.733-5.989 3.652l-.054-.067c.603-.895 1.888-2.79 2.552-3.66.886-1.161 1.392-3.251.734-4.64-.658-1.39-1.977-1.56-1.977-1.56z" fill="#FEB546"/><path d="M24.72 158.363s1.583-12.635-10.06-24.04l-1.073 4.565-.357-5.609S6.173 126.922 0 123.733c0 0 3.838 14.742 5.731 17.691l4.253 2.493-4.409.411s1.94 8.254 7.956 13.382c6.015 5.128 11.188.653 11.188.653z" fill="#FF5B7E"/><path d="M248.132 126.523c-.051 4.956-1.298 9.065-3.272 12.47-2.21-.217-4.847-.427-4.847-.427l3.359 2.687c-8.933 12.052-27.316 13.86-27.316 13.86-.08-10.894 3.121-17.752 7.528-22.039 1.44.624 3.57 1.575 3.57 1.575l-2.086-2.891c2.341-1.886 4.93-3.16 7.503-4.009a194.3 194.3 0 002.335 3.194l.179-3.899c6.907-1.611 13.047-.521 13.047-.521z" fill="#07085B"/><path d="M223.584 133.074c1.44.624 3.57 1.575 3.57 1.575l-2.086-2.891c2.341-1.886 4.93-3.16 7.503-4.009a191.297 191.297 0 002.336 3.194l.178-3.899c6.907-1.611 13.047-.521 13.047-.521-9.143 14.985-32.076 28.59-32.076 28.59-.08-10.894 3.121-17.752 7.528-22.039z" fill="#55769F"/><path d="M250.002 144.577a21.832 21.832 0 00-8.699-1.124 160.058 160.058 0 01-1.38 2.367l-.5-2.15c-10.359 1.622-17.677 9.865-17.677 9.865 6.606 2.362 11.865 2.322 15.966 1.168.107-.809.247-2.012.247-2.012l1.056 1.596a19.31 19.31 0 004.978-2.667 86.32 86.32 0 01-1.155-1.777l2.434.748c3.317-2.899 4.73-6.014 4.73-6.014z" fill="#FF5B7E"/><path d="M237.712 154.703c.107-.809.247-2.012.247-2.012l1.056 1.596a19.31 19.31 0 004.978-2.667 81.793 81.793 0 01-1.155-1.777l2.434.748c3.317-2.899 4.73-6.014 4.73-6.014-12.216 1.096-28.256 8.958-28.256 8.958 6.606 2.362 11.864 2.322 15.966 1.168z" fill="#E03268"/><path d="M3.496 160.534s1.346-6.548 14.472-7.178c13.127-.63 14.473 3.926 33.994 1.997 19.52-1.928 29.372-9.594 60.11-8.451 30.738 1.142 26.106 7.239 56.875 7.842 30.768.603 35.468-4.442 51.797-2.706 16.33 1.736 22.744 8.867 22.744 8.867h-5.068l-234.924-.371z" fill="#02CCC0"/><path d="M245.177 161.829H1.539a.704.704 0 01-.707-.701c0-.387.317-.701.707-.701h243.638c.39 0 .707.314.707.701a.704.704 0 01-.707.701z" fill="#07085B"/><path d="M44.096 92.689c1.22-4.663 4.006-7.975 6.223-7.397 2.217.577 3.026 4.824 1.807 9.487-.168.644.274.672.422.11 1.347-5.152.453-9.846-1.997-10.484-2.45-.638-5.529 3.022-6.876 8.174-.154.59.253.753.421.11z" fill="#02CCC0"/><path d="M57.127 116.347l-5.04 3.66-14.193-28.02 2.197-3.612 19.242 5.097-2.206 22.875z" fill="#00B0A5"/><path d="M52.088 120.007l-22.17-5.771 7.95-24.94 19.496 5.076-5.276 25.635z" fill="#02CCC0"/><path d="M59.332 93.472L40.09 88.375l1.094.93-3.317-.009 19.496 5.076.527-.647 1.442-.253z" fill="#008C83"/><path d="M42.696 92.919c1.318-5.04 4.33-8.62 6.727-7.997 2.397.624 3.271 5.216 1.953 10.257-.182.696.297.726.456.118 1.456-5.57.49-10.643-2.159-11.333-2.649-.69-5.976 3.267-7.433 8.836-.166.637.274.815.456.119z" fill="#02CCC0"/><path d="M57.889 93.725l-4.787 21.347 4.024 1.276 2.205-22.876-1.442.253z" fill="#E6E6E6"/><path d="M43.23 91.35c2.238-4.27 5.697-6.87 7.728-5.808 2.03 1.061 1.863 5.382-.374 9.65-.309.59.116.717.386.202 2.472-4.716 2.657-9.49.413-10.663s-6.066 1.7-8.538 6.416c-.283.54.077.792.386.202z" fill="#FF5B7E"/><path d="M50.602 117.333l-5.734 2.432-7.524-30.495 2.952-3.025 17.602 9.295-7.296 21.793z" fill="#E8486A"/><path d="M44.87 119.765l-20.304-10.611 13.358-22.511 17.854 9.331-10.908 23.791z" fill="#FF5B7E"/><path d="M57.897 95.54l-17.602-9.295.856 1.152-3.23-.755 17.855 9.332.66-.511 1.461.077z" fill="#C23C59"/><path d="M41.813 91.258c2.418-4.614 6.158-7.425 8.354-6.278 2.195 1.148 2.014 5.819-.404 10.433-.334.638.125.775.417.218 2.672-5.099 2.872-10.26.446-11.528-2.425-1.267-6.558 1.838-9.23 6.937-.306.584.083.856.417.218z" fill="#FF5B7E"/><path d="M56.432 95.462l-9.467 19.723 3.634 2.148 7.295-21.793-1.462-.078z" fill="#E6E6E6"/><path d="M44.192 87.69c2.26-2.323 4.987-3.336 6.092-2.263 1.105 1.073.17 3.826-2.09 6.148-.311.32-.062.484.211.204 2.496-2.566 3.53-5.608 2.309-6.793-1.222-1.186-4.236-.066-6.732 2.5-.286.293-.102.525.21.204z" fill="#FEB546"/><path d="M43.966 105.847l-4.161.469.991-21.094 2.482-1.384 9.564 9.362-8.876 12.647z" fill="#EBA741"/><path d="M39.806 106.317L28.754 95.589l12.92-11.949 9.719 9.433-11.587 13.244z" fill="#FEB546"/><path d="M52.841 93.2l-9.563-9.362.33.907-1.936-1.105 9.719 9.433.523-.203.927.33z" fill="#B88233"/><path d="M43.295 87.36c2.442-2.511 5.39-3.606 6.586-2.446 1.194 1.16.183 4.135-2.259 6.646-.337.346-.068.523.227.22 2.699-2.774 3.816-6.062 2.496-7.344-1.32-1.281-4.579-.071-7.277 2.703-.31.317-.11.567.227.22z" fill="#FEB546"/><path d="M51.914 92.87l-9.879 10.897 1.93 2.08L52.841 93.2l-.927-.33z" fill="#E6E6E6"/><path d="M51.068 86.976c-.114.01-.249-.095-.34-.027-.71.526-1.185.656-1.308.528-.145-.153-.07-.338-.138-.446-.136-.215-.3-.024-.525-.218-.128-.11-.057-.285-.104-.408-.048-.124-.134-.195-.327-.261-.192-.066-.126-.306-.14-.472-.016-.166-.215-.125-.296-.244-.151-.221-.045-.757 1.558-1.862l1.424-.946 1.422-.119.626 1.686s-.363.473-.619 1.404c-.194.705-.512 1.327-1.233 1.385zm19.957 22.095l-15.087 44.607s-5.179 4.483-4.954 1.867c.052-.609.817-4.934.882-5.733.546-6.714 2.039-19.884 3.238-24.404 1.297-4.889 4.375-13.012 4.375-13.012l11.546-3.325z" fill="#FFC0BB"/><path d="M60.563 157.164l-4.71-3.913-4.837 2.062 1.4 1.328 5.297 1.526s2.147.029 2.25-.02c.1-.05.6-.983.6-.983z" fill="#FFC0BB"/><path d="M60.564 157.164l1.188 1.026c.552.469.151 1.367-.566 1.269l-9.907-1.354a.639.639 0 01-.547-.719l.284-2.073c6.311 3.002 8.677 2.674 9.548 1.851z" fill="#07085B"/><path d="M85.865 89.499s7.265 23.069 6.296 26.266c-.62 2.046-12.199 34.228-12.383 34.169-.184-.06-4.811-1.414-4.811-1.414s8.593-31.448 8.173-33.462c-.42-2.014-9.132-20.605-9.132-20.605L85.865 89.5z" fill="#FFC0BB"/><path d="M83.98 151.885l-3.203-5.507-5.465.285.894 1.798 4.63 3.385s2.088.796 2.205.784c.117-.012.939-.745.939-.745z" fill="#FFC0BB"/><path d="M83.982 151.885l.794 1.427c.372.655-.34 1.389-1.006 1.038l-9.197-4.865a.664.664 0 01-.277-.898l1.018-1.924c5.094 5.189 7.523 5.715 8.668 5.222z" fill="#07085B"/><path d="M83.143 115.058s-3.952 12.029-6.541 27.412l8.358-18.02-1.817-9.392z" fill="#FFC0BB"/><path d="M79.171 53.237s4.774-2.386 3.709-9.137c-.336-2.13-2.35-2.865-1.998-5.698.351-2.833 1.263-6.31-1.662-9.519-2.924-3.207-5.619-3.586-9.277-3.642-3.815-.057-10.46 2.553-12.062 7.18-1.602 4.628-7.513.652-13.752 5.021-6.239 4.37-4.364 11.325-2.744 14.91 4.99 11.046 14.121 12.835 25.164 10.104 11.042-2.73 1.976-4.685 2.078-4.857.101-.173 10.544-4.362 10.544-4.362z" fill="#F46C0F"/><path d="M72.188 45.534l.328-3.911-4.416.336-1.24 4.842c-.15.575 1.679.858 2.218 1.107.626.29 1.21-1.297 2.182-1.423.492-.064.874-.458.927-.951z" fill="#FFC0BB"/><path d="M72.286 44.339l.228-2.716-4.416.336-.387 1.513c.918.491 2.764 1.146 4.575.867z" fill="#FC8D84" opacity=".6"/><path d="M77.133 39.881c.122-.36.211-.732.266-1.116.165-1.032.141-2.089.05-2.996a7.677 7.677 0 01-.034-.586 6.36 6.36 0 00-.53-2.394 6.395 6.395 0 00-6.611-3.771 6.367 6.367 0 00-5.485 7.567c-.434-.138-.884-.1-1.236.15-.675.478-.736 1.55-.136 2.393.6.843 1.633 1.138 2.31.659.093-.067.173-.146.244-.233.925 2.993 3.906 4.85 6.904 4.2a5.724 5.724 0 003.488-2.344c.056-.069.113-.149.172-.24.257-.4.451-.836.599-1.289z" fill="#FFC0BB"/><path d="M71.206 36.516a.556.556 0 11-1.09.236.556.556 0 011.09-.236zm4.738-.708a.556.556 0 11-1.086.235.556.556 0 011.086-.235z" fill="#333"/><path d="M71.63 35.297a5.23 5.23 0 00-.831-.089 2.739 2.739 0 00-.774.092c-.245.07-.488.162-.71.308l-.088.05c-.03.017-.055.04-.083.058l-.17.12c-.113.08-.214.177-.341.26.053-.135.118-.27.197-.396.091-.115.172-.247.29-.343a1.81 1.81 0 01.802-.446c.301-.082.621-.084.916-.016.295.072.575.199.792.402zm2.21-.364c.14-.262.365-.472.621-.634.258-.16.561-.26.873-.279.31-.017.629.03.902.167.144.052.262.152.386.231.116.095.22.202.314.313-.147-.038-.274-.098-.408-.139l-.198-.058c-.033-.008-.064-.022-.097-.029l-.099-.018a2.545 2.545 0 00-.773-.065c-.255.015-.51.07-.762.16s-.5.21-.76.351z" fill="#F46C0F"/><path d="M72.974 35.023c-.038.399-.01.8.065 1.196.038.199.092.395.169.591.08.193.178.39.356.558l.074.059.066.049c.029.024.067.041.089.069a.447.447 0 01.12.167c.06.125.033.283-.03.433-.143.308-.47.538-.828.708.394-.02.828-.176 1.086-.56a.817.817 0 00.113-.699.636.636 0 00-.082-.173c-.032-.057-.075-.101-.118-.146-.041-.049-.094-.077-.142-.115-.029-.02-.035-.028-.05-.04l-.041-.033a1.506 1.506 0 01-.284-.422c-.085-.162-.143-.344-.212-.523-.124-.363-.232-.738-.351-1.12z" fill="#F99893"/><path d="M73.709 29.56s-2.94 6.118-8.92 7.025l-1.004-4.287s1.98-2.286 2.239-2.58c.257-.293 4.27-1.677 4.27-1.677l3.342.48.073 1.04z" fill="#F46C0F"/><path d="M64.114 50.448s-6.876 23.989-13.872 32.629l2.317 1.583s13.448-17.351 15.505-25.005c2.058-7.652-3.95-9.207-3.95-9.207z" fill="#FFC0BB"/><path d="M66.09 45.15s18.272-.389 14.938 15.04c0 0-1.481 5.308-1.234 7.037.246 1.727 2.592 6.393 2.345 10.787-.246 4.395 13.582 11.307 14.693 15.627 0 0-4.815 2.84-6.79 5.308-1.976 2.469-6.544 12.961-20.866 13.331-14.322.37-20.125 1.111-20.125 1.111s.617-5.185 7.16-12.837c6.544-7.653 5.063-28.884 10.866-34.069 0 0-7.285-20.206-.988-21.335z" fill="#07085B"/><path opacity=".3" d="M56.212 100.554c6.543-7.653 5.062-28.884 10.865-34.068 0 0-6.4-17.754-2.017-20.909.001.003 5.968 16.959 8.684 19.428 0 0-5.012 10.12-5.284 15.058-.272 4.938 3.679 11.669 1.58 15.648-2.099 3.979-3.94 18.094 12.228 12.332-3.077 2.271-7.282 4.087-13.092 4.237-14.322.37-20.125 1.111-20.125 1.111s.617-5.184 7.16-12.837z" fill="#02CCC0"/><path d="M66.38 67.124a.485.485 0 11.19-.953c6.684 1.288 11.578.66 13.04.412a.486.486 0 01.556.37v.003a.485.485 0 01-.388.588c-.823.144-2.614.394-5.154.394-2.224 0-5.022-.192-8.244-.814zm13.682-.626l.108.474-.108-.474z" fill="#FF5B7E"/><path d="M70.598 39.9c.176.837.975 1.467 1.933 1.464.957-.003 1.751-.638 1.92-1.475l-3.853.012z" fill="#fff"/><path d="M90.383 33.34a.144.144 0 00.23-.105c.052-.881.234-3.655.46-3.692.271-.045.17 2.437.405 2.532.237.094.275-2.33.572-2.33.297-.002.187 2.206.312 2.25.126.043.457-2.062.63-2.168.175-.105.095 2.185.233 2.28.137.096.717-1.466.857-1.432.14.034.239.033-.06 3.924l-.184 1.528-.822 1.165-1.67-.397s-2.705-4.232-2.621-4.421c.08-.18.25-.182 1.658.867z" fill="#FFC0BB"/><path d="M91.13 36.557S86.9 51.415 85.953 51.85c-.946.436-9.466-1.727-12.961-3.391-3.497-1.665-7.524-2.889-8.565-1.07-1.042 1.817 3.433 10.098 19.548 10.556 0 0 6.253 1.133 8.023-6.844 1.77-7.978 1.858-15.146 1.858-15.146l-2.728.602zm43.339 46.794a.134.134 0 00-.035-.233c-1.536-.558-1.623-.691-1.522-.846.104-.162 4.486-.804 4.486-.804l9.852-11.3c1.205-2.109 7.841-13.63 9.386-14.373.426-.206 1.597-.953 2.549-.987l-.436 10.066c-1.972 2.828-5.235 7.18-7.891 9.57-2.885 2.945-8.316 6.826-10.645 8.25l-2.938 2.61c-2.874 2.225-2.202.714-2.346.656-.145-.058-.432-.537-.529-.613-.098-.075-.196-.593-.391-.728-.194-.135-.199-.776.46-1.268z" fill="#FFC0BB"/><path d="M162.827 41.1s-.163 3.767-1.661 6.093c-1.291 2.002-3.06 5.553.26 7.76 3.318 2.207 8.101-.79 8.17-1.01.068-.221 1.669-2.705 1.54-4.692s.759-4.363-.879-6.045c-1.639-1.681-7.43-2.106-7.43-2.106z" fill="#07085B"/><path d="M180.266 48.642c-1.313-2.755-1.453-4.986-1.357-7.035.04-.859.371-3.314-1.309-5.634-2.432-3.358-5.464-4.47-8.827-3.862-3.893.704-6.209 5.404-5.976 8.303l7.134.14-1.964.391c-4.702 12.18-1.733 12.632-.939 14.198.793 1.566 5.692 3.175 9.536 2.501 6.186-1.084 5.356-5.532 3.702-9.002z" fill="#07085B"/><path d="M172.894 47.153l.22 5.823s-2.197 1.795-6.016-.62c0 0 .758-.846.704-3.054-.056-2.256 5.092-2.15 5.092-2.15z" fill="#FFC0BB"/><path opacity=".6" d="M172.891 47.153l.095 2.428c-.904 1.494-2.641 2.189-5.416 1.76.14-.48.251-1.147.229-2.039-.056-2.256 5.092-2.15 5.092-2.15z" fill="#FC8D84"/><path d="M164.757 41.19c.109.812-.329 1.54-.978 1.626-.649.087-1.263-.5-1.372-1.31-.108-.811.33-1.54.979-1.626.648-.087 1.262.5 1.371 1.31z" fill="#F99893"/><path d="M163.658 44.413c-.107-1.035-.024-2.082.118-2.978.03-.192.049-.386.065-.58a6.324 6.324 0 01.66-2.347c1.248-2.481 4.031-3.872 6.764-3.375a6.33 6.33 0 015.013 7.82c.439-.114.882-.052 1.217.216.643.514.643 1.58.002 2.384-.642.803-1.683 1.038-2.327.525a1.227 1.227 0 01-.229-.245c-1.084 2.92-4.143 4.598-7.078 3.784-2.222-.616-3.983-2.593-4.205-5.204z" fill="#FFC0BB"/><path d="M166.789 41.291a.556.556 0 11-1.087.235.556.556 0 011.087-.235zm4.777.986a.556.556 0 11-1.101.116.558.558 0 011.101-.116z" fill="#333"/><path d="M168.792 40.946c-.098.345-.198.685-.316 1.014-.064.163-.122.327-.204.476-.079.15-.167.295-.282.391l-.043.032a.578.578 0 01-.049.036c-.042.031-.087.054-.124.094-.038.036-.077.072-.105.118a.557.557 0 00-.075.142.703.703 0 00.068.597c.098.172.247.3.408.393.163.09.338.147.516.172a2.095 2.095 0 01-.451-.268 1.06 1.06 0 01-.31-.381c-.061-.144-.085-.304-.023-.432.016-.031.029-.063.053-.09.018-.031.046-.055.073-.08.024-.027.061-.042.09-.065a3.36 3.36 0 00.124-.088 1.45 1.45 0 00.331-.474c.077-.17.132-.343.178-.518.089-.352.139-.71.141-1.069z" fill="#F99893"/><path d="M170.367 40.655c.294.005.567.024.829.068.261.043.506.116.734.223a2.6 2.6 0 01.64.416c.109.077.191.184.296.275.1.098.185.209.298.31a2.32 2.32 0 00-.118-.427c-.067-.13-.125-.274-.224-.39a1.78 1.78 0 00-.711-.58 1.858 1.858 0 00-.9-.168 1.707 1.707 0 00-.844.273zm-2.396-.499a1.703 1.703 0 00-.648-.605 1.862 1.862 0 00-.886-.23c-.311 0-.627.068-.891.222-.138.063-.252.168-.367.258a2.268 2.268 0 00-.288.336c.145-.043.269-.108.4-.154.134-.038.254-.099.385-.123.252-.08.506-.102.757-.105.251 0 .505.039.76.11.255.072.509.17.778.291zm7.522 2.784c.334-.065.372-.035.783.012l.335-.051-.079-.421-.129-.06.276-1.142-.16-1.193s-1.041-3.408-1.087-3.5c-.046-.09-1.241-1.471-1.317-1.547-.077-.076-2.271-.416-2.271-.416s-3.404-1.99-3.456.26c-.053 2.249 2.273 4.192 2.44 4.146-.285-.6.098-1.92.098-1.92 1.171 2.8 4.089 5.415 4.567 5.831z" fill="#07085B"/><path d="M170.24 45.645c-.237.737-1.018 1.23-1.88 1.138-.864-.093-1.521-.741-1.594-1.512l3.474.374z" fill="#fff"/><path d="M159.28 51.779s-5.35 5.19-6.503 7.658c0 0 2.626 8.176 3.82 9.246l3.439-2.823-.756-14.081z" fill="#FEB546"/><path d="M201.271 85.486c-.08-.07-.05-.2.052-.23 1.573-.444 1.67-.57 1.581-.731-.093-.17-4.415-1.133-4.415-1.133l-8.993-11.995c-1.046-2.191-6.816-14.17-8.302-15.025-.41-.236-1.523-1.068-2.469-1.172l-.307 10.07c1.758 2.966 4.692 7.547 7.164 10.125 2.661 3.15 7.791 7.421 10.009 9.012l2.738 2.82c1.693 1.751 2.144.874 2.292.827.148-.047.469-.504.572-.572.103-.069.239-.578.443-.698.205-.12.256-.759-.365-1.298z" fill="#FFC0BB"/><path d="M180.762 54.89l4.855 6.522s-4.444 7.077-5.432 8.476l-1.152-1.79s-3.375-5.122-3.046-5.698c.33-.576 4.775-7.51 4.775-7.51z" fill="#FEB546"/><path d="M164.535 100.684s6.334 23.342 8.876 25.511c1.626 1.387 28.743 22.238 28.865 22.089.123-.149 3.288-3.786 3.288-3.786s-24.207-21.842-24.94-23.764c-.733-1.922-3.432-22.275-3.432-22.275l-12.657 2.225zm-2.91-49.25s13.89.926 16.791 1.79c0 0 .062 2.75-.586 3.304-.648.554-7.159 2.978-9.197 3.14-2.038.16-3.52 1.641-5.063-.612-1.544-2.252-1.945-2.808-1.945-3.394v-4.228z" fill="#FFC0BB"/><path d="M199.791 152.193l-.275-6.364 4.754-2.708.219 1.996-2.072 5.347s-1.328 1.797-1.434 1.85c-.105.053-1.192-.121-1.192-.121zm-41.865-44.308l7.673 46.46s4.386 5.26 4.587 2.642c.047-.609-.008-5.001.057-5.8.547-6.713 1.204-19.952.752-24.606-.49-5.034-2.213-13.548-2.213-13.548l-10.856-5.148z" fill="#FFC0BB"/><path d="M199.789 152.193l.101 1.631c.04.751 1.037.985 1.407.33l5.119-9.057a.665.665 0 00-.252-.905l-1.896-1.071c-1.488 7.116-3.25 8.87-4.479 9.072z" fill="#07085B"/><path d="M159.28 51.779s-3.21 13.583 0 24.116c0 0-3.827 5.596-3.827 12.138s3.827 31.846 3.827 31.846 10.989-.617 16.668-2.715v-16.17l2.593 14.689 2.593-1.111s3.58-24.028-5.68-37.257c0 0 3.334-8.353 3.581-9.217 0 0-.494-8.517 1.729-13.207 0 0-2.531-1.667-2.347-1.667.185 0-2.222 3.827-7.839 3.641-5.618-.185-8.952-5.43-8.952-5.43l-2.346.344z" fill="#FEB546"/><path d="M160.469 157.037l5.281-3.1 4.44 2.817-1.596 1.084-5.474.65s-2.124-.319-2.217-.384c-.092-.066-.434-1.067-.434-1.067z" fill="#FFC0BB"/><path d="M160.469 157.037l-1.339.82c-.621.373-.371 1.324.353 1.343l9.996.266a.64.64 0 00.656-.621l.055-2.091c-6.714 1.942-8.996 1.236-9.721.283z" fill="#07085B"/><path opacity=".3" d="M168.046 75.32c-10.371-3.58-6.42-23.886-6.42-23.886l-2.346.345s-3.21 13.583 0 24.116c0 0-3.827 5.596-3.827 12.138s3.827 31.846 3.827 31.846 10.989-.617 16.668-2.715c-14.692.617-7.902-41.845-7.902-41.845z" fill="#FEB546"/><path d="M180.621 120.734s9.819 7.995 20.301 19.551l-16.762-10.663-3.539-8.888z" fill="#FFC0BB"/><path d="M129.756 91.68c1.214-4.664 3.996-7.979 6.214-7.405 2.218.575 3.032 4.822 1.819 9.486-.168.644.275.672.421.109 1.341-5.154.441-9.846-2.01-10.481-2.451-.635-5.524 3.029-6.865 8.182-.154.59.254.754.421.11z" fill="#F46C0F"/><path d="M142.81 115.323l-5.035 3.666-14.228-28.003 2.192-3.614 19.248 5.072-2.177 22.879z" fill="#D65F0D"/><path d="M137.775 118.989l-22.177-5.744 7.919-24.95 19.502 5.052-5.244 25.642z" fill="#F46C0F"/><path d="M144.986 92.444l-19.248-5.072 1.094.929-3.316-.005 19.502 5.05.526-.646 1.442-.256z" fill="#C7580D"/><path d="M128.352 91.912c1.312-5.042 4.319-8.625 6.717-8.005 2.397.622 3.278 5.212 1.966 10.254-.181.697.297.727.456.118 1.449-5.57.476-10.644-2.173-11.33-2.649-.686-5.972 3.274-7.422 8.845-.166.638.274.815.456.118z" fill="#F46C0F"/><path d="M143.546 92.7l-4.761 21.352 4.026 1.271 2.177-22.879-1.442.256z" fill="#E6E6E6"/><path d="M128.879 90.342c2.232-4.272 5.688-6.876 7.72-5.817 2.032 1.059 1.87 5.38-.362 9.651-.308.59.117.717.386.201 2.466-4.72 2.645-9.494.4-10.664s-6.064 1.708-8.53 6.428c-.282.54.078.79.386.2z" fill="#FF5B7E"/><path d="M136.286 116.317l-5.731 2.439-7.563-30.486 2.949-3.029 17.614 9.274-7.269 21.802z" fill="#E8486A"/><path d="M130.555 118.756l-20.317-10.586 13.33-22.528 17.866 9.31-10.879 23.804z" fill="#FF5B7E"/><path d="M143.553 94.515L125.94 85.24l.857 1.152-3.231-.751 17.866 9.31.659-.513 1.462.076z" fill="#C23C59"/><path d="M127.461 90.253c2.413-4.618 6.149-7.433 8.346-6.289 2.197 1.145 2.022 5.816-.391 10.434-.333.637.126.774.417.217 2.666-5.102 2.86-10.264.433-11.528-2.428-1.265-6.556 1.846-9.222 6.948-.305.584.084.855.417.218z" fill="#FF5B7E"/><path d="M142.091 94.439l-9.443 19.733 3.637 2.144 7.269-21.802-1.463-.075z" fill="#E6E6E6"/><path d="M129.836 86.681c2.257-2.325 4.983-3.341 6.09-2.27 1.107 1.072.175 3.825-2.082 6.15-.311.322-.062.485.211.204 2.493-2.569 3.522-5.612 2.3-6.796-1.223-1.184-4.236-.06-6.729 2.509-.285.294-.101.525.21.203z" fill="#FEB546"/><path d="M129.633 104.839l-4.16.474.965-21.095 2.48-1.387 9.575 9.35-8.86 12.658z" fill="#EBA741"/><path d="M125.472 105.313L114.406 94.6l12.905-11.965 9.731 9.42-11.57 13.258z" fill="#FEB546"/><path d="M138.494 92.18l-9.575-9.35.332.907-1.939-1.102 9.731 9.42.523-.203.928.329z" fill="#B88233"/><path d="M128.939 86.352c2.439-2.514 5.387-3.612 6.583-2.454 1.196 1.158.189 4.135-2.25 6.649-.337.347-.067.523.227.22 2.695-2.778 3.809-6.067 2.487-7.347-1.322-1.28-4.579-.066-7.274 2.712-.309.318-.11.567.227.22z" fill="#FEB546"/><path d="M137.568 91.852l-9.865 10.909 1.933 2.078 8.86-12.658-.928-.33z" fill="#E6E6E6"/><path d="M206.586 93.84c-1.347-5.153-4.426-8.812-6.876-8.174-2.45.637-3.344 5.331-1.997 10.483.148.562.59.534.422-.11-1.22-4.662-.41-8.91 1.807-9.487 2.217-.578 5.003 2.734 6.223 7.397.168.644.575.48.421-.11z" fill="#02CCC0"/><path d="M193.139 117.608l5.04 3.66 14.193-28.02-2.197-3.613-19.241 5.097 2.205 22.876z" fill="#00B0A5"/><path d="M198.178 121.268l22.171-5.772-7.951-24.94-19.496 5.076 5.276 25.636z" fill="#02CCC0"/><path d="M190.934 94.732l19.241-5.097-1.093.93 3.317-.008-19.496 5.075-.527-.647-1.442-.253z" fill="#008C83"/><path d="M208.024 94.06c-1.457-5.569-4.785-9.525-7.433-8.835-2.649.69-3.615 5.763-2.159 11.333.159.608.638.577.456-.12-1.318-5.04-.444-9.631 1.953-10.255 2.397-.624 5.409 2.956 6.727 7.996.182.696.622.519.456-.118z" fill="#02CCC0"/><path d="M192.376 94.986l4.787 21.346-4.024 1.276-2.205-22.876 1.442.254z" fill="#E6E6E6"/><path d="M207.412 92.407c-2.472-4.716-6.294-7.59-8.538-6.416-2.244 1.172-2.059 5.947.413 10.663.27.516.695.388.386-.201-2.237-4.269-2.405-8.59-.374-9.651 2.03-1.061 5.49 1.539 7.727 5.807.309.59.669.338.386-.201z" fill="#07085B"/><path d="M199.663 118.593l5.734 2.432 7.525-30.495-2.953-3.025-17.602 9.295 7.296 21.793z" fill="#06074A"/><path d="M205.397 121.025l20.303-10.611-13.358-22.511-17.854 9.331 10.909 23.791z" fill="#07085B"/><path d="M192.367 96.8l17.602-9.295-.856 1.152 3.23-.755-17.855 9.332-.659-.511-1.462.077z" fill="#040536"/><path d="M208.872 92.3c-2.672-5.099-6.805-8.204-9.231-6.937-2.425 1.268-2.225 6.43.447 11.528.292.557.751.42.417-.218-2.418-4.615-2.599-9.285-.404-10.433 2.195-1.147 5.935 1.664 8.354 6.278.334.638.723.365.417-.218z" fill="#07085B"/><path d="M193.829 96.723l9.468 19.722-3.634 2.148-7.296-21.793 1.462-.077z" fill="#E6E6E6"/><path d="M206.284 88.746c-2.496-2.566-5.51-3.685-6.732-2.5-1.221 1.186-.188 4.227 2.309 6.793.272.28.522.117.21-.204-2.259-2.322-3.195-5.075-2.089-6.147 1.105-1.073 3.833-.06 6.092 2.262.312.32.495.09.21-.204z" fill="#FF5B7E"/><path d="M206.294 107.108l4.161.469-.991-21.094-2.483-1.384-9.563 9.361 8.876 12.648z" fill="#E8486A"/><path d="M210.454 107.577l11.052-10.727-12.92-11.95-9.719 9.434 11.587 13.243z" fill="#FF5B7E"/><path d="M197.418 94.46l9.563-9.361-.33.906 1.936-1.105-9.719 9.434-.522-.204-.928.33z" fill="#C23C59"/><path d="M207.191 88.4c-2.698-2.775-5.956-3.985-7.277-2.703-1.32 1.281-.203 4.57 2.496 7.343.294.303.564.127.227-.22-2.442-2.51-3.454-5.486-2.259-6.646 1.195-1.16 4.144-.065 6.586 2.446.338.347.536.097.227-.22z" fill="#FF5B7E"/><path d="M198.349 94.13l9.879 10.897-1.93 2.081-8.876-12.648.927-.33z" fill="#E6E6E6"/><path d="M133.382 83.995c.511-.34 2.425-.48 2.688-.087.32.475.108 2.459-.526 2.713-.57.18-2.851-2.168-2.162-2.626zm68.593 2.003c-.503-.35-2.414-.53-2.685-.145-.33.468-.16 2.456.468 2.724.566.191 2.896-2.107 2.217-2.579z" fill="#FFC0BB"/></svg>