<svg width="200" height="128" fill="none" xmlns="http://www.w3.org/2000/svg"><path d="M100 127.227c55.228 0 100-1.35 100-3.016s-44.772-3.017-100-3.017-100 1.351-100 3.017 44.772 3.016 100 3.016z" fill="#CABCB0"/><path d="M58.05 92.324c-9.467-1.427-18.383-5.412-25.677-11.615C22.954 72.699 14.513 59.63 21 40.215 33.29 3.426 89.072-2.68 114.468 5.81c40.362 13.491 58.856 68.093 3.384 85.784-13.79 4.398-44.778 2.995-59.801.731z" fill="#CABCB0" opacity=".4"/><path d="M139.554 18.092a.158.158 0 01-.126-.062l-.211-.27a.158.158 0 11.249-.198c.072.09.143.182.214.274a.16.16 0 01-.029.223.158.158 0 01-.097.033zm-.967-1.195a.158.158 0 01-.121-.056 40.887 40.887 0 00-.624-.715.159.159 0 11.236-.212c.214.238.426.481.63.722a.159.159 0 01-.121.261zm-1.437-1.593a.158.158 0 01-.115-.049c-.216-.225-.44-.453-.666-.677a.159.159 0 11.224-.225c.228.225.453.455.672.683a.16.16 0 01-.005.224.16.16 0 01-.11.044zm-1.528-1.506a.16.16 0 01-.109-.042c-.23-.215-.467-.43-.703-.64a.16.16 0 01.212-.237c.237.211.476.428.708.645a.159.159 0 01-.108.274zm-1.609-1.42a.157.157 0 01-.102-.037 41.59 41.59 0 00-.736-.602.16.16 0 01.199-.248c.25.2.5.404.741.606a.16.16 0 01.02.224.16.16 0 01-.122.057zm-1.679-1.337a.157.157 0 01-.096-.032c-.252-.19-.509-.38-.764-.566a.158.158 0 11.186-.257c.257.187.516.378.769.57a.16.16 0 01-.095.285zm-1.742-1.254a.158.158 0 01-.09-.028c-.26-.178-.525-.357-.79-.53a.16.16 0 01.175-.266c.266.175.533.354.794.534a.16.16 0 01-.089.29zm-1.798-1.174a.157.157 0 01-.083-.025 45.592 45.592 0 00-.813-.495.159.159 0 01.163-.273c.273.163.548.33.817.499a.16.16 0 01.052.219.162.162 0 01-.136.075zm-1.846-1.096a.159.159 0 01-.078-.02c-.275-.156-.555-.31-.833-.46a.159.159 0 01.151-.28c.28.151.562.307.838.463a.159.159 0 01-.078.297zm-1.892-1.016a.16.16 0 01-.072-.017 49.447 49.447 0 00-.852-.425.159.159 0 01.139-.286c.286.14.575.283.858.428a.159.159 0 01-.073.3zm-1.934-.935a.162.162 0 01-.066-.014 47.753 47.753 0 00-.869-.387.159.159 0 11.126-.292c.287.124.582.255.876.39.08.036.115.13.078.21a.16.16 0 01-.145.093zm-1.976-.844a.159.159 0 01-.058-.012 21.694 21.694 0 00-.89-.333.16.16 0 01-.1-.202.16.16 0 01.202-.1c.013.005.333.114.905.34a.16.16 0 01-.059.307zM16.928 41.939a.16.16 0 01-.152-.206c.095-.305.192-.612.29-.911a.159.159 0 01.302.098 68.88 68.88 0 00-.288.906.159.159 0 01-.151.113zm.669-2.039a.159.159 0 01-.15-.21c.103-.299.21-.602.32-.901a.16.16 0 01.299.109c-.109.297-.216.599-.32.895a.159.159 0 01-.15.107zm.739-2.013a.159.159 0 01-.148-.216c.113-.293.23-.592.351-.889a.159.159 0 11.295.12c-.12.295-.238.592-.35.884a.159.159 0 01-.148.101zm.81-1.986a.159.159 0 01-.147-.221c.126-.292.255-.587.385-.875a.159.159 0 11.29.13c-.13.286-.258.58-.383.87a.159.159 0 01-.146.096zm.882-1.954a.16.16 0 01-.143-.227c.135-.286.275-.575.416-.86a.159.159 0 11.285.141c-.14.284-.28.572-.414.856a.159.159 0 01-.144.09zm.956-1.92a.16.16 0 01-.14-.232c.146-.282.298-.566.45-.843a.159.159 0 11.278.152c-.15.276-.3.558-.447.838a.158.158 0 01-.141.086zm1.03-1.88a.159.159 0 01-.138-.238c.16-.278.322-.556.483-.825a.159.159 0 11.272.163c-.16.268-.321.544-.48.82a.158.158 0 01-.137.08zm1.103-1.839a.159.159 0 01-.134-.243c.169-.269.342-.54.516-.805a.159.159 0 01.266.174 53.76 53.76 0 00-.513.8.159.159 0 01-.135.074zm1.177-1.792a.159.159 0 01-.13-.249c.18-.263.365-.527.548-.783a.159.159 0 11.259.185c-.183.255-.366.517-.545.778a.16.16 0 01-.131.069zm1.25-1.743a.159.159 0 01-.127-.254c.19-.254.384-.51.58-.76a.159.159 0 11.25.195c-.194.25-.388.503-.576.755a.16.16 0 01-.127.064zm1.32-1.69a.16.16 0 01-.123-.26c.201-.247.407-.494.611-.735a.159.159 0 11.242.205c-.202.24-.407.485-.607.73a.157.157 0 01-.123.06zm1.39-1.634a.159.159 0 01-.119-.264c.21-.237.426-.476.641-.71a.16.16 0 01.234.216c-.213.232-.428.469-.637.705a.16.16 0 01-.12.053zm1.456-1.574a.159.159 0 01-.114-.27c.22-.228.446-.457.67-.681a.159.159 0 01.225.224c-.223.223-.447.451-.666.678a.158.158 0 01-.114.049zm1.521-1.512a.159.159 0 01-.11-.274c.23-.22.466-.439.7-.653a.159.159 0 11.214.234c-.232.213-.466.431-.694.649a.159.159 0 01-.11.044zm1.584-1.448a.159.159 0 01-.105-.278c.238-.209.482-.419.725-.624a.159.159 0 11.205.243c-.242.204-.484.412-.72.62a.158.158 0 01-.105.04zm1.642-1.38a.159.159 0 01-.1-.283c.245-.198.497-.398.75-.594a.159.159 0 11.195.251c-.251.195-.502.394-.746.59a.156.156 0 01-.1.035zm1.697-1.313a.159.159 0 01-.095-.286c.254-.188.514-.377.774-.562a.159.159 0 11.184.258c-.258.184-.516.372-.769.559a.158.158 0 01-.094.031zm1.75-1.242a.16.16 0 01-.09-.29c.265-.18.533-.359.796-.531a.159.159 0 01.174.266 53.02 53.02 0 00-.791.528.158.158 0 01-.09.027zm1.798-1.17a.16.16 0 01-.084-.294c.27-.168.545-.336.817-.498a.159.159 0 11.163.272c-.27.162-.544.329-.812.496a.161.161 0 01-.084.024zm1.844-1.098a.159.159 0 01-.079-.297c.277-.157.558-.314.837-.466a.159.159 0 01.152.28 57.6 57.6 0 00-.831.462.157.157 0 01-.079.02zm1.887-1.024a.159.159 0 01-.074-.3c.283-.146.57-.291.854-.432a.159.159 0 11.141.285c-.282.14-.568.284-.848.43a.157.157 0 01-.073.017zm1.925-.948a.16.16 0 01-.068-.303c.287-.135.58-.269.87-.399a.159.159 0 01.13.29c-.289.13-.58.263-.865.397a.158.158 0 01-.067.015zm1.962-.873a.16.16 0 01-.061-.305c.294-.124.592-.246.885-.363a.159.159 0 01.118.295c-.292.116-.588.238-.88.36a.158.158 0 01-.062.013zm1.996-.793a.159.159 0 01-.056-.308c.302-.112.605-.223.9-.327a.159.159 0 11.106.3 54.07 54.07 0 00-.895.325.15.15 0 01-.055.01zm2.027-.71a.159.159 0 01-.049-.31c.306-.1.614-.198.914-.29a.159.159 0 11.093.304 45.9 45.9 0 00-.908.287.15.15 0 01-.05.009zm2.058-.622a.16.16 0 01-.042-.312c.313-.087.626-.17.928-.246a.16.16 0 01.078.309c-.3.075-.61.157-.922.243a.178.178 0 01-.042.006zm2.09-.518a.159.159 0 01-.033-.314c.608-.131.94-.183.954-.186a.159.159 0 11.049.314c-.004.001-.339.053-.936.182a.181.181 0 01-.034.004z" fill="#AA9A8E"/><path d="M171.022 7.14c-7.243-6.832-19.583-7.928-25.914-.026-3.199 3.993-3.393 9.733-2.286 12.878 3.445 9.784 20.001 25.014 32.142 14.008 7.854-7.118 4.044-19.328-3.942-26.86z" fill="#CABCB0" opacity=".4"/><path d="M178.315 35.656a.162.162 0 01-.104-.038.16.16 0 01-.017-.224c.198-.233.391-.471.573-.71a.16.16 0 01.253.192 17.12 17.12 0 01-.584.724.162.162 0 01-.121.056zm1.264-1.692a.159.159 0 01-.133-.246c.171-.263.336-.534.49-.806a.159.159 0 11.276.157c-.157.277-.325.554-.5.823a.157.157 0 01-.133.072zm1.042-1.873a.16.16 0 01-.144-.226c.132-.283.258-.575.373-.867a.159.159 0 11.295.117c-.117.298-.245.596-.38.885a.159.159 0 01-.144.091zm.77-2a.159.159 0 01-.152-.206c.091-.298.175-.604.249-.91a.16.16 0 01.192-.116.16.16 0 01.117.191c-.075.311-.161.624-.254.928a.159.159 0 01-.152.113zm.489-2.086c-.009 0-.017 0-.026-.002a.159.159 0 01-.131-.183c.051-.307.094-.622.128-.935a.158.158 0 01.175-.14.157.157 0 01.141.175 17.3 17.3 0 01-.131.952.158.158 0 01-.156.133zm.218-2.132h-.007a.158.158 0 01-.152-.165c.011-.26.016-.526.016-.789l-.001-.157a.16.16 0 01.158-.16h.001a.16.16 0 01.159.158l.001.16c0 .267-.006.536-.017.8a.158.158 0 01-.158.153zm-.029-2.143a.158.158 0 01-.158-.149c-.021-.31-.05-.627-.084-.943a.159.159 0 11.315-.035c.036.32.065.643.086.957a.16.16 0 01-.148.17h-.011zm-.248-2.131a.158.158 0 01-.156-.133 27.076 27.076 0 00-.171-.933.158.158 0 11.311-.063c.064.315.122.633.173.944a.159.159 0 01-.157.185zm-.436-2.101a.16.16 0 01-.154-.12 29.323 29.323 0 00-.246-.917.16.16 0 01.306-.088c.088.308.172.62.249.927a.16.16 0 01-.155.198zm-.598-2.061a.16.16 0 01-.151-.11 32.458 32.458 0 00-.31-.897.158.158 0 01.095-.204.158.158 0 01.203.096c.11.302.216.607.314.906a.158.158 0 01-.151.209zm-.739-2.016a.158.158 0 01-.147-.1 35.3 35.3 0 00-.368-.876.159.159 0 01.292-.127c.127.293.252.59.371.884a.16.16 0 01-.148.22zm-.863-1.966a.158.158 0 01-.143-.09 41.888 41.888 0 00-.419-.854.16.16 0 01.07-.214.16.16 0 01.214.07c.143.283.285.573.422.86a.158.158 0 01-.076.212.154.154 0 01-.068.016zm-.976-1.913a.16.16 0 01-.14-.083c-.153-.28-.31-.558-.467-.828a.16.16 0 01.057-.217.16.16 0 01.218.057c.158.272.317.553.471.835a.159.159 0 01-.064.216.145.145 0 01-.075.02zm-1.088-1.853a.16.16 0 01-.135-.074c-.319-.505-.521-.789-.523-.792a.16.16 0 01.259-.184c.008.011.208.292.533.806a.159.159 0 01-.134.244z" fill="#AA9A8E"/><path d="M170.287 87.82c5.253-6.808 4.242-16.601-2.387-22.078-2.344-1.937-6.794-.922-9.402.298-8.115 3.796-20.568 18.601-10.775 28.82 7.917 8.259 16.772.465 22.564-7.04z" fill="#CABCB0" opacity=".4"/><path d="M13.197 53.42c-.07 0-.14-.002-.21-.006a.159.159 0 11.02-.317c.305.019.608-.007.9-.077a.16.16 0 01.073.31 3.42 3.42 0 01-.783.09zm-1.349-.296a.158.158 0 01-.066-.015 3.361 3.361 0 01-.833-.548.159.159 0 11.212-.237c.226.203.48.37.754.497a.159.159 0 01-.067.303zm3.177-.275a.158.158 0 01-.09-.29c.248-.172.47-.38.657-.618a.159.159 0 11.25.198 3.383 3.383 0 01-.726.682.161.161 0 01-.09.028zm-4.691-1.187a.16.16 0 01-.142-.087 3.354 3.354 0 01-.315-.946.159.159 0 11.313-.054c.052.298.148.586.285.856a.159.159 0 01-.141.23zm5.934-.512a.159.159 0 01-.152-.205 3.05 3.05 0 00.022-1.709.159.159 0 11.307-.084 3.372 3.372 0 01-.025 1.885.16.16 0 01-.152.113zm-6.218-1.574a.159.159 0 01-.156-.19c.066-.328.18-.644.34-.938a.159.159 0 11.28.152 3.017 3.017 0 00-.308.848.159.159 0 01-.156.128zm5.72-1.287a.158.158 0 01-.128-.064A3.067 3.067 0 0015 47.59a.159.159 0 11.188-.257c.27.198.508.434.708.702a.159.159 0 01-.127.254zm-4.65-.526a.159.159 0 01-.103-.28c.255-.217.54-.394.846-.527a.159.159 0 01.127.292 3.05 3.05 0 00-.767.477.157.157 0 01-.103.038zm2.906-.655a.172.172 0 01-.041-.005 2.961 2.961 0 00-.897-.1.159.159 0 11-.011-.317c.04-.003.08-.002.12-.003.295 0 .587.038.87.113a.16.16 0 01-.04.312zm159.222-40.37c-.069 0-.14-.002-.21-.007a.16.16 0 11.02-.317 3.04 3.04 0 00.899-.077.159.159 0 11.074.31 3.42 3.42 0 01-.783.09zm-1.349-.296a.154.154 0 01-.066-.015 3.377 3.377 0 01-.833-.549.159.159 0 01.212-.236c.226.202.48.37.754.497a.159.159 0 01-.067.303zm3.177-.275a.16.16 0 01-.091-.29c.249-.172.47-.38.658-.618a.159.159 0 11.25.197 3.388 3.388 0 01-.727.683.156.156 0 01-.09.028zm-4.692-1.187a.16.16 0 01-.142-.087 3.362 3.362 0 01-.314-.946.159.159 0 11.313-.055c.052.299.147.587.284.857a.159.159 0 01-.141.23zm5.934-.513a.16.16 0 01-.152-.206 3.052 3.052 0 00.023-1.707.159.159 0 01.307-.085 3.404 3.404 0 01-.026 1.886.16.16 0 01-.152.112zm-6.217-1.573a.117.117 0 01-.032-.004.159.159 0 01-.124-.187 3.37 3.37 0 01.339-.937.159.159 0 11.28.151 3.029 3.029 0 00-.308.849.158.158 0 01-.155.128zm5.719-1.287a.158.158 0 01-.127-.064 3.064 3.064 0 00-.642-.635.159.159 0 11.188-.257c.27.198.508.434.708.702a.159.159 0 01-.127.254zm-4.649-.526a.161.161 0 01-.122-.057.16.16 0 01.019-.224 3.36 3.36 0 01.846-.526.159.159 0 11.126.292c-.277.12-.535.28-.767.477a.155.155 0 01-.102.038zm2.906-.655a.167.167 0 01-.041-.005 3.085 3.085 0 00-.897-.101.161.161 0 01-.165-.153.16.16 0 01.153-.165c.332-.012.67.026.991.111a.159.159 0 01-.041.313z" fill="#AA9A8E"/><path d="M153.845 108.741l1.813 1.518-2.099 3.288-1.813-1.518 2.099-3.288z" fill="#A05232"/><path d="M153.742 124.731l7.643-11.972c-.106-.192-.305-.386-.567-.58-.968-.719-2.797-1.424-3.921-1.914a11.835 11.835 0 01-.362-.162 4.246 4.246 0 01-.441-.229c-.834-.529-1.162.298-1.162.298.419 1.967-2.244 2.206-2.169 3.379 0 0 .028.502.279 1.996.252 1.494-.213 3.47-.514 5.212-.389 2.249.034 3.224.484 3.648.357.334.73.324.73.324z" fill="#1E1D12"/><path d="M153.742 124.73l7.642-11.971c-.105-.192-.305-.386-.566-.58l-7.806 12.227c.356.335.73.324.73.324z" fill="#605E4B"/><path d="M160.601 113.981l.227-.356c-.633.097-1.47.034-2.334-.575-1.151-.81-1.498-2.027-1.6-2.785-.132-.056-.254-.11-.363-.161.069.789.389 2.251 1.767 3.221.825.582 1.639.707 2.303.656z" fill="#605E4B"/><path d="M153.878 115.793a.234.234 0 00-.36-.295l-.664.63a.233.233 0 00-.008.33.235.235 0 00.332.008l.663-.629a.247.247 0 00.037-.044zm-.113-1.074a.234.234 0 00-.36-.295l-.664.63a.234.234 0 00.323.339l.664-.63a.375.375 0 00.037-.044zm.066 2.098a.234.234 0 00-.36-.294l-.664.63a.233.233 0 00-.008.33.236.236 0 00.332.008l.663-.63a.192.192 0 00.037-.044zm-.047 1.014a.233.233 0 00-.028-.287.236.236 0 00-.332-.008l-.664.63a.233.233 0 00-.008.33c.09.094.238.097.332.008l.664-.629a.29.29 0 00.036-.044zm-.128 1.061a.235.235 0 00-.361-.294l-.664.629a.234.234 0 10.324.339l.664-.63a.222.222 0 00.037-.044zm-.235 1.094a.235.235 0 00-.36-.295l-.664.63a.233.233 0 00-.008.33.235.235 0 00.332.009l.664-.63a.3.3 0 00.036-.044z" fill="#fff"/><path d="M154.853 108.376c-1.066 2.328-3.356 4.729-3.356 4.729l-.461-.25a20.956 20.956 0 01-1.375-.822c-1.424-.927-2.671-2.03-4.158-3.825a83.569 83.569 0 01-.999-1.232l-.021-.027a96.34 96.34 0 01-2.97-3.96c-4.75-6.663-8.509-13.452-9.406-15.103l-.203-.379c-.003-.027-.008-.053-.01-.08-.96-7.172 1.189-19.528 2.149-24.472l.081-.414c.214-1.088.352-1.721.352-1.721l1.726.607.413.145 7.245 2.547-.206 1.21-3.276 19.264c1.217 1.196 2.389 2.753 3.463 4.426a42.441 42.441 0 01.642 1.032c.079.129.156.258.234.388a64.491 64.491 0 012.682 5.082c.928 1.959 3.415 6.176 5.261 9.247.41.682.789 1.308 1.113 1.841l.302.496c.48.788.778 1.271.778 1.271z" fill="#5C6BBC"/><path d="M149.684 112.034c.15.098.303.194.458.289l2.806-3.701.259-.341.891-1.176-.302-.496-.873 1.152-.259.341-2.98 3.932zM131.93 87.427l.01.08.204.379a9.016 9.016 0 002.98-1.165.243.243 0 00.071-.336.245.245 0 00-.338-.07 8.671 8.671 0 01-2.927 1.112z" fill="#2F277F"/><path d="M138.474 85.266c.036.035 3.669 3.635 14.157 22.836l.284.52.259-.342-.284-.519c-9.732-17.803-13.464-22.065-14.062-22.692.855-3.149 3.472-19.276 3.584-19.969a.195.195 0 00-.386-.062c-.028.171-2.791 17.194-3.604 20.034-.021.07 0 .144.052.194z" fill="#2F277F"/><path d="M142.242 103.982a88.3 88.3 0 003.274 4.226c.203-2.954.75-12.715-.495-17.27-.147-.542-.321-1.011-.525-1.386l-.061.396-2.193 14.034z" fill="#2F277F"/><path d="M155.797 56.095s.545 5.154-.632 8.023c-1.177 2.87-16.412 1.393-20.294-1.19-1.593-1.058 1.799-10.832 1.799-10.832l19.127 4z" fill="#5C6BBC"/><path d="M134.074 62.956a4.551 4.551 0 001.677-.656c.33-.212.628-.459.894-.728 1.68-1.688 2.174-4.239 2.198-4.364a.196.196 0 00-.385-.071c-.006.03-.521 2.684-2.225 4.29a4.741 4.741 0 01-.696.547 4.154 4.154 0 01-1.382.568c-.026.13-.054.269-.081.414zm9.368 1.44a.192.192 0 00.184.198h.002a.192.192 0 00.204-.179 152.748 152.748 0 01.147-2.528c.153-2.355.349-4.667.496-6.3l.035-.383.088-.945c-.13-.02-.259-.04-.388-.062l-.088.952-.035.383a265.58 265.58 0 00-.494 6.251l-.026.388c-.046.747-.09 1.496-.125 2.225z" fill="#2F277F"/><path d="M142.902 61.91a5.1 5.1 0 00.683.262c.122.037.253.07.387.097a2.8 2.8 0 00.37.048c.237.013.465-.012.656-.103a.795.795 0 00.445-.595c.143-.726.441-3.727.642-5.85l.036-.38.085-.91c-.129-.017-.259-.032-.389-.05l-.086.921-.036.382c-.201 2.117-.499 5.113-.636 5.817-.031.163-.106.267-.236.329-.207.098-.518.078-.826.01a4.576 4.576 0 01-.922-.314.199.199 0 00-.262.085.186.186 0 00.089.252z" fill="#2F277F"/><path d="M149.439 115.597l-.386 3.056h-3.911l-.228-3.216 4.525.16z" fill="#A05232"/><path d="M144.5 62.649v52.443l.057.831h5.806c.062-.378.202-.99.387-1.777l.126-.539c.757-3.207 2.053-8.675 2.282-13.428.326-6.789.234-15.585.234-15.585.663-5.045 1.703-15.974 2.221-21.567l.036-.39c.174-1.879.28-3.062.28-3.062-.934-.388-2.63-.121-4.434.389-.13.036-.261.074-.392.113-3.206.957-6.603 2.572-6.603 2.572z" fill="#5C6BBC"/><path d="M144.523 113.607v.539h6.25l.126-.539h-6.376zm-.003-27.835v.5c.68.172 1.457.228 2.185.228 1.345 0 2.522-.191 2.604-.204a.243.243 0 10-.081-.48c-.03.006-2.872.467-4.708-.044z" fill="#2F277F"/><path d="M149.785 114.147h.398l.102-.539c.513-2.717 1.452-7.795 1.939-11.092.682-4.601.362-17.362.349-17.86.517-4.388 1.568-19.42 1.579-19.572a.194.194 0 00-.182-.208.195.195 0 00-.208.181c-.011.152-1.063 15.206-1.579 19.567l-.001.029c.004.13.341 13.17-.344 17.807-.491 3.32-1.442 8.452-1.952 11.147-.035.193-.07.374-.101.54z" fill="#2F277F"/><path d="M143.642 123.861l.001.102c.004.156.01.297.017.417.016.264.035.427.035.427h8.812s.043-.34.01-.844c-.058-.897-.357-2.314-1.574-3.25-1.666-1.283-1.022-1.015-1.364-1.6-.039-.065-.339-1.059-.37-1.128-.287-.607-.551-.894-2.129-.894-2.094 0-2.279 1.012-2.502 1.545-.092.222-.219.686-.348 1.239a38.326 38.326 0 00-.49 2.441 9.173 9.173 0 00-.098 1.545z" fill="#1E1D12"/><path d="M143.625 123.86l.002.103c.003.156.01.296.016.416.43-.3.736-.696.916-1.182.545-1.479-.294-3.255-.329-3.33l-.017.008c-.053.222-.106.459-.158.7.199.604.428 1.62.11 2.479a2.024 2.024 0 01-.54.806z" fill="#605E4B"/><path d="M143.684 123.963c.011.5.052.844.052.844h8.811s.044-.34.01-.844h-8.873z" fill="#605E4B"/><path d="M146.798 119.828a.272.272 0 00.063-.008 4.357 4.357 0 012.043-.042.25.25 0 10.134-.483c-.042-.012-1.053-.283-2.303.04a.25.25 0 00.063.493zm-.176-.946a.227.227 0 00.063-.008c1.121-.289 2.034-.044 2.043-.042a.25.25 0 10.134-.482c-.042-.012-1.053-.283-2.303.04a.25.25 0 00.063.492zm.54 1.739c.02 0 .042-.002.063-.008 1.113-.287 2.034-.044 2.043-.042a.25.25 0 00.308-.175.249.249 0 00-.175-.307c-.042-.012-1.053-.283-2.302.039a.252.252 0 00-.181.306c.03.112.132.187.244.187zm.448.902a.24.24 0 00.064-.009c1.113-.287 2.033-.044 2.043-.042a.25.25 0 10.133-.482c-.042-.012-1.053-.283-2.302.04a.25.25 0 00.062.493z" fill="#fff"/><path d="M150.023 57.207a10.2 10.2 0 001.08 2.87c.468.823 1.121 1.65 2.012 2.221a4.59 4.59 0 002.499.728l.036-.39a4.215 4.215 0 01-2.323-.665c-.796-.51-1.392-1.255-1.831-2.008a9.98 9.98 0 01-1.088-2.827.196.196 0 00-.385.071z" fill="#2F277F"/><path d="M152.278 64.94a2.23 2.23 0 01-.276.017c-.624.001-1.172-.254-1.629-.756-2.475-2.721-1.596-12.162-1.558-12.562a.258.258 0 11.513.05c-.009.095-.895 9.612 1.427 12.165.36.396.768.588 1.246.588 1.471-.002 3.745-1.91 3.96-6a.258.258 0 11.515.026c-.135 2.56-1.002 4.1-1.707 4.941-.718.859-1.649 1.425-2.491 1.53z" fill="#fff"/><path d="M159.835 31.78l-.208 1.955-.086.81-.762 7.14-.891 8.36-.032.297-.738 6.176-22.528 1.242c.852-4.774 1.288-6.767 1.585-8.743a35.246 35.246 0 00.346-3.234c.028-.5.042-.992.04-1.472a17.722 17.722 0 00-.023-.87 13.503 13.503 0 00-.248-2.034s-.146-.127-.368-.357c-.172-1.34-.261-3.128-.087-5.694.141-2.088-.577-8.058.604-10.923a4.38 4.38 0 01.258-.523c.213-.35.476-.665.776-.954.26-.25.549-.482.857-.696.29-.203.596-.391.912-.571.605-.346 1.247-.657 1.872-.963l.513-.255c.139-.07.278-.14.414-.212.205-.106.405-.215.598-.325a7.394 7.394 0 001.232-.856l.029-.026 6.182-.6s.2.086.521.232c.23.104.521.24.846.393.327.157.707.329 1.124.501 1.072.444 2.395.895 3.736 1.111 3.495.565 4.085 4.24 3.526 11.092z" fill="#fff"/><path d="M144.755 26.776a3.84 3.84 0 01-.458-.118c-2.883-.924-1.958-6.678-1.917-6.922a.202.202 0 01.232-.166l.005.001c.107.02.179.123.161.231-.009.057-.91 5.654 1.643 6.472.863.277 1.587.19 2.211-.263 2.206-1.605 2.247-7.21 2.247-7.266a.202.202 0 11.403.002c0 .238-.043 5.866-2.413 7.59-.61.444-1.32.591-2.114.439z" fill="#C27B38"/><path d="M140.552 27.723c-.228.118-2.488 1.117-4.381 1.956l-.342.151c-1.164.516-2.122.941-2.268 1.013-1.007.49-2.03.955-3.079 1.394a45.51 45.51 0 01-1.603.637 30.48 30.48 0 01-1.686.582c-.292.093-.593.18-.908.262-.316.082-.644.16-1.012.228a8.453 8.453 0 01-.594.09 6.662 6.662 0 01-.741.048h-.016a5.75 5.75 0 01-.477-.022 4.191 4.191 0 01-.675-.117l-.1-.029-.113-.034-.111-.039a4.04 4.04 0 01-.126-.047c-.042-.018-.08-.033-.124-.053l-.138-.066a3.358 3.358 0 01-.285-.162l-.073-.047-.077-.055a3.296 3.296 0 01-.309-.248l-.075-.07-.038-.037-.038-.04a3.22 3.22 0 01-.582-.834l-.028-.058-.018-.04a1.064 1.064 0 01-.03-.071l-.021-.052-.019-.048-.035-.097a3.13 3.13 0 01-.055-.168c-.015-.05-.028-.1-.041-.149a5.053 5.053 0 01-.137-.84 5.406 5.406 0 01-.02-.315 11.01 11.01 0 01.008-1.054 25.902 25.902 0 01.169-1.809 54.847 54.847 0 01.398-2.534l.157-.825a74.054 74.054 0 011.125-4.872l.22-.803.115-.4c.039-.136.078-.266.12-.406a1.958 1.958 0 013.832.647l-.002.036c-.006.128-.012.266-.02.4l-.023.405-.049.81-.105 1.618c-.072 1.076-.146 2.149-.211 3.213l-.047.796-.044.791c-.021.459-.043.913-.055 1.36.317-.119.64-.248.966-.378.236-.094.472-.194.711-.293.238-.098.476-.2.715-.302.958-.411 1.923-.842 2.891-1.275l.533-.24.921-.413.657-.295 6.399-3.117.994 6.317z" fill="#1E1D12"/><path d="M135.971 25.511c-.045.531-.097 2.276-.129 4.327l-.342.151c.032-2.13.085-3.96.132-4.507a.17.17 0 01.339.03z" fill="#6A6440"/><path d="M126.244 17.414s-1.693 1.441-3.18.696c-1.2-.602-1.328-2.353-1.334-3.005-.001-.155.005-.248.005-.248s-.081-.055-.19-.15c-.257-.224-.673-.668-.583-1.14.128-.673 1.328-.19 1.328-.19s-.117-.836.268-1.046c.378-.206 1.077.276 1.077.276s-1.304-3.468-.739-3.664c.85-.295 2.01 3.393 2.036 3.477-.001-.09-.068-3.91.566-3.66.553.217.806 3.427.865 4.3l.014.217s.045.002.122.011c.364.042 1.429.23 1.562.994.161.923-1.817 3.132-1.817 3.132z" fill="#A05232"/><path d="M124.617 14.619a.33.33 0 01-.252.21c-.334.075-.768-.147-1.093-.362.106.303.146.627.063.85a.401.401 0 01-.291.266.755.755 0 01-.343-.024c-.326-.083-.723-.3-.981-.454-.001-.155.005-.248.005-.248s-.081-.055-.19-.15c.024 0 .047.008.068.022.397.264 1.126.663 1.385.604.034-.008.077-.027.107-.106.092-.244-.05-.79-.291-1.123a.128.128 0 01.188-.172c.238.21.938.733 1.316.647.055-.013.064-.037.069-.05.065-.175-.217-.682-.429-.97a.13.13 0 01.027-.18.13.13 0 01.18.028c.101.138.599.843.462 1.212zm2.418.526a4.218 4.218 0 01-1.008-.113c-.263-.067-.518-.175-.681-.345a.64.64 0 01-.184-.5c.043-.68.769-.998 1.199-1.128l.014.218s.045.002.122.01c-.361.102-1.045.366-1.079.916a.385.385 0 00.113.307c.315.328 1.189.385 1.499.379a.127.127 0 01.13.126.127.127 0 01-.125.13zm-2.942 2.206a.128.128 0 01-.004-.247c.368-.104.627-.308.77-.607.369-.764-.102-1.909-.107-1.92a.128.128 0 11.237-.099c.021.051.52 1.263.102 2.13-.177.368-.491.618-.932.743a.132.132 0 01-.066 0z" fill="#45110C"/><path d="M123.926 34.084a5.646 5.646 0 01-.476-.022 4.16 4.16 0 01-.675-.117l-.101-.029-.113-.034-.111-.038-.125-.048a8.15 8.15 0 01-.125-.054 3.395 3.395 0 01-.422-.227l-.073-.047-.078-.054a2.98 2.98 0 01-.308-.248l-.076-.07-.037-.037-.038-.04a3.182 3.182 0 01-.583-.833l-.028-.06-.018-.04c.503-.062 1.203.023 1.915.428.742.422 1.278.88 1.472 1.57zm1.826-6.311a.12.12 0 01.228-.001c.015.043.363 1.072.17 2.043a.12.12 0 01-.236-.047c.18-.907-.158-1.909-.162-1.919a.126.126 0 010-.076z" fill="#6A6440"/><path d="M125.815 27.928a.127.127 0 01.018-.035.12.12 0 01.169-.023c.413.316.694.894.706.918a.12.12 0 11-.216.105c-.003-.006-.269-.55-.636-.832a.12.12 0 01-.041-.133z" fill="#6A6440"/><path d="M143.982 24.762s-1.578 6.608-1.654 13.524c-.051 4.752-1.388 12.044-2.219 16.14a1.304 1.304 0 01-.018.09l-.05.253c-.06.31-.114.61-.162.894-.214 1.274-.302 2.214-.302 2.214-2.879.44-5.638.234-6.233-.048 0 0 .184-.846.457-2.145.068-.32.139-.668.216-1.037l.071-.338a481.567 481.567 0 00.807-4.002 174.326 174.326 0 00.685-3.647c.384-2.17.473-1.71.384-2.17-.07-.368.026-2.983-.032-3.44-.171-1.341-.261-3.13-.088-5.694.143-2.087-.576-8.058.604-10.923a4.2 4.2 0 01.254-.513c.002-.004.002-.007.006-.01 1.461-2.534 5.375-3.926 5.375-3.926a4.465 4.465 0 00-.031.274c-.159 1.67.436 2.861 1.006 3.598.032.043.065.084.097.124.435.526.827.782.827.782z" fill="#1E1D12"/><path d="M137.696 47.13c-.812 2.577-2.162 4.159-3.16 5.037a2.775 2.775 0 01.37-1.86c1.424-1.756 1.79-3.717 1.79-3.717l1 .54zm2.416 7.296l-.018.09-.05.254c-2.088.06-4.523-.04-6.024-.122l.07-.339c1.518.082 3.954.181 6.022.117zm-.221 1.238c-.214 1.273-.302 2.214-.302 2.214-2.88.438-5.639.234-6.234-.048 0 0 .184-.846.457-2.145 1.605.108 4.264.223 6.079-.021z" fill="#6A6440"/><path d="M138.832 54.586l.249-.014c1.358-4.984 2.572-15.042 2.613-18.6.043-3.803 1.308-11.045 1.477-11.993l.018-.102-.117-.021-.116-.02c-.015.08-1.454 8.06-1.499 12.133-.04 3.568-1.263 13.69-2.625 18.617zm-2.688-23.226l-.003.765 4.743.02.003-.765-4.743-.02z" fill="#6A6440"/><path d="M159.884 31.712c.002.125-.002.519-.009.886-.003.186-.006.363-.004.496l-.003.177a53.408 53.408 0 01-.136 4.667c-.299 3.893-.181 10.37-.463 11.996-.151.876-.464 3.305-.722 5.363-.016.116-.032.227-.043.339-.035.254-.066.503-.093.74-.155 1.27-.272 2.205-.272 2.205l-15.448-.874s.138-.884.351-2.308c.039-.262.085-.548.126-.847a8.76 8.76 0 00.052-.344c.823-5.537 2.3-15.99 2.144-18.819-.215-3.896.857-10.057.857-10.057l1.343-1.716.157-.199 3.568-4.56s3.107 1.37 4.396 1.559c1.289.185 3.118.72 3.718 1.98.45.94.367 4.123.481 9.316z" fill="#1E1D12"/><path d="M156.84 55.246a.17.17 0 01-.173-.219c1.612-5.397 1.035-21.204 1.029-21.363a.17.17 0 01.161-.176h.002a.171.171 0 01.177.163c.006.16.585 16.022-1.043 21.474a.17.17 0 01-.153.121z" fill="#6A6440"/><path d="M158.554 55.298l-.042.34c-7.307-1.002-13.298-1.09-15.332-1.086l.051-.342c2.094-.001 8.062.093 15.323 1.088zm-.141 1.076c-.157 1.27-.27 2.209-.27 2.209l-15.452-.877s.139-.884.354-2.307c4.189-.02 11.771.52 15.368.975z" fill="#6A6440"/><path d="M144.328 54.283l.245-.013c1.286-5.242 2.029-14.414 2.02-18.938-.011-5.193 1.237-11.827 1.249-11.894l-.116-.022-.117-.021-.041.222c-.216 1.202-1.222 7.038-1.213 11.716.01 4.536-.737 13.757-2.027 18.95zm3.652-22.862l-.003.764 4.743.02.003-.764-4.743-.02z" fill="#6A6440"/><path d="M169.135 37.771a4.805 4.805 0 00-.431-1.168l-.112-.21-.476-.882-.477-.858c-.16-.285-.321-.561-.483-.843a48.15 48.15 0 00-.486-.836l-.49-.827a147.795 147.795 0 00-2.004-3.256l-1.025-1.604-1.043-1.59a188.75 188.75 0 00-1.063-1.576l-.54-.783c-.184-.26-.363-.518-.553-.781a3.915 3.915 0 00-5.316-.973 3.907 3.907 0 00-1.112 5.413l.006.008c.167.254.345.514.517.772l.527.773 1.063 1.541 1.07 1.535 1.077 1.53 2.146 3.044 1.06 1.514c.173.25.352.503.521.753l.474.69c-.14.17-.303.35-.478.532a19.19 19.19 0 01-1.171 1.11 42.586 42.586 0 01-2.744 2.174c-.48.357-.973.702-1.466 1.05a73.75 73.75 0 01-.744.513l-.727.495-.084.056a2.519 2.519 0 002.373 4.413l.246-.101.233-.097.458-.196a51.546 51.546 0 002.687-1.272 44.117 44.117 0 001.765-.955 31.297 31.297 0 001.753-1.075c.583-.386 1.17-.794 1.756-1.269.293-.237.587-.488.884-.767.297-.28.597-.583.9-.939a8.078 8.078 0 00.911-1.3 6.086 6.086 0 00.507-1.208c.028-.1.056-.195.079-.302a5.148 5.148 0 00.126-1.433 4.722 4.722 0 00-.114-.815z" fill="#1E1D12"/><path d="M158.001 49.063a.171.171 0 01-.18-.158c-.181-2.618-2.289-4.292-2.31-4.309a.17.17 0 11.209-.268c.092.072 2.249 1.786 2.441 4.553a.17.17 0 01-.158.182h-.002z" fill="#6A6440"/><path d="M154.539 46.535a.17.17 0 01-.15-.074.17.17 0 01.045-.237c.009-.006.961-.65 1.911-1.117a.169.169 0 01.227.077.17.17 0 01-.077.228 18.25 18.25 0 00-1.87 1.094.171.171 0 01-.086.03zm2.502 1.413a.315.315 0 11-.631.036.315.315 0 01.631-.036zm12.212-9.363a5.147 5.147 0 01-.126 1.433c-.023.107-.051.202-.079.302a6.073 6.073 0 01-.72 1.566c-.398-1.147-.882-3.358.632-4.714a4.976 4.976 0 01.293 1.413zm-7.093.69a.162.162 0 01-.15-.082.162.162 0 01.06-.222c.048-.027 1.192-.675 2.149-.594a.163.163 0 01-.028.325c-.855-.073-1.948.545-1.959.552a.165.165 0 01-.072.021z" fill="#6A6440"/><path d="M162.645 39.038h-.026a.162.162 0 01-.145-.179c.033-.318.464-.75.549-.832a.163.163 0 01.227.234c-.179.172-.437.483-.453.632a.162.162 0 01-.152.145zm-3.227-3.03a.163.163 0 01-.142-.069l-5.336-7.521a.163.163 0 01.266-.188l5.336 7.521a.163.163 0 01-.124.257z" fill="#6A6440"/><path d="M155.56 30.57h-.021l-1.4-.1a.162.162 0 01-.15-.174.162.162 0 01.174-.151l1.399.1a.163.163 0 01-.002.326z" fill="#6A6440"/><path d="M154.077 45.904l2.457 4.03c-.632 1.306-1.841 2.025-3.233 2.555 0 0-2.806-2.572-2.844-4.51l.831-.551-.867-.095-.057-1.003c-.028-.068 2.587-.738 3.713-.426z" fill="#A05232"/><path d="M150.645 45.993s-.093 4.113 3.041 6.478l-1.011.58s-2.66-2.067-3.12-6.735l1.09-.323z" fill="#6A6440"/><path d="M140.281 12.351s-.811-.948-1.177-1.809c-.366-.86.466-1.136.466-1.136s-1.048-.77-1.2-1.324c-.152-.554.819-.654.819-.654s-1.491-1.664-.806-2.778c.806-1.308 2.311.01 2.311.01s-1.047-1.648-.063-2.22c.985-.571 1.758.822 1.758.822s.832-1.848 1.88-1.655c1.048.192 1.233 1.643 1.233 1.643s1-1.606 2.176-1.138c1.299.515.886 1.944.886 1.944s2.263-.823 2.536.03c.272.853-1.191 1.65-1.191 1.65s1.957-.2 2.005.688c.048.888-1.534 1.701-1.534 1.701s-.438 2.163-1.266 2.922c-.828.76-8.833 1.304-8.833 1.304z" fill="#1E1D12"/><path d="M149.364 17.957c-.208.991-1.694 2.19-2.525 2.467-1.292.43-2.624.307-3.676-.24l-.174-1.956-.035-.4-.067-.757 4.492-3.52.259-.202.175-.137.077.166.088.191-.018.085c.506 1.871.587 2.994 1.404 4.303z" fill="#A05232"/><path d="M143.106 19.566c1.869-.618 2.807-2.167 3.174-3.133-.875.839-1.961 1.429-2.99 1.417a2.78 2.78 0 01-.321-.022l.137 1.738z" fill="#1E1D12"/><path d="M140.248 11.54s-.574.102-.62.85c-.046.75.435 1.95 1.17 1.732.734-.218-.55-2.582-.55-2.582z" fill="#45110C"/><path d="M148.094 13.826h-.001l-.027.006a3.38 3.38 0 01-.042.194l-.021.086c-.031.117-.07.236-.114.356-.689 1.85-2.875 3.809-4.787 3.716a3.051 3.051 0 01-.325-.034c-1.856-.3-2.469-2.346-2.372-3.931a3.44 3.44 0 01.014-.178l-.034-.294a39.56 39.56 0 00-.558-3.402c-.389-1.82.645-4.614 4.344-5.514 2.948-.718 4.554.824 5.093 2.462.138.417.206.84.209 1.234.006.485-.079 1.05-.208 1.626.356.001.748.17.993.78.453 1.13-.843 2.67-2.164 2.893z" fill="#A05232"/><path d="M149.253 10.153c-.669.463-1.095.548-1.095.548l-.742.98-.875-.501s.343-1.13-.246-1.466c-.589-.335-.341-1.071-.341-1.071s2.367-1.386 3.299-1.35c.137.417.205.84.209 1.234.005.486-.079 1.05-.209 1.626z" fill="#45110C" opacity=".5"/><path d="M139.707 8.218s2.52-1.926 4.073-1.356c1.554.57 2.169 1.78 2.169 1.78s2.978-.199 3.61-.971c.631-.773-.47-3.084-2.717-3.52-2.247-.434-5.506.455-7.135 4.067zm1.492 3.857c.049.26.197.45.332.425.135-.025.206-.257.157-.517-.049-.26-.197-.45-.332-.425-.135.025-.206.257-.157.517z" fill="#1E1D12"/><path d="M141.784 11.747a.07.07 0 00.003-.125c-.028-.015-.701-.374-1.216.076a.07.07 0 00-.007.098.07.07 0 00.099.007c.442-.386 1.051-.062 1.057-.058a.07.07 0 00.064.002z" fill="#1E1D12"/><path d="M143.872 12.959c.024.174.477.256 1.012.183.535-.072.95-.272.926-.447-.024-.174-.477-.256-1.012-.184-.535.073-.95.273-.926.448zm-3.518.788c.367-.094.617-.246.599-.383-.019-.136-.299-.216-.676-.21.033.241.058.444.077.593z" fill="#45110C" opacity=".5"/><path d="M147.079 13.733a.997.997 0 00.32.254c.206.104.424.128.584.126l.021-.085c.016-.066.03-.131.041-.196l.028-.005a1.26 1.26 0 01-.404-.036.75.75 0 01-.374-.237.139.139 0 00-.197-.018.14.14 0 00-.019.197z" fill="#45110C"/><path d="M142.753 18.15c.104.017.212.028.324.034 1.913.093 4.099-1.865 4.787-3.716-.057-.22-.19-.417-.47-.481l.009-2.306-.875-.501s-.506 2.109-1.214 2.275c-.707.167-2.363.066-3.026.54 0 0-1.203-.3-1.907.225-.097 1.584.516 3.63 2.372 3.93z" fill="#1E1D12"/><path d="M143.688 13.973s.118 1.237-.903 1.455c-1.022.218-1.285-.777-1.285-.777l2.188-.678z" fill="#fff"/><path d="M143.044 15.86a.556.556 0 00.286-.238.094.094 0 00-.166-.089.379.379 0 01-.39.17.093.093 0 00-.105.08.093.093 0 00.081.105.606.606 0 00.294-.028z" fill="#6A6440"/><path d="M148.273 12.847a.14.14 0 00.096-.128c.036-.993 1.123-1.588 1.134-1.594a.141.141 0 00.058-.19.14.14 0 00-.19-.057c-.05.027-1.239.675-1.281 1.83a.14.14 0 00.183.14z" fill="#45110C"/><path d="M149.417 12.123a.14.14 0 00.064-.224.96.96 0 00-.899-.284.141.141 0 00-.111.165.141.141 0 00.165.11.679.679 0 01.631.19.14.14 0 00.15.043zm-7.237 1.563a.14.14 0 00.025-.255l-.817-.459.64-.287a.136.136 0 00.077-.088l.504-1.713a.14.14 0 00-.269-.08l-.485 1.652-.835.374a.14.14 0 00-.082.122.139.139 0 00.071.128l1.058.595a.14.14 0 00.113.011z" fill="#45110C"/><path d="M144.439 10.524a.385.385 0 00.148-.643c-.037-.035-.903-.857-1.93-.368a.385.385 0 00.331.695c.551-.262 1.058.221 1.063.226a.385.385 0 00.388.09zm-3.981.502a.382.382 0 00.24-.229c.117-.305.651-.377.787-.38a.386.386 0 00-.016-.77c-.433.01-1.234.204-1.49.875a.385.385 0 00.479.504zm3.03.651c.049.26.197.45.332.425.135-.025.206-.257.157-.517-.048-.26-.197-.45-.332-.425-.135.025-.206.257-.157.517z" fill="#1E1D12"/><path d="M144.232 11.427a.073.073 0 00.035-.025.071.071 0 00-.016-.098c-.026-.02-.648-.46-1.216-.079a.07.07 0 10.078.116c.488-.327 1.05.072 1.056.076a.07.07 0 00.063.01zm1.98 13.904s-.271-1.858-.17-3.273c.1-1.414.419-2.341.419-2.341s1.949-.867 2.61-2.218c0 0 2.298.613 2.389 1.578 0 0-2.682 5.238-5.248 6.254z" fill="#1E1D12"/><path d="M146.348 25.422a.156.156 0 01-.141-.089.156.156 0 01.073-.208c3.459-1.652 5.02-6.055 5.035-6.1a.157.157 0 01.296.103c-.064.186-1.617 4.57-5.195 6.28a.16.16 0 01-.068.014z" fill="#6A6440"/><path d="M142.994 18.484s-1.199-.094-1.213 1.69c-.026 3.543 2.204 4.587 2.204 4.587l.494-1.821c.292-1.257.31-1.984.327-2.765 0 0-1.785-.235-1.812-1.69z" fill="#1E1D12"/><path d="M143.866 24.852a.16.16 0 01-.086-.026c-2.15-1.417-2.156-4.522-2.155-4.654a.157.157 0 01.157-.155h.001c.086 0 .156.07.155.157 0 .03.007 3.067 2.015 4.39a.156.156 0 01-.087.288z" fill="#6A6440"/><path d="M111.534 29.128c-1.405 1.88-2.891 3.689-4.605 5.416-.431.432-.878.86-1.352 1.276a19.14 19.14 0 01-1.538 1.226c-.279.2-.574.394-.894.584-.321.19-.665.375-1.058.546-.108.046-.22.092-.337.136a6.575 6.575 0 01-1.034.302 5.24 5.24 0 01-.893.104c-.325.01-.686-.01-1.068-.082a4.54 4.54 0 01-1.973-.906l-.033-.026-.122-.1-.206-.167a9.457 9.457 0 01-.201-.167l-.192-.166c-.066-.056-.13-.11-.19-.165-.496-.441-.95-.88-1.384-1.32a53.922 53.922 0 01-2.449-2.666 96.796 96.796 0 01-2.25-2.717 90.02 90.02 0 01-1.08-1.383l-.532-.7-.265-.354-.135-.18-.14-.19-.012-.019a3.867 3.867 0 116.493-4.178l.092.163.1.174.202.35.414.704c.279.47.562.937.847 1.402.57.93 1.15 1.852 1.746 2.75.298.447.596.892.9 1.326.302.433.609.858.916 1.267.309.41.62.801.925 1.156.038.046.076.088.112.131l.003.003c.044-.016.088-.035.134-.054.179-.075.371-.167.566-.271.393-.209.806-.462 1.217-.742.413-.28.829-.581 1.242-.9a39.771 39.771 0 002.442-2.063 54.192 54.192 0 002.351-2.26l.011-.01a2.133 2.133 0 013.23 2.77z" fill="#9E4F2E"/><path d="M101.743 38.312a6.575 6.575 0 01-1.034.302 5.367 5.367 0 01-.893.104c-.326.01-.686-.01-1.068-.083a4.539 4.539 0 01-1.973-.905l-.033-.026a4.738 4.738 0 012.997-.487c.946.158 1.583.613 2.004 1.095zm-1.91-3.119a.175.175 0 01.003-.139c.004-.008.391-.886.297-2.236a.175.175 0 11.35-.024c.1 1.444-.31 2.366-.327 2.405a.175.175 0 01-.323-.006z" fill="#5F2418"/><path d="M98.997 34.347a.175.175 0 01.042-.193c.004-.004.475-.456 1.164-1.161a.175.175 0 11.251.245 52.382 52.382 0 01-1.173 1.17.175.175 0 01-.284-.06z" fill="#5F2418"/><path d="M97.356 92.36l-1.18 16.72-.92 9.719-3.83-.185s-.547-4.508-.988-9.403c-.41-4.559-1.422-14.873-.557-16.047l-1.62-10.41-.239-2.068-.1-.864h8.527a246.19 246.19 0 01.165 1.952c.46 5.586.72 6.563.742 10.587z" fill="#E09082"/><path d="M95.843 92.462a3.66 3.66 0 01-1.597-.367.185.185 0 01.16-.334c1.439.69 2.728.07 2.74.063a.185.185 0 01.166.332 3.528 3.528 0 01-1.47.306z" fill="#AC584F"/><path d="M96.175 109.08l-.09.947-.187 1.977-.644 6.795-3.83-.186s-.354-2.918-.721-6.609a217.342 217.342 0 01-.19-1.977l-.076-.817c1.54-.154 3.861-.314 5.738-.13z" fill="#fff"/><path d="M96.093 110.027l-.059.618h-5.457l-.058-.618h5.574zm-.138 1.359l-.058.618h-5.195l-.061-.618h5.314z" fill="#1E1D12"/><path d="M96.604 81.774l-8.353.98-.24-2.068 8.502-.002.09 1.09z" fill="#AC584F"/><path d="M85.43 79.82l-.005.865-.008 1.063-.182 27.338-.052 7.859-.31 2.038-3.458-.062c-.194-1.178-1.239-5.395-2.096-9.699a91.267 91.267 0 01-.844-4.815c-1.26-8.835-.458-13.653-.458-13.653-.257-1.968-.571-4.914-.885-8.035a926.681 926.681 0 01-.288-2.899h8.586z" fill="#E09082"/><path d="M84.115 92.007a3.46 3.46 0 01-1.613-.408.185.185 0 01.171-.329c1.316.687 2.385.203 2.43.182a.186.186 0 01.159.335c-.031.015-.477.22-1.147.22z" fill="#AC584F"/><path d="M85.244 109.087l-.006.94-.004.618-.005.741-.005.618-.032 4.942-.31 2.038-3.458-.061c-.152-.921-.822-3.696-1.517-6.919l-.133-.618a232.34 232.34 0 01-.446-2.163c1.434-.081 4.24-.136 5.916-.136z" fill="#fff"/><path d="M85.232 110.027l-.004.618h-5.616l-.128-.618h5.748zm-.012 1.359l-.004.618H79.9l-.133-.618h5.455z" fill="#1E1D12"/><path d="M85.429 80.687l-.008 1.062-8.285.972c-.068-.672-.135-1.353-.202-2.033l8.495-.001z" fill="#AC584F"/><path d="M104.809 124.878H90.186c-.108-.198-.168-.478-.192-.812-.091-1.237.303-3.211.496-4.456.024-.145.044-.281.06-.403a4.31 4.31 0 00.043-.509c0-1.015.9-.841.9-.841 1.479 1.45 3.154-.725 4.133-.012 0 0 .421.302 1.582 1.347 1.16 1.044 3.136 1.734 4.816 2.437 2.171.907 2.786 1.813 2.906 2.437.094.494-.121.812-.121.812z" fill="#5C6BBC"/><path d="M104.811 124.879H90.188c-.108-.198-.168-.478-.192-.812h14.936c.094.494-.121.812-.121.812z" fill="#2F277F"/><path d="M91.645 124.878h-.434c.433-.495.839-1.255.786-2.341-.07-1.445-.938-2.419-1.54-2.926.024-.146.044-.281.06-.404.649.496 1.743 1.582 1.828 3.313.05 1.037-.29 1.811-.7 2.358z" fill="#2F277F"/><path d="M96.944 120.054a.241.241 0 01-.058-.474l.914-.227a.24.24 0 11.116.467l-.914.227a.233.233 0 01-.058.007zm-.864-.76a.24.24 0 01-.057-.475l.913-.227a.241.241 0 01.116.468l-.913.227a.231.231 0 01-.058.007zm1.813 1.291a.24.24 0 01-.058-.475l.914-.226a.24.24 0 11.116.467l-.913.227a.239.239 0 01-.059.007zm.891.511a.241.241 0 01-.058-.475l.913-.227a.241.241 0 01.117.468l-.914.227a.232.232 0 01-.058.007zm1.016.472a.24.24 0 01-.058-.475l.913-.226a.241.241 0 01.292.175.241.241 0 01-.176.292l-.913.227a.232.232 0 01-.059.007zm1.058.403a.241.241 0 01-.058-.475l.914-.227a.241.241 0 01.116.468l-.914.227a.287.287 0 01-.058.007z" fill="#fff"/><path d="M74.615 63.635c.038.152.078.301.123.447l.005.017c.061.197.129.387.202.568.655 1.603 5.717 1.838 10.7 1.281 3.866-.432 7.684-1.342 9.36-2.462 1.575-1.05-1.778-10.748-1.778-10.748L74.32 56.706s-.425 4.032.295 6.929z" fill="#5C6BBC"/><path d="M87.741 81.118h9.352c-.328-5.307-.854-11.302-1.503-17.608l-.05-.49c-.056-.544-.114-1.091-.172-1.64l-.047-.439-1.82.839-.446.205-7.149 3.293.073.628 1.762 15.212z" fill="#5C6BBC"/><path d="M97.352 81.304h-9.76l-.123-1.545h9.883v1.545z" fill="#2F277F"/><path d="M88.777 80.336h.468l-1.853-14.145a.232.232 0 10-.46.06l1.845 14.085zm2.266-22.519c.022.12.48 2.49 2.01 4.168.309.34.661.65 1.063.909a4.494 4.494 0 001.472.615l-.051-.49a4.061 4.061 0 01-1.17-.515 4.752 4.752 0 01-.869-.725c-1.527-1.596-1.994-4.019-2-4.047a.232.232 0 00-.455.085zm-3.849 7.125a.19.19 0 01-.183.196h-.001a.19.19 0 01-.202-.177 150.179 150.179 0 00-.145-2.508 262.52 262.52 0 00-.49-6.25l-.035-.38-.087-.938c.128-.02.256-.04.383-.062.025.267.055.585.087.944a262.724 262.724 0 01.522 6.582c.01.129.017.258.026.386.047.74.09 1.483.125 2.207z" fill="#2F277F"/><path d="M87.758 62.477c-.06.029-.331.155-.675.259-.12.036-.25.07-.382.096a3.03 3.03 0 01-.366.048 1.342 1.342 0 01-.649-.102.79.79 0 01-.44-.59c-.14-.721-.435-3.698-.634-5.803l-.036-.379-.084-.903c.128-.015.257-.031.385-.048.024.262.052.572.085.913l.035.378c.2 2.1.493 5.073.63 5.772.03.16.104.264.232.326.205.097.512.077.817.01a4.586 4.586 0 00.911-.311.196.196 0 01.259.084.184.184 0 01-.088.25z" fill="#2F277F"/><path d="M74.694 64.077v.006a151.61 151.61 0 01.044.476c.426 4.58 1.092 11.544 1.652 16.56h9.212V62.875s-2.58-1.231-5.352-2.175a37.288 37.288 0 00-1.31-.416 28.215 28.215 0 00-.453-.129c-1.707-.468-3.293-.7-4.182-.33a1272.455 1272.455 0 00.388 4.251z" fill="#5C6BBC"/><path d="M85.926 81.304h-9.76l-.123-1.545h9.883v1.545z" fill="#2F277F"/><path d="M77.632 80.335c-.517-6.055-1.137-14.958-1.145-15.074a.232.232 0 00-.463.032c.008.116.626 8.98 1.143 15.042h.465z" fill="#2F277F"/><path d="M86.434 123.941l-.001.102a11.099 11.099 0 01-.052.837h-8.71s-.043-.337-.01-.837c.057-.89.353-2.296 1.555-3.225 1.647-1.273 1.011-1.007 1.35-1.588.037-.064.334-1.05.365-1.118.283-.603.544-.888 2.105-.888 2.07 0 2.251 1.004 2.472 1.534.092.219.217.68.345 1.229a37.619 37.619 0 01.484 2.422c.086.535.104 1.086.097 1.532z" fill="#5C6BBC"/><path d="M86.417 123.941l-.001.102c-.004.155-.01.294-.017.413a2.43 2.43 0 01-.905-1.173c-.539-1.468.29-3.23.325-3.304l.017.008c.052.22.104.455.156.695-.196.599-.423 1.607-.109 2.459.115.311.294.578.534.8z" fill="#2F277F"/><path d="M86.433 124.043c-.012.496-.052.837-.052.837h-8.71s-.043-.337-.01-.837h8.772z" fill="#2F277F"/><path d="M83.322 119.939a.223.223 0 01-.063-.008c-1.107-.287-2.01-.044-2.019-.042a.248.248 0 11-.132-.478c.042-.012 1.041-.281 2.276.039a.25.25 0 01-.062.489zm.164-.938a.269.269 0 01-.062-.008c-1.108-.287-2.01-.044-2.02-.042a.248.248 0 11-.132-.478c.042-.012 1.041-.281 2.277.039a.249.249 0 01-.063.489zm-.488 1.726a.223.223 0 01-.063-.008 4.338 4.338 0 00-2.02-.041.249.249 0 01-.132-.479c.043-.012 1.042-.281 2.277.039a.25.25 0 01-.062.489zm-.481.894a.267.267 0 01-.062-.008c-1.1-.285-2.01-.044-2.02-.042a.247.247 0 01-.305-.173.25.25 0 01.173-.306c.042-.011 1.041-.28 2.276.04a.248.248 0 01-.062.489z" fill="#fff"/><path d="M74.715 64.078v.005l.003.017.042.46a3.732 3.732 0 001.926-.174c1.188-.43 2.12-1.402 2.796-2.37.321-.458.584-.916.79-1.315.348-.675.531-1.182.552-1.239a.232.232 0 00-.437-.155c-.005.013-.196.541-.567 1.244-.195.372-.44.793-.736 1.212-.633.903-1.49 1.801-2.558 2.187a3.29 3.29 0 01-1.811.127z" fill="#2F277F"/><path d="M77.908 65.193c3.339-.351 2.65-7.844 2.619-8.162l-.369.035c.007.075.687 7.445-2.289 7.759-.513.053-.965-.091-1.383-.442-1.555-1.305-1.994-4.982-2.076-5.839a.186.186 0 00-.37.035c.083.902.525 4.676 2.207 6.088.493.413 1.052.59 1.66.526z" fill="#fff"/><path d="M94.779 55.856c-1.731 3.609-21.114 2.536-22.158.403-1.044-2.133-.579-9.933-.63-15.088-.051-5.155-2.546-16.528.266-19.125 2.08-1.921 8.026-3.81 8.026-3.81l6.481 1.152s6.373 1.66 7.059 3.598c.461 1.304.384 3.12.161 5.461-.037.385-.078.784-.12 1.196-.174 1.671-.384 3.576-.515 5.716-.36 5.884 1.925 19.464 1.43 20.497z" fill="#9E4F2E"/><path d="M93.408 34.613a.157.157 0 01-.157-.152c-.089-3.075-.338-10.254-.34-10.326a.156.156 0 01.15-.162.159.159 0 01.163.151c.002.072.251 7.253.34 10.328a.156.156 0 01-.151.16h-.005zM78.766 47.409s.684 3.587 0 6.667c0 0 9.3 1.31 13.551-.276 0 0 .487-3.563-.39-6.391-4.611.327-8.39.26-13.161 0zm.374-19.669l.363 4.788s8.198 0 11.318-.652c0 0-.218-3.12-.798-4.426 0 0-4.933.58-10.882.29z" fill="#5F2418"/><path d="M76.742 23.433s-4.82-2.594-2.32-5.944c2.499-3.35 8.794-2.14 11.725.384 2.139 1.842.544 5.272.544 5.272l-9.949.288z" fill="#9E4F2E"/><path d="M84.266 6.257s1.444 1.34 1.543 2.608c.099 1.268-.277 2.316-.277 2.316s-1.287-2.746-1.266-4.924z" fill="#1E1D12"/><path d="M85.44 10.416s.56-.04.781.648c.22.689.056 1.924-.681 1.895-.738-.029-.1-2.543-.1-2.543z" fill="#AC584F"/><path d="M76.291 10.369s-1.431-.898-1.432-1.48c0-1.165.708-.807.708-.807s-.916-1.056-.664-1.683c.53-1.32 1.533-.848 1.533-.848s.554-1.662 2.532-1.635c1.978.026 5.228-2.716 6.082-.817.853 1.898.608 3.93-.494 4.095-1.102.166-8.264 3.175-8.264 3.175z" fill="#1E1D12"/><path d="M85.134 19.63c-.374.688-1.298 1.79-3.391 1.585-2.99-.294-3.512-1.927-3.512-1.927.422-1.744.448-2.637.575-4.629l-.04-.074.029-.204.027-.177.2.08.3.12 5.18 2.06.145.727v.001l.076.383.29 1.452.121.603z" fill="#E09082"/><path d="M85.018 19.027c-2.77.046-4.631-3.195-4.631-3.195 2.082 1.494 4.264 1.36 4.264 1.36l.077.384.29 1.451z" fill="#1E1D12"/><path d="M84.648 17.192a3.31 3.31 0 01-.296.11c-1.878.574-4.598-.948-5.546-2.643a3.32 3.32 0 01-.125-.247l-.027.003c-1.288.104-2.865-1.027-2.71-2.19.085-.628.412-.88.744-.965-.153-.3-.29-.601-.399-.89a5.029 5.029 0 01-.182-.58c-.444-1.815.406-4.675 4.077-4.711 2.513-.025 4.07 1.076 4.822 2.349h.001c.347.586.523 1.207.544 1.77a37.812 37.812 0 00.287 3.313l.038.283c.525 1.463.496 3.65-1.228 4.398z" fill="#E09082"/><path d="M81.768 11.418a.127.127 0 01-.075-.2.772.772 0 01.767-.27c.423.09.577.53.583.549a.127.127 0 01-.24.082c-.001-.003-.116-.323-.397-.383a.518.518 0 00-.51.174.126.126 0 01-.128.049z" fill="#1E1D12"/><path d="M76.043 9.442V9.44l3.762.151c.13.756-.686.824-.686.824l.35 1.16-.7.676-2.078-.992c-.309-.535-.488-1.168-.648-1.817z" fill="#AC584F"/><path d="M85.01 7.427c-.447-.441-.828.05-1.447.432-.619.381-1.588-.316-2.623-.443-.42-.052-.686.081-.853.257-.22.233-.416.529-.461.868l.18 1.05c-1.487.078-2.59.333-3.513.778a5.004 5.004 0 01-.182-.579c-.444-1.815.406-4.675 4.077-4.711 2.514-.026 4.07 1.076 4.823 2.348z" fill="#1E1D12"/><path d="M82.374 12.607c.019.169-.385.353-.902.412-.517.06-.952-.03-.971-.197-.02-.169.384-.353.901-.412.518-.06.952.029.972.197zm3.464-.097c-.365 0-.635-.083-.65-.215-.015-.132.228-.273.582-.357.026.233.05.428.069.572z" fill="#AC584F" opacity=".5"/><path d="M79.559 14.09a.953.953 0 01-.238.313c-.168.147-.366.22-.516.256a2.849 2.849 0 01-.125-.247l-.028.002c.04-.007.088-.017.142-.033.071-.02.15-.05.228-.097a.723.723 0 00.293-.31.134.134 0 01.18-.064.134.134 0 01.064.18z" fill="#AC584F"/><path d="M82.809 13.506s.183 1.184 1.189 1.145c1.006-.039 1.016-1.03 1.016-1.03l-2.205-.115z" fill="#fff"/><path d="M83.843 15.12a.538.538 0 01-.323-.154.09.09 0 01.133-.122c.007.008.16.163.405.065a.09.09 0 01.067.168.59.59 0 01-.282.043zm-5.608-1.572a.136.136 0 01-.12-.097c-.27-.92-1.427-1.217-1.438-1.22a.135.135 0 01.064-.263c.054.014 1.319.337 1.632 1.407a.135.135 0 01-.138.173z" fill="#AC584F"/><path d="M77.013 13.137a.135.135 0 01-.112-.194.927.927 0 01.772-.48.135.135 0 01.015.27c-.391.022-.543.325-.545.328a.134.134 0 01-.13.076zm7.271-.266a.135.135 0 01-.084-.232l.654-.622-.666-.117a.137.137 0 01-.093-.064l-.877-1.48a.135.135 0 01.232-.138l.845 1.427.869.152a.135.135 0 01.07.23l-.848.808a.136.136 0 01-.102.036z" fill="#AC584F"/><path d="M81.037 10.415a.37.37 0 01-.325-.546c.023-.043.575-1.052 1.662-.906a.371.371 0 11-.098.736c-.583-.078-.906.514-.91.52a.371.371 0 01-.329.197zm4.209-.611a.371.371 0 01-.311-.073c-.245-.197-.725.002-.84.066a.371.371 0 01-.361-.648c.364-.203 1.125-.431 1.665.003a.372.372 0 01-.153.652zm-.488 1.322c.016.254-.078.467-.21.476-.132.008-.252-.191-.269-.446-.016-.254.078-.468.21-.476.132-.008.253.191.269.446z" fill="#1E1D12"/><path d="M84.004 10.928a.068.068 0 01-.033-.116c.023-.021.566-.516 1.154-.218a.068.068 0 01-.06.12c-.506-.255-.998.192-1.002.197a.068.068 0 01-.06.017z" fill="#1E1D12"/><path d="M75.025 57.047c-1.156-4.388-1.507-9.03-1.072-14.189.363-4.295-.331-9.882-.75-12.68l-.375.16c.417 2.812 1.087 8.28.732 12.487-.439 5.205-.085 9.89 1.083 14.323a.197.197 0 00.237.141h.004a.198.198 0 00.14-.242zm5.938-15.353c2-.283 4.153-1.165 6.366-2.62 2.586-1.7 4.371-3.607 4.389-3.627a.203.203 0 00-.298-.276c-.017.019-1.775 1.895-4.322 3.569-2.333 1.533-5.828 3.206-9.223 2.47a.203.203 0 10-.086.397c1 .216 2.063.244 3.174.087zm1.002 2.844c2.13-.301 3.826-1.133 4.946-1.844 1.476-.937 2.279-1.851 2.312-1.89a.203.203 0 10-.306-.266c-.032.036-3.208 3.612-8.394 3.709a.203.203 0 10.008.406c.497-.01.976-.05 1.434-.115zm1.751-20.95c1.754-.423 2.885-1.9 2.937-1.967a.202.202 0 10-.324-.245c-.018.024-1.307 1.696-3.169 1.898-1.064.116-2.121-.268-3.142-1.139a.203.203 0 00-.263.309c1.11.947 2.271 1.362 3.453 1.233.174-.02.344-.05.508-.09z" fill="#5F2418"/><path d="M81.094 45.862a.165.165 0 01-.192-.192c2.015-11.06-.528-21.566-.553-21.67a.165.165 0 11.32-.08c.026.106 2.585 10.68.558 21.809a.165.165 0 01-.133.133zm5.968-.497a.165.165 0 01-.191-.192c2.015-11.06-.528-21.566-.554-21.67a.165.165 0 01.32-.08c.026.106 2.586 10.68.558 21.81a.165.165 0 01-.133.132z" fill="#fff"/><path d="M80.978 49.058l-.026-.015c-.601-.367-1.207-.734-1.81-1.096a238.16 238.16 0 01-1.8-1.094 83.545 83.545 0 01-3.461-2.23 32.785 32.785 0 01-1.575-1.149 16.597 16.597 0 01-.705-.575c-.22-.192-.424-.38-.604-.559a5.235 5.235 0 01-.225-.24l.007-.024c.045-.143.086-.28.14-.437.051-.152.1-.302.157-.461.105-.313.22-.635.335-.958l.36-.978c.118-.327.243-.658.367-.988l1.514-3.999a401.61 401.61 0 001.505-4.041c.246-.676.492-1.354.73-2.034.24-.679.476-1.366.698-2.042l.005-.017a3.202 3.202 0 00-5.883-2.484c-.345.66-.67 1.309-.99 1.968a130.658 130.658 0 00-2.7 6.007 114.75 114.75 0 00-1.631 4.114 72.382 72.382 0 00-1.123 3.224c-.032.1-.064.203-.095.308l-.079.268c-.052.171-.104.361-.155.548l-.016.057-.043.156-.042.17-.083.343-.085.407-.02.104-.022.144c-.014.096-.028.193-.04.29l-.016.145a5.86 5.86 0 00-.02.47c0 .076.004.149.008.224a5.782 5.782 0 00.072.643l.018.103.02.095c.03.125.061.257.096.373.035.115.072.229.112.342.039.106.08.207.123.308l.033.077.031.069.066.138c.18.361.37.668.556.931.095.139.187.254.282.378l.03.037.11.133a4.294 4.294 0 00.189.216 11.8 11.8 0 001.046 1.021c.357.31.71.584 1.063.839a23.635 23.635 0 002.09 1.344c.345.201.692.392 1.04.575a42.721 42.721 0 004.184 1.92c.704.28 1.41.544 2.123.789.71.247 1.43.474 2.16.679a2.497 2.497 0 001.98-4.536zm-10.466-7.29c-.011-.023-.033-.05-.037-.062-.02-.035-.013-.043.008-.007l.008.014.004.008.007.013a.456.456 0 01.023.053c-.004-.007-.01-.012-.013-.018z" fill="#9E4F2E"/><path d="M71.886 43.46a168.72 168.72 0 017.25 4.624c.191.129.37-.18.18-.31a169.233 169.233 0 00-7.25-4.624c-.197-.118-.377.19-.18.31zm-6.892 2.616l-.03-.037c-.095-.124-.187-.239-.282-.377a6.818 6.818 0 01-.556-.932l-.066-.138-.031-.069-.033-.076a7.218 7.218 0 01-.123-.308 8.422 8.422 0 01-.112-.342 6.479 6.479 0 01-.095-.374l-.021-.095-.018-.102a5.677 5.677 0 01-.08-.868 8.387 8.387 0 01.02-.47l.017-.145a7.21 7.21 0 01.04-.29l.022-.143.02-.104.084-.407.083-.344.042-.17.043-.155.016-.058c1.138 1.53 2.097 3.694 1.06 6.004z" fill="#5F2418"/><path d="M78.88 50.26c-.331 1.02.278 2.095 1.286 2.46.532.193 1.097.453 1.475.78.906.782 1.76 1.958 2.329 2.224.84.392.533-.56.48-.673-.349-.722-1-1.635-1-1.635s1.55 1.318 1.906 2.035c.357.718 1.061.875 1.111.015.05-.86-1.356-2.668-1.88-3.063 0 0 1.165.566 1.68 1.522.516.956.829 1.229 1.203 1.46.373.233.761-.561.008-1.877-.753-1.316-1.373-1.632-1.997-2.027 0 0 .59.11 1.497.494.907.384 1.414 1.536 2.003 1.505.602-.032-.042-1.333-.717-1.892-.676-.56-1.12-1.023-2.19-1.356-1.07-.333-2.105-.614-2.794-.66-.69-.045-3.117-.528-3.95.015-.215.139-.357.384-.45.673z" fill="#E09082"/><path d="M81.363 49.401s2.027-.58 2.718-.407c.69.173 1.824.066 1.747.54-.077.472-1.475.565-1.475.565l-2.99-.698z" fill="#E09082"/><path d="M76.65 52.585h.014a.197.197 0 00.182-.212c-.197-2.658 2.53-4.078 2.557-4.092a.197.197 0 10-.18-.352c-.03.015-2.986 1.556-2.77 4.474a.197.197 0 00.196.182zm-4.605-1.26a39.236 39.236 0 006.986 2.625c.222.06.317-.285.095-.345a38.77 38.77 0 01-6.901-2.589c-.206-.1-.387.208-.18.309zm-1.431-9.003a.198.198 0 00.053-.387c-.848-.237-2.396-.396-2.462-.402a.197.197 0 10-.04.392c.016.002 1.58.162 2.396.39a.193.193 0 00.053.007z" fill="#5F2418"/><path d="M70.046 42.192a.198.198 0 00.163-.309c-.239-.348-.92-1.18-.95-1.216a.197.197 0 10-.304.25c.007.009.7.854.929 1.189a.193.193 0 00.162.086zm1.979-3.393a.197.197 0 00.183-.124l3.73-9.309a.197.197 0 10-.366-.146l-3.73 9.308a.197.197 0 00.183.271z" fill="#5F2418"/><path d="M75.04 31.268a.203.203 0 00.048-.006l1.074-.261a.197.197 0 10-.094-.383l-1.074.262a.197.197 0 00.047.388z" fill="#5F2418"/><path d="M112.079 22.225s1.008.242 1.65 1.534c.643 1.292.876 1.752.441 2.465-.363.595-1.236.435-1.515.366-.056-.014-.088-.024-.088-.024s.008.116-.003.296c-.036.556-.258 1.721-1.476 2.006-.904.211-1.756-.057-2.33-.335a1.394 1.394 0 01-.784-1.214c-.03-1.012.047-2.763.855-3.647 1.177-1.287 1.383-1.323 1.937-1.513.568-.194 1.313.066 1.313.066z" fill="#E09082"/><path d="M111.9 24.567c-.365.228-.711.242-.732.243a.133.133 0 01-.137-.127.133.133 0 01.128-.137 1.367 1.367 0 001.048-.66.132.132 0 11.225.137 1.639 1.639 0 01-.532.544zm.531.835c-.365.228-.711.243-.732.244a.131.131 0 01-.136-.127.131.131 0 01.127-.137 1.368 1.368 0 001.048-.66.132.132 0 11.225.137 1.636 1.636 0 01-.532.543zm.877.727a1.629 1.629 0 01-1.177.216.132.132 0 01.064-.256c.026.007.649.15 1.188-.35a.132.132 0 01.18.194c-.084.078-.17.142-.255.196z" fill="#BE5C63"/><path d="M112.642 26.59c-.056-.014-.088-.024-.088-.024s.009.116-.002.296c-.891-.775-1.578-2.066-1.615-2.134a.133.133 0 01.055-.179.134.134 0 01.179.055c.008.017.655 1.23 1.471 1.986z" fill="#BE5C63"/><path d="M111.09 25.692c-.535.335-1.747-.47-2.002-.647a.132.132 0 01.151-.217c.599.417 1.541.877 1.759.597.101-.13.073-.314.031-.446-.146-.466-.681-1.03-1.102-1.162a.132.132 0 11.079-.252c.506.158 1.102.782 1.276 1.335.086.275.06.513-.076.687a.442.442 0 01-.116.105z" fill="#BE5C63"/><path d="M110.061 28.156a.132.132 0 01-.146-.22 2.341 2.341 0 00.862-2.183.132.132 0 01.262-.034 2.604 2.604 0 01-.978 2.437zm-.137-2.702a.13.13 0 01-.044.018l-.725.15a.132.132 0 01-.054-.259l.726-.15a.132.132 0 01.097.241z" fill="#BE5C63"/><path d="M106.672 37.133a.199.199 0 01-.123-.355l5.127-4.019a.2.2 0 01.215-.02l5.274 2.769a.199.199 0 01-.185.352l-5.16-2.71-5.026 3.94a.195.195 0 01-.122.043z" fill="#1E1D12"/><path d="M112.689 25.996c-.255-.539-.798-.848-1.43-.833a.53.53 0 01-.083.403c.415-.031.92.105 1.154.6.154.325.177.637.068.928-.243.65-1.056 1.013-1.063 1.016a.2.2 0 00-.119.2l.388 4.622a.2.2 0 00.198.182h.017a.199.199 0 00.181-.215l-.377-4.488c.275-.146.907-.538 1.146-1.176.149-.396.122-.813-.08-1.24zm-2.521-.456a1.385 1.385 0 00-.554.976.2.2 0 00.396.038c.037-.387.29-.666.6-.827a1.094 1.094 0 01-.442-.187z" fill="#1E1D12"/><path d="M97.269 70.522c.058.942-.457 1.744-.457 1.744-1.791.35-3.214-.495-3.214-.495s-.028-.584.3-1.61l3.37.361zm35.501-3.379c.12.936.777 1.626.777 1.626 1.825.005 3.063-1.091 3.063-1.091s-.082-.58-.598-1.526l-3.242.991z" fill="#6A6440"/><path d="M136.41 66.229s-1 1.105-3.691 1.709c0 0-1.753-1.386-3.975-5.095a41.82 41.82 0 01-2.116-4.048 9.639 9.639 0 01-.011.175l-.011.139c-.002.025-.01.052-.007.076 1.041 7.737-.315 13.509-2.465 13.327a45.609 45.609 0 01-8.621 1.514 45.56 45.56 0 01-8.753.14c-1.648-.873-4.892-6.352-4.956-12.696 0-.021-.011-.04-.016-.062a5.894 5.894 0 01-.05-.187l-.015-.056-.033.135a41.927 41.927 0 01-1.248 4.15c-1.493 4.126-2.975 5.843-2.975 5.843-2.756-.085-3.948-.982-3.948-.982.036-2.612.337-5.258.797-7.819l.028-.161.014-.07c.04-.22.081-.442.124-.66a72.82 72.82 0 011.938-7.613c.08-.256.16-.51.24-.76l.056-.171c.184-.569.369-1.121.554-1.654l.089-.258c.239-.681.475-1.332.706-1.944.031-.085.064-.17.096-.254 1.31-3.456 2.388-5.643 2.388-5.643l4.514-3.746c-.139-1.027.235-2.139.972-3.31 3.805.526 7.731.237 11.796-.977.891.83 1.554 1.844 1.856 3.149l4.724 2.613s2.593 3.43 5.434 8.548l.12.216c.112.204.225.41.338.62a72.662 72.662 0 013.749 8.023c.025.062.05.126.073.19l.03.075c.934 2.427 1.728 4.966 2.255 7.524z" fill="#B2AA7D"/><path d="M119.688 38.42c-6.655 2.948-14.624 1.139-14.624 1.139-.139-1.028.235-2.14.972-3.31 3.805.525 7.732.236 11.796-.977.891.83 1.554 1.843 1.856 3.148z" fill="#6A6440"/><path d="M110.367 52.482a.517.517 0 11-1.029.099.517.517 0 011.029-.099zm.485 5.072a.517.517 0 11-1.03.097.517.517 0 011.03-.097zm-7.469-4.406a.517.517 0 11-1.028.098.517.517 0 011.028-.099zm.481 5.072a.517.517 0 11-1.03.096.517.517 0 011.03-.097zm20.843-7.102a.517.517 0 11-1.029.099.517.517 0 011.029-.099zm.473 5.072a.517.517 0 11-1.029.098.517.517 0 011.029-.098zm-7.457-4.407a.517.517 0 11-1.029.099.517.517 0 011.029-.099zm.473 5.072a.517.517 0 11-1.03.097.517.517 0 011.03-.097z" fill="#fff"/><path d="M103.174 47.722h-.013a.135.135 0 01-.135-.134c-.002-2.32-2.135-4.098-2.156-4.116a.134.134 0 11.171-.208c.092.076 2.252 1.879 2.254 4.324a.133.133 0 01-.121.134zm19.535-1.859a.135.135 0 01-.145-.109c-.459-2.401 1.322-4.58 1.399-4.67a.134.134 0 01.189-.018.134.134 0 01.018.19c-.018.02-1.776 2.173-1.342 4.447a.133.133 0 01-.107.158l-.012.002zM112.208 68.45a15.198 15.198 0 01-4.282-.197.135.135 0 01.05-.265c4.376.827 8.074-.48 10.406-1.72 2.529-1.346 4.037-2.904 4.052-2.92a.134.134 0 11.194.187c-.015.016-1.553 1.605-4.119 2.97a17.32 17.32 0 01-4.647 1.697c-.55.114-1.102.196-1.654.249zm-.438-1.985h-.009a.135.135 0 01-.026-.268h.01c1.983-.19 3.158-1.035 3.795-1.711.688-.73.91-1.417.912-1.424a.135.135 0 11.257.08c-.01.031-.243.754-.972 1.529-.67.71-1.901 1.597-3.967 1.794zM123.943 49.4l-21.102 2.01a.137.137 0 11-.026-.272l21.103-2.009a.136.136 0 01.148.123.137.137 0 01-.123.149zm2.268 8.617l-24.058 2.29a.136.136 0 01-.148-.123.135.135 0 01.122-.148l24.058-2.29a.137.137 0 01.026.271z" fill="#6A6440"/><path d="M110.068 54.9l-3.422 4.143-4.142-3.422.088-.106 3.246-3.93.088-.107.106.088 3.93 3.247.106.088z" fill="#D9D2A9"/><path d="M110.068 54.901l-.088.106-7.37.702-.106-.088.088-.106 7.37-.702.106.088z" fill="#6A6440"/><path d="M106.042 51.566l.701 7.37-.088.107-.106-.088-.701-7.37.087-.107.107.088z" fill="#6A6440"/><path d="M124.802 53.5l-3.422 4.142-4.142-3.422.088-.107 3.246-3.93.088-.106.106.088 3.93 3.247.106.088z" fill="#D9D2A9"/><path d="M124.802 53.5l-.087.106-7.371.701-.106-.087.088-.106 7.37-.702.106.088z" fill="#6A6440"/><path d="M120.76 50.165l.702 7.37-.088.107-.106-.088-.702-7.37.088-.107.106.088z" fill="#6A6440"/><path d="M117.49 54.196l-3.422 4.142-4.142-3.422.088-.106 3.246-3.93.088-.107.106.088 3.93 3.247.106.088z" fill="#D9D2A9"/><path d="M117.49 54.196l-.088.106-7.37.702-.106-.088.088-.106 7.37-.702.106.088z" fill="#6A6440"/><path d="M113.448 50.861l.701 7.37-.087.107-.107-.088-.701-7.37.088-.107.106.088zM124.07 73.81c-.113.05-.279.169-.559.257a8.844 8.844 0 01-.294.084c-.337.09-.765.185-1.278.288l-.287.057c-.297.058-.619.119-.966.183l-.297.054-.283.05a58.48 58.48 0 01-3.06.455c-.414.051-.83.098-1.245.14l-.279.027a59.082 59.082 0 01-2.783.204l-.282.014a55.46 55.46 0 01-1.554.05c-.425.008-.849.011-1.274.01h-.008l-.292-.001a18.18 18.18 0 01-1.311-.048 5.945 5.945 0 01-.305-.033c-.293-.04-.479-.099-.604-.177-.489-.309-1.074-1.833-1.074-1.833.213.057.933.215 1.178.255.099.016.199.031.302.045.432.057.901.093 1.387.112a28.207 28.207 0 001.925.004 42.435 42.435 0 001.612-.08c.476-.032.923-.069 1.321-.106l.279-.027a47.853 47.853 0 001.316-.147l.141-.018.138-.008a47.508 47.508 0 001.599-.13 52.567 52.567 0 001.597-.18c.426-.054.87-.117 1.318-.19l.281-.046a26.989 26.989 0 001.609-.32 15.413 15.413 0 001.628-.473c.234-.086 1.677-.546 1.876-.643 0 0-.371 1.669-1.472 2.17z" fill="#6A6440"/><path d="M108.028 75.633a6.108 6.108 0 01-.306-.033 32.977 32.977 0 01-.499-1.755 9.7 9.7 0 00.302.045c.138.53.312 1.158.503 1.743zm1.59.05c-.101 0-.199 0-.293-.002a36.7 36.7 0 01-.427-1.678l.291.01c.124.529.272 1.126.429 1.67zm1.569-.017c-.096.003-.191.005-.287.006a42.674 42.674 0 01-.361-1.658l.285-.007c.107.535.233 1.127.363 1.66zm1.559-.056l-.283.013a60.812 60.812 0 01-.299-1.677l.281-.018c.091.546.196 1.147.301 1.681zm1.538-.097l-.28.02c-.079-.543-.162-1.156-.234-1.713l.278-.026c.073.56.156 1.175.236 1.719zm1.358-1.893l.167 1.758-.278.027-.168-1.759.141-.018.138-.008zm1.594-.13c.033.556.068 1.168.092 1.713a47.99 47.99 0 01-.279.035 107.56 107.56 0 00-.092-1.722l.279-.026zm1.594-.18c.014.542.024 1.138.023 1.679a23.5 23.5 0 01-.28.042 59.56 59.56 0 00-.022-1.685l.279-.036zm1.606-.236a41.172 41.172 0 01-.04 1.659l-.283.05a42.1 42.1 0 00.042-1.663l.281-.046zm1.598-.321c-.02.524-.05 1.123-.099 1.686l-.287.057a33.17 33.17 0 00.102-1.678l.284-.065zm1.625-.473a32.422 32.422 0 01-.155 1.787 8.333 8.333 0 01-.293.084c.074-.6.126-1.234.16-1.77.099-.032.195-.066.288-.1z" fill="#1E1D12"/><path d="M94.477 61.6a72.645 72.645 0 011.939-7.611c.595 1.232 2.335 5.617-1.94 7.611zm39.387-3.636c-5.79-1.166-3.585-7.542-3.585-7.542l.024-.006a73.193 73.193 0 013.561 7.548zm-19.065-13.569a12.681 12.681 0 01-4.527-.379c-1.886-.514-2.991-1.285-3.037-1.318a.14.14 0 01-.034-.195.14.14 0 01.195-.033c.011.008 1.119.78 2.962 1.28 1.698.46 4.385.778 7.548-.325a.14.14 0 01.178.085.14.14 0 01-.085.178 13.597 13.597 0 01-3.2.707zm.311-1.501c-2.29.218-3.339-.649-3.385-.688a.14.14 0 11.181-.213c.014.012 1.153.938 3.624.568a.14.14 0 01.159.117.14.14 0 01-.118.16 8.678 8.678 0 01-.461.056zm-13.154 18.208a.17.17 0 01-.183-.205c.014-.062 1.309-6.258.092-12.007a.17.17 0 11.332-.07c1.233 5.82-.078 12.086-.092 12.148a.17.17 0 01-.149.134z" fill="#6A6440"/><path d="M102.455 52.029a.17.17 0 01-.165-.249c.007-.015.651-1.25.636-3.138a.17.17 0 01.168-.17.17.17 0 01.172.168c.016 1.98-.648 3.247-.676 3.3a.17.17 0 01-.135.089zm24.311 6.726a.17.17 0 01-.224-.086c-.017-.04-1.209-2.758-1.968-6.363a14.425 14.425 0 01-.063-.307c-.326-1.62-.557-3.407-.554-5.201a.17.17 0 01.34 0c-.003 1.678.201 3.35.496 4.882l.066.334c.748 3.676 1.976 6.477 1.994 6.517a.169.169 0 01-.087.224z" fill="#6A6440"/><path d="M124.293 49.938a.169.169 0 01-.149-.06c-.039-.045-.949-1.148-1.34-3.09a.17.17 0 01.333-.067c.373 1.852 1.258 2.929 1.267 2.94a.17.17 0 01-.111.277zm-8.225 22.25c-4.814.458-8.81.206-8.87.202a.17.17 0 01-.159-.181.17.17 0 01.181-.158c.09.006 9.027.569 16.258-1.547a.169.169 0 01.21.116.17.17 0 01-.115.21c-2.443.715-5.078 1.127-7.505 1.358z" fill="#6A6440"/><path d="M126.947 81.31H117.5l-7.438 15.069h16.885V81.311z" fill="#5F2418"/><path d="M185.882 82.635h-64.831v42.346h64.831V82.635z" fill="#9E4F2E"/><path d="M136.876 82.677h-9.825v42.304h9.825V82.677z" fill="#BF7049"/><path d="M121.059 124.983l-3.293-1.823V81.31l3.293 1.013v42.66z" fill="#5F2418"/><path d="M117.504 81.31l3.583 1.326h64.808l-5.434-1.325h-62.957z" fill="#1E1D12"/><path d="M178.798 82.676h-9.825v42.304h9.825V82.676z" fill="#BF7049"/><path d="M173.136 114.962h-39.331a.133.133 0 01-.133-.133v-11.276c0-.074.059-.133.133-.133h39.331c.074 0 .133.059.133.133v11.276c0 .073-.06.133-.133.133z" fill="#EDE4DB"/><path d="M175.257 113.381l-3.683 3.784-.346-.784-1.134-.657 3.683-3.784.298.681 1.182.76zm-38.379-10.724l-3.683 3.784-.346-.783-1.134-.658 3.683-3.784.298.681 1.182.76z" fill="#CABCB0"/><path d="M140.57 109.132c0 1.255-.883 2.212-2.287 2.212h-1.834v-4.4h1.834c1.404 0 2.287.92 2.287 2.188zm-2.411.982c.609 0 1.013-.342 1.013-.982 0-.64-.404-.982-1.013-.982h-.33v1.964h.33zm5.051 1.274c-1.249 0-2.269-.939-2.269-2.263 0-1.323 1.02-2.256 2.269-2.256 1.255 0 2.256.933 2.256 2.256 0 1.324-1.013 2.263-2.256 2.263zm0-1.287c.553 0 .858-.391.858-.975 0-.597-.305-.982-.858-.982-.566 0-.864.385-.864.982 0 .584.298.975.864.975zm6.971-3.157v4.401h-1.38l-1.46-2.213v2.213h-1.38v-4.401h1.38l1.46 2.25v-2.25h1.38zm3.444 3.735h-1.467l-.218.666h-1.448l1.61-4.401h1.591l1.603 4.401h-1.454l-.217-.666zm-.734-2.262l-.398 1.225h.796l-.398-1.225zm2.468-1.473h3.704v1.094h-1.168v3.307h-1.38v-3.307h-1.156v-1.094zm4.079 0h1.379v4.401h-1.379v-4.401zm4.147 4.444c-1.249 0-2.269-.939-2.269-2.263 0-1.323 1.02-2.256 2.269-2.256 1.255 0 2.256.933 2.256 2.256 0 1.324-1.013 2.263-2.256 2.263zm0-1.287c.553 0 .858-.391.858-.975 0-.597-.305-.982-.858-.982-.566 0-.864.385-.864.982 0 .584.298.975.864.975zm6.967-3.157v4.401h-1.38l-1.46-2.213v2.213h-1.38v-4.401h1.38l1.46 2.25v-2.25h1.38z" fill="#1E1D12"/><path d="M121.078 82.636l7.437 15.068h64.143l-6.773-15.068h-64.807z" fill="#BF7049"/><path d="M185.887 97.903h-57.37a.199.199 0 01-.178-.11l-5.506-11.12a.198.198 0 11.356-.176l5.451 11.009h57.247a.199.199 0 110 .397z" fill="#1E1D12"/><mask id="a" style="mask-type:luminance" maskUnits="userSpaceOnUse" x="115" y="49" width="71" height="34"><path d="M185.89 82.636h-64.807l-5.29-4.543V49.447h70.097v33.189z" fill="#fff"/></mask><g mask="url(#a)"><path d="M165.627 68.742s-3.755 1.217-4.829-1.507c-.604-1.533 1.072-6.395 9.789-5.078 11.172 1.687 10.883 11.584 4.775 7.894l-9.735-1.31z" fill="#B2AA7D"/><path d="M169.933 67.404s-7.587-.983-5.974-2.462c2.245-2.058 10.43-.67 12.154 1.615.939 1.244 1.056 2.113-6.18.847z" fill="#1E1D12"/><path d="M185.819 99.9s-1.22.794-3.905.693c0 0-1.167-1.562-2.278-5.16a39.435 39.435 0 01-1.173-5s0-.003-.002-.003l-.099.29c-.052.15-.135.289-.156.444-1.591 11.955-5.233 11.656-5.233 11.656-2.852.036-5.982-.265-8.799-.779-2.696-.403-5.757-1.219-8.364-2.12a1.66 1.66 0 01-.832-.638c-.721-1.069-1.941-4.154-.571-12.023.029-.169-.006-.34-.008-.514.001-.085-.001-.172.001-.258 0-.016-.002-.034-.001-.05a39.681 39.681 0 01-2.723 4.354c-2.214 3.05-3.824 4.152-3.824 4.152-2.574-.772-3.473-1.917-3.473-1.917a44.262 44.262 0 011.772-5.07c.356-.858.735-1.703 1.129-2.532h.003c1.345-2.833 2.876-5.475 4.345-7.77a82.253 82.253 0 01.481-.741c3.024-4.617 5.656-7.645 5.656-7.645l4.766-1.708.374-.133 1.104-.395 11.624 1.928.846.674.301.24 4.04 3.218s1.44 3.533 2.784 8.667l.048.182c.803 3.096 1.565 6.757 1.956 10.57l.017.162c.064.65.118 1.303.16 1.959.111 1.753.133 3.522.034 5.267z" fill="#B2AA7D"/><path d="M162.339 74.98l-1.241 5.619 13.965 2.566.89-5.686-13.614-2.499z" fill="#D9D2A9"/><path d="M178.817 76.588a.169.169 0 01-.139-.194c.37-2.232 1.702-3.305 1.759-3.35a.169.169 0 01.237.028.169.169 0 01-.028.236c-.013.01-1.288 1.043-1.636 3.141a.167.167 0 01-.193.139zm-20.317-3.37a.169.169 0 01-.139-.194c.348-2.097-.525-3.486-.533-3.5a.169.169 0 01.283-.183c.039.06.953 1.506.583 3.738a.168.168 0 01-.194.139zm-10.962 12.944a.071.071 0 00-.078-.064c-.095.01-.19.017-.283.022a.072.072 0 00-.068.076.072.072 0 00.076.068c.095-.006.192-.014.289-.023a.072.072 0 00.064-.079zm.672-.106a.071.071 0 00-.084-.056 6.543 6.543 0 01-.279.049.072.072 0 00-.001.141.077.077 0 00.023 0 7.71 7.71 0 00.285-.05.071.071 0 00.056-.084zm.658-.173a.072.072 0 00-.09-.048c-.089.028-.18.054-.272.078a.072.072 0 00.036.139c.094-.025.188-.051.279-.08a.072.072 0 00.047-.09zm.634-.248a.072.072 0 00-.095-.036 5.282 5.282 0 01-.261.109.072.072 0 00.014.137.068.068 0 00.037-.004c.091-.035.181-.072.268-.111.037-.016.053-.059.037-.095zm.597-.324a.07.07 0 00-.098-.024 5.1 5.1 0 01-.245.141.073.073 0 00-.03.097c.012.02.031.034.052.037a.07.07 0 00.045-.007c.085-.046.17-.095.252-.145a.072.072 0 00.024-.1zm.547-.404a.07.07 0 00-.1-.01c-.072.06-.147.118-.223.174a.072.072 0 00-.016.1.076.076 0 00.046.029.07.07 0 00.054-.013c.078-.057.156-.117.229-.179a.072.072 0 00.01-.1zm.484-.478a.071.071 0 00-.101.005c-.063.07-.129.138-.195.204a.071.071 0 10.1.102c.069-.067.137-.138.201-.21a.072.072 0 00-.005-.1zm.409-.543a.072.072 0 00-.1.02 4.117 4.117 0 01-.164.23.074.074 0 00.014.1c.01.007.021.012.032.014a.07.07 0 00.068-.028c.058-.076.115-.156.169-.236a.073.073 0 00-.019-.1zm.337-.591a.071.071 0 00-.096.031 7.898 7.898 0 01-.136.25.071.071 0 10.124.07c.048-.083.094-.169.138-.254a.071.071 0 00-.03-.097zm.275-.623a.072.072 0 00-.093.04 5.291 5.291 0 01-.11.262.072.072 0 00.036.095.076.076 0 00.018.005.071.071 0 00.077-.042 6.56 6.56 0 00.112-.267.07.07 0 00-.04-.093zm.211-.647a.07.07 0 00-.088.05 8.47 8.47 0 01-.083.271.072.072 0 00.045.09l.011.003a.072.072 0 00.08-.048c.03-.092.058-.185.084-.277a.071.071 0 00-.049-.09zm.145-.666h-.001a.072.072 0 00-.082.059 6.487 6.487 0 01-.056.278.073.073 0 00.055.086h.003a.072.072 0 00.082-.055c.021-.094.04-.19.057-.284a.072.072 0 00-.058-.084zm.147-.598a.072.072 0 10-.143-.012 8.36 8.36 0 01-.029.282.07.07 0 00.059.08h.003a.072.072 0 00.08-.062c.012-.095.021-.191.03-.288zm.023-.397a9.31 9.31 0 00.004-.29.071.071 0 00-.072-.071.07.07 0 00-.071.071c0 .095-.002.19-.005.285a.072.072 0 00.06.073h.01a.072.072 0 00.074-.069zm-.007-.688a9.647 9.647 0 00-.019-.288.071.071 0 10-.142.011c.007.095.014.19.018.284a.072.072 0 10.143-.007zm-.061-.684a9.351 9.351 0 00-.041-.287.071.071 0 10-.141.023c.015.093.029.188.041.282a.07.07 0 00.08.062.071.071 0 00.061-.08zm-.11-.678c-.019-.093-.04-.189-.061-.282a.072.072 0 00-.086-.054.071.071 0 00-.054.086c.021.092.041.186.06.278a.072.072 0 00.084.057.073.073 0 00.057-.085zm-.157-.668l-.079-.278a.072.072 0 00-.138.041c.027.09.054.183.078.275a.07.07 0 00.057.052c.01.001.02 0 .031-.002a.072.072 0 00.051-.088zm-.2-.656l-.025-.076-.096.146a.072.072 0 00.042.024.071.071 0 00.079-.094zm33.469 15.523a5.658 5.658 0 01-.097-.04.07.07 0 00-.093.038.071.071 0 00.037.094l.169.07a9.115 9.115 0 01-.016-.162zm-.453-.201a7.552 7.552 0 01-.255-.126.072.072 0 00-.097.031.072.072 0 00.031.096c.085.044.172.087.259.129a.073.073 0 00.096-.034.072.072 0 00-.034-.096zm-.599-.313a7.903 7.903 0 01-.245-.145.071.071 0 00-.098.023.071.071 0 00.023.099c.081.05.165.1.249.148a.063.063 0 00.023.009.071.071 0 00.074-.036.072.072 0 00-.026-.098zm-.572-.359a7.755 7.755 0 01-.23-.166.071.071 0 00-.1.015.072.072 0 00.014.1c.076.058.155.115.235.17.009.006.019.01.029.011a.07.07 0 00.07-.03.071.071 0 00-.018-.1zm-.533-.41a5.628 5.628 0 01-.211-.188.071.071 0 00-.098.104c.069.065.142.13.216.194a.071.071 0 00.101-.008.073.073 0 00-.008-.101zm-.485-.465a6.023 6.023 0 01-.184-.213.072.072 0 10-.111.09c.06.075.124.149.19.22a.07.07 0 00.041.022.07.07 0 00.06-.017.07.07 0 00.004-.102zm-.416-.524a4.214 4.214 0 01-.149-.239.072.072 0 00-.124.072c.048.084.1.167.155.248a.07.07 0 00.099.019.072.072 0 00.019-.1zm-.326-.582a3.953 3.953 0 01-.105-.26.072.072 0 00-.135.049c.033.09.07.181.11.27.01.023.031.037.053.041.014.002.028 0 .041-.006a.07.07 0 00.036-.094zm-.216-.63a3.661 3.661 0 01-.054-.275.072.072 0 00-.082-.06.072.072 0 00-.059.082c.015.096.034.193.057.287a.071.071 0 10.138-.034zm-.098-.662a8.734 8.734 0 01-.02-.284.072.072 0 00-.076-.067.072.072 0 00-.067.075c.005.097.012.194.02.289.003.033.029.06.06.065h.018a.072.072 0 00.065-.078zm-.034-.675a6.76 6.76 0 010-.285.072.072 0 00-.071-.072.073.073 0 00-.073.07c-.001.096-.001.194.001.29 0 .035.026.064.059.07h.013c.04 0 .071-.034.071-.073zm.013-.676c.006-.095.012-.19.02-.284a.072.072 0 00-.065-.077.071.071 0 00-.077.065c-.008.095-.015.192-.021.288a.072.072 0 00.06.075l.008.001a.072.072 0 00.075-.068zm.103-.955a.072.072 0 00-.059-.082h-.001a.07.07 0 00-.081.06c-.016.094-.029.19-.042.286a.072.072 0 00.059.08h.003a.072.072 0 00.08-.062c.012-.094.026-.19.041-.282zm.076-.75a.07.07 0 00-.086.054 9.57 9.57 0 00-.061.283.071.071 0 00.056.084h.002a.071.071 0 00.082-.056l.06-.279a.072.072 0 00-.053-.086zm.181-.657a.073.073 0 00-.09.048c-.027.092-.055.185-.08.278a.072.072 0 00.057.09.072.072 0 00.081-.052c.025-.092.052-.183.08-.274a.072.072 0 00-.048-.09zm.226-.643a.071.071 0 00-.092.042c-.035.09-.068.181-.1.271a.072.072 0 00.044.092l.012.003a.073.073 0 00.08-.047c.031-.09.063-.18.097-.268a.072.072 0 00-.041-.093zm.268-.626a.071.071 0 00-.095.035c-.04.087-.079.177-.117.264a.073.073 0 00.054.1.073.073 0 00.078-.043 9.86 9.86 0 01.115-.26.072.072 0 00-.035-.096zm.308-.608a.07.07 0 00-.096.029 9.967 9.967 0 00-.134.256.072.072 0 00.031.097.081.081 0 00.021.006.07.07 0 00.075-.039c.043-.084.087-.169.132-.252a.071.071 0 00-.029-.097zm.348-.586a.07.07 0 00-.098.023c-.051.08-.102.163-.151.246a.072.072 0 00.025.099.08.08 0 00.025.009.07.07 0 00.073-.034c.049-.083.099-.164.149-.244a.072.072 0 00-.023-.099zm.204-.43l-.084.12a.072.072 0 10.118.082l.014-.02-.048-.182z" fill="#6A6440"/><path d="M160.589 99.314a.11.11 0 01-.081-.06c-1.403-2.713-1.88-5.055-1.547-7.592.328-2.493 1.416-5.24 3.637-9.185 2.141-3.803 2.981-7.174 3.308-9.333.355-2.339.2-3.797.199-3.811a.112.112 0 11.223-.025c.002.015.159 1.495-.198 3.86-.33 2.18-1.176 5.582-3.336 9.42-4.255 7.556-4.742 11.426-2.087 16.563a.112.112 0 01-.118.163zm8.208 1.361a.112.112 0 01-.059-.191c4.171-4.005 4.96-7.826 3.372-16.35-.806-4.33-.508-7.824-.116-9.993.425-2.354 1.052-3.704 1.058-3.718a.112.112 0 01.149-.054.111.111 0 01.054.15c-.006.013-.622 1.343-1.042 3.672-.387 2.148-.681 5.61.118 9.9.828 4.452.971 7.402.476 9.867-.503 2.51-1.711 4.572-3.914 6.687a.109.109 0 01-.096.03z" fill="#fff"/><path d="M147.285 85.425c1.346-2.833 2.877-5.475 4.346-7.77.446 2.134.982 7.362-4.346 7.77zm17.666-16.531a.17.17 0 01-.222.093c-.823-.338-1.598-.91-2.194-1.426l.374-.134c.553.464 1.238.952 1.949 1.244a.171.171 0 01.093.223zm11.83.981c-.585.274-1.249.52-1.91.632a.171.171 0 11-.056-.337c.565-.096 1.141-.3 1.664-.536l.302.241zm-9.93-.449c-.023.137-.326.2-.677.143-.351-.059-.617-.217-.595-.354.023-.137.326-.201.677-.143.351.058.617.217.595.354zm5.728.95c-.022.137.244.295.595.353.351.059.654-.005.677-.142.022-.138-.244-.296-.595-.354-.351-.059-.654.005-.677.143zm-15.386 8.21a32.07 32.07 0 01-.135.736c-.795 4.018-2.36 7.352-2.645 7.938a43.474 43.474 0 01-.006-.773c.751-1.68 2.528-6.08 2.758-10.61a.166.166 0 01.331.017 23.33 23.33 0 01-.303 2.692z" fill="#6A6440"/><path d="M156.904 79.39a.167.167 0 01-.094-.277c.011-.013.927-1.02 1.385-2.806a.166.166 0 11.321.082c-.481 1.876-1.424 2.906-1.464 2.95a.164.164 0 01-.148.05zm21.551 11.04c-.031.097-.066.195-.099.29l-.157.443c-.092-.756-.468-4.348.065-8.322.033-.245.07-.492.11-.74.142-.88.333-1.77.582-2.646a.166.166 0 01.319.09c-1.234 4.327-.988 9.019-.82 10.885z" fill="#6A6440"/><path d="M178.411 82.958a.164.164 0 01-.124-.096c-.024-.053-.584-1.333-.433-3.263a.166.166 0 11.33.025c-.143 1.841.4 3.09.405 3.103a.166.166 0 01-.178.231z" fill="#6A6440"/></g><path d="M27.118 105.262l-.124.469-.133.501-3.834 14.436-.177.669-.83 3.124H11.304l-.861-3.245-.084-.318-.609-2.292-.092-.349-.542-2.038-.078-.295-1.858-6.996-.068-.259-.905-3.407h20.911z" fill="#5C6BBC"/><path d="M10.1 114.973c-.3.434-.622.862-.983 1.246l-.078-.295c.306-.339.58-.71.837-1.081.698-1.015 1.399-2.203 1.012-3.473-.331-1.086-1.29-1.922-2.358-2.247a4.643 4.643 0 00-1.348-.196l-.069-.258a4.713 4.713 0 011.746.293c1.044.395 1.95 1.258 2.278 2.338.41 1.342-.298 2.599-1.037 3.673zm12.161-9.711a52.862 52.862 0 01-2.858 2.326c-1.226.924-2.572 2.033-4.09 2.415-1.268.319-2.619-.019-3.331-1.172-.668-1.082-.592-2.364-.354-3.569h.265c-.284 1.451-.356 3.181.944 4.138 1.275.94 2.945.303 4.14-.435 1.27-.785 2.47-1.704 3.628-2.646a57.29 57.29 0 001.261-1.057h.395zm4.738.469l-.133.501c-.538.573-1.01 1.21-1.415 1.888-1.478 2.472-2.116 5.44-2.404 8.277-.144 1.417-.169 2.857-.015 4.272l-.177.668a15.62 15.62 0 01-.13-1.123c-.24-2.986.193-6.129 1.085-8.982.64-2.048 1.661-4.007 3.189-5.501zm-5.266 3.721c-2.518 4.592-3.425 9.892-2.693 15.009h-.274a17.347 17.347 0 01-.072-.539c-.817-6.704 1.265-13.521 5.61-18.66h.339a24.22 24.22 0 00-2.91 4.19zm-4.76 7.14c-.106 2.629-.715 5.245-.925 7.869h-.258a33.54 33.54 0 01.183-1.697c.233-1.79.558-3.568.695-5.37.069-.919.139-1.893-.006-2.81-.133-.848-.648-1.826-1.63-1.836-.958-.008-1.646.764-2.203 1.446a35.709 35.709 0 00-3.076 4.412l-.093-.349a36.028 36.028 0 012.013-2.999c.835-1.119 2.098-3.187 3.79-2.706 1.653.47 1.565 2.702 1.51 4.04z" fill="#1E1D12"/><path d="M13.46 124.043a9.61 9.61 0 01-.076.418h-.268a10.47 10.47 0 00.205-2.856c-.03-.447-.075-.952-.338-1.333-.429-.618-1.16-.316-1.652.05-.341.253-.64.557-.888.894l-.084-.318a4.49 4.49 0 01.951-.88c.834-.568 1.761-.457 2.104.564.355 1.061.222 2.379.047 3.461zm13.66-18.781c0 .367-4.682.665-10.457.665-5.774 0-10.456-.298-10.456-.665 0-.367 4.681-.664 10.456-.664 5.775 0 10.457.297 10.457.664z" fill="#1E1D12"/><path d="M18.837 91.666s.394-5.815 1.825-9.155c2.157-5.032 7.598-7.33 7.598-7.33s-5.283-.001-8.792 5.225c-4.129 6.148-2.97 10.502-2.97 10.502l2.339.758z" fill="#6A6440"/><path d="M15.23 93.677s-.516-4.908-2.526-7.935c-2.01-3.026-6.45-7.13-6.45-7.13s3.325.35 6.874 4.217c6.87 7.485 4.384 11.555 4.384 11.555l-2.282-.707z" fill="#6A6440"/><path d="M17.679 96.941s-2.44-11.36-8.891-13.094C2.337 82.115.797 94.632.797 94.632s2.31-8.184 6.836-7.703c4.525.482 7.894 11.205 7.894 11.205l2.152-1.192z" fill="#B2AA7D"/><path d="M18.833 101.31S14.099 90.698 7.43 90.334c-6.67-.364-5.592 12.201-5.592 12.201s.57-8.485 5.098-8.948c4.527-.463 10.038 9.333 10.038 9.333l1.859-1.61z" fill="#6A6440"/><path d="M22.161 92.446c-4.949 2.03-6.565 9.858-7.013 12.896h2.609c.825-3.267 2.748-9.229 5.94-9.986 4.428-1.05 7.755 6.776 7.755 6.776s-3.111-12.22-9.29-9.686z" fill="#6A6440"/><path d="M15.004 100.646S16.41 86.86 22.59 84.329c6.18-2.532 9.285 9.691 9.285 9.691s-3.323-7.828-7.751-6.78c-4.429 1.047-6.445 13.736-6.445 13.736l-2.676-.33z" fill="#B2AA7D"/><path d="M17.524 105.342c-.453-3.755-2.25-11.106-9.368-10.414-6.648.646-3.003 13.081-3.003 13.081S4.71 97.158 9.237 97.611c3.904.39 5.423 5.28 5.942 7.731h2.345z" fill="#B2AA7D"/><path d="M25.126 94.445c-8.217-.927-9.487 8.361-9.68 10.897h2.371c.415-2.127 1.927-7.872 6.187-8.231 4.534-.382 3.922 10.46 3.922 10.46s3.837-12.376-2.8-13.126z" fill="#B2AA7D"/><path d="M78.802 95.742H33.934v29.307h44.868V95.742z" fill="#9E4F2E"/><path d="M60.249 95.77h-6.8v29.279h6.8V95.77z" fill="#BF7049"/><path d="M78.799 107.01h-44.87v6.8H78.8v-6.8z" fill="#BF7049"/><path d="M33.928 125.05l-2.28-1.261V94.825l2.28.7v29.525z" fill="#5F2418"/><path d="M33.932 107.01l-2.28-.783v6.708l2.28.875v-6.8z" fill="#9E4F2E"/><path d="M31.648 94.825l2.296.917h44.853l-3.761-.917H31.648z" fill="#5F2418"/><path d="M53.445 95.77l-1.863-.945h6.799l1.864.945h-6.8z" fill="#9E4F2E"/><path d="M41.989 36.49s.779-4.204-1.821-4.92c-2.6-.716-2.823 2.451-2.823 2.451s-1.298-1.244-1.375.797c-.077 2.04 3.67 2.69 3.67 2.69l2.349-1.019z" fill="#4C332C"/><path d="M42.059 35.52s-2.34.014-3.524 1.725c0 0 .209.478.923.774 0 0 .642-1.183 2.532-1.53 0 0 .392-.544.069-.97z" fill="#E09082"/><path d="M46.834 37.021s4.68 1.686 3.726 7.084c-1.04 5.881-2.032 11.246-1.243 14.43 0 0-13.517 1.184-16.102-2.523 0 0 3.882-6.086 4.05-10.121.167-4.035.359-8.549 3.773-9.302 3.413-.753 5.796.432 5.796.432z" fill="#4C332C"/><path d="M53.479 83.373a37.897 37.897 0 01-1.414.356 38.116 38.116 0 01-13.495.663c-1.738-.234-2.792-.517-2.92-.552-.004-.002-.01-.002-.013-.004.288-1.294.418-1.877.492-3.175.02-.361.035-.713.046-1.046v-.001c.02-.624.023-1.19.02-1.657v-.027a39.97 39.97 0 00-.014-.795c2.072-.393 5.89-1.078 9.431-1.516 2.569-.317 4.99-.504 6.49-.352l.086.558.127.824.107.616.233 1.35.807 4.654.017.103z" fill="#E09082"/><path d="M36.08 81.193s11.765 1.398 16.768-1.622c0 0 1.087 4.987.992 6.31-.229 3.171-17.988 2.469-18.436-.631-.198-1.368.676-4.057.676-4.057z" fill="#B2AA7D"/><path d="M36.055 80.857s-.543.887-.392 1.892c0 0 11.747 1.616 17.531-1.515 0 0 .305-.962-.431-1.967 0 0-4.543 3.09-16.708 1.59z" fill="#6A6440"/><path d="M46.674 78.62c-.004.445-.157.804-.34.802-.185-.001-.33-.364-.326-.808.004-.445.157-.805.341-.803.184.002.33.364.325.81z" fill="#AC584F"/><path d="M52.318 76.65a57.78 57.78 0 00-4.733.535c-3.56.553-7.865 1.579-11.452 3.476a42.743 42.743 0 00.066-2.704v-.026a39.972 39.972 0 00-.014-.795c2.072-.393 5.89-1.079 9.431-1.516 2.568-.318 4.99-.504 6.49-.353l.086.558.126.824z" fill="#AC584F"/><path d="M52.672 56.075l5.855 7.01-5.208 1.49-.647-8.5z" fill="#E09082"/><path d="M53.18 76.058s.188.845-.775 1.212l-.221-1.445s.725.06.997.233zm-17.026 3.555v.001c-2.026-.09-1.626-1.227-1.626-1.227l.014-.004 1.632-.453v.026l-.02 1.657z" fill="#2F277F"/><path d="M55.608 68.51a4.02 4.02 0 01-.082.569c-.321 1.38-1.67 3.059-2.276 3.704a4.936 4.936 0 01-.185.188l-.072.065c-.062.057-.097.087-.097.087l.001.025c.003.063.005.13.01.2a20.226 20.226 0 00.075.953l.002.031a54.352 54.352 0 00.192 1.726l-.003-.001a9.344 9.344 0 00-.993-.231h-.002c-1.825-.328-4.07-.25-6.377.038-3.48.434-7.097 1.346-9.616 2.068a79.5 79.5 0 00-1.633.486l.002-.033a35.075 35.075 0 00.109-3.277 28.53 28.53 0 00-.09-1.888l-.003-.038c-.134-1.618-.559-3.916-1.179-6.33a49.06 49.06 0 00-.25-.94c-.023-.09-.05-.18-.075-.27l-.042-.151c-.01-.04-.022-.078-.033-.117a148.006 148.006 0 00-.201-.691 42.68 42.68 0 00-.315-1.013 46.9 46.9 0 00-.41-1.217 16.47 16.47 0 01-.393-1.294 14.271 14.271 0 01-.134-.576l-.057-.287a11.842 11.842 0 01-.126-.852v-.001a8.534 8.534 0 01-.028-1.627 6.276 6.276 0 01.082-.61l.023-.119.025-.117v-.002c.008-.026.013-.052.02-.077a5.017 5.017 0 01.229-.704c.013-.035.029-.07.044-.105a5.693 5.693 0 01.15-.304l.063-.111c.018-.03.035-.06.054-.089a3.14 3.14 0 01.193-.28l.056-.073a3.157 3.157 0 01.254-.287c.021-.023.044-.045.068-.068a5.38 5.38 0 01.085-.08c.03-.026.057-.052.088-.078l.09-.074.063-.05a3.976 3.976 0 01.843-.497 4.942 4.942 0 01.518-.196l.113-.035a53.65 53.65 0 01.568-.148 58.209 58.209 0 013.945-.844l.095-.017.044-.008h.01l.027-.006.006-.001.017-.003.01-.002.672.102 6.225.943.207.031.384.058.155.024.727.11c1.065.193 1.934.385 2.642.59.624.184 1.124.375 1.528.588a3.596 3.596 0 01.81.568c.062.06.12.12.174.184l.039.046c.131.16.239.33.328.512.02.041.04.081.058.124.037.084.07.171.1.26l.035.105a4.258 4.258 0 01.096.367 5.852 5.852 0 01.109.58c.028.187.053.383.077.59.006.056.012.113.02.17l.014.143.018.164.071.664.003.027a7.569 7.569 0 00.025.225 14.569 14.569 0 01.027.227l.005.044c.054.436.124.867.207 1.296v.001c.006.028.01.056.017.084.087.45.188.896.296 1.333.645 2.615 1.53 3.965 1.429 5.52z" fill="#5C6BBC"/><path d="M34.764 54.798a.964.964 0 11-1.92-.16 4.326 4.326 0 011.397-.735.964.964 0 01.523.895zm3.366.532a.964.964 0 11-1.927-.077.964.964 0 011.928.077zm3.321.431a.964.964 0 11-1.927-.076.964.964 0 011.927.076zm3.379.326a.964.964 0 11-1.927-.076.964.964 0 011.927.076zm3.39.211a.964.964 0 11-1.927-.077.964.964 0 011.928.077zm3.442.092a.964.964 0 11-1.927-.078.964.964 0 011.927.078zm-17.491 3.341a.963.963 0 11-1.925-.014.963.963 0 011.925.014zm3.297.386a.963.963 0 11-1.924-.015.963.963 0 011.925.015zm3.36.311a.963.963 0 11-1.925-.015.963.963 0 011.925.015zm3.441.226a.963.963 0 11-1.925-.015.963.963 0 011.925.015zm3.453.13a.963.963 0 11-1.925-.015.963.963 0 011.925.015zm3.461.023a.963.963 0 11-1.925-.014.963.963 0 011.925.014zm2.699.85a.963.963 0 11-.284-1.905 46.557 46.557 0 00.056.48l.005.044c.054.436.123.868.206 1.297.006.027.01.056.017.084zM33.034 65.49L33 65.373a51.971 51.971 0 00-.516-1.703.96.96 0 01.55 1.82zm3.796-.654a.962.962 0 11-1.923.048.962.962 0 011.923-.048zm3.387.19a.962.962 0 11-1.924.048.962.962 0 011.924-.048zm3.477.128a.962.962 0 11-1.925.047.962.962 0 011.925-.047zm3.516.048a.962.962 0 11-1.925.048.962.962 0 011.924-.048zm3.538-.043a.962.962 0 11-1.924.048.962.962 0 011.924-.048zm3.571-.151a.962.962 0 11-1.925.047.962.962 0 011.925-.047zm-18.133 4.444a.962.962 0 11-1.922.11.962.962 0 011.922-.11zm3.406.068a.963.963 0 11-1.923.11.963.963 0 011.923-.11zm3.519.03a.963.963 0 11-1.922.108.963.963 0 011.922-.109zm3.586-.033a.963.963 0 11-1.923.11.963.963 0 011.923-.11zm3.61-.111a.963.963 0 11-1.923.108.963.963 0 011.923-.108zm3.601-.209a.963.963 0 11-1.922.11.963.963 0 011.922-.11zm1.682-.687a3.966 3.966 0 01-.081.569.955.955 0 01.082-.569zm-20.901 6.595l-.037.002a28.458 28.458 0 00-.09-1.887l-.003-.038a.963.963 0 01.13 1.923zm4.278-1.098a.964.964 0 11-1.92.172.964.964 0 011.92-.172zm3.583-.072a.964.964 0 11-1.92.172.964.964 0 011.92-.172zm3.64-.113a.964.964 0 11-1.92.172.964.964 0 011.92-.172zm3.664-.179a.964.964 0 11-1.92.172.964.964 0 011.92-.172zm3.13.659l.003.03a.964.964 0 11.266-1.55 4.454 4.454 0 01-.354.34v.026l.01.201c.015.269.04.589.075.953z" fill="#2F277F"/><path d="M46.744 53.988c.105 1.274-.704 3.152-2.443 3.256-2.4.144-4.954-3.61-5.313-4.394l.113-.019 7.643 1.157zm-5.058 19.445a.178.178 0 00.238.082c.03-.015 3.026-1.446 6.502-.52 1.767.47 3.29.538 4.49.354a6.939 6.939 0 01-.01-.226s.062-.053.167-.152c-1.175.215-2.725.168-4.555-.32-3.609-.96-6.624.483-6.75.544a.177.177 0 00-.082.238z" fill="#2F277F"/><path d="M50.201 113.874l-1.392 5.607 4.08.27 2.619-5.877H50.2z" fill="#E09082"/><path d="M63.185 126.488l-15.331-.18c-.112-.208-.17-.503-.192-.853-.08-1.298.357-3.363.575-4.666.026-.152.05-.294.067-.422.031-.218.05-.399.052-.533.013-1.065.953-.871.953-.871 1.534 1.539 3.317-.722 4.334.039 0 0 .438.321 1.642 1.431 1.204 1.109 3.266 1.856 5.02 2.614 2.263.978 2.897 1.936 3.015 2.591.094.52-.135.85-.135.85z" fill="#1E1D12"/><path d="M63.194 126.489l-15.33-.18c-.112-.208-.17-.503-.192-.854l15.659.184c.093.519-.137.85-.137.85z" fill="#605E4B"/><path d="M49.43 126.328l-.454-.006c.46-.513.895-1.305.852-2.445-.056-1.515-.953-2.547-1.578-3.087.026-.152.05-.294.067-.422.675.528 1.808 1.68 1.877 3.495.04 1.088-.327 1.896-.763 2.465z" fill="#605E4B"/><path d="M55.004 121.334a.253.253 0 01-.055-.499l.96-.226a.253.253 0 11.116.492l-.96.226a.261.261 0 01-.061.007zm-.856-.751a.253.253 0 01-.055-.499l.96-.227a.253.253 0 11.117.492l-.96.227a.254.254 0 01-.062.007zm1.836 1.319a.252.252 0 01-.055-.498l.96-.227a.253.253 0 11.117.492l-.96.227a.32.32 0 01-.062.006zm.93.548a.253.253 0 01-.243-.195.251.251 0 01.188-.303l.96-.227a.252.252 0 11.116.492l-.96.226a.257.257 0 01-.061.007zm1.054.507a.253.253 0 01-.055-.499l.961-.227a.252.252 0 11.116.492l-.96.226a.215.215 0 01-.062.008zm1.118.434a.253.253 0 01-.055-.499l.96-.226a.253.253 0 11.116.492l-.96.226a.213.213 0 01-.061.007z" fill="#fff"/><path d="M55.89 81.907s13.28 4.564 12.545 10.496c-.734 5.932-13.65 23.565-13.65 23.565l-5.205-.924 2.568-9.655c1.498-5.375 2.135-8.375 4.12-10.742l-10.913-1.672s2.516-10.923 10.534-11.068z" fill="#B2AA7D"/><path d="M51.148 113.739a.2.2 0 01-.175-.268c.025-.07 2.534-7.039 3.786-12.08 1.03-4.146 3.638-6.889 4.61-7.796-1.229-.115-3.256-.542-3.354-.563a.2.2 0 11.083-.393c.027.006 2.748.58 3.77.583a.201.201 0 01.124.358c-.036.028-3.606 2.929-4.843 7.908-1.256 5.061-3.772 12.049-3.797 12.119a.202.202 0 01-.204.132z" fill="#6A6440"/><path d="M55.64 114.825l-.027-.004-5.539-1.158a.201.201 0 01-.156-.238.2.2 0 01.238-.155l5.539 1.158a.2.2 0 01.156.237.203.203 0 01-.21.16z" fill="#6A6440"/><path d="M77.055 108.122l3.479 4.275 3.513-2.474-3.23-5.342-3.762 3.541z" fill="#E09082"/><path d="M95.855 108.585l-11.9 9.667c-.22-.089-.453-.278-.694-.534-.891-.946-1.876-2.814-2.541-3.954-.077-.134-.15-.258-.219-.368a4.547 4.547 0 00-.3-.443c-.672-.826.174-1.279.174-1.279 2.164.203 2.089-2.676 3.357-2.742 0 0 .542-.032 2.178.05 1.635.083 3.698-.662 5.53-1.2 2.366-.697 3.466-.366 3.976.062.404.34.44.741.44.741z" fill="#1E1D12"/><path d="M95.86 108.585l-11.901 9.667c-.219-.089-.453-.278-.693-.534l12.154-9.874c.404.34.44.741.44.741z" fill="#605E4B"/><path d="M85.16 117.267l-.353.287c.025-.69-.147-1.576-.909-2.425-1.012-1.129-2.362-1.349-3.187-1.364a14.41 14.41 0 00-.219-.367c.856-.026 2.465.135 3.678 1.487.727.81.962 1.665.99 2.382z" fill="#605E4B"/><path d="M86.263 109.849a.252.252 0 01-.36-.348l.593-.788a.253.253 0 01.404.304l-.594.788a.296.296 0 01-.043.044zm-1.136-.025a.252.252 0 01-.361-.348l.593-.788a.252.252 0 11.404.304l-.594.788a.22.22 0 01-.042.044zm2.226-.147a.254.254 0 01-.31.005.252.252 0 01-.05-.353l.593-.789a.253.253 0 01.403.304l-.593.788a.253.253 0 01-.043.045zm1.082-.189a.252.252 0 01-.36-.348l.593-.788a.252.252 0 11.403.304l-.593.788a.217.217 0 01-.043.044zm1.121-.273a.252.252 0 01-.36-.348l.593-.789a.253.253 0 01.403.304l-.593.789a.286.286 0 01-.043.044zm1.188-.388a.252.252 0 01-.361-.348l.594-.788a.253.253 0 01.404.304l-.594.788a.23.23 0 01-.043.044z" fill="#fff"/><path d="M83.125 107.474l-4.557 2.913s-3.578-3.314-7.997-7.229c-4.418-3.915-8.538-8.531-10.262-12.024 0 0-13.035 5.627-20.102 4.222-2.942-.584-4.267-2.6-4.812-4.753a9.693 9.693 0 01-.193-.969c-.414-2.712.2-5.337.2-5.337s16.574-3.05 25.136-2.754c.598.02 1.156.057 1.667.112.808.088 1.498.222 2.037.41 1.089.382 2.442 1.527 3.919 3.135l.159.174c6.318 6.973 14.805 22.1 14.805 22.1z" fill="#B2AA7D"/><path d="M68.162 85.2c-4.666.825-6.787-1.97-7.623-3.657.597.02 1.155.057 1.666.113.808.087 1.499.222 2.038.409 1.088.382 2.442 1.528 3.919 3.135zm-2.566 13.314a.202.202 0 01-.109-.041c-3.212-2.49-4.94-6.12-5.346-7.048-1.682.974-6.831 2.49-7.06 2.557a.201.201 0 01-.112-.385c.057-.017 5.793-1.706 7.152-2.633a.201.201 0 01.3.093c.017.043 1.711 4.307 5.312 7.098a.2.2 0 01-.137.36zm11.978 10.882a.2.2 0 01-.097-.368l4.638-3.049a.2.2 0 11.22.336l-4.637 3.049a.2.2 0 01-.124.032z" fill="#6A6440"/><path d="M78.7 108.632a.198.198 0 01-.157.058.198.198 0 01-.127-.057c-.076-.077-7.661-7.588-11.32-10.825-3.304-2.923-5.302-7.46-5.706-8.437-1.356.535-9.807 3.75-17.664 4.181-3.555.197-5.788-.842-7.034-1.747a7.23 7.23 0 01-1.299-1.202 9.863 9.863 0 01-.194-.969c.056.099.177.296.375.552.285.364.73.843 1.375 1.309 1.192.86 3.332 1.845 6.757 1.657 8.457-.465 17.628-4.19 17.72-4.227a.195.195 0 01.155.002c.05.02.09.061.109.112.02.052 2.047 5.261 5.673 8.468 3.666 3.244 11.26 10.765 11.336 10.84a.202.202 0 01.001.285z" fill="#6A6440"/><path d="M37.003 59.765l-.937 1.745-.932 1.756a363.06 363.06 0 00-1.834 3.52 203.893 203.893 0 00-1.771 3.522 92.884 92.884 0 00-.837 1.75l-.198.432-.099.215-.094.212-.094.212-.088.207-.088.207-.08.196c-.057.137-.097.25-.143.37l-.016.042-.012.034-.023.068-.023.064a1.882 1.882 0 00.057-.276l.011-.09c.003-.032.006-.064.007-.096.001-.03.004-.071.004-.108 0-.038 0-.076-.002-.114a2.138 2.138 0 00-.023-.254 2.41 2.41 0 00-.362-.981 2.2 2.2 0 00-.08-.12c-.027-.039-.06-.08-.085-.112a2.224 2.224 0 00-.664-.564 1.58 1.58 0 00-.295-.127.6.6 0 00-.097-.023c-.012 0-.002.002.016.006.037.008.112.017.205.022.187.01.435.008.697-.006a19.28 19.28 0 001.726-.186 41.56 41.56 0 001.844-.319 78.128 78.128 0 003.768-.84c.63-.156 1.262-.318 1.891-.486l.943-.255.468-.13.456-.13.038-.01a2.762 2.762 0 011.601 5.286l-.502.162-.491.154-.981.302c-.654.198-1.31.39-1.97.578a83.9 83.9 0 01-4.014 1.04c-.683.157-1.375.305-2.088.435a25.03 25.03 0 01-2.246.319c-.403.035-.823.06-1.303.054a8.014 8.014 0 01-.793-.05 5.91 5.91 0 01-.75-.135 5.251 5.251 0 01-.309-.09 4.279 4.279 0 01-.978-.459 4.94 4.94 0 01-.12-.08c-.04-.03-.076-.054-.12-.088a4.791 4.791 0 01-.252-.21 4.775 4.775 0 01-.128-.122l-.063-.064-.065-.071a3.26 3.26 0 01-.364-.48 3.43 3.43 0 01-.428-.987 3.968 3.968 0 01-.08-.403 4.025 4.025 0 01-.035-.556 2.87 2.87 0 01.018-.328 4.388 4.388 0 01.128-.672l.052-.176.052-.17.026-.086.025-.075c.067-.195.135-.398.2-.572l.1-.27.1-.257.101-.257.1-.248.102-.25.102-.243.204-.484a98.26 98.26 0 01.833-1.89 213.209 213.209 0 011.713-3.689c.579-1.218 1.164-2.43 1.755-3.639l.89-1.81.9-1.812a3.285 3.285 0 115.843 3.004l-.02.036z" fill="#E09082"/><path d="M27.745 72.117a.129.129 0 01-.055-.24c1.506-.85 3.378-.884 3.457-.886a.129.129 0 01.003.257c-.019 0-1.886.036-3.333.852a.126.126 0 01-.072.017z" fill="#AC584F"/><path d="M30.674 71.217a.129.129 0 01-.093-.05c-.43-.548-1.295-.715-1.304-.717a.129.129 0 01-.103-.15.13.13 0 01.15-.103c.04.008.971.188 1.46.812a.129.129 0 01-.11.208zm18.509-26.952s.66.085.753.936c.093.85-.391 2.244-1.24 2.036-.849-.208.487-2.972.487-2.972z" fill="#AC584F"/><path d="M46.777 48.15a1.853 1.853 0 012.097-1.567 1.853 1.853 0 011.566 2.097 1.853 1.853 0 01-2.097 1.566 1.853 1.853 0 01-1.566-2.097zm.332.047a1.517 1.517 0 001.282 1.718 1.517 1.517 0 001.718-1.283 1.517 1.517 0 00-1.283-1.717 1.517 1.517 0 00-1.717 1.282z" fill="#fff"/><path d="M39.465 52.788s1.052 2.099 3.512 2.561c3.126.587 3.525-.743 3.525-.743a4.93 4.93 0 01-.165-1.196 7.707 7.707 0 01-.003-.531c.015-.499.072-1.042.163-1.668.021-.146.045-.299.07-.456l.002-.018c-2.156-.609-3.897-1.65-5.048-3.31l-.319-.208-.215-.142-.046.126.025.406c.12 1.911-.375 3.47-1.501 5.179z" fill="#E09082"/><path d="M44.58 58.632c.068.009.135.014.203.015.633.007 1.13-.21 1.478-.646 1.014-1.27.379-3.967.351-4.081a.17.17 0 00-.329.079c.007.026.624 2.65-.287 3.791-.283.355-.679.525-1.21.518-2.218-.027-5.071-5.463-5.1-5.518a.17.17 0 10-.3.156c.118.225 2.823 5.37 5.193 5.686z" fill="#fff"/><path d="M42.96 49.165c.417 1.059 1.406 2.943 3.377 3.712.014-.498.07-1.041.162-1.667.021-.147.045-.299.07-.456a2.58 2.58 0 01-.131.006c-1.19.028-2.454-.638-3.477-1.595z" fill="#1E1D12"/><path d="M38.473 43.827c-.125 1.177.72 2.724 2.255 2.93h.008l.033.005a3.357 3.357 0 00.093.304l.003.008c.747 2.102 3.472 3.58 5.01 3.785.548.073.931-.012 1.052-.024 1.672-.182 2.211-2.357 2.134-4.072a6.44 6.44 0 00-.072-.709l-.008-.046s.798-2.302 1.035-3.318c.459-1.97-.471-4.118-4.805-4.98-4.334-.863-5.671 1.742-6.131 3.15-.078.235-.18 1.67.034 1.927-.437.168-.6.644-.64 1.04z" fill="#E09082"/><path d="M45.625 46.783s-.307 1.358.797 1.746c1.105.388 1.54-.68 1.54-.68l-2.337-1.066z" fill="#fff"/><path d="M46.048 48.97a.626.626 0 01-.283-.305.105.105 0 01.196-.075.426.426 0 00.41.243.105.105 0 01.001.21.682.682 0 01-.324-.073z" fill="#AC584F"/><path d="M44.613 44.338a.162.162 0 01-.03-.271.985.985 0 011.034-.093c.494.246.546.838.548.863a.162.162 0 11-.323.025c0-.003-.041-.435-.37-.598a.661.661 0 00-.684.054.163.163 0 01-.175.02zm2.907 1.035a.163.163 0 01-.084-.19c.006-.019.14-.467.593-.534.49-.073.797.293.81.309a.162.162 0 01-.25.206c-.01-.011-.208-.24-.512-.194-.25.037-.329.3-.33.303a.162.162 0 01-.228.1z" fill="#1E1D12"/><path d="M40.727 46.756l.007.002h.001l.033.004a3.276 3.276 0 00.093.304l.003.008c.178-.009.406-.051.62-.172.125-.071.246-.17.35-.307a.159.159 0 00-.032-.223.158.158 0 00-.223.03.857.857 0 01-.414.292c-.101.034-.2.05-.287.057a1.255 1.255 0 01-.151.005z" fill="#AC584F"/><path d="M48.196 46.33c-.016.175.354.355.86.433a6.42 6.42 0 00-.073-.71c-.444.01-.773.118-.787.277z" fill="#AC584F" opacity=".5"/><path d="M39.15 45.894c.088.084.177.168.268.25a1.516 1.516 0 10.869-.052c-.111-.048-.182-.198-.17-.367a1.853 1.853 0 011.652 2.108 1.853 1.853 0 01-2.098 1.565 1.849 1.849 0 01-.522-3.504z" fill="#fff"/><path d="M47.106 46.774c.025.004.05 0 .074-.01l.637-.287a.134.134 0 00.025-.23c-.443-.329-.682-.789-.754-1.447a.134.134 0 00-.267.03c.071.649.292 1.129.69 1.491l-.44.199a.134.134 0 00.035.254z" fill="#AC584F"/><path d="M46.216 42.818c.345.095.572-.36.285-.573a.945.945 0 00-.64-.17c-1.227.075-1.806 1.076-1.806 1.076s1.175-.439 1.801-.394c.145.01.262.034.36.061zm1.878.33c-.358-.007-.446-.508-.11-.63a.945.945 0 01.662.018c1.154.42 1.108 1.282 1.108 1.282s-.685-.492-1.297-.627a1.835 1.835 0 00-.363-.043z" fill="#4C332C"/><path d="M45.481 46.065c-.017.2-.53.318-1.143.264-.614-.054-1.097-.26-1.08-.46.018-.2.53-.318 1.143-.264.614.055 1.098.26 1.08.46z" fill="#AC584F" opacity=".5"/><path d="M40.969 45.854a.16.16 0 01-.117-.141c-.095-1.13-1.365-1.75-1.378-1.756a.16.16 0 01.137-.289c.06.029 1.45.703 1.56 2.018a.16.16 0 01-.202.168z" fill="#AC584F"/><path d="M39.656 45.089a.16.16 0 01-.084-.251c.015-.02.367-.468 1.01-.373a.16.16 0 11-.047.316c-.46-.068-.707.248-.71.25a.16.16 0 01-.169.058z" fill="#AC584F"/><path d="M44.654 40.049s.109 1.269-1.017 1.873c-.932.5-1.473.61-1.473.61s1.079 3.565-.267 3.924c-1.347.358-.8-3.364-2.776-3.67 0 0-.701-.224-.498-1.468.203-1.245 1.598-4.566 5.953-4.046 3.267.39 5.98 2.447 5.857 4.755-.124 2.307-.571 1.806-.571 1.806s.37-1.312-1.104-2.478c-1.223-.968-4.105-1.306-4.105-1.306z" fill="#4C332C"/><path d="M35.43 63.696l2.029 1.555 28.501-4.403-2.519-1.656-28.011 4.504z" fill="#1E1D12"/><path d="M40.333 83.874l28.512-4.403-2.876-18.624L37.46 65.25l2.872 18.624z" fill="#9E4F2E"/><path d="M57.052 71.032l.59-.463-2.086.278-.802 2.002.592-.443 1.088 1.39a2.62 2.62 0 01.532 1.217l.87-2.2s.38-.953-.784-1.78zm-5.022 5.817l.123.74.76-1.963-1.37-1.666.104.733-1.742.285c-.428.07-.867.038-1.276-.103l-.047-.016 1.51 1.822s.653.79 1.939.168zm-2.604-7.227l-.625-.25 1.287 1.665 2.135-.312-.682-.29.63-1.563s-.435-.766-1.332-.805c-.924-.04-1.413 1.555-1.413 1.555z" fill="#EDE4DB"/><path d="M53.574 74.384l.32 2.155 1.885-.28s.822-.142.815-1.1c-.007-.794-.507-1.149-.507-1.149l-2.513.374zm-2.746-2.086l-2.018-.823-.72 1.765s-.111.839.729 1.298c.686.375 1.05.112 1.05.112l.959-2.352zm5.037-2.841l-1.223-1.553s-.385-.466-.868-.395l-2.278.339s.524.288 1.108.965c.595.689 1.54 1.98 1.54 1.98l1.72-1.336z" fill="#EDE4DB"/><path d="M40.33 83.875l-2.057-1.774-2.843-18.405 2.003 1.418 2.898 18.761z" fill="#5F2418"/><path d="M62.845 61.354l-4.322.667 2.873 18.605 4.321-.667-2.872-18.605zM44.426 64.2l-4.32.666 2.872 18.606 4.321-.667-2.873-18.606z" fill="#BF7049"/><path d="M35.334 75.74a10.274 10.274 0 01-.24-3.413c.047-.505.114-1.116.205-1.72.112-.75.453-1.235.692-1.493.143-.153.25-.226.25-.226.191 1.143.304 1.524.386 2.185 0 0 .425.206 1.08.261.656.056 2.919.272 3.006.779.198 1.159-2.633.922-2.633.922s3.026.218 3.045 1.044c.015.668-2.653 1.102-2.653 1.102s2.588-.273 2.384.69c-.217 1.024-2.686.678-2.686.678s1.822.631 1.696.998c-.183.529-1.19.787-2.892.574-.87-.11-1.364-1.26-1.64-2.381z" fill="#E09082"/><path d="M35.452 76.417l-.009.003a.12.12 0 01-.143-.09c-.024-.106-.593-2.613-.407-4.372.186-1.77.88-2.822.91-2.866a.12.12 0 11.199.133c-.007.01-.692 1.052-.872 2.758-.18 1.72.398 4.268.403 4.294a.119.119 0 01-.081.14z" fill="#A8494A"/><path d="M69.205 70.356c-.055-1.009-.29-2-.674-2.934-.168-.41-.378-.9-.605-1.377a2.306 2.306 0 00-1.374-1.198c.13 1.007.226 1.397.326 1.972 0 0-.25.235-.786.449-.535.214-2.378.972-2.321 1.419.129 1.022 2.443.101 2.443.101s-2.482.955-2.287 1.652c.157.564 2.505.247 2.505.247s-2.24.431-1.823 1.187c.443.803 2.425-.117 2.425-.117s-1.367.994-1.167 1.27c.288.396 1.198.356 2.57-.257.703-.313.823-1.403.768-2.413z" fill="#E09082"/><path d="M138.381 125.22h-15.539a6.337 6.337 0 01-.094-1.009c-.029-1.199.188-2.591.48-3.73l-1.31-12.89c3.592-.454 8.985.081 8.985.081l-.142 11.062c1.429.768 1.563 1.864 1.563 1.864s4.03.355 5.21 1.841c.408.513.619 1.206.729 1.772.11.568.118 1.009.118 1.009z" fill="#1E1D12"/><path d="M123.81 124.88a.164.164 0 00.16-.202c-.378-1.603.558-4.394.568-4.422a.162.162 0 00.008-.069l-1.144-11.945a.167.167 0 00-.179-.149.164.164 0 00-.148.18l1.14 11.911c-.113.343-.946 2.954-.564 4.569a.163.163 0 00.159.127z" fill="#605E4B"/><path d="M121.93 107.591s-.226.611.132 1.307c0 0 4.834-.346 8.834.189 0 0 .459-.584.018-1.415 0 0-5.291-.497-8.984-.081z" fill="#605E4B"/><path d="M130.99 114.113a.165.165 0 00.062-.317l-3.451-1.401a.165.165 0 00-.123.305l3.45 1.401a.175.175 0 00.062.012z" fill="#fff"/><path d="M127.618 114.276a.164.164 0 00.076-.019l3.3-1.726a.165.165 0 00-.153-.292l-3.3 1.726a.165.165 0 00.077.311zm3.482 3.029a.164.164 0 00.061-.317l-3.45-1.402a.166.166 0 00-.214.091.163.163 0 00.09.214l3.451 1.401a.15.15 0 00.062.013z" fill="#fff"/><path d="M127.711 117.467a.159.159 0 00.076-.019l3.3-1.726a.164.164 0 10-.152-.291l-3.3 1.726a.165.165 0 00.076.31z" fill="#fff"/><path d="M131.1 118.871a.165.165 0 00.061-.317l-3.45-1.401a.165.165 0 00-.124.305l3.451 1.401c.02.008.041.012.062.012z" fill="#fff"/><path d="M127.727 119.034a.159.159 0 00.076-.019l3.3-1.726a.164.164 0 10-.152-.291l-3.3 1.726a.163.163 0 00-.07.221.164.164 0 00.146.089zm3.294-3.324a.165.165 0 00.153-.103.164.164 0 00-.091-.214l-3.45-1.401a.165.165 0 10-.124.305l3.451 1.401c.02.008.041.012.061.012z" fill="#fff"/><path d="M127.649 115.873a.164.164 0 00.076-.019l3.3-1.726a.165.165 0 00-.152-.292l-3.3 1.726a.164.164 0 00.076.311z" fill="#fff"/><path d="M138.395 125.22h-15.54a6.471 6.471 0 01-.093-1.009h15.515c.11.568.118 1.009.118 1.009z" fill="#605E4B"/><path d="M128.43 112.249a2.24 2.24 0 01-.405-.014c-.819-.1-1.863-.636-2.111-1.277a.707.707 0 01.125-.745.85.85 0 01.625-.292c1.028-.046 2.54 1.393 2.709 1.557.08.078.092.203.028.294-.202.289-.54.453-.971.477zm-1.754-1.872a.39.39 0 00-.292.134c-.074.087-.088.171-.045.282.163.42 1.008.9 1.74.989.214.026.569.035.809-.132-.521-.471-1.577-1.301-2.204-1.273h-.008z" fill="#fff"/><path d="M130.175 112.185c-.518.029-.927-.126-1.165-.447a.227.227 0 01.02-.295c.164-.169 1.634-1.648 2.665-1.631.257.004.47.097.633.275a.706.706 0 01.145.741c-.23.647-1.259 1.213-2.075 1.334a2.557 2.557 0 01-.223.023zm-.656-.585c.244.161.598.142.812.111.729-.109 1.561-.612 1.712-1.036.04-.113.024-.197-.052-.281a.391.391 0 00-.303-.126c-.627-.011-1.661.848-2.169 1.332z" fill="#fff"/><path d="M121.292 124.211c.111.569 0 1.009 0 1.009h-11.349a6.46 6.46 0 01-.093-1.009c-.03-1.198.188-2.591.48-3.73l-1.31-12.89c3.592-.454 8.984.081 8.984.081l-.141 11.062s.741 1.191.9 2.144c0 0 2.277 1.872 2.529 3.333z" fill="#1E1D12"/><path d="M121.286 124.211h-11.442c.007.357.037.697.093 1.008h11.349c.055-.364.076-.71 0-1.008z" fill="#605E4B"/><path d="M110.381 124.88a.165.165 0 00.16-.202c-.378-1.603.558-4.394.567-4.422a.162.162 0 00.008-.069l-1.144-11.945a.166.166 0 00-.179-.149.166.166 0 00-.148.18l1.141 11.911c-.114.343-.946 2.954-.565 4.569a.164.164 0 00.16.127z" fill="#605E4B"/><path d="M109.008 107.591s-.226.611.133 1.307c0 0 4.833-.346 8.833.189 0 0 .459-.584.018-1.415 0 0-5.291-.497-8.984-.081z" fill="#605E4B"/><path d="M116.244 114.113a.165.165 0 00.062-.317l-3.451-1.401a.165.165 0 00-.123.305l3.45 1.401a.175.175 0 00.062.012z" fill="#fff"/><path d="M112.871 114.275a.177.177 0 00.077-.018l3.3-1.726a.165.165 0 00-.153-.292l-3.3 1.726a.165.165 0 00.076.31zm3.467 3.03a.164.164 0 00.062-.317l-3.451-1.402a.164.164 0 00-.124.305l3.451 1.401a.15.15 0 00.062.013z" fill="#fff"/><path d="M112.965 117.467a.159.159 0 00.076-.019l3.3-1.726a.164.164 0 10-.152-.291l-3.3 1.726a.165.165 0 00-.07.221c.03.056.087.089.146.089z" fill="#fff"/><path d="M116.353 118.871a.165.165 0 00.062-.317l-3.45-1.401a.166.166 0 00-.215.091.165.165 0 00.091.214l3.451 1.401c.02.008.041.012.061.012z" fill="#fff"/><path d="M112.981 119.034a.164.164 0 00.076-.019l3.3-1.726a.164.164 0 10-.152-.291l-3.3 1.726a.163.163 0 00-.07.221.164.164 0 00.146.089zm3.294-3.324a.165.165 0 00.153-.103.164.164 0 00-.091-.214l-3.45-1.401a.165.165 0 00-.124.305l3.45 1.401a.175.175 0 00.062.012z" fill="#fff"/><path d="M112.887 115.873a.159.159 0 00.076-.019l3.3-1.727a.164.164 0 00-.152-.291l-3.3 1.726a.164.164 0 00.076.311zm.797-3.624a2.336 2.336 0 01-.405-.015c-.819-.099-1.863-.636-2.111-1.277a.702.702 0 01.125-.744.85.85 0 01.625-.293c1.028-.045 2.54 1.393 2.709 1.557a.23.23 0 01.028.295c-.202.289-.54.452-.971.477zm-1.755-1.873a.394.394 0 00-.291.135c-.074.086-.088.171-.045.282.163.419 1.008.9 1.74.988.214.026.569.035.809-.132-.521-.471-1.577-1.301-2.204-1.273h-.009z" fill="#fff"/><path d="M115.448 112.185c-.518.029-.927-.126-1.165-.447a.228.228 0 01.02-.295c.165-.169 1.634-1.648 2.665-1.631.258.004.47.096.633.275.19.208.241.471.145.741-.23.647-1.258 1.212-2.075 1.334a2.557 2.557 0 01-.223.023zm-.655-.585c.244.161.598.142.811.111.73-.109 1.562-.612 1.713-1.036.04-.113.024-.197-.053-.281a.391.391 0 00-.303-.126c-.627-.011-1.66.848-2.168 1.332z" fill="#fff"/></svg>