<svg width="750" height="500" fill="none" xmlns="http://www.w3.org/2000/svg"><path d="M637.457 465.277v-1.44a6.038 6.038 0 016.038-6.038h50.885a6.038 6.038 0 016.038 6.038v1.44h-62.961zm29.505-64.55l-18.407 57.072h39.32l-17.088-57.032c-.564-1.884-3.221-1.912-3.825-.04z" fill="#E0E0E0"/><path d="M660.967 419.315h15.378l6.65 22.194h-29.186l7.158-22.194z" fill="#FAFAFA"/><path d="M266.715 464.036v-1.44a6.038 6.038 0 016.038-6.038h50.885a6.038 6.038 0 016.038 6.038v1.44h-62.961zm29.504-64.55l-18.407 57.072h39.321l-17.089-57.032c-.564-1.884-3.221-1.912-3.825-.04z" fill="#E0E0E0"/><path d="M290.224 418.074h15.378l6.649 22.194h-29.185l7.158-22.194z" fill="#FAFAFA"/><path d="M270.047 83.969l-5.057-8.807-7.919 1.164-6.539-8.216 3.37-8.18-8.829-5.86-6.592 6.647-8.68-1.521-3.52-10.209L215.73 50.1l-.597 8.93-7.861 3.993-8.322-5.891-8.44 6.148 4.386 9.452-5.023 7.568-9.126-.485-2.384 11.257 8.684 3.341.747 9.459-9.002 5.169 4.303 9.76 9.318-1.447 6.173 7.125-3.229 8.88 8.536 6.029 6.661-7.208 9.242 2.5 2.875 9.539 10.271-.693 1.326-8.568 8.807-5.057 7.206 5.751 9.111-6.793-4.607-8.024 4.49-8.043 9.238.681 2.834-10.474-7.93-4.294-1.055-9.543 7.685-5.193zm-35.779 30.822c-9.944 5.71-22.633 2.277-28.343-7.667-5.71-9.944-2.277-22.633 7.667-28.343 9.944-5.71 22.633-2.277 28.343 7.667 5.71 9.944 2.277 22.634-7.667 28.343z" fill="#EBEBEB"/><path d="M233.126 90.752c-.058.04-.495-.845-1.706-2.083a10.943 10.943 0 00-6.425-3.143c-1.517-.179-3.239-.082-4.933.536-1.678.621-3.373 1.663-4.653 3.232a10.108 10.108 0 00-1.623 2.623 10.073 10.073 0 00-.828 3.106c-.269 2.18.21 4.506 1.349 6.533 1.176 2.007 2.944 3.594 4.962 4.461.997.456 2.052.738 3.101.851 1.046.129 2.092.107 3.084-.079 2.001-.314 3.756-1.253 5.138-2.39 1.387-1.152 2.34-2.59 2.949-3.991a10.95 10.95 0 00.524-7.133c-.459-1.67-1.002-2.492-.939-2.523 0 0 .605.784 1.135 2.468.515 1.652.834 4.365-.38 7.331-.608 1.458-1.578 2.963-3.009 4.177-1.425 1.197-3.246 2.19-5.335 2.534-1.035.2-2.129.23-3.224.1a10.55 10.55 0 01-3.249-.878c-2.116-.902-3.977-2.565-5.208-4.669-1.195-2.124-1.693-4.568-1.405-6.85a10.52 10.52 0 01.88-3.248 10.508 10.508 0 011.712-2.733c1.35-1.631 3.125-2.703 4.877-3.33 1.769-.624 3.558-.703 5.124-.493 3.173.447 5.356 2.09 6.523 3.368 1.188 1.306 1.559 2.223 1.559 2.223z" fill="#EBEBEB"/><path d="M243.004 67.631c.12.079-2.696 4.57-6.29 10.03-3.595 5.462-6.606 9.824-6.726 9.745-.12-.079 2.696-4.569 6.291-10.031 3.593-5.46 6.605-9.823 6.725-9.744zm10.196 36.333c-.027.072-1.085-.261-2.797-.779a128.6 128.6 0 00-6.734-1.853 128.723 128.723 0 00-6.831-1.456c-1.759-.329-2.851-.521-2.842-.597.008-.067 1.119-.004 2.9.233 1.781.236 4.23.665 6.896 1.314a67.741 67.741 0 016.725 2.009c1.692.611 2.707 1.066 2.683 1.129zm-24.957 2.402c.067-.02.419.904.896 2.428a86.36 86.36 0 011.622 6.022 86.062 86.062 0 011.198 6.121c.243 1.578.334 2.562.266 2.574-.073.012-.293-.95-.628-2.507-.335-1.557-.795-3.706-1.343-6.071-.55-2.364-1.084-4.495-1.469-6.04-.386-1.545-.613-2.506-.542-2.527zm-11.213-1.271c.123.074-1.721 3.358-4.119 7.334-2.399 3.977-4.442 7.14-4.565 7.066-.123-.074 1.721-3.357 4.12-7.335 2.397-3.975 4.441-7.139 4.564-7.065zm-1.591-35.391c.137-.042 1.324 3.413 2.65 7.716 1.326 4.305 2.29 7.827 2.152 7.87-.137.042-1.324-3.412-2.65-7.716-1.326-4.304-2.29-7.828-2.152-7.87zm-2.348 24.438c-.014.143-2.918-.017-6.486-.358-3.569-.341-6.451-.733-6.437-.876.014-.143 2.917.017 6.487.358 3.567.34 6.449.732 6.436.876zm17.939-2.186a8.563 8.563 0 11-14.853 8.528 8.563 8.563 0 0114.853-8.528z" fill="#EBEBEB"/><path d="M227.742 96.285c-.084.136-1.708-1.361-4.247-1.626-2.538-.284-4.444.83-4.497.679-.033-.053.383-.405 1.192-.738.801-.333 2.019-.605 3.361-.459 1.341.145 2.473.671 3.184 1.168.719.498 1.051.931 1.007.976z" fill="#E0E0E0"/><path d="M224.308 91.267c.137.082-.899 1.705-1.292 3.983-.425 2.274-.018 4.155-.176 4.184-.117.056-.781-1.872-.337-4.276.421-2.408 1.714-3.984 1.805-3.891zm157.89 171.02l-6.542-11.395-10.246 1.506-8.46-10.63 4.36-10.584-11.424-7.582-8.529 8.601-11.231-1.969-4.554-13.209-13.65 1.441-.773 11.554-10.171 5.167-10.767-7.622-10.921 7.954 5.675 12.229-6.499 9.792-11.808-.627-3.084 14.565 11.236 4.323.967 12.239-11.648 6.688 5.567 12.628 12.056-1.872 7.987 9.219-4.177 11.489 11.044 7.8 8.618-9.325 11.958 3.235 3.72 12.342 13.289-.897 1.715-11.086 11.395-6.542 9.323 7.441 11.788-8.789-5.961-10.382 5.809-10.406 11.953.881 3.666-13.552-10.261-5.556-1.366-12.347 9.946-6.722zm-46.293 39.879c-12.866 7.387-29.284 2.946-36.671-9.92-7.387-12.866-2.946-29.284 9.92-36.671 12.866-7.387 29.284-2.946 36.671 9.92 7.388 12.866 2.946 29.284-9.92 36.671z" fill="#E0E0E0"/><path d="M334.43 271.063c-.066.046-.622-1.104-2.186-2.716-1.537-1.579-4.334-3.592-8.327-4.1-1.97-.237-4.208-.113-6.411.687-2.182.804-4.387 2.158-6.053 4.197a13.166 13.166 0 00-2.113 3.41 13.124 13.124 0 00-1.079 4.04c-.351 2.835.272 5.862 1.754 8.499 1.53 2.611 3.831 4.676 6.456 5.802a13.14 13.14 0 004.034 1.105c1.361.167 2.721.137 4.01-.105 2.601-.411 4.882-1.634 6.677-3.113 1.801-1.5 3.036-3.37 3.825-5.191 1.575-3.704 1.246-7.135.657-9.258-.605-2.163-1.317-3.223-1.244-3.257.008-.005.051.061.128.192l.33.592c.15.259.32.587.473.997.166.404.37.867.508 1.42.353 1.081.577 2.474.577 4.091a14.212 14.212 0 01-1.089 5.364c-.787 1.877-2.04 3.815-3.884 5.376-1.837 1.54-4.184 2.817-6.874 3.257a13.568 13.568 0 01-4.151.127 13.558 13.558 0 01-4.182-1.132c-2.724-1.161-5.117-3.302-6.702-6.01-1.538-2.733-2.18-5.879-1.809-8.816.152-1.47.545-2.887 1.131-4.181a13.533 13.533 0 012.202-3.52c1.736-2.101 4.021-3.484 6.277-4.294 2.278-.806 4.583-.911 6.601-.644 2.028.274 3.783.956 5.182 1.763 1.397.816 2.487 1.712 3.243 2.561.407.398.705.808.97 1.155.277.339.474.651.623.911l.345.584c.074.133.109.203.101.207z" fill="#E0E0E0"/><path d="M347.21 241.148c.12.079-3.553 5.871-8.202 12.935-4.651 7.066-8.518 12.729-8.638 12.65-.12-.079 3.552-5.87 8.203-12.936 4.649-7.064 8.517-12.728 8.637-12.649zm13.191 47.009c-.027.073-1.39-.375-3.602-1.059a151.749 151.749 0 00-8.711-2.421 151.139 151.139 0 00-8.848-1.863c-2.279-.412-3.695-.641-3.685-.719.004-.036.364-.022 1.012.034.648.053 1.581.161 2.732.322 2.301.319 5.466.882 8.913 1.721a92.33 92.33 0 018.703 2.577c1.095.388 1.974.721 2.573.973.599.248.925.402.913.435zm-32.289 3.108c.066-.02.503 1.181 1.107 3.155a121.638 121.638 0 012.076 7.794c.712 3.07 1.244 5.874 1.571 7.913.328 2.038.465 3.309.397 3.32-.074.012-.339-1.236-.759-3.253a351.989 351.989 0 00-1.716-7.862 342.104 342.104 0 00-1.924-7.812c-.511-1.996-.823-3.233-.752-3.255zm-14.508-1.644c.123.074-2.293 4.306-5.395 9.45-3.103 5.146-5.718 9.256-5.841 9.181-.123-.074 2.292-4.305 5.396-9.451 3.102-5.143 5.717-9.254 5.84-9.18zm-2.063-45.791c.137-.042 1.64 4.438 3.355 10.005 1.716 5.569 2.995 10.117 2.858 10.16-.137.042-1.639-4.437-3.355-10.006-1.716-5.568-2.995-10.117-2.858-10.159zm-3.039 31.618c-.014.143-3.768-.098-8.385-.539-4.618-.441-8.35-.914-8.336-1.057.014-.143 3.767.098 8.385.539 4.618.441 8.35.914 8.336 1.057zm24.551 4.524c1.006-6.035-3.071-11.744-9.107-12.75-6.035-1.005-11.744 3.072-12.75 9.107-1.006 6.036 3.072 11.744 9.107 12.75 6.036 1.006 11.744-3.071 12.75-9.107z" fill="#E0E0E0"/><path d="M327.462 278.221c-.055.062-.578-.377-1.522-.902a10.595 10.595 0 00-3.964-1.278 10.586 10.586 0 00-4.146.4c-1.035.311-1.64.628-1.68.555-.033-.051.515-.488 1.56-.903 1.035-.416 2.6-.756 4.322-.569 1.722.186 3.178.853 4.1 1.482.931.628 1.372 1.172 1.33 1.215z" fill="#EBEBEB"/><path d="M323.023 271.729c.144.081-1.234 2.173-1.747 5.14-.552 2.961.012 5.402-.152 5.427-.112.06-.933-2.428-.361-5.52.54-3.095 2.176-5.142 2.26-5.047z" fill="#EBEBEB"/><path d="M386.025 69.594l-3.293-5.735-5.157.758-4.259-5.351 2.195-5.327-5.75-3.816-4.293 4.329-5.653-.991-2.292-6.649-6.871.725-.389 5.816-5.12 2.601-5.42-3.837-5.497 4.004 2.857 6.155-3.271 4.929-5.943-.316-1.553 7.331 5.656 2.176.487 6.16-5.863 3.366 2.802 6.356 6.068-.942 4.02 4.64-2.103 5.783 5.559 3.926 4.338-4.694 6.019 1.628 1.872 6.212 6.689-.451.863-5.58 5.735-3.293 4.693 3.746 5.934-4.424-3-5.226 2.924-5.238 6.017.443 1.845-6.822-5.165-2.797-.687-6.215 5.006-3.38zm-23.301 20.073c-6.476 3.718-14.74 1.483-18.458-4.993-3.718-6.476-1.483-14.74 4.993-18.458 6.476-3.718 14.74-1.483 18.458 4.993 3.719 6.476 1.483 14.74-4.993 18.458z" fill="#F5F5F5"/><path d="M361.982 74.011c-.033.023-.313-.555-1.1-1.367a7.128 7.128 0 00-4.191-2.064c-.991-.119-2.118-.057-3.227.346-1.098.405-2.208 1.086-3.047 2.112a6.596 6.596 0 00-1.063 1.716 6.586 6.586 0 00-.543 2.033c-.177 1.427.137 2.951.883 4.278.77 1.314 1.928 2.353 3.25 2.921a6.612 6.612 0 002.03.556 6.61 6.61 0 002.019-.053c1.309-.207 2.457-.822 3.361-1.567.906-.755 1.528-1.696 1.925-2.613a7.127 7.127 0 00.331-4.66c-.306-1.087-.665-1.621-.628-1.638a.381.381 0 01.064.097l.166.298c.075.13.161.295.238.502.084.203.186.437.256.715.178.544.29 1.245.291 2.059a7.155 7.155 0 01-.548 2.7 7.171 7.171 0 01-1.955 2.706c-.925.775-2.106 1.418-3.46 1.639a6.84 6.84 0 01-2.089.064 6.832 6.832 0 01-2.105-.57c-1.371-.585-2.576-1.662-3.374-3.025-.774-1.376-1.097-2.959-.911-4.437.077-.74.275-1.453.569-2.105a6.822 6.822 0 011.108-1.772c.874-1.057 2.024-1.754 3.16-2.162 1.147-.406 2.307-.459 3.323-.324a7.134 7.134 0 012.608.888c.703.411 1.252.861 1.632 1.289.205.201.355.407.488.581.139.17.239.328.314.458l.174.294a.428.428 0 01.051.105z" fill="#F5F5F5"/><path d="M368.412 58.954c.06.04-1.788 2.955-4.129 6.511-2.341 3.557-4.288 6.407-4.348 6.367-.06-.04 1.788-2.955 4.129-6.512 2.341-3.555 4.288-6.406 4.348-6.366zm6.642 23.662c-.014.037-.7-.189-1.813-.533a75.833 75.833 0 00-4.385-1.218 76.07 76.07 0 00-4.454-.938c-1.147-.207-1.86-.323-1.855-.362.002-.018.183-.011.509.017.326.027.796.081 1.375.162 1.158.16 2.751.444 4.487.866a46.64 46.64 0 014.381 1.297c.551.195.993.363 1.295.49.303.124.467.202.46.219zm-16.252 1.564c.033-.01.253.594.557 1.588.304.994.686 2.378 1.045 3.923.359 1.545.626 2.957.791 3.983.165 1.026.234 1.665.2 1.671-.037.006-.171-.622-.382-1.637a177.856 177.856 0 00-.864-3.957 174.37 174.37 0 00-.968-3.932c-.258-1.005-.415-1.628-.379-1.639zm-7.304-.828c.062.037-1.154 2.167-2.716 4.756-1.562 2.59-2.878 4.659-2.94 4.621-.062-.037 1.154-2.167 2.716-4.757 1.562-2.588 2.878-4.657 2.94-4.62zm-1.036-23.049c.069-.021.825 2.234 1.689 5.036.864 2.803 1.508 5.092 1.438 5.114-.069.021-.825-2.233-1.689-5.037-.864-2.802-1.507-5.091-1.438-5.113zm-1.53 15.916c-.007.072-1.897-.049-4.22-.271-2.324-.222-4.203-.46-4.196-.532.007-.072 1.896.049 4.221.271 2.323.221 4.202.46 4.195.532zm11.685-1.424a5.576 5.576 0 11-9.672 5.555 5.576 5.576 0 019.672-5.555z" fill="#F5F5F5"/><path d="M358.476 77.614c-.028.031-.291-.19-.766-.454a5.328 5.328 0 00-1.995-.643 5.334 5.334 0 00-2.087.201c-.521.156-.826.316-.846.279-.016-.026.259-.246.785-.455a4.637 4.637 0 014.24.46c.468.317.691.591.669.612z" fill="#EBEBEB"/><path d="M356.239 74.346c.073.041-.621 1.094-.88 2.587-.278 1.49.006 2.719-.076 2.732-.056.03-.47-1.222-.182-2.778.272-1.558 1.095-2.588 1.138-2.541z" fill="#EBEBEB"/><path d="M246.923 210.84l-8.29-14.439-12.984 1.908-10.721-13.47 5.525-13.412-14.476-9.607-10.808 10.899-14.232-2.495-5.771-16.739-17.298 1.826-.979 14.642-12.888 6.547-13.644-9.659-13.839 10.079 7.191 15.497-8.235 12.408-14.963-.795-3.91 18.457 14.239 5.478 1.225 15.509-14.76 8.475 7.055 16.002 15.277-2.372 10.12 11.682-5.293 14.559 13.995 9.884 10.921-11.817 15.153 4.099 4.713 15.639 16.84-1.136 2.174-14.048 14.439-8.29 11.814 9.429 14.938-11.137-7.553-13.155 7.361-13.186 15.147 1.116 4.646-17.173-13.002-7.041-1.73-15.646 12.603-8.518zm-58.661 50.534c-16.303 9.361-37.108 3.733-46.469-12.57-9.361-16.303-3.733-37.108 12.57-46.469 16.303-9.361 37.108-3.733 46.469 12.57 9.361 16.303 3.733 37.108-12.57 46.469z" fill="#F5F5F5"/><path d="M186.389 221.961c-.084.059-.789-1.398-2.769-3.442-1.947-2.001-5.492-4.552-10.552-5.195-2.496-.3-5.332-.143-8.123.87-2.765 1.019-5.559 2.734-7.671 5.318-1.089 1.256-1.99 2.725-2.677 4.321a16.617 16.617 0 00-1.368 5.119c-.445 3.593.345 7.428 2.223 10.77 1.939 3.308 4.854 5.925 8.181 7.352a16.583 16.583 0 005.111 1.4c1.725.211 3.448.174 5.082-.134 3.297-.521 6.186-2.07 8.461-3.945 2.282-1.9 3.848-4.271 4.847-6.577 1.995-4.694 1.578-9.041.832-11.731-.767-2.741-1.67-4.083-1.577-4.126.01-.006.064.077.162.244l.419.75c.189.328.405.744.599 1.263.21.512.468 1.099.644 1.799.447 1.369.73 3.135.731 5.184a18.012 18.012 0 01-1.38 6.798c-.997 2.379-2.585 4.835-4.922 6.813-2.328 1.952-5.302 3.569-8.711 4.127-1.689.326-3.473.373-5.26.161a17.17 17.17 0 01-5.299-1.435c-3.452-1.472-6.484-4.184-8.493-7.615-1.949-3.464-2.762-7.449-2.292-11.171a17.186 17.186 0 011.433-5.299c.717-1.65 1.658-3.166 2.79-4.46 2.2-2.662 5.096-4.415 7.955-5.442 2.886-1.021 5.807-1.155 8.365-.817a18.021 18.021 0 016.567 2.234c1.77 1.034 3.152 2.169 4.109 3.245.516.505.893 1.023 1.229 1.464.351.429.601.825.789 1.154l.437.74c.094.168.138.257.128.263z" fill="#F5F5F5"/><path d="M202.586 184.053c.152.1-4.502 7.44-10.394 16.391-5.894 8.954-10.794 16.13-10.946 16.03-.152-.1 4.501-7.438 10.395-16.393 5.891-8.951 10.792-16.128 10.945-16.028zm16.716 59.569c-.034.093-1.762-.476-4.565-1.342a191.742 191.742 0 00-11.038-3.067 191.223 191.223 0 00-11.213-2.361c-2.887-.522-4.682-.813-4.67-.911.006-.045.461-.028 1.282.042a65.65 65.65 0 013.462.408c2.916.404 6.926 1.117 11.295 2.181 4.366 1.067 8.254 2.281 11.028 3.265 1.388.491 2.501.914 3.261 1.233.761.315 1.174.509 1.158.552zm-40.918 3.938c.084-.025.638 1.497 1.403 3.999a154.108 154.108 0 012.631 9.876 154.708 154.708 0 011.991 10.027c.416 2.583.589 4.193.503 4.207-.094.015-.429-1.566-.962-4.122a443.642 443.642 0 00-2.175-9.962 441.781 441.781 0 00-2.438-9.9c-.649-2.529-1.044-4.098-.953-4.125zm-18.386-2.083c.156.094-2.905 5.456-6.836 11.974-3.933 6.521-7.246 11.729-7.402 11.635-.156-.094 2.904-5.455 6.837-11.975 3.931-6.519 7.245-11.728 7.401-11.634zm-2.606-58.026c.174-.054 2.078 5.623 4.252 12.678 2.174 7.058 3.796 12.82 3.621 12.874-.174.054-2.077-5.622-4.252-12.68-2.174-7.054-3.795-12.818-3.621-12.872zm-3.856 40.067c-.017.181-4.775-.124-10.625-.683-5.852-.559-10.581-1.159-10.563-1.34.017-.181 4.774.124 10.626.683 5.85.558 10.58 1.158 10.562 1.34zm30.721 7.298c2.152-7.448-2.143-15.231-9.591-17.383-7.449-2.151-15.232 2.143-17.383 9.592-2.152 7.449 2.142 15.231 9.591 17.383 7.449 2.151 15.231-2.143 17.383-9.592z" fill="#F5F5F5"/><path d="M177.563 231.031c-.069.079-.732-.478-1.929-1.143-1.188-.667-2.961-1.396-5.023-1.62-2.063-.224-3.951.109-5.254.506-1.312.394-2.078.795-2.129.704-.041-.064.653-.619 1.977-1.145 1.311-.527 3.295-.959 5.477-.721 2.182.236 4.027 1.081 5.195 1.877 1.181.798 1.74 1.488 1.686 1.542z" fill="#EBEBEB"/><path d="M171.938 222.804c.183.102-1.564 2.754-2.214 6.513-.7 3.752.015 6.845-.192 6.878-.141.075-1.182-3.077-.457-6.994.684-3.923 2.757-6.517 2.863-6.397z" fill="#EBEBEB"/><path d="M630.275 202.086l-8.291-14.439L609 189.555l-10.721-13.47 5.525-13.412-14.476-9.607-10.808 10.899-14.232-2.495-5.771-16.739-17.297 1.826-.98 14.642-12.888 6.547-13.644-9.659-13.839 10.079 7.191 15.497-8.235 12.408-14.963-.795-3.909 18.457 14.238 5.478 1.225 15.509-14.76 8.475 7.055 16.002 15.277-2.372 10.12 11.682-5.293 14.559 13.995 9.884 10.921-11.817 15.153 4.099 4.713 15.639 16.84-1.136 2.174-14.047 14.439-8.29 11.814 9.429 14.938-11.137-7.554-13.155 7.361-13.186 15.147 1.116 4.646-17.173-13.002-7.041-1.73-15.646 12.605-8.519zm-58.66 50.534c-16.303 9.361-37.108 3.733-46.469-12.57-9.361-16.303-3.733-37.108 12.57-46.469 16.303-9.361 37.108-3.733 46.469 12.57 9.361 16.303 3.733 37.108-12.57 46.469z" fill="#F5F5F5"/><path d="M569.745 213.207c-.084.059-.789-1.398-2.769-3.442-1.947-2.001-5.492-4.552-10.552-5.195-2.496-.3-5.332-.143-8.123.87-2.765 1.019-5.559 2.734-7.671 5.318-1.089 1.256-1.99 2.725-2.677 4.321a16.617 16.617 0 00-1.368 5.119c-.445 3.593.345 7.428 2.222 10.77 1.939 3.308 4.854 5.925 8.182 7.353a16.639 16.639 0 005.111 1.4c1.724.211 3.448.174 5.082-.134 3.296-.521 6.186-2.07 8.461-3.945 2.282-1.9 3.848-4.271 4.847-6.577 1.995-4.694 1.578-9.041.832-11.731-.768-2.741-1.671-4.084-1.577-4.127.01-.006.064.077.162.244l.419.751c.19.328.406.743.599 1.263.211.512.468 1.099.644 1.799.447 1.369.731 3.134.732 5.184a17.995 17.995 0 01-1.381 6.798c-.997 2.379-2.585 4.835-4.922 6.813-2.328 1.952-5.302 3.569-8.711 4.127-1.689.326-3.473.373-5.26.161a17.17 17.17 0 01-5.299-1.435c-3.451-1.472-6.484-4.184-8.493-7.615-1.949-3.464-2.762-7.449-2.293-11.171a17.186 17.186 0 011.433-5.299c.717-1.65 1.658-3.166 2.79-4.46 2.2-2.662 5.096-4.415 7.955-5.442 2.886-1.021 5.807-1.155 8.365-.816a18.021 18.021 0 016.567 2.234c1.77 1.034 3.152 2.169 4.109 3.245.516.505.893 1.023 1.229 1.464.351.429.601.825.789 1.154l.437.74c.095.167.138.256.129.261z" fill="#F5F5F5"/><path d="M585.937 175.3c.152.1-4.502 7.44-10.394 16.391-5.894 8.954-10.794 16.13-10.946 16.03-.152-.1 4.501-7.438 10.395-16.393 5.892-8.952 10.793-16.129 10.945-16.028zm16.721 59.568c-.034.093-1.761-.476-4.565-1.342a191.742 191.742 0 00-11.038-3.067 191.223 191.223 0 00-11.213-2.361c-2.888-.522-4.682-.813-4.67-.911.006-.045.461-.028 1.282.042a65.65 65.65 0 013.462.408c2.916.404 6.926 1.117 11.295 2.181 4.366 1.067 8.254 2.281 11.028 3.265 1.388.491 2.501.914 3.261 1.233.761.315 1.173.51 1.158.552zm-40.918 3.939c.084-.025.638 1.497 1.403 3.999a154.108 154.108 0 012.631 9.876 154.708 154.708 0 011.991 10.027c.416 2.583.589 4.193.503 4.207-.094.016-.43-1.566-.962-4.122a443.642 443.642 0 00-2.175-9.962 441.781 441.781 0 00-2.438-9.9c-.648-2.53-1.044-4.098-.953-4.125zm-18.387-2.084c.156.094-2.905 5.456-6.836 11.974-3.933 6.521-7.246 11.729-7.402 11.635-.156-.094 2.904-5.455 6.837-11.975 3.931-6.518 7.245-11.728 7.401-11.634zm-2.61-58.026c.174-.054 2.078 5.624 4.252 12.679 2.174 7.057 3.795 12.82 3.621 12.874-.174.054-2.077-5.622-4.252-12.68-2.174-7.055-3.795-12.819-3.621-12.873zm-3.852 40.067c-.017.181-4.775-.124-10.625-.683-5.852-.559-10.581-1.159-10.563-1.34.017-.181 4.774.124 10.626.683 5.85.559 10.579 1.159 10.562 1.34zm30.772 7.103c2.051-7.477-2.349-15.201-9.826-17.252-7.478-2.051-15.202 2.348-17.253 9.826-2.05 7.477 2.349 15.201 9.826 17.252 7.478 2.051 15.202-2.348 17.253-9.826z" fill="#F5F5F5"/><path d="M560.915 222.278c-.069.079-.732-.478-1.929-1.143-1.188-.667-2.961-1.397-5.023-1.62-2.063-.224-3.951.109-5.254.506-1.312.394-2.078.795-2.129.704-.041-.064.653-.619 1.977-1.145 1.312-.527 3.295-.958 5.477-.721 2.182.236 4.027 1.081 5.195 1.878 1.18.796 1.74 1.486 1.686 1.541z" fill="#EBEBEB"/><path d="M555.289 214.051c.183.102-1.564 2.754-2.214 6.513-.7 3.752.015 6.845-.192 6.877-.141.075-1.182-3.077-.457-6.994.684-3.923 2.757-6.516 2.863-6.396z" fill="#EBEBEB"/><path d="M477.207 291.357l-4.077-7.1-6.384.939-5.272-6.624 2.717-6.595-7.118-4.724-5.315 5.359-6.998-1.227-2.838-8.231-8.506.898-.482 7.2-6.338 3.219-6.709-4.75-6.805 4.956 3.536 7.62-4.049 6.102-7.358-.391-1.922 9.076 7.001 2.694.603 7.626-7.258 4.167 3.469 7.869 7.512-1.167 4.977 5.744-2.603 7.159 6.882 4.86 5.37-5.811 7.451 2.016 2.318 7.69 8.281-.559 1.069-6.908 7.1-4.077 5.809 4.637 7.346-5.476-3.714-6.469 3.62-6.484 7.448.549 2.284-8.445-6.394-3.462-.851-7.694 6.198-4.186zm-28.846 24.849c-8.017 4.603-18.247 1.836-22.85-6.181-4.603-8.017-1.836-18.247 6.181-22.85 8.017-4.603 18.247-1.836 22.85 6.181 4.603 8.016 1.836 18.247-6.181 22.85z" fill="#F5F5F5"/><path d="M447.442 296.825c-.041.029-.388-.688-1.362-1.693a8.82 8.82 0 00-5.189-2.555c-1.227-.147-2.622-.07-3.995.428-1.36.501-2.734 1.344-3.772 2.615a8.157 8.157 0 00-1.316 2.125 8.16 8.16 0 00-.672 2.517c-.219 1.767.169 3.653 1.093 5.296.953 1.627 2.387 2.913 4.023 3.616a8.163 8.163 0 002.513.688 8.181 8.181 0 002.499-.066c1.621-.256 3.042-1.018 4.16-1.94 1.122-.934 1.892-2.1 2.383-3.234a8.822 8.822 0 00.409-5.769c-.375-1.346-.819-2.007-.774-2.028.005-.003.032.038.08.12l.206.369c.093.161.199.366.294.621.104.252.23.54.317.885.22.673.359 1.541.36 2.549a8.844 8.844 0 01-.679 3.343c-.49 1.17-1.271 2.377-2.42 3.35-1.145.96-2.607 1.755-4.283 2.029-.83.16-1.708.183-2.586.079a8.435 8.435 0 01-2.606-.706c-1.697-.724-3.188-2.058-4.176-3.745-.958-1.703-1.358-3.663-1.127-5.493.095-.916.34-1.799.704-2.606a8.442 8.442 0 011.372-2.193c1.082-1.309 2.506-2.171 3.911-2.676 1.419-.502 2.856-.568 4.113-.401a8.837 8.837 0 013.229 1.099c.87.508 1.55 1.066 2.021 1.596.254.248.439.503.604.72.173.211.296.406.388.568l.215.364c.047.082.068.125.063.128z" fill="#F5F5F5"/><path d="M455.406 278.184c.075.049-2.214 3.658-5.111 8.06-2.898 4.403-5.308 7.932-5.383 7.882-.075-.049 2.213-3.658 5.112-8.061 2.897-4.401 5.307-7.93 5.382-7.881zm8.218 29.293c-.017.045-.866-.234-2.245-.66a93.823 93.823 0 00-5.428-1.508 94.083 94.083 0 00-5.514-1.161c-1.42-.257-2.302-.4-2.296-.448.003-.022.227-.014.63.021.404.033.985.101 1.702.2 1.434.199 3.406.549 5.554 1.072a57.698 57.698 0 015.423 1.606c.682.242 1.23.45 1.604.606.375.155.578.251.57.272zm-20.122 1.936c.041-.013.314.736.69 1.966.377 1.23.849 2.944 1.294 4.857.444 1.913.775 3.661.979 4.931.204 1.27.29 2.062.247 2.069-.046.008-.211-.77-.473-2.027a218.02 218.02 0 00-1.069-4.899 213.266 213.266 0 00-1.199-4.868c-.319-1.244-.513-2.015-.469-2.029zm-9.04-1.024c.077.046-1.429 2.683-3.362 5.888-1.934 3.207-3.563 5.767-3.64 5.721-.077-.046 1.428-2.682 3.362-5.889 1.934-3.205 3.564-5.766 3.64-5.72zm-1.28-28.534c.086-.026 1.022 2.765 2.091 6.235 1.069 3.47 1.866 6.304 1.781 6.331-.086.026-1.022-2.765-2.091-6.235-1.069-3.47-1.866-6.304-1.781-6.331zm-1.896 19.703c-.009.089-2.348-.061-5.225-.336-2.878-.275-5.203-.57-5.194-.659.008-.089 2.348.061 5.225.336 2.876.274 5.202.569 5.194.659zm14.464-1.763a6.904 6.904 0 11-11.974 6.875 6.904 6.904 0 0111.974-6.875z" fill="#F5F5F5"/><path d="M443.098 301.285c-.034.039-.36-.235-.949-.562a6.614 6.614 0 00-2.47-.797 6.6 6.6 0 00-2.584.249c-.645.194-1.022.391-1.047.346-.02-.032.321-.304.972-.563a5.77 5.77 0 012.693-.355 5.77 5.77 0 012.555.923c.581.393.856.733.83.759z" fill="#EBEBEB"/><path d="M440.331 297.24c.09.05-.769 1.354-1.089 3.203-.344 1.845.007 3.366-.095 3.382-.07.037-.581-1.513-.225-3.439.338-1.93 1.357-3.205 1.409-3.146z" fill="#EBEBEB"/><path d="M525.81 91.497l-6.542-11.395-10.246 1.506-8.46-10.63 4.36-10.584-11.424-7.582-8.529 8.601-11.231-1.969-4.554-13.209-13.65 1.441-.773 11.554-10.171 5.167-10.767-7.622-10.922 7.954 5.675 12.229-6.499 9.792-11.808-.628-3.085 14.565 11.236 4.323.967 12.239-11.648 6.688 5.567 12.628 12.056-1.872 7.987 9.219-4.177 11.489 11.044 7.8 8.618-9.325 11.958 3.235 3.72 12.342 13.289-.897 1.716-11.086 11.394-6.542 9.323 7.441 11.788-8.789-5.961-10.382 5.809-10.406 11.953.881 3.666-13.552-10.261-5.556-1.365-12.347 9.947-6.721zm-46.292 39.879c-12.866 7.387-29.284 2.946-36.671-9.92-7.387-12.866-2.946-29.284 9.92-36.671 12.866-7.387 29.284-2.946 36.671 9.92 7.387 12.866 2.945 29.284-9.92 36.671z" fill="#E0E0E0"/><path d="M478.039 100.273c-.066.046-.622-1.104-2.185-2.716-1.537-1.579-4.334-3.592-8.327-4.1-1.97-.237-4.208-.113-6.411.687-2.182.804-4.387 2.158-6.053 4.197a13.122 13.122 0 00-2.113 3.41 13.124 13.124 0 00-1.079 4.04c-.351 2.835.272 5.862 1.754 8.499 1.53 2.611 3.831 4.676 6.456 5.802a13.14 13.14 0 004.034 1.105c1.361.167 2.721.137 4.01-.105 2.601-.411 4.882-1.634 6.677-3.113 1.801-1.5 3.036-3.37 3.825-5.191 1.575-3.704 1.246-7.135.657-9.258-.606-2.163-1.318-3.223-1.245-3.257.008-.005.051.061.128.192l.33.592c.15.259.32.587.473.997.166.404.37.867.508 1.42.353 1.081.576 2.474.577 4.091a14.212 14.212 0 01-1.089 5.364c-.787 1.877-2.04 3.815-3.884 5.376-1.837 1.54-4.184 2.817-6.874 3.257a13.568 13.568 0 01-4.151.127 13.566 13.566 0 01-4.182-1.132c-2.724-1.161-5.117-3.302-6.702-6.01-1.538-2.733-2.18-5.879-1.809-8.816a13.55 13.55 0 011.131-4.182 13.533 13.533 0 012.202-3.52c1.736-2.101 4.021-3.484 6.277-4.295 2.278-.806 4.583-.911 6.601-.644 2.028.274 3.783.956 5.182 1.763 1.397.816 2.487 1.712 3.243 2.561.407.398.705.808.97 1.155.277.339.474.651.623.911l.345.584c.074.135.109.205.101.209z" fill="#E0E0E0"/><path d="M490.819 70.358c.12.079-3.553 5.871-8.202 12.935-4.651 7.067-8.518 12.729-8.638 12.65-.12-.079 3.552-5.87 8.203-12.936 4.649-7.064 8.517-12.728 8.637-12.649zm13.195 47.009c-.027.073-1.39-.375-3.602-1.059a151.749 151.749 0 00-8.711-2.421 151.139 151.139 0 00-8.848-1.863c-2.279-.412-3.695-.642-3.685-.719.005-.036.364-.022 1.012.034.648.053 1.581.161 2.732.322 2.301.319 5.466.882 8.913 1.721a92.42 92.42 0 018.703 2.577c1.095.388 1.974.721 2.573.973.599.248.925.401.913.435zm-32.293 3.108c.066-.02.503 1.181 1.107 3.155a121.638 121.638 0 012.076 7.794c.712 3.07 1.244 5.874 1.571 7.913.328 2.038.465 3.309.397 3.32-.074.012-.339-1.236-.759-3.253a346.412 346.412 0 00-1.716-7.862 342.104 342.104 0 00-1.924-7.812c-.511-1.996-.823-3.234-.752-3.255zm-14.508-1.644c.123.074-2.293 4.306-5.395 9.45-3.103 5.146-5.718 9.256-5.841 9.182-.123-.074 2.292-4.305 5.396-9.451 3.102-5.144 5.717-9.255 5.84-9.181zm-2.058-45.792c.137-.042 1.64 4.438 3.355 10.005 1.716 5.57 2.995 10.117 2.858 10.16-.137.042-1.639-4.437-3.355-10.006-1.716-5.567-2.995-10.116-2.858-10.159zm-3.043 31.619c-.014.143-3.768-.098-8.385-.539-4.618-.441-8.35-.914-8.336-1.058.014-.143 3.767.098 8.386.539 4.617.442 8.349.915 8.335 1.058zm23.217-2.828c3.047 5.306 1.215 12.078-4.091 15.124-5.306 3.047-12.078 1.215-15.124-4.091-3.047-5.306-1.215-12.078 4.091-15.124 5.306-3.047 12.078-1.215 15.124 4.091z" fill="#E0E0E0"/><path d="M471.076 107.431c-.055.062-.578-.377-1.523-.902a10.595 10.595 0 00-3.964-1.278 10.586 10.586 0 00-4.146.4c-1.035.311-1.64.628-1.68.555-.033-.051.515-.488 1.56-.903 1.035-.416 2.6-.756 4.322-.569 1.722.186 3.178.853 4.099 1.482.933.628 1.374 1.172 1.332 1.215z" fill="#EBEBEB"/><path d="M466.634 100.939c.144.081-1.234 2.173-1.748 5.14-.552 2.961.012 5.402-.152 5.427-.112.059-.933-2.428-.361-5.52.541-3.095 2.177-5.142 2.261-5.047zm-142.686 12.376l-1.696-2.953-2.656.39-2.193-2.755 1.13-2.743-2.961-1.965-2.211 2.229-2.911-.51-1.18-3.424-3.538.373-.2 2.995-2.636 1.339-2.791-1.976-2.83 2.062 1.471 3.17-1.684 2.538-3.06-.163-.799 3.775 2.912 1.12.251 3.172-3.019 1.733 1.443 3.273 3.125-.485 2.07 2.389-1.083 2.978 2.862 2.022 2.234-2.417 3.099.838.964 3.199 3.444-.232.445-2.873 2.953-1.696 2.416 1.929 3.055-2.278-1.545-2.691 1.506-2.697 3.098.228.95-3.512-2.659-1.44-.354-3.2 2.578-1.742zm-11.998 10.336a6.963 6.963 0 11-6.934-12.077 6.963 6.963 0 016.934 12.077z" fill="#EBEBEB"/><path d="M311.568 115.59c-.04.025-.207-.259-.621-.652a3.678 3.678 0 00-2.122-.979 3.51 3.51 0 00-3.077 1.245c-.843.976-1.105 2.62-.341 3.923.74 1.317 2.292 1.92 3.56 1.684a3.51 3.51 0 002.627-2.03 3.686 3.686 0 00.224-2.326c-.131-.556-.292-.843-.25-.865.02-.014.244.24.445.809a3.67 3.67 0 01-.079 2.524c-.379 1.019-1.41 2.093-2.883 2.36-1.44.299-3.242-.378-4.095-1.897-.882-1.503-.558-3.399.426-4.492.973-1.138 2.42-1.487 3.491-1.301a3.664 3.664 0 012.22 1.204c.391.461.497.783.475.793z" fill="#EBEBEB"/><path d="M314.88 107.836c.12.079-.76 1.628-1.965 3.459-1.206 1.831-2.28 3.252-2.4 3.173-.12-.079.759-1.627 1.965-3.459 1.206-1.831 2.28-3.252 2.4-3.173zm3.42 12.184c-.053.139-1.471-.287-3.237-.715-1.765-.434-3.22-.709-3.203-.857.013-.138 1.524-.092 3.326.351 1.803.437 3.166 1.092 3.114 1.221zm-8.369.806c.135-.043.643 1.194 1.013 2.794.373 1.6.462 2.934.322 2.955-.144.023-.461-1.259-.829-2.837-.365-1.579-.646-2.869-.506-2.912zm-3.764-.427c.123.074-.429 1.216-1.233 2.549-.804 1.334-1.556 2.354-1.679 2.28-.123-.074.429-1.215 1.233-2.549.804-1.333 1.556-2.354 1.679-2.28zm-.531-11.868c.137-.042.609 1.093 1.054 2.536.445 1.444.694 2.648.556 2.69-.137.042-.609-1.093-1.054-2.537-.445-1.442-.694-2.646-.556-2.689zm-.786 8.195c-.014.143-.995.167-2.192.052-1.197-.114-2.156-.323-2.142-.466.014-.143.995-.167 2.192-.052 1.196.114 2.155.323 2.142.466zm6.016-.733a2.871 2.871 0 11-4.98 2.86 2.871 2.871 0 014.98-2.86z" fill="#EBEBEB"/><path d="M309.766 117.445c-.1.108-.662-.296-1.443-.373-.779-.091-1.415.183-1.489.056-.096-.103.55-.676 1.545-.573.993.111 1.503.809 1.387.89z" fill="#E0E0E0"/><path d="M308.611 115.762c.122.086-.14.645-.263 1.366-.136.719-.085 1.335-.229 1.373-.131.047-.439-.615-.283-1.465.149-.85.669-1.363.775-1.274z" fill="#E0E0E0"/><path d="M600.841 100.958l-2.756-4.799-4.316.634-3.563-4.477 1.836-4.458-4.812-3.193-3.593 3.623-4.73-.829-1.918-5.564-5.75.607-.326 4.867-4.284 2.176-4.535-3.21-4.6 3.35 2.39 5.151-2.737 4.124-4.973-.264-1.299 6.135 4.732 1.821.407 5.155-4.906 2.817 2.345 5.319 5.078-.789 3.364 3.883-1.76 4.839 4.652 3.285 3.63-3.928 5.037 1.362 1.567 5.198 5.597-.378.723-4.669 4.799-2.756 3.927 3.134 4.965-3.702-2.511-4.373 2.447-4.383 5.035.371 1.544-5.708-4.322-2.34-.575-5.201 4.191-2.83zm-19.499 16.797c-5.419 3.111-12.334 1.241-15.446-4.178-3.112-5.419-1.241-12.334 4.178-15.446 5.419-3.112 12.334-1.241 15.446 4.178 3.112 5.42 1.241 12.335-4.178 15.446z" fill="#EBEBEB"/><path d="M580.72 104.655c-.046.03-.298-.444-.963-1.103a5.973 5.973 0 00-3.479-1.662c-1.616-.221-3.733.355-5.13 2.041-1.414 1.623-1.859 4.373-.581 6.553 1.238 2.203 3.839 3.206 5.953 2.803 2.161-.357 3.725-1.895 4.349-3.402a5.966 5.966 0 00.318-3.842c-.234-.907-.515-1.364-.467-1.388.016-.009.091.1.22.317.134.214.297.555.443 1.015.296.903.487 2.397-.174 4.04-.618 1.62-2.267 3.317-4.606 3.732a6.13 6.13 0 01-3.593-.425c-1.176-.499-2.211-1.423-2.894-2.591-.664-1.179-.94-2.538-.778-3.805a6.13 6.13 0 011.444-3.317c1.537-1.81 3.833-2.379 5.544-2.096 1.752.258 2.946 1.175 3.577 1.886.324.358.536.671.654.894.123.221.179.341.163.35z" fill="#EBEBEB"/><path d="M586.104 92.055c.12.079-1.37 2.556-3.329 5.531-1.959 2.977-3.644 5.324-3.764 5.245-.12-.079 1.37-2.555 3.329-5.532 1.959-2.975 3.644-5.323 3.764-5.244zm5.556 19.8c-.053.142-2.341-.622-5.222-1.319-2.879-.708-5.261-1.083-5.243-1.234.012-.135 2.45.012 5.367.728 2.918.707 5.15 1.699 5.098 1.825zm-13.601 1.309c.133-.042.888 1.984 1.488 4.578.605 2.593.82 4.744.682 4.765-.146.023-.589-2.076-1.19-4.647-.595-2.573-1.122-4.653-.98-4.696zm-6.109-.693c.123.074-.836 1.891-2.143 4.058s-2.466 3.864-2.589 3.789c-.123-.074.836-1.891 2.143-4.058 1.307-2.166 2.466-3.863 2.589-3.789zm-.868-19.287c.138-.042.835 1.825 1.557 4.17.723 2.346 1.197 4.281 1.06 4.324-.137.042-.835-1.824-1.557-4.17-.723-2.346-1.197-4.281-1.06-4.324zm-1.281 13.318c-.014.143-1.602.109-3.546-.077-1.945-.186-3.51-.452-3.497-.595.014-.143 1.601-.109 3.546.077 1.945.185 3.511.452 3.497.595zm9.776-1.191a4.666 4.666 0 11-8.093 4.647 4.666 4.666 0 018.093-4.647z" fill="#EBEBEB"/><path d="M577.784 107.67c-.095.117-.992-.632-2.327-.769-1.334-.152-2.37.387-2.438.252-.103-.096.944-.934 2.494-.77 1.548.172 2.392 1.215 2.271 1.287z" fill="#E0E0E0"/><path d="M575.915 104.935c.127.085-.379.979-.588 2.192-.227 1.209-.064 2.224-.212 2.259-.127.05-.547-1.011-.3-2.351.235-1.342.999-2.19 1.1-2.1z" fill="#E0E0E0"/><path d="M244.089 329.09l-2.756-4.799-4.316.634-3.563-4.477 1.837-4.458-4.812-3.193-3.593 3.623-4.73-.829-1.918-5.564-5.749.607-.326 4.867-4.284 2.176-4.535-3.21-4.6 3.35 2.39 5.151-2.737 4.124-4.973-.264-1.299 6.135 4.733 1.821.407 5.155-4.906 2.817 2.345 5.319 5.078-.789 3.364 3.883-1.76 4.839 4.652 3.285 3.63-3.928 5.037 1.362 1.567 5.198 5.597-.378.723-4.669 4.799-2.756 3.927 3.134 4.965-3.702-2.511-4.373 2.447-4.383 5.035.371 1.544-5.708-4.322-2.34-.575-5.201 4.188-2.83zm-19.498 16.797c-5.419 3.111-12.334 1.241-15.446-4.178-3.111-5.419-1.241-12.334 4.178-15.446 5.419-3.111 12.334-1.241 15.446 4.178 3.112 5.42 1.241 12.335-4.178 15.446z" fill="#EBEBEB"/><path d="M223.967 332.787c-.046.03-.298-.444-.963-1.103a5.973 5.973 0 00-3.479-1.662c-1.616-.221-3.733.355-5.13 2.041-1.414 1.622-1.858 4.373-.581 6.553 1.238 2.203 3.839 3.206 5.953 2.803 2.161-.357 3.725-1.895 4.349-3.402a5.966 5.966 0 00.318-3.842c-.234-.907-.516-1.363-.467-1.388.015-.009.09.1.22.317.134.214.296.555.442 1.015.296.903.486 2.397-.174 4.04-.618 1.62-2.267 3.317-4.606 3.732a6.13 6.13 0 01-3.593-.425c-1.175-.499-2.21-1.423-2.894-2.591-.664-1.179-.94-2.538-.778-3.805a6.13 6.13 0 011.444-3.317c1.537-1.81 3.833-2.379 5.544-2.096 1.752.258 2.946 1.175 3.577 1.886.324.358.536.671.654.894.124.222.18.341.164.35z" fill="#EBEBEB"/><path d="M229.354 320.187c.12.079-1.37 2.556-3.329 5.531-1.959 2.976-3.644 5.324-3.764 5.245-.12-.079 1.37-2.555 3.329-5.531 1.958-2.976 3.644-5.324 3.764-5.245zm5.556 19.8c-.053.142-2.341-.622-5.222-1.319-2.88-.708-5.261-1.083-5.243-1.234.012-.135 2.45.011 5.367.728 2.917.706 5.149 1.699 5.098 1.825zm-13.602 1.309c.133-.042.888 1.984 1.488 4.578.605 2.593.821 4.745.682 4.765-.146.023-.589-2.076-1.189-4.647-.595-2.573-1.122-4.652-.981-4.696zm-6.112-.693c.123.074-.837 1.891-2.143 4.058-1.307 2.167-2.466 3.864-2.589 3.789-.123-.074.836-1.891 2.143-4.058 1.306-2.166 2.466-3.863 2.589-3.789zm-.867-19.287c.137-.042.835 1.825 1.557 4.17.723 2.346 1.197 4.281 1.06 4.324-.137.042-.835-1.824-1.557-4.17-.723-2.346-1.198-4.281-1.06-4.324zm-1.278 13.318c-.014.143-1.601.109-3.546-.077-1.945-.186-3.51-.452-3.497-.596.014-.143 1.601-.109 3.546.077 1.945.186 3.511.453 3.497.596zm9.776-1.191a4.666 4.666 0 11-8.093 4.647 4.666 4.666 0 018.093-4.647z" fill="#EBEBEB"/><path d="M221.034 335.802c-.095.117-.992-.632-2.327-.768-1.334-.152-2.37.387-2.438.252-.103-.096.944-.934 2.494-.77 1.548.171 2.392 1.214 2.271 1.286z" fill="#E0E0E0"/><path d="M219.165 333.067c.127.085-.38.98-.588 2.192-.227 1.209-.064 2.224-.212 2.259-.127.05-.547-1.012-.3-2.352.235-1.341.999-2.189 1.1-2.099z" fill="#E0E0E0"/><path d="M715.721 465.497c0 .144-153.161.26-342.051.26-188.956 0-342.084-.117-342.084-.26 0-.143 153.128-.26 342.084-.26 188.89 0 342.051.116 342.051.26zM445.127 241.359v-7.305l-5.357-2.11-1.136-7.467 5.032-3.896-3.409-6.818-6.493 1.785-4.87-4.058 1.461-7.629-6.98-3.084-3.571 5.357-6.334-.325-3.081-6.656-7.467.812-.649 7.467-5.844 2.922-5.519-3.571-5.519 6.169 4.22 5.195-2.922 6.168h-7.467l-.812 7.63 6.331 2.435 1.299 6.655-5.194 4.383 3.165 6.818 6.737-2.11 4.87 4.87-1.623 6.98 6.655 3.247 3.896-4.87h7.305l2.435 6.168 8.116-.974v-6.656l5.681-3.409 5.519 3.734 5.519-5.519-3.409-5.519 2.76-6.331 6.655-.488zm-33.359 6.412c-8.248 0-14.934-6.686-14.934-14.934s6.686-14.934 14.934-14.934 14.934 6.686 14.934 14.934-6.686 14.934-14.934 14.934z" fill="#263238"/><path d="M419.666 232.367c-.061.004-.026-.704-.345-1.904a7.87 7.87 0 00-2.886-4.228c-.878-.648-1.981-1.197-3.249-1.414-1.26-.209-2.679-.164-4.026.353a7.584 7.584 0 00-3.546 2.675c-.939 1.252-1.467 2.859-1.483 4.516.015 1.657.543 3.265 1.482 4.518a7.582 7.582 0 003.547 2.676c1.348.518 2.767.563 4.027.353 1.268-.217 2.371-.766 3.249-1.415a7.873 7.873 0 002.885-4.228c.319-1.199.285-1.906.345-1.902.018 0 .027.173.027.507.007.332-.036.827-.176 1.446-.263 1.221-1.032 3.041-2.859 4.471-.905.699-2.056 1.297-3.393 1.546-1.327.241-2.831.21-4.27-.327a8.015 8.015 0 01-3.794-2.825c-1.007-1.331-1.577-3.051-1.592-4.82.015-1.768.586-3.487 1.592-4.818a8.028 8.028 0 013.793-2.824c1.439-.536 2.942-.568 4.269-.327 1.337.249 2.488.848 3.393 1.546 1.827 1.43 2.596 3.25 2.859 4.471.14.619.182 1.114.176 1.446.002.334-.007.508-.025.508z" fill="#263238"/><path d="M434.109 221.482c.065.128-3.286 1.95-7.483 4.069-4.199 2.119-7.654 3.733-7.719 3.604-.065-.128 3.285-1.95 7.484-4.069 4.197-2.119 7.653-3.733 7.718-3.604zm-6.653 26.316c-.119.099-2.209-2.307-5.053-5.003-2.835-2.707-5.341-4.675-5.248-4.798.041-.055.723.368 1.758 1.144a44.352 44.352 0 013.849 3.277 44.457 44.457 0 013.464 3.681c.826.996 1.282 1.655 1.23 1.699zm-16.426-7.44c.135.029-.369 2.835-1.385 6.194-1.011 3.362-2.142 5.978-2.271 5.927-.139-.053.768-2.736 1.773-6.077 1.01-3.339 1.738-6.077 1.883-6.044zm-6.543-4.809c.07.126-2.241 1.542-5.161 3.164-2.921 1.622-5.344 2.834-5.414 2.708-.07-.126 2.241-1.542 5.161-3.164 2.92-1.621 5.344-2.834 5.414-2.708zm11.682-22.648c.14.032-.325 2.619-1.039 5.778-.714 3.16-1.407 5.696-1.547 5.664-.14-.032.325-2.618 1.039-5.779.714-3.158 1.407-5.694 1.547-5.663zm-10.219 14.403c-.083.117-1.856-.996-3.96-2.487s-3.743-2.794-3.659-2.912c.083-.117 1.856.996 3.961 2.487 2.103 1.491 3.742 2.794 3.658 2.912zm11.977 5.063a6.159 6.159 0 11-12.318 0 6.159 6.159 0 0112.318 0z" fill="#263238"/><path d="M414.326 233.889c-.141.063-.644-1.42-2.11-2.477-1.456-1.07-3.022-1.093-3.005-1.246-.002-.065.385-.154 1.018-.084a4.916 4.916 0 012.294.909c.796.579 1.314 1.327 1.57 1.903.261.581.295.977.233.995z" fill="#455A64"/><path d="M413.983 229.53c.072.138-1.128.802-2.177 2.069-1.068 1.252-1.516 2.547-1.664 2.5-.133-.016.116-1.48 1.266-2.835 1.136-1.365 2.536-1.862 2.575-1.734z" fill="#455A64"/><path d="M411.38 154.291l-4.94-8.603-7.736 1.137-6.388-8.026 3.292-7.991-8.625-5.724-6.44 6.494-8.479-1.486-3.439-9.973-10.306 1.088-.584 8.724-7.679 3.901-8.129-5.755-8.245 6.005 4.285 9.233-4.907 7.393-8.915-.474-2.329 10.997 8.483 3.264.73 9.241-8.794 5.049 4.203 9.534 9.102-1.413 6.03 6.96-3.154 8.674 8.338 5.889 6.507-7.041 9.028 2.442 2.808 9.318 10.034-.677 1.295-8.37 8.603-4.94 7.039 5.618 8.9-6.635-4.5-7.838 4.386-7.857 9.025.665 2.768-10.232-7.747-4.195-1.031-9.322 7.511-5.074zM376.429 184.4c-9.714 5.577-22.11 2.224-27.687-7.49-5.577-9.714-2.224-22.11 7.49-27.687 9.714-5.577 22.11-2.224 27.687 7.49 5.577 9.714 2.224 22.11-7.49 27.687z" fill="url(#paint0_linear_997_1541)"/><path d="M375.312 160.917c-.058.039-.485-.824-1.668-2.034a10.688 10.688 0 00-6.275-3.068c-1.481-.175-3.163-.079-4.817.524-1.638.607-3.294 1.624-4.543 3.156a9.822 9.822 0 00-1.584 2.561 9.849 9.849 0 00-.809 3.033c-.263 2.128.206 4.399 1.318 6.378 1.148 1.959 2.874 3.509 4.845 4.355.974.445 2.003.72 3.027.831a9.866 9.866 0 003.011-.077c1.953-.307 3.667-1.223 5.017-2.333 1.355-1.125 2.285-2.529 2.88-3.896 1.189-2.782.95-5.364.514-6.965-.448-1.631-.979-2.435-.916-2.465 0 0 .592.765 1.11 2.41.504 1.614.816 4.265-.369 7.163-.594 1.424-1.542 2.896-2.94 4.082-1.393 1.17-3.173 2.141-5.214 2.477a10.264 10.264 0 01-3.151.098 10.29 10.29 0 01-3.176-.858c-2.068-.881-3.887-2.507-5.09-4.563-1.168-2.076-1.655-4.465-1.373-6.695.116-1.116.415-2.192.86-3.174.43-.988.994-1.896 1.673-2.671 1.319-1.594 3.054-2.642 4.767-3.254 1.729-.609 3.478-.686 5.007-.481 3.101.437 5.233 2.043 6.373 3.292 1.161 1.277 1.523 2.174 1.523 2.174z" fill="#263238"/><path d="M384.961 138.331c.12.079-2.629 4.468-6.14 9.801-3.512 5.335-6.455 9.595-6.575 9.516-.12-.079 2.629-4.467 6.14-9.802 3.511-5.334 6.455-9.594 6.575-9.515zm9.963 35.492c-.026.072-1.061-.252-2.734-.757a127.815 127.815 0 00-6.578-1.809 127.59 127.59 0 00-6.673-1.424c-1.718-.322-2.785-.511-2.775-.587.008-.067 1.093-.007 2.834.224a65.76 65.76 0 016.738 1.282 65.602 65.602 0 016.57 1.965c1.65.597 2.641 1.043 2.618 1.106zm-24.379 2.347c.067-.02.411.882.878 2.37a83.575 83.575 0 011.586 5.882 83.203 83.203 0 011.168 5.98c.237 1.542.325 2.504.256 2.515-.073.012-.29-.928-.618-2.448s-.777-3.62-1.313-5.93c-.537-2.309-1.058-4.391-1.434-5.901-.374-1.508-.594-2.447-.523-2.468zm-10.957-1.242c.123.074-1.676 3.284-4.019 7.167-2.343 3.885-4.342 6.974-4.465 6.899-.123-.074 1.676-3.283 4.019-7.168 2.343-3.883 4.342-6.972 4.465-6.898zm-1.551-34.573c.137-.042 1.299 3.332 2.594 7.535 1.296 4.205 2.234 7.647 2.097 7.689-.137.042-1.299-3.331-2.594-7.536-1.296-4.203-2.235-7.645-2.097-7.688zm-2.299 23.873c-.014.143-2.851-.011-6.337-.343-3.487-.333-6.302-.719-6.288-.862.014-.143 2.85.011 6.337.343 3.486.333 6.302.719 6.288.862zm17.53-2.136a8.365 8.365 0 11-14.51 8.33 8.365 8.365 0 0114.51-8.33z" fill="#263238"/><path d="M370.055 166.321c-.084.135-1.671-1.324-4.149-1.583-2.477-.277-4.339.807-4.392.658-.033-.054.373-.399 1.163-.725.782-.327 1.973-.593 3.285-.451 1.311.142 2.418.657 3.112 1.144.702.488 1.026.912.981.957z" fill="#455A64"/><path d="M366.705 161.42c.137.082-.873 1.668-1.257 3.892-.415 2.219-.02 4.057-.177 4.086-.118.055-.769-1.828-.335-4.179.411-2.353 1.677-3.892 1.769-3.799z" fill="#455A64"/><path d="M444.046 178.68l-1.696-2.953-2.656.39-2.193-2.755 1.13-2.743-2.961-1.965-2.211 2.229-2.911-.51-1.18-3.424-3.538.373-.2 2.995-2.636 1.339-2.791-1.976-2.83 2.062 1.471 3.17-1.684 2.538-3.06-.163-.799 3.775 2.912 1.12.251 3.172-3.019 1.733 1.443 3.273 3.125-.485 2.07 2.389-1.083 2.978 2.862 2.022 2.234-2.417 3.099.838.964 3.199 3.444-.232.445-2.873 2.953-1.696 2.416 1.929 3.055-2.278-1.545-2.691 1.506-2.697 3.098.228.95-3.513-2.659-1.44-.354-3.2 2.578-1.741zm-11.998 10.336a6.96 6.96 0 01-9.504-2.571 6.962 6.962 0 119.504 2.571z" fill="#263238"/><path d="M431.666 180.955c-.04.025-.207-.259-.621-.652a3.678 3.678 0 00-2.122-.979 3.51 3.51 0 00-3.077 1.245c-.843.976-1.104 2.62-.341 3.923.74 1.317 2.292 1.92 3.56 1.684a3.509 3.509 0 002.627-2.03 3.686 3.686 0 00.224-2.326c-.131-.556-.292-.843-.25-.865.02-.014.244.24.445.809a3.67 3.67 0 01-.079 2.524c-.379 1.019-1.41 2.093-2.883 2.36-1.44.299-3.242-.378-4.095-1.897-.882-1.502-.558-3.399.426-4.492.973-1.138 2.42-1.487 3.491-1.301a3.67 3.67 0 012.22 1.204c.391.461.496.783.475.793z" fill="#263238"/><path d="M434.978 173.201c.12.079-.76 1.628-1.965 3.459-1.206 1.831-2.28 3.252-2.4 3.173-.12-.079.759-1.627 1.965-3.459 1.205-1.831 2.28-3.252 2.4-3.173zm3.419 12.184c-.053.139-1.471-.287-3.237-.714-1.765-.434-3.22-.709-3.203-.857.013-.138 1.524-.092 3.326.351 1.803.437 3.166 1.091 3.114 1.22zm-8.369.806c.135-.043.643 1.195 1.013 2.794.373 1.6.462 2.934.322 2.955-.145.023-.461-1.259-.829-2.837-.365-1.579-.645-2.869-.506-2.912zm-3.759-.426c.123.074-.429 1.216-1.233 2.549-.804 1.334-1.556 2.354-1.679 2.28-.123-.074.429-1.215 1.233-2.549.804-1.334 1.556-2.354 1.679-2.28zm-.536-11.869c.138-.042.609 1.093 1.054 2.536.445 1.443.694 2.648.556 2.69-.137.042-.609-1.093-1.054-2.537-.444-1.442-.693-2.646-.556-2.689zm-.787 8.195c-.014.143-.995.167-2.191.052-1.197-.114-2.156-.323-2.142-.466.014-.143.995-.167 2.192-.052 1.195.115 2.155.323 2.141.466zm6.018-.733a2.871 2.871 0 11-4.98 2.86 2.871 2.871 0 014.98-2.86z" fill="#263238"/><path d="M429.859 182.81c-.1.108-.662-.296-1.443-.373-.779-.091-1.415.183-1.489.056-.096-.104.55-.676 1.546-.573.993.111 1.502.81 1.386.89z" fill="#455A64"/><path d="M428.709 181.127c.122.086-.14.645-.263 1.366-.136.719-.085 1.335-.229 1.373-.131.047-.439-.615-.283-1.465.15-.85.669-1.363.775-1.274z" fill="#455A64"/><path d="M492.851 179.969s-3.403-1.186-3.437-3.414c-.034-2.228 25.448-5.418 30.32 7.024 0 0-.954.675-4.891.419" fill="url(#paint1_linear_997_1541)"/><path d="M492.851 179.969s-3.403-1.186-3.437-3.414c-.034-2.228 25.448-5.418 30.32 7.024 0 0-.954.675-4.891.419" fill="#000" opacity=".5"/><path d="M514.012 216.034l-15.552-1.242c-.097-1.816.033-8.841.033-8.841s-6.471-1.006-6.551-7.476c-.08-6.47 1.042-21.326 1.042-21.326a22.486 22.486 0 0122.593 2.84l.959.738-2.524 35.307z" fill="#FFBE9D"/><path d="M494.472 188.269a.94.94 0 10-1.264-1.392.94.94 0 001.264 1.392z" fill="#263238"/><path d="M492.903 186.792c.101.112.737-.377 1.628-.381.891-.017 1.538.456 1.636.342.048-.051-.053-.253-.335-.467a2.166 2.166 0 00-1.308-.412 2.165 2.165 0 00-1.297.444c-.277.22-.373.424-.324.474zm10.267.777a.939.939 0 10.983 1.6.939.939 0 00-.983-1.6z" fill="#263238"/><path d="M502.583 187.577c.102.112.737-.377 1.628-.381.891-.017 1.538.456 1.636.342.048-.051-.053-.253-.335-.467a2.166 2.166 0 00-1.308-.412 2.168 2.168 0 00-1.297.444c-.277.22-.373.424-.324.474zm-3.574 7.351c.006-.07-.545-.181-1.441-.305-.233-.025-.416-.078-.433-.203-.042-.141.048-.39.167-.667l.705-1.811c.974-2.58 1.656-4.71 1.525-4.76-.131-.049-1.026 2.001-1.999 4.581l-.667 1.825c-.086.27-.248.584-.128.969a.608.608 0 00.402.372c.154.047.286.047.398.052.903.031 1.465.016 1.471-.053z" fill="#263238"/><path d="M501.905 195.912c-1.167.465-2.561 1.047-4.37 1.27 0 0 1.04 1.663 2.906.98 1.937-.709 1.464-2.25 1.464-2.25z" fill="#fff"/><path d="M498.48 205.858s4.089.333 8.434-2.397c0 0-1.994 4.656-8.449 4.073l.015-1.676z" fill="#EB996E"/><path d="M492.85 178.778s3.785 2.191 9.083.019c3.477-1.425 7.445-1.954 8.257-1.216.812.738.738 4.206 3.984 5.46 0 0-.716 6.574 1.93 6.534 2.645-.041 1.758-10.371 1.758-10.371l-6.197-3.616-6.918-1.845-6.68.443-5.219 1.022v3.57h.002z" fill="#263238"/><path d="M515.736 187.43c.11-.048 4.445-1.315 4.304 3.108-.141 4.423-4.553 3.369-4.556 3.242-.004-.128.252-6.35.252-6.35z" fill="#FFBE9D"/><path d="M516.887 192.147c.02-.014.076.056.205.12a.772.772 0 00.576.03c.473-.157.89-.886.937-1.682a2.555 2.555 0 00-.18-1.11c-.125-.328-.327-.561-.561-.61a.391.391 0 00-.461.197c-.063.122-.039.211-.063.218-.013.011-.092-.077-.05-.259a.492.492 0 01.183-.272.583.583 0 01.43-.099c.34.035.637.358.783.711.164.356.254.79.227 1.241-.057.89-.54 1.71-1.185 1.874a.823.823 0 01-.7-.14c-.136-.112-.157-.212-.141-.219z" fill="#EB996E"/><path d="M518.74 173.722c-.036.145-.691.088-1.425.327-.74.221-1.246.641-1.358.542-.117-.076.305-.763 1.203-1.039.895-.284 1.633.04 1.58.17zm-2.513-2.791c.124-.013.369.922.141 2.105-.233 1.203-.99 1.918-1.084 1.816-.119-.095.373-.854.574-1.922.209-1.06.209-1.993.369-1.999zm-18.991 14.407c-.144.258-.991.048-2.004.014-1.013-.056-1.875.077-1.996-.192-.132-.248.754-.908 2.042-.848 1.288.054 2.111.791 1.958 1.026zm9.925 0c-.144.258-.991.048-2.004.014-1.012-.056-1.875.077-1.996-.192-.132-.248.754-.908 2.042-.848 1.288.054 2.112.791 1.958 1.026z" fill="#263238"/><path d="M503.415 175.661c-11.663-1.269-13.897.791-14.002.894-.335-.403-.554-.793-.598-1.158-.418-3.445 3.763-4.419 3.763-4.419 2.615-11.93 13.341-10.711 13.341-10.711l.017-.09a1.928 1.928 0 012.257-1.53l1.675.322a1.928 1.928 0 011.53 2.257c12.579 4.192 8.403 15.822 8.403 15.822l1.84 2.223c1.632 3.305-1.907 4.308-1.907 4.308s-4.358-6.617-16.319-7.918z" fill="url(#paint2_linear_997_1541)"/><path d="M509.286 171.588c-.141-.031.27-2.329.918-5.133.648-2.805 1.286-5.05 1.425-5.015.139.035-.271 2.333-.918 5.134-.646 2.799-1.284 5.045-1.425 5.014zm-6.271-1.551c-.138-.039.367-2.25 1.13-4.936.763-2.688 1.493-4.834 1.631-4.795.138.039-.367 2.249-1.13 4.937-.763 2.687-1.493 4.834-1.631 4.794zm-9.913 1.447c-.009-.031.35-.172 1.019-.362a20.188 20.188 0 012.891-.568c2.466-.33 5.97-.286 9.674.62 3.706.902 6.843 2.4 8.993 3.632a33.745 33.745 0 012.491 1.56c.569.397.868.639.849.667-.046.071-1.334-.76-3.516-1.904-2.178-1.141-5.295-2.562-8.939-3.449-3.642-.89-7.072-.992-9.513-.76-2.449.219-3.925.656-3.949.564z" fill="#000" opacity=".5"/><path d="M508.723 173.696c.014-.063.814.041 2.066.394 1.251.351 2.946.983 4.695 1.933 1.747.953 3.199 2.034 4.172 2.894.976.86 1.497 1.476 1.452 1.521-.11.124-2.427-2.101-5.873-3.958-3.43-1.886-6.556-2.625-6.512-2.784zm1.892-11.728c-.136-.059-.027-.596-.16-1.22-.115-.628-.421-1.083-.317-1.189.083-.114.672.285.828 1.088.161.802-.231 1.395-.351 1.321zm8.092 13.355c-.718-.147-.453-3.531-2.254-6.88-1.741-3.382-4.68-5.078-4.395-5.754.128-.317 1.111-.319 2.493.349 1.368.652 3.09 2.069 4.206 4.192 1.117 2.121 1.311 4.343 1.073 5.84-.231 1.518-.79 2.327-1.123 2.253z" fill="#fff" opacity=".2"/><path d="M425.352 258.537s-7.694-3.945-9.041-5.741c-1.347-1.796-1.916-8.117-1.916-8.117l13.118 4.902-2.161 8.956z" fill="#FFBE9D"/><path d="M482.615 242.03c-.454.151-8.929 19.063-15.738 19.158-6.866.096-41.525-2.652-41.525-2.652l2.161-8.956 33.291-1.074 10.91-14.766 10.901 8.29z" fill="#FFBE9D"/><path d="M543.773 457.888l1.542 6.475s10.59 13.755 13.857 13.082c2.141-.441-.49-4.029-4.518-14.477l-.845-4.315-10.036-.765z" fill="url(#paint3_linear_997_1541)"/><path d="M559.602 475.414s-.01.075-.084.195a1.18 1.18 0 01-.445.415c-.232.133-.56.226-.942.207-.385-.019-.802-.182-1.199-.439-1.5-1.141-3.36-2.921-5.337-4.975a67.899 67.899 0 01-4.734-5.546 55.297 55.297 0 01-1.304-1.784l-.337-.498c-.075-.115-.112-.178-.106-.182.006-.004.054.05.14.157l.368.474 1.354 1.742a82.538 82.538 0 004.768 5.493c1.965 2.042 3.825 3.851 5.267 4.995.752.55 1.577.534 2.022.284.463-.236.547-.559.569-.538z" fill="#263238"/><path d="M558.104 470.993c-.006.035-.335-.031-.856.044-.519.069-1.223.299-1.906.723-.692.414-1.185.964-1.43 1.427-.25.462-.319.792-.355.782-.02-.002-.004-.346.224-.849.22-.503.734-1.11 1.452-1.538.709-.44 1.453-.658 2-.692.55-.039.879.083.871.103zm-10.028-3.229c-.036-.01.111-.464.195-1.215a4.99 4.99 0 00-.532-2.837c-.517-1.025-1.356-1.714-2.024-2.043-.673-.34-1.156-.378-1.148-.418.001-.012.121-.013.335.018.214.032.521.109.876.268.709.306 1.605 1.009 2.146 2.082.553 1.061.627 2.192.492 2.95a5.51 5.51 0 01-.212.887c-.066.203-.115.312-.128.308z" fill="#263238"/><path d="M544.448 458.986c.057-.022.388.878.587 2.029.193 1.148.401 2.056.355 2.074-.063.023-.367-.887-.56-2.035-.197-1.145-.433-2.049-.382-2.068zm10.392 4.896c-.004.062-.604.043-1.313.21-.71.16-1.241.44-1.272.386-.032-.043.477-.419 1.226-.589.747-.175 1.369-.059 1.359-.007zm.221 1.109c-.009.061-.51.009-1.098.153-.59.136-1.014.408-1.05.358-.037-.039.363-.411 1.002-.56.637-.155 1.162-.002 1.146.049zm.842 1.392c-.018.059-.528-.104-1.141.042-.616.133-1.005.501-1.047.456-.049-.026.315-.507 1.001-.659.685-.16 1.22.116 1.187.161zm-1.789-2.966c-.003.013-.13.004-.355-.039a7.145 7.145 0 01-.938-.253 8.218 8.218 0 01-2.046-1.039c-.232-.182-.524-.411-.529-.814.025-.428.503-.595.808-.506.328.084.546.31.738.494.388.379.713.744.973 1.061.26.317.454.586.581.775.127.191.188.302.177.31-.026.019-.329-.385-.87-.989a16.911 16.911 0 00-.994-1.018c-.193-.182-.4-.375-.651-.434-.24-.061-.55.068-.554.318-.009.244.226.478.441.637a9.484 9.484 0 001.978 1.065c.753.295 1.249.398 1.241.432z" fill="#263238"/><path d="M553.558 463.283c-.014-.001-.018-.117-.012-.324a9.28 9.28 0 01.067-.88c.049-.37.13-.816.333-1.279.105-.23.229-.463.417-.679.168-.195.498-.451.847-.268.327.205.321.581.293.844-.044.28-.128.53-.232.761a3.895 3.895 0 01-.756 1.087 4.72 4.72 0 01-.675.575c-.171.121-.274.173-.282.163-.023-.029.359-.293.849-.837.238-.275.502-.626.689-1.065.093-.217.168-.462.205-.709.03-.239-.003-.534-.191-.637-.192-.113-.434.04-.595.222a2.656 2.656 0 00-.394.621 4.981 4.981 0 00-.362 1.222c-.121.727-.167 1.187-.201 1.183z" fill="#263238"/><path d="M545.316 464.363l-.746-3.112s2.595.48 3.268 2.422c.673 1.942.506 3.324.506 3.324l5.641 6.075s1.416-2.765 3.978-2.101c0 0 2.016 4.435 1.954 5.547-.068 1.221-1.355.977-1.814.769-.208-.094-2.645-1.489-5.051-3.986-2.988-3.1-6.289-7.033-7.736-8.938z" fill="#000" opacity=".4"/><path d="M491.125 461.16l-.049-8.636 16.176-.196.206 12.634-1.002.077c-4.461.302-22.702 1.221-25.697.352-3.341-.969 10.366-4.231 10.366-4.231z" fill="url(#paint4_linear_997_1541)"/><path d="M501.59 464.906a5.612 5.612 0 012.022-3.474c1.072-.855 2.399-1.315 3.767-1.222l.058 4.521-5.847.175z" fill="#000" opacity=".4"/><path opacity=".4" d="M484.431 462.993s-4.8 1.448-4.19 2.234c.61.786 19.079.551 27.217-.266l-.03-.361-21.54.458s-.514-2.037-1.457-2.065z" fill="#000"/><path d="M507.683 464.587c0 .007-.095.018-.278.034l-.798.058-2.938.164c-2.482.121-5.913.242-9.705.294-3.793.05-7.226.022-9.711-.032l-2.942-.085-.799-.037c-.183-.011-.278-.019-.278-.026 0-.007.096-.011.279-.013h.8l2.942.022c2.484.019 5.916.026 9.706-.025 3.789-.052 7.219-.151 9.702-.237l2.94-.102.8-.022c.183-.001.28.001.28.007z" fill="#263238"/><path d="M485.894 465.31c-.06.008-.115-.693-.567-1.396-.44-.711-1.05-1.062-1.017-1.113.011-.049.708.247 1.182 1.008.484.755.451 1.512.402 1.501zm4.743-2.483c-.045.03-.277-.245-.518-.614s-.399-.692-.354-.721c.045-.03.277.245.518.614s.4.692.354.721zm1.302-.709c-.036.041-.293-.126-.575-.373s-.481-.48-.446-.521c.036-.041.293.126.575.373s.482.48.446.521zm.809-1.537c.001.054-.376.107-.842.118-.467.011-.846-.024-.847-.078-.001-.054.376-.107.843-.118.465-.011.845.024.846.078zm.27-1.081c.019.048-.391.239-.938.286-.548.05-.984-.067-.974-.117.008-.056.437-.03.957-.078.52-.044.938-.144.955-.091z" fill="#263238"/><path d="M490.072 461.423c.002.022-.397.076-1.04.007a6.013 6.013 0 01-1.11-.23c-.203-.07-.416-.121-.637-.253a.557.557 0 01-.261-.32c-.045-.155.036-.331.152-.418.987-.527 1.989.019 2.364.528.207.26.302.514.348.689.044.177.042.279.03.281-.036.014-.076-.408-.485-.881a1.886 1.886 0 00-.895-.566c-.368-.104-.891-.127-1.238.1-.164.124-.097.318.088.425.172.108.395.173.587.242.395.13.762.214 1.074.265.626.103 1.023.099 1.023.131z" fill="#263238"/><path d="M489.8 461.478c-.015.012-.172-.252-.129-.72a1.7 1.7 0 01.274-.763c.181-.233.413-.554.859-.541.241.028.362.301.327.476-.017.182-.096.34-.171.467a3.104 3.104 0 01-.483.635c-.322.323-.578.448-.59.428-.018-.025.205-.189.487-.522a3.61 3.61 0 00.427-.629c.14-.222.233-.617-.029-.661-.26-.022-.523.241-.679.45-.161.227-.248.47-.285.68-.074.423.027.692-.008.7zm17.495-1.312c-.003.036-.464-.038-1.194.057-.723.09-1.727.4-2.594 1.108a5.224 5.224 0 00-1.6 2.323c-.238.697-.256 1.163-.293 1.159-.012-.001-.019-.117-.005-.326.014-.21.06-.512.165-.875a5.005 5.005 0 011.608-2.433 5.001 5.001 0 012.703-1.094 4.32 4.32 0 01.89.011c.21.028.322.058.32.07zm-1.762-6.71c.054-.001.136 1.486.182 3.321.047 1.836.041 3.325-.014 3.326-.054.001-.136-1.485-.182-3.321-.046-1.836-.04-3.325.014-3.326zm-5.998 9.899c.008.051-1.044.237-2.358.264-1.315.031-2.373-.108-2.368-.159.005-.057 1.062-.006 2.364-.037 1.301-.027 2.355-.125 2.362-.068z" fill="#263238"/><path d="M502.706 463.31c.04.039-.084.225-.188.469-.108.242-.161.459-.217.457-.052 0-.087-.255.037-.535.123-.283.333-.43.368-.391zm1.178-1.503c.039.038-.063.207-.228.379-.165.172-.331.281-.37.243-.039-.037.063-.207.228-.379.166-.171.331-.28.37-.243zm1.699-.701c-.011.055-.226.056-.462.143-.238.081-.406.215-.449.179-.044-.029.089-.261.384-.364.293-.105.543-.008.527.042zm1.212-.336c.02.05-.072.134-.205.188-.134.054-.258.057-.279.006-.02-.05.072-.134.205-.188.134-.053.259-.056.279-.006z" fill="#263238"/><path d="M528.974 291.978l-48.854 2.773c-.129-5.362 1.921-48.454 1.921-48.454l-2.689 5.046-13.981-12.469 12.216-16.51a24.194 24.194 0 0116.182-9.571c1.897-.258 3.339-.384 4.275-.501 5.527 1.702 11.055 1.698 16.582-.01 2.563.109 4.778.561 6.866 1.316 4.297 1.554 7.888 3.909 10.955 7.092l.002-.004 14.63 24.586-17.741 11.16-2.559-7.734 2.195 43.28z" fill="url(#paint5_linear_997_1541)"/><path d="M480.121 289.648l7.55 167.791 25.19.529-4.184-140.472 28.334 141.545h23.95l-31.986-169.393" fill="#263238"/><path d="M535.766 456.762l.577 2.48 24.62.33-.374-3.878-24.823 1.068zm-27.253-.258c.144-.007.277.322.299.735.021.413-.078.754-.221.762-.144.008-.277-.321-.299-.735-.022-.413.077-.755.221-.762zm-.248-6.074c.144-.005.286.671.316 1.51.031.839-.06 1.524-.204 1.53-.144.006-.285-.67-.316-1.51-.031-.84.061-1.525.204-1.53zm-.18-6.08c.144-.004.279.673.303 1.513.023.84-.074 1.523-.218 1.527-.144.004-.279-.673-.303-1.513-.023-.839.075-1.523.218-1.527zm-.151-6.082c.144-.004.277.675.297 1.514.02.84-.08 1.524-.224 1.527-.144.003-.277-.674-.297-1.515-.02-.839.08-1.523.224-1.526zm-.147-6.086c.144-.004.277.675.298 1.515.021.84-.079 1.524-.223 1.528-.144.004-.277-.675-.297-1.515-.021-.84.079-1.524.222-1.528zm-.17-6.086c.144-.004.281.673.306 1.514.025.84-.071 1.525-.215 1.529-.144.004-.281-.673-.306-1.514-.025-.84.071-1.525.215-1.529zm-.238-6.08c.143-.006.29.669.326 1.508.035.84-.054 1.526-.198 1.531-.144.005-.288-.67-.323-1.509-.035-.839.052-1.524.195-1.53zm-.246-6.079c.144-.006.287.67.32 1.509.033.84-.056 1.525-.2 1.53-.144.006-.287-.67-.32-1.51-.033-.838.057-1.524.2-1.529zm-.221-6.08c.144-.005.284.672.314 1.511.03.84-.063 1.524-.207 1.529-.144.005-.284-.671-.314-1.511-.03-.84.063-1.524.207-1.529zm-.19-6.083c.144-.004.281.673.307 1.513.026.84-.07 1.525-.214 1.529-.144.004-.281-.673-.307-1.513-.025-.84.071-1.525.214-1.529zm-.166-6.078c.144-.004.278.674.299 1.514.022.84-.078 1.523-.221 1.527-.144.004-.278-.674-.299-1.514-.022-.84.077-1.524.221-1.527zm-.13-6.083c.144-.003.274.676.292 1.515.017.84-.085 1.523-.229 1.526-.144.003-.274-.675-.292-1.515-.017-.839.085-1.523.229-1.526zm-.102-6.083c.144-.002.271.677.284 1.517.013.84-.093 1.523-.237 1.525-.144.002-.271-.677-.284-1.517-.013-.839.093-1.522.237-1.525zm-.071-6.083c.144-.001.267.678.276 1.518.009.84-.101 1.522-.245 1.524-.144.001-.267-.678-.276-1.518-.008-.84.101-1.522.245-1.524zm-.039-6.083c.144-.001.264.68.268 1.52.004.84-.109 1.522-.253 1.522-.144.001-.264-.68-.268-1.52-.004-.84.109-1.521.253-1.522zm-.004-6.084c.144 0 .26.681.259 1.521 0 .84-.117 1.521-.261 1.521-.144 0-.26-.681-.259-1.521 0-.84.117-1.521.261-1.521zm.029-6.083c.144.001.256.683.251 1.522-.005.84-.126 1.52-.27 1.519-.144-.001-.256-.682-.251-1.523.005-.839.126-1.519.27-1.518zm.063-6.084c.144.002.253.684.243 1.524-.01.84-.134 1.52-.278 1.518-.144-.002-.253-.684-.243-1.524.01-.84.134-1.52.278-1.518zm.095-6.081c.144.002.249.685.234 1.524-.014.84-.142 1.518-.286 1.515-.144-.002-.249-.685-.234-1.524.014-.839.142-1.518.286-1.515zm.125-6.086c.144.003.246.687.228 1.527-.018.84-.149 1.519-.293 1.516-.144-.003-.246-.687-.228-1.527.018-.84.15-1.519.293-1.516zm.183-6.087c.144.006.237.691.207 1.531-.029.84-.169 1.517-.313 1.513-.144-.004-.237-.689-.207-1.531.029-.842.169-1.519.313-1.513zm.327-6.079c.144.01.219.697.168 1.535-.051.838-.208 1.511-.352 1.503-.144-.007-.219-.694-.168-1.535.051-.84.208-1.513.352-1.503zm.529-6.061c.143.016.192.705.11 1.539s-.265 1.5-.408 1.488c-.143-.012-.193-.701-.11-1.539s.265-1.504.408-1.488zm.58-4.501c.142.021.211.37.153.779-.058.409-.221.725-.363.706-.142-.019-.211-.368-.152-.779.057-.411.22-.727.362-.706z" fill="#455A64"/><path d="M487.012 458.254l26.64.434-.21-4.438-26.43.14v3.864z" fill="#455A64"/><path d="M516.837 294.751l-2.677-51.26h-29.377l-4.763 52.724 36.817-1.464z" fill="#263238"/><path d="M523.208 214.28s-11.897 3.122-12.1 31.069h-4.797s-1.258-23.473 11.691-32.692c0 0 3.739-.899 5.206 1.623zm-25.164-1.988s-8.452 4.003-8.654 31.95h-4.075s-.343-26.17 7.641-31.333c0 0 2.385-1.704 5.088-.617z" fill="#263238"/><path d="M555.941 454.327c.142-.023.311.29.377.698.066.409.005.759-.137.782-.142.023-.311-.29-.377-.698-.066-.409-.005-.759.137-.782zm-.954-5.832c.142-.023.364.611.496 1.416.132.805.124 1.477-.018 1.5-.142.023-.364-.61-.496-1.416-.132-.805-.124-1.477.018-1.5zm-.962-5.831c.142-.023.365.61.498 1.415s.126 1.477-.016 1.5c-.142.023-.365-.61-.498-1.415s-.126-1.476.016-1.5zm-.969-5.829c.142-.024.366.609.5 1.414.135.805.128 1.477-.013 1.5-.142.024-.366-.609-.5-1.414-.135-.804-.129-1.476.013-1.5zm-.981-5.827c.142-.024.367.609.502 1.413.136.805.131 1.476-.011 1.5-.142.024-.367-.609-.503-1.414-.135-.804-.13-1.475.012-1.499zm-.99-5.826c.142-.024.368.608.505 1.413s.133 1.476-.009 1.5c-.142.024-.368-.608-.505-1.413-.136-.805-.133-1.476.009-1.5zm-1.001-5.825c.142-.024.369.608.507 1.412.138.804.135 1.476-.006 1.5-.142.024-.369-.608-.507-1.412-.138-.804-.135-1.475.006-1.5zm-1.008-5.823c.142-.025.371.607.51 1.411s.138 1.476-.004 1.5c-.142.025-.37-.607-.509-1.411-.14-.804-.139-1.475.003-1.5zm-1.017-5.821c.142-.025.371.607.511 1.41.141.804.141 1.475-.001 1.5-.142.025-.371-.607-.511-1.41-.14-.804-.14-1.475.001-1.5zm-1.024-5.82c.142-.025.372.606.514 1.409.142.804.142 1.475.001 1.5-.141.025-.372-.606-.513-1.41-.143-.802-.143-1.474-.002-1.499zM546 396.075c.142-.025.372.605.516 1.409.143.803.145 1.475.003 1.5-.142.025-.372-.605-.516-1.409-.143-.803-.144-1.475-.003-1.5zm-1.044-5.817c.142-.025.373.605.518 1.408.144.803.147 1.475.005 1.5-.141.025-.373-.605-.518-1.408-.144-.802-.147-1.474-.005-1.5zm-1.055-5.814c.141-.026.374.604.52 1.407.146.803.149 1.475.008 1.5-.141.026-.374-.604-.52-1.407-.146-.803-.149-1.475-.008-1.5zm-1.064-5.814c.142-.026.375.604.522 1.406.147.803.151 1.474.01 1.5-.141.026-.375-.604-.522-1.406-.147-.802-.151-1.474-.01-1.5zm-1.071-5.811c.141-.026.376.603.525 1.405.148.803.154 1.474.012 1.5-.141.026-.376-.603-.525-1.406-.147-.802-.153-1.473-.012-1.499zm-1.078-5.81c.141-.026.377.603.527 1.405.149.802.156 1.474.015 1.5-.141.026-.377-.603-.527-1.405-.15-.802-.156-1.474-.015-1.5zm-1.091-5.808c.141-.027.378.602.529 1.404.151.802.158 1.474.017 1.5-.141.027-.378-.602-.529-1.404-.15-.802-.158-1.474-.017-1.5zm-1.098-5.807c.141-.027.379.601.531 1.403.152.802.161 1.473.019 1.5-.141.027-.379-.601-.531-1.403-.151-.802-.16-1.473-.019-1.5zm-1.11-5.805c.141-.027.38.601.533 1.402.153.802.163 1.473.022 1.5-.141.027-.38-.601-.533-1.402-.154-.801-.164-1.473-.022-1.5zm-1.114-5.803c.141-.027.381.6.536 1.401.155.801.165 1.473.024 1.5-.141.027-.381-.6-.535-1.401-.156-.801-.166-1.472-.025-1.5zm-1.126-5.801c.141-.027.382.6.538 1.4.156.801.168 1.473.026 1.5-.141.027-.382-.599-.538-1.401-.155-.8-.167-1.471-.026-1.499zm-1.137-5.799c.141-.028.383.599.54 1.4.157.801.17 1.472.029 1.5-.141.028-.383-.599-.54-1.4-.157-.801-.17-1.473-.029-1.5zm-1.145-5.798c.141-.028.384.599.542 1.399.158.801.172 1.472.031 1.5-.141.028-.384-.598-.542-1.399-.158-.801-.172-1.472-.031-1.5zm-1.153-5.796c.141-.028.385.598.544 1.398.16.8.175 1.472.033 1.5-.141.028-.385-.598-.544-1.398-.159-.8-.174-1.472-.033-1.5zm-1.161-5.794c.141-.028.386.597.546 1.397.161.8.177 1.471.036 1.5-.141.028-.385-.597-.546-1.397-.161-.8-.177-1.472-.036-1.5zm-1.168-5.792c.141-.029.387.597.549 1.396.162.8.179 1.471.038 1.5-.141.029-.387-.596-.549-1.396-.162-.8-.179-1.472-.038-1.5zm-.891-4.366c.141-.029.322.277.405.683.083.406.036.758-.105.787-.141.029-.322-.277-.405-.683-.083-.406-.036-.759.105-.787zm-38.977-61.821c.06-.004.22.542.251 1.485.002.468-.042 1.057-.336 1.655-.283.575-.832 1.188-1.65 1.334-.825.14-1.558-.296-1.972-.8-.438-.519-.569-1.133-.587-1.609-.013-.975.302-1.5.35-1.478.086.019-.087.582.017 1.447.061.424.213.927.583 1.325.358.398.94.706 1.523.601.586-.098 1.051-.563 1.312-1.043.267-.482.351-1.009.393-1.447.062-.887.033-1.466.116-1.47z" fill="#455A64"/><path d="M487.395 243.55c-.028-.061.296-.193.643.122.155.15.311.408.264.747-.043.348-.368.638-.72.697-.349.074-.758-.077-.925-.385a.866.866 0 01-.027-.792c.208-.421.558-.416.554-.349.025.071-.162.187-.206.469-.056.291.113.624.507.545.395-.071.431-.443.272-.693-.143-.246-.36-.286-.362-.361zm23.399-.551c.059-.001.203.514.195 1.405-.015.441-.096 1.001-.416 1.541-.293.543-.951 1.035-1.703 1.055a2.564 2.564 0 01-1.871-.692 3.034 3.034 0 01-.813-1.378c-.233-.88-.096-1.433-.04-1.427.085-.004.089.542.388 1.308.154.375.395.805.787 1.142.381.329.943.56 1.519.528.581-.022 1.05-.353 1.324-.789.284-.431.398-.911.456-1.318.101-.826.09-1.374.174-1.375z" fill="#455A64"/><path d="M508.494 243.543c-.013-.065.257-.148.518.132a.725.725 0 01.168.63c-.055.285-.328.513-.618.557-.289.055-.623-.069-.769-.319a.722.722 0 01-.051-.65c.152-.351.435-.363.444-.297.03.068-.086.185-.088.392-.003.221.114.406.376.362.262-.046.31-.259.234-.467-.071-.194-.22-.266-.214-.34zm1.179 12.388c.018.031-.228.202-.689.484-.458.288-1.148.657-2.022 1.072-1.745.832-4.276 1.762-7.184 2.321-2.911.551-5.607.618-7.535.486-.965-.064-1.743-.153-2.275-.252-.533-.093-.824-.161-.819-.197.011-.085 1.195.048 3.107.081a37.055 37.055 0 007.422-.63 37.064 37.064 0 007.134-2.146c1.768-.735 2.819-1.294 2.861-1.219z" fill="#455A64"/><path d="M532.889 300.847l-53.553-4.632v6.097l53.553 4.558v-6.023z" fill="url(#paint6_linear_997_1541)"/><path d="M496.242 297.424c-.036.035-.858.004-2.233-.068a255.988 255.988 0 01-5.56-.357l.249-.272 1.088 6.115.086.489-.241-.215 7.11.463-.231.235c-.12-1.878-.194-3.451-.24-4.573-.044-1.122-.06-1.785-.028-1.817.032-.032.113.57.238 1.676.124 1.104.293 2.718.466 4.681l.021.248-.252-.014-7.115-.379-.206-.011-.035-.204-.086-.489-1.034-6.124-.051-.3.3.028c2.354.22 4.321.435 5.677.593 1.358.157 2.114.259 2.077.295z" fill="#455A64"/><path d="M485.992 298.688c.01-.143 1.345-.169 2.983-.057 1.638.112 2.958.319 2.948.463-.01.143-1.345.169-2.983.056-1.638-.111-2.958-.318-2.948-.462zm-.351 1.747c.014-.143 1.442-.118 3.189.055 1.747.174 3.152.431 3.138.574-.014.143-1.442.118-3.189-.056-1.747-.173-3.152-.43-3.138-.573z" fill="#263238"/><path d="M425.871 244.71l-19.82-6.674-.778 2.549s7.743 12.208 16.775 14.724l3.823-10.599z" fill="#455A64"/><path d="M484.79 280.214s-30.602-21.477-32.437-22.125c-1.835-.648-14.967-.678-18.257-.326-3.289.352-12.711-.615-12.711-.615l9.715-26.935-20.631-5.293 1.092-3.674s16.594-9.964 26.188-7.125c9.594 2.839 14.088 15.436 16.085 18.55 1.996 3.114 6.312 14.255 26.803 27.36l12.115 8.092-7.962 12.091z" fill="#455A64"/><path d="M451.784 236.832c0 .01-.041.113-.123.306l-.362.842-1.373 3.177-5 11.463-.193-.273a27.762 27.762 0 013.51-.04c1.208.098 2.499.173 3.73.776 2.282 1.288 4.517 2.849 6.908 4.448 4.751 3.228 9.879 6.822 15.224 10.608.724.544 1.399.976 2.235 1.074a3.707 3.707 0 002.343-.447c1.43-.778 2.168-2.533 1.787-4.056a3.717 3.717 0 00-1.164-1.96c-.602-.475-1.309-.945-1.947-1.411l-3.828-2.733-13.23-9.474c-.975-.659-1.718-1.543-2.364-2.356a40.156 40.156 0 01-1.723-2.404 80.885 80.885 0 01-2.5-4.01 82.576 82.576 0 01-1.468-2.598l-.359-.688c-.079-.158-.096-.229-.103-.244-.007-.015.063.071.152.218l.404.662 1.551 2.546a95.932 95.932 0 002.567 3.951 41.367 41.367 0 001.742 2.361c.66.806 1.36 1.628 2.319 2.263l13.293 9.382 3.838 2.718c.658.478 1.307.9 1.99 1.436a4.222 4.222 0 011.329 2.226c.435 1.732-.399 3.732-2.029 4.621a4.225 4.225 0 01-2.671.512c-.929-.093-1.788-.65-2.463-1.164-5.343-3.785-10.464-7.388-15.197-10.632-2.371-1.601-4.631-3.191-6.836-4.454-1.095-.554-2.378-.655-3.553-.755a27.774 27.774 0 00-3.454.01l-.328.021.135-.294 5.286-11.51 1.43-3.083.369-.787c.083-.173.126-.258.126-.248z" fill="#263238"/><path d="M531.215 304.745c-2.852 4.286-8.707 5.321-12.856 2.272l-40.832-31.881 7.25-12.341 44.099 29.557a9.025 9.025 0 012.339 12.393z" fill="#455A64"/><path d="M441.56 235.103l-3.678 11.476-6.734.035 4.181-11.478 6.231-.033z" fill="#263238"/><path d="M430.719 244.061c-.001-.288 2.217-.532 4.954-.547 2.738-.014 4.958.207 4.96.495.001.288-2.216.532-4.955.547-2.736.014-4.957-.208-4.959-.495zm1.281-3.664c-.001-.288 2.217-.532 4.954-.547 2.738-.014 4.958.207 4.96.495.001.287-2.216.532-4.955.546-2.737.015-4.958-.207-4.959-.494zm.793-3.499c-.002-.288 2.217-.532 4.954-.547 2.738-.014 4.958.207 4.96.495.001.287-2.216.532-4.955.546-2.737.016-4.957-.206-4.959-.494zm-6.813 6.525c.139.034-.463 2.757-1.637 5.977-1.169 3.219-2.32 5.74-2.446 5.691-.142-.055.792-2.664 1.956-5.867 1.167-3.201 1.987-5.837 2.127-5.801z" fill="#263238"/><path d="M553.048 268.938c.097-7.541-7.98-22.4-7.98-22.4l-14.475 9.105 2.345 6.151-32.393 13.329-8.867.407-5.686 8.12 7.276 6.681 19.015-5.25c12.023-2.043 40.658-7.783 40.765-16.143z" fill="#FFBE9D"/><path d="M264.819 313.582l4.043-7.631-14.246-7.665-6.034 11.102.853.532c3.814 2.333 19.555 11.596 22.612 12.213 3.41.687-7.228-8.551-7.228-8.551z" fill="url(#paint7_linear_997_1541)"/><path d="M253.809 312.055a5.612 5.612 0 00-.184-4.016c-.554-1.254-1.517-2.276-2.773-2.827l-2.145 3.98 5.102 2.863z" fill="#000" opacity=".4"/><path opacity=".4" d="M269.902 318.307s3.584 3.506 2.679 3.92c-.905.414-17.165-8.348-23.999-12.84l.194-.306 18.879 10.382s1.399-1.568 2.247-1.156z" fill="#000"/><path d="M248.559 308.952c-.003.006.076.06.23.159l.68.421 2.528 1.506a286.378 286.378 0 008.465 4.755 286.968 286.968 0 008.622 4.469l2.646 1.287.725.338c.167.075.256.112.259.106.003-.006-.08-.054-.241-.141l-.709-.371-2.618-1.343a474.772 474.772 0 01-8.591-4.517 471.1 471.1 0 01-8.489-4.703l-2.559-1.452a140.62 140.62 0 00-.699-.389c-.159-.088-.245-.131-.249-.125z" fill="#263238"/><path d="M267.532 319.682c.049.035.423-.561 1.149-.975.72-.426 1.422-.456 1.416-.515.013-.048-.742-.109-1.515.346-.777.445-1.098 1.131-1.05 1.144zm-3.05-4.396c.026.047.359-.089.743-.305.384-.215.674-.428.648-.475-.026-.047-.359.089-.743.304-.385.216-.675.429-.648.476zm-.825-1.231c.013.053.318.024.682-.064.364-.088.649-.202.636-.255-.013-.053-.318-.024-.683.064-.363.088-.648.202-.635.255zm-.007-1.737c-.026.048.284.269.692.495.408.226.761.371.787.323.026-.047-.284-.269-.692-.495-.408-.226-.76-.371-.787-.323zm.26-1.083c-.039.034.235.393.699.688.462.298.903.397.918.347.018-.053-.373-.229-.812-.512-.441-.28-.764-.562-.805-.523z" fill="#263238"/><path d="M265.633 314.304c-.012.019.317.251.918.487.3.118.669.231 1.09.31.213.033.425.086.681.071.123-.012.269-.042.38-.162.112-.117.121-.31.058-.44-.631-.925-1.772-.905-2.34-.628a1.856 1.856 0 00-.628.45c-.121.137-.166.228-.157.234.026.029.256-.327.837-.556a1.876 1.876 0 011.055-.087c.375.078.849.3 1.051.662.087.186-.061.326-.275.336-.203.016-.43-.03-.633-.057a7.083 7.083 0 01-1.075-.263c-.597-.198-.947-.386-.962-.357z" fill="#263238"/><path d="M265.846 314.477c.008.017.269-.144.448-.579a1.69 1.69 0 00.11-.803c-.052-.29-.109-.682-.51-.877-.227-.087-.46.098-.51.27-.07.169-.072.346-.065.493.013.302.067.57.134.787.136.435.305.664.324.653.028-.014-.094-.262-.19-.688a3.624 3.624 0 01-.087-.756c-.021-.261.08-.655.332-.573.241.102.352.455.393.713.037.276.002.532-.062.734-.131.411-.344.603-.317.626zm-14.896-9.265c-.014.034.429.181 1.032.604a5.228 5.228 0 011.786 2.183 5.224 5.224 0 01.342 2.8c-.112.728-.312 1.149-.277 1.162.011.005.071-.095.155-.287.085-.192.184-.482.259-.852a4.996 4.996 0 00-.298-2.901 4.993 4.993 0 00-1.889-2.221 4.262 4.262 0 00-.794-.402c-.198-.072-.312-.097-.316-.086zm4.667-5.131c-.047-.026-.808 1.254-1.7 2.858-.892 1.605-1.576 2.928-1.528 2.954.047.026.808-1.253 1.7-2.859.891-1.604 1.575-2.927 1.528-2.953zm.731 11.551c-.03.041.816.694 1.968 1.327 1.151.636 2.154 1.003 2.173.955.022-.052-.938-.497-2.078-1.127-1.142-.627-2.031-1.202-2.063-1.155z" fill="#263238"/><path d="M253.559 310.124c-.053.016-.03.238-.05.503-.016.265-.07.482-.019.505.046.025.195-.185.215-.491.021-.307-.097-.535-.146-.517zm-.347-1.876c-.052.015-.04.213.027.442s.163.402.215.387c.052-.015.04-.213-.027-.442-.066-.229-.163-.402-.215-.387zm-1.18-1.409c-.016.054.174.154.343.34.174.182.26.379.315.367.052-.005.042-.273-.172-.5-.21-.23-.476-.259-.486-.207zm-.919-.86c-.041.035.001.152.095.262.094.11.203.17.244.135.041-.035-.001-.152-.095-.262-.094-.11-.203-.17-.244-.135zm102.214 5.883h-36.069v7.249h36.069v-7.249zm15.515 47.503h-36.069v7.249h36.069v-7.249zm16.471 42.12h-43.356v7.249h43.356v-7.249zM335.86 262.728h-30.684v7.249h30.684v-7.249zm-15.305-49.044h-30.684v7.249h30.684v-7.249z" fill="#263238"/><path d="M277.136 164.897l-98.859 300.814h9.415l92.74-280.101 70.143 280.101h11.298l-75.792-300.814h-8.945z" fill="#263238"/><path d="M300.203 164.897l-76.734 300.814h14.593l68.26-279.63 92.269 279.63h12.881L310.851 164.897h-10.648z" fill="#455A64"/><path d="M215.266 365.694a3.625 3.625 0 003.625 3.625h32.756a3.625 3.625 0 000-7.25H218.89a3.625 3.625 0 00-3.624 3.625zm-14.313 46.665a3.625 3.625 0 003.625 3.625h32.756a3.625 3.625 0 000-7.25h-32.756a3.625 3.625 0 00-3.625 3.625zm30.074-94.739a3.625 3.625 0 003.625 3.625h32.756a3.625 3.625 0 000-7.25h-32.756a3.624 3.624 0 00-3.625 3.625zm15.844-49.793a3.625 3.625 0 003.625 3.625h30.663a3.625 3.625 0 000-7.25h-30.663a3.626 3.626 0 00-3.625 3.625zm14.766-49.266a3.625 3.625 0 003.625 3.625h23.434a3.625 3.625 0 000-7.25h-23.434a3.626 3.626 0 00-3.625 3.625z" fill="#455A64"/><path d="M268.316 144.351c.454.151 8.929 19.063 15.738 19.158 6.866.096 41.525-2.652 41.525-2.652l.426-10.131-35.878.101-10.91-14.766-10.901 8.29z" fill="#FFBE9D"/><path d="M321.602 152.039s5.913-1.898 6.57-2.831c.656-.933 3.318-5.296 3.318-5.296s.996 1.341.658 2.622c-.19.72-.514 1.991-.761 2.965a.86.86 0 00.983 1.061c1.401-.254 3.445-.501 3.693.171.382 1.033-1.249 7.642-2.44 8.858-1.19 1.216-9.335 1.24-9.335 1.24l-2.686-8.79z" fill="#FFBE9D"/><path d="M334.573 152.669c.037.052-.375.444-1.202.83-.421.186-.91.381-1.545.471-.313.028-.693.032-1.049-.201-.363-.221-.534-.724-.445-1.124.07-.404.316-.759.618-.972.296-.217.617-.332.91-.416.588-.154 1.092-.249 1.531-.34.87-.172 1.417-.244 1.435-.174.018.07-.497.268-1.344.531l-1.481.442c-.528.168-1.067.468-1.155 1.02-.117.554.398.818.94.757.529-.049 1.048-.204 1.451-.335.816-.281 1.293-.556 1.336-.489z" fill="#EB996E"/><path d="M333.589 155.666c.008.058-.342.265-1.003.532a2.346 2.346 0 01-.593.147c-.229.051-.591-.091-.753-.275-.392-.335-.671-1.053-.3-1.653.365-.56.928-.736 1.334-.901l1.116-.449c.648-.253 1.084-.329 1.105-.26.022.069-.353.261-.951.594-.301.164-.661.362-1.082.557-.413.182-.862.382-1.076.728-.215.33-.075.775.186 1.038.153.15.22.19.402.19.169.001.348-.034.508-.068.646-.163 1.09-.265 1.107-.18zm-3.6 2.192c-.068.018-.184-.336-.497-.84a4.436 4.436 0 00-1.668-1.582l-.336-.177.301-.249a8.68 8.68 0 00.621-.55c1.677-1.618 2.14-3.555 2.286-3.5.064.013.039.511-.228 1.266a7.026 7.026 0 01-1.694 2.607 7.174 7.174 0 01-.672.581l-.035-.426a4.041 4.041 0 011.719 1.877c.255.591.256.983.203.993z" fill="#EB996E"/><path d="M333.739 157.994c.023.053-.261.321-.887.549-.305.099-.768.178-1.219-.059a1.324 1.324 0 01-.56-.538.98.98 0 01-.03-.893c.301-.551.754-.741 1.106-.961a8.802 8.802 0 011.005-.471c.588-.23.984-.29 1.004-.222.022.069-.315.246-.846.554-.265.154-.581.337-.919.551-.324.214-.731.465-.879.768-.148.282.063.621.351.791.278.176.614.166.898.121.57-.11.945-.267.976-.19z" fill="#EB996E"/><path d="M233.552 91.55c-.206 1.767-.416 3.554-1.03 5.224-.614 1.67-1.679 3.238-3.231 4.107-1.48.829-3.519 1.181-4.094 2.777-.568 1.576.669 3.663-.503 4.861-.467.477-1.17.611-1.815.785-2.181.587-4.222 1.978-5.201 4.014-1.134 2.359-.689 5.232.523 7.552 1.212 2.319 3.104 4.199 4.966 6.038l19.036-4.068s-5.615-30.129-5.522-29.916c.095.212-3.129-1.374-3.129-1.374z" fill="#263238"/><path d="M258.746 93.137c.091.946.829 1.705 1.625 2.224.796.519 1.695.886 2.419 1.501 1.294 1.098 1.862 2.866 1.883 4.563.02 1.697-.441 3.358-.898 4.992 3.102.07 6.066 1.734 7.983 4.174 1.917 2.439 2.828 5.586 2.822 8.688-.004 2.223-.559 4.618-2.259 6.051-1.335 1.126-3.143 1.473-4.871 1.729-3.449.51-6.924.815-10.398 1.11-3.489.296-7.208.538-10.285-1.132-2.567-1.394-4.32-3.959-5.419-6.665-1.632-4.021-2.007-8.471-1.615-12.793.391-4.321 1.523-8.542 2.818-12.683m-7.725-6.639c-1.74-.737-3.547-1.487-5.436-1.442-1.889.045-3.893 1.113-4.405 2.932-.273.968-.091 2.024.338 2.934.43.91 1.092 1.689 1.801 2.403.715.719 1.559 1.415 2.569 1.51.781.073 1.553-.23 2.224-.635 1.286-.778 2.345-2.005 2.703-3.465.358-1.46-.073-3.142-1.239-4.091" fill="#263238"/><path d="M256.445 83.979s3.404-1.186 3.438-3.414c.034-2.228-25.448-5.418-30.321 7.024 0 0 .954.675 4.891.419" fill="url(#paint8_linear_997_1541)"/><path d="M256.445 83.979s3.404-1.186 3.438-3.414c.034-2.228-25.448-5.418-30.321 7.024 0 0 .954.675 4.891.419" fill="#000" opacity=".5"/><path d="M236.916 118.354l15.552-1.242c.097-1.816-.033-8.841-.033-8.841s6.471-1.006 6.55-7.476c.08-6.47-1.042-21.326-1.042-21.326a22.484 22.484 0 00-22.593 2.84l-.959.738 2.525 35.307z" fill="#FFBE9D"/><path d="M255.339 90.242a.94.94 0 111.264-1.392.94.94 0 01-1.264 1.392z" fill="#263238"/><path d="M258.024 89.113c-.101.112-.737-.377-1.627-.381-.891-.017-1.538.456-1.636.342-.048-.051.053-.253.335-.467a2.166 2.166 0 011.308-.412 2.165 2.165 0 011.297.444c.276.22.372.424.323.474zm-11.093.473a.939.939 0 11-.983 1.6.939.939 0 01.983-1.6z" fill="#263238"/><path d="M248.346 89.897c-.102.112-.737-.377-1.628-.381-.891-.017-1.538.456-1.636.341-.048-.051.053-.253.335-.467a2.166 2.166 0 011.308-.412 2.168 2.168 0 011.297.444c.277.221.373.426.324.475zm3.572 7.351c-.006-.07.545-.181 1.441-.305.233-.025.416-.078.433-.203.042-.141-.048-.39-.167-.667l-.705-1.811c-.974-2.58-1.656-4.71-1.525-4.76.131-.049 1.026 2.001 1.999 4.581l.667 1.825c.086.27.248.584.128.969a.608.608 0 01-.402.372c-.154.047-.286.047-.398.052-.902.032-1.465.017-1.471-.053z" fill="#263238"/><path d="M252.446 108.179s-4.089.333-8.434-2.397c0 0 1.994 4.656 8.449 4.073l-.015-1.676z" fill="#EB996E"/><path d="M258.077 81.099s-3.785 2.191-9.083.019c-3.477-1.425-7.445-1.953-8.257-1.216-.812.738.602 7.451-2.645 8.705 0 0-.623 3.329-3.269 3.289-2.645-.041-1.758-10.371-1.758-10.371l6.197-3.616 6.918-1.845 6.68.443 5.219 1.022v3.57h-.002z" fill="#263238"/><path d="M235.19 89.75c-.11-.048-4.445-1.315-4.304 3.108.141 4.423 4.553 3.369 4.557 3.242.004-.127-.253-6.35-.253-6.35z" fill="#FFBE9D"/><path d="M234.039 94.468c-.02-.014-.075.056-.204.12a.772.772 0 01-.576.03c-.473-.157-.89-.886-.937-1.682a2.555 2.555 0 01.18-1.11c.125-.328.327-.561.561-.61a.391.391 0 01.461.197c.063.122.038.211.062.218.013.011.093-.077.051-.259a.492.492 0 00-.183-.272.582.582 0 00-.43-.099c-.34.035-.637.358-.783.712-.164.356-.255.79-.228 1.241.057.89.54 1.71 1.185 1.874a.825.825 0 00.701-.14c.136-.113.156-.213.14-.22z" fill="#EB996E"/><path d="M232.186 76.043c-.053-.13.685-.454 1.58-.171.897.276 1.32.963 1.203 1.039-.112.099-.618-.321-1.358-.542-.734-.239-1.389-.181-1.425-.326zm2.513-2.791c.16.006.16.939.369 2 .201 1.067.693 1.827.574 1.922-.094.102-.851-.614-1.084-1.816-.228-1.184.017-2.119.141-2.106zm18.991 14.407c-.154-.235.67-.972 1.958-1.027 1.288-.06 2.174.601 2.042.848-.121.269-.983.136-1.995.192-1.014.035-1.861.245-2.005-.013zm-13.084-7.923c1.412.767 2.564 1.926 3.849 2.892 1.285.965 2.822 1.766 4.422 1.624l-.39-.748a26.76 26.76 0 007.324 1.768c.929.089 2.02.061 2.589-.678.581-.755-.23-2.091-.322-3.494-.065-1.004-.421-1.268-1.364-1.618-.431-.16-.905-.138-1.365-.119a54.784 54.784 0 01-10.489-.582c-.814-.124-1.636-.267-2.455-.192-.82.075-1.654.399-2.159 1.049" fill="#263238"/><path d="M252.018 98.083c-.27-.202-.666-.197-.95-.015a1.05 1.05 0 00-.458.856c-.007.337.135.668.358.92.181.205.42.364.688.42.437.092.918-.119 1.158-.496a1.21 1.21 0 00-.008-1.269 1.293 1.293 0 00-1.141-.578" fill="#EB996E"/><path d="M254.235 99.334c.026.058-.258.237-.766.257-.503.027-1.185-.105-1.871-.387-1.391-.54-2.257-1.491-2.104-1.609.08-.061.983.61 2.299 1.126.647.266 1.252.437 1.694.502.441.072.722.035.748.111zm-6.08-11.763c-.11.1-.318.059-.594.103-.275.026-.711.136-1.279.188-1.096.099-2.006-.053-2.031-.34-.026-.286.842-.599 1.938-.697.525-.044 1.093-.066 1.528.13.444.192.547.533.438.616zm-10.549-5.001c.071 3.546.761 7.059.804 10.605.043 3.546-.654 7.285-2.969 9.973-.817.948-1.897 1.772-3.145 1.867-.722.055-1.55-.223-1.823-.893-.214-.526-.028-1.125.196-1.647.715-1.662 1.807-3.128 2.754-4.669.946-1.542 1.769-3.232 1.848-5.039.057-1.321-.287-2.621-.561-3.914-.274-1.294-.478-2.647-.146-3.927.332-1.28 1.324-2.471 2.633-2.656" fill="#263238"/><path d="M245.879 79.67c11.663-1.269 13.897.791 14.002.894.334-.403.554-.793.598-1.158.418-3.445-3.763-4.419-3.763-4.419-2.615-11.93-13.341-10.711-13.341-10.711l-.017-.09a1.928 1.928 0 00-2.257-1.53l-1.675.322a1.928 1.928 0 00-1.53 2.257c-12.579 4.192-8.403 15.823-8.403 15.823l-1.84 2.223c-1.632 3.305 1.907 4.308 1.907 4.308s4.358-6.618 16.319-7.919z" fill="url(#paint9_linear_997_1541)"/><path d="M240.011 75.597c-.141.031-.779-2.215-1.425-5.015-.647-2.801-1.058-5.099-.918-5.134.139-.035.777 2.21 1.425 5.015.648 2.805 1.059 5.103.918 5.134zm6.269-1.55c-.138.039-.869-2.107-1.631-4.794-.763-2.688-1.268-4.897-1.13-4.937.138-.039.868 2.107 1.631 4.795.762 2.686 1.268 4.896 1.13 4.936zm9.914 1.447c-.023.091-1.499-.345-3.948-.564-2.441-.232-5.871-.13-9.513.76-3.645.887-6.761 2.309-8.939 3.449-2.183 1.145-3.471 1.975-3.516 1.904-.019-.029.28-.27.849-.667a33.745 33.745 0 012.491-1.56c2.15-1.232 5.286-2.73 8.993-3.632 3.704-.906 7.208-.951 9.674-.62 1.236.158 2.223.376 2.891.568.669.19 1.027.331 1.018.362z" fill="#000" opacity=".5"/><path d="M240.571 77.705c.044.16-3.082.898-6.512 2.784-3.446 1.857-5.763 4.082-5.873 3.958-.045-.046.476-.661 1.452-1.521.974-.86 2.425-1.941 4.172-2.894 1.748-.949 3.443-1.582 4.694-1.933 1.253-.353 2.052-.456 2.067-.394zm-9.982 1.627c-.334.074-.893-.735-1.124-2.253-.238-1.496-.044-3.718 1.073-5.84 1.116-2.123 2.838-3.54 4.206-4.192 1.383-.669 2.365-.666 2.493-.349.285.675-2.655 2.372-4.395 5.753-1.8 3.35-1.535 6.734-2.253 6.881z" fill="#fff" opacity=".2"/><path d="M221.954 194.275l47.195 4.26c.078-3.228-.902-22.922-1.482-35.866-.109-2.448 2.313-6.703 2.219-8.748-.234-5.102-1.001-5.305-1.001-5.305l2.69 5.046 13.981-12.469-12.216-16.51a24.198 24.198 0 00-16.182-9.571c-1.897-.258-3.339-.384-4.275-.501-5.527 1.702-11.055 1.699-16.582-.01-2.563.109-4.778.561-6.866 1.316-4.297 1.554-7.888 3.909-10.955 7.092l-.002-.003-20.005 23.556 18.561 11.932 7.115-7.499.925 19.461-3.12 23.819z" fill="url(#paint10_linear_997_1541)"/><path d="M265.787 140.557c0 .144-6.958.26-15.539.26-8.584 0-15.541-.117-15.541-.26 0-.143 6.957-.26 15.541-.26 8.581 0 15.539.116 15.539.26zm-1.032-5.054c0 .144-2.03.26-4.533.26-2.504 0-4.534-.117-4.534-.26 0-.143 2.03-.26 4.534-.26 2.503 0 4.533.116 4.533.26z" fill="#fff"/><path d="M231.024 142.605c.052.05-.684.984-1.915 2.453a323.542 323.542 0 01-4.887 5.666 317.247 317.247 0 01-5.001 5.564c-1.301 1.406-2.132 2.252-2.187 2.205-.054-.047.68-.979 1.91-2.449a326.035 326.035 0 014.892-5.672 318.403 318.403 0 015.004-5.568c1.302-1.404 2.132-2.248 2.184-2.199z" fill="#263238"/><path d="M227.643 353.602l-1.542 6.475s-10.59 13.755-13.857 13.083c-2.141-.441.49-4.029 4.518-14.477l.845-4.315 10.036-.766z" fill="url(#paint11_linear_997_1541)"/><path d="M211.812 371.129c.022-.021.107.302.568.538.445.25 1.27.266 2.022-.284 1.442-1.144 3.302-2.953 5.267-4.995a82.244 82.244 0 004.768-5.493l1.355-1.741.368-.474c.086-.107.133-.161.139-.157.006.004-.03.067-.105.182l-.337.498c-.298.429-.74 1.041-1.304 1.784a67.899 67.899 0 01-4.734 5.546c-1.977 2.054-3.837 3.834-5.337 4.975-.398.257-.814.421-1.199.439a1.741 1.741 0 01-.943-.207 1.176 1.176 0 01-.444-.415c-.073-.121-.084-.196-.084-.196z" fill="#263238"/><path d="M213.313 366.707c-.008-.02.321-.141.872-.102.546.034 1.291.252 2 .692.718.428 1.232 1.035 1.452 1.538.227.502.244.846.223.849-.035.009-.105-.32-.355-.782-.245-.464-.738-1.013-1.43-1.427-.683-.424-1.387-.653-1.906-.723-.521-.076-.85-.01-.856-.045zm10.025-3.228c-.013.004-.062-.105-.13-.309a5.527 5.527 0 01-.212-.888c-.135-.758-.061-1.889.492-2.95.541-1.073 1.437-1.776 2.146-2.082.356-.158.663-.235.876-.268.214-.031.334-.03.335-.018.008.04-.475.079-1.148.418-.668.329-1.507 1.018-2.024 2.043a4.99 4.99 0 00-.532 2.837c.087.752.234 1.207.197 1.217z" fill="#263238"/><path d="M226.968 354.701c.051.018-.185.923-.382 2.067-.193 1.148-.497 2.058-.56 2.035-.046-.017.162-.925.355-2.074.199-1.15.53-2.05.587-2.028zm-10.394 4.895c-.01-.052.613-.168 1.359.007.748.17 1.257.546 1.226.589-.031.054-.562-.226-1.272-.386-.708-.167-1.309-.148-1.313-.21zm-.214 1.109c-.016-.051.509-.204 1.147-.05.639.149 1.039.522 1.002.56-.035.05-.46-.222-1.05-.358-.589-.143-1.09-.091-1.099-.152zm-.847 1.392c-.033-.045.503-.321 1.187-.161.687.152 1.05.632 1.001.659-.042.045-.431-.322-1.047-.456-.613-.146-1.122.017-1.141-.042zm1.792-2.966c-.008-.034.488-.137 1.242-.431a9.559 9.559 0 001.978-1.066c.215-.159.449-.393.441-.637-.004-.25-.314-.38-.554-.318-.251.058-.458.252-.651.434-.39.367-.723.717-.994 1.018-.542.604-.844 1.008-.87.989-.011-.008.05-.119.177-.31.128-.19.322-.459.582-.775.26-.317.585-.681.973-1.061.192-.184.409-.41.738-.494.305-.09.783.078.808.506-.005.403-.297.633-.529.814a8.303 8.303 0 01-2.046 1.039c-.389.132-.713.21-.938.253-.227.043-.354.052-.357.039z" fill="#263238"/><path d="M217.859 358.997c-.034.004-.08-.456-.2-1.182-.066-.36-.16-.789-.362-1.222a2.656 2.656 0 00-.394-.621c-.162-.182-.404-.335-.595-.222-.188.103-.221.398-.191.637.037.247.112.492.205.709.187.439.451.789.689 1.065.489.544.871.807.848.836-.007.01-.111-.042-.282-.162a4.845 4.845 0 01-.675-.575 3.895 3.895 0 01-.756-1.087 2.994 2.994 0 01-.232-.761c-.028-.263-.034-.639.293-.844.35-.183.68.073.847.268.188.216.312.449.417.679.203.463.284.91.333 1.279.047.371.06.672.067.88.006.207.002.322-.012.323z" fill="#263238"/><path d="M226.099 360.077l.746-3.112s-2.595.48-3.268 2.422c-.674 1.942-.506 3.324-.506 3.324l-5.641 6.075s-1.416-2.765-3.979-2.101c0 0-2.016 4.435-1.954 5.547.068 1.221 1.355.977 1.814.769.208-.094 2.645-1.489 5.051-3.986 2.989-3.1 6.29-7.032 7.737-8.938z" fill="#000" opacity=".4"/><path d="M193.715 177.824a15.72 15.72 0 01.071-20.716l7.881-8.492 14.227 9.146c-.458.306-9.823 10.437-9.823 10.437l16.413 20.456a11.771 11.771 0 011.949 11.198l-2.815 11.441-13.578-6.091.912-1.401h9.013l.535-2.16-24.785-23.818z" fill="#FFBE9D"/><path d="M202.546 164.551c.103-.089 1.061.756 2.194 1.877 1.137 1.123 1.878 2.215 1.759 2.304-.112.084-1.002-.824-2.128-1.937-1.129-1.115-1.94-2.145-1.825-2.244z" fill="#EB996E"/><path d="M234.09 197.071l2.678-51.26h29.377l2.17 54.341-34.225-3.081z" fill="#263238"/><path d="M262.03 159.081c.02.03-.222.221-.68.541-.453.326-1.143.748-2.023 1.221-1.756.949-4.338 2.01-7.335 2.63-3 .611-5.791.653-7.779.473-.995-.088-1.796-.203-2.34-.325-.546-.114-.844-.194-.838-.23.015-.088 1.229.106 3.201.187a32.285 32.285 0 007.652-.615 32.268 32.268 0 007.274-2.449c1.779-.851 2.82-1.508 2.868-1.433zm-20.582 7.5c-.144-.004-.282-.331-.307-.731-.025-.4.07-.743.212-.766.142-.023.28.304.307.731.027.427-.069.77-.212.766zm-.801 5.633c-.143-.019-.149-.666-.015-1.444.134-.778.358-1.388.5-1.363.141.025.148.671.015 1.444-.134.772-.357 1.383-.5 1.363zm.703 5.561c-.12.076-.563-.456-.777-1.252-.219-.792-.147-1.46-.008-1.47.147-.013.307.601.51 1.331.196.73.401 1.316.275 1.391zm4.777 2.534c-.003.138-.658.253-1.465.102-.813-.148-1.376-.566-1.304-.689.069-.129.66.044 1.403.178.743.14 1.372.26 1.366.409zm5.692-.051c.002.144-.633.27-1.419.281-.786.011-1.425-.096-1.427-.24-.002-.144.633-.27 1.419-.281.786-.011 1.425.096 1.427.24zm5.695-.085c.004.145-.635.273-1.421.284-.787.011-1.427-.096-1.429-.24-.002-.144.634-.27 1.421-.281.789-.011 1.425.094 1.429.237zm4.622-2.564c.127.036.055.736-.501 1.402-.572.667-1.296.801-1.334.671-.059-.139.477-.46.938-1.01.466-.548.754-1.115.897-1.063zm1.046-5.589c.143.019.163.666.046 1.446-.118.78-.328 1.393-.47 1.369-.142-.024-.162-.672-.046-1.446.117-.775.327-1.388.47-1.369zm.565-5.664c.144.009.207.654.141 1.44-.066.786-.235 1.411-.378 1.397-.143-.015-.206-.659-.141-1.44.065-.781.235-1.406.378-1.397zm.181-4.341c.144.002.252.341.242.756-.01.416-.135.749-.279.743-.144-.005-.252-.344-.242-.757.01-.411.135-.744.279-.742z" fill="#455A64"/><path d="M227.719 116.601s11.897 3.122 12.1 31.069h4.797s1.258-23.473-11.691-32.692c0 0-3.739-.899-5.206 1.623zm25.164-1.988s8.452 4.003 8.654 31.95h4.075s.343-26.17-7.641-31.333c0 0-2.385-1.704-5.088-.617z" fill="#263238"/><path d="M244.58 145.534c.052-.005.267.566.294 1.584-.003.504-.099 1.152-.526 1.74-.428.61-1.251.927-2.035.939-.778.041-1.629-.208-2.097-.792-.466-.559-.6-1.202-.634-1.705-.033-1.018.15-1.6.202-1.598.09.001.041.626.164 1.557.073.456.238 1.001.628 1.428.376.43 1.022.618 1.72.589.695-.018 1.326-.259 1.673-.712.36-.451.493-1.006.538-1.465.067-.938-.017-1.559.073-1.565z" fill="#455A64"/><path d="M242.197 146.356c-.031-.058.26-.219.629.05.17.122.339.409.273.73a.86.86 0 01-.685.686.858.858 0 01-.87-.428.744.744 0 01.023-.779c.262-.373.59-.315.579-.25.016.071-.178.166-.25.416a.387.387 0 00.056.359c.079.11.248.191.377.167.13-.019.263-.15.303-.28a.387.387 0 00-.063-.358c-.15-.213-.364-.24-.372-.313zm23.507-.845c.055-.015.284.481.237 1.358-.03.432-.16.967-.499 1.462-.325.492-.911.949-1.631 1.033-.711.11-1.443-.227-1.804-.723-.38-.483-.512-1.021-.561-1.446-.074-.861.041-1.365.098-1.367.085-.005.106.525.265 1.306.088.384.244.831.566 1.2.312.373.816.589 1.37.513.551-.065 1.01-.397 1.306-.796.303-.398.453-.844.524-1.229.135-.779.046-1.299.129-1.311z" fill="#455A64"/><path d="M263.434 146.189c-.051-.04.13-.302.569-.24a.744.744 0 01.577.497.842.842 0 01-.255.917.828.828 0 01-.956.037.703.703 0 01-.315-.705c.088-.447.422-.51.433-.443.038.061-.102.215-.065.461.019.122.079.225.193.275.113.056.293.048.385-.031.099-.075.148-.247.121-.376a.394.394 0 00-.221-.279c-.228-.116-.428-.051-.466-.113z" fill="#455A64"/><path d="M269.15 198.536l30.038 49.567a7.088 7.088 0 01-.023 7.383l-27.921 57.584-22.902-12.127 22.763-44.419a7.086 7.086 0 00-.573-7.498l-29.497-35.758 1.199-14.732h26.916z" fill="#263238"/><path d="M221.953 191.969l-14.488 164.882h23.949l20.375-139.929-.312-19.851-29.524-5.102z" fill="#263238"/><path d="M234.485 199.228c.057.011-.023.752-.538 1.825-.503 1.064-1.52 2.442-3.081 3.412-1.562.97-3.248 1.27-4.425 1.249-1.19-.014-1.889-.271-1.874-.327.014-.084.727.038 1.862-.041 1.127-.073 2.698-.415 4.162-1.324 1.463-.91 2.466-2.165 3.031-3.144.576-.981.782-1.674.863-1.65zm6.262 90.176c-.018-.004.02-.287.107-.824l.407-2.342 1.466-8.618c1.209-7.282 2.75-17.363 4.346-28.513 1.58-11.156 2.916-21.268 3.802-28.596l1.023-8.682.274-2.361c.068-.539.113-.822.131-.82.018.001.008.287-.026.83l-.177 2.372a370.505 370.505 0 01-.859 8.704c-.793 7.343-2.072 17.467-3.653 28.627-1.597 11.154-3.196 21.232-4.499 28.502a335.226 335.226 0 01-1.63 8.594l-.503 2.325c-.119.529-.191.806-.209.802zm-8.837 63.437c-.003.144-5.435.14-12.13-.009-6.698-.149-12.123-.386-12.12-.53.003-.144 5.434-.14 12.132.009 6.694.149 12.121.386 12.118.53zm41.919-43.212c-.015.033-.376-.092-1.016-.347a64.296 64.296 0 01-2.681-1.153 116.068 116.068 0 01-8.589-4.355 115.842 115.842 0 01-8.205-5.043 61.427 61.427 0 01-2.385-1.682c-.552-.413-.847-.655-.827-.685.02-.03.354.156.941.517l2.472 1.541a206.085 206.085 0 008.259 4.897 206.012 206.012 0 008.493 4.477l2.606 1.301c.614.311.947.499.932.532z" fill="#455A64"/><path d="M229.57 351.801c.143.015.223.362.179.773-.044.412-.195.733-.339.718-.143-.015-.223-.361-.179-.773.044-.412.196-.733.339-.718zm.649-5.961c.143.016.186.696.096 1.518-.09.823-.279 1.478-.422 1.462-.143-.016-.186-.695-.096-1.519.09-.823.279-1.477.422-1.461zm.663-5.96c.143.016.184.696.091 1.519s-.284 1.477-.426 1.461c-.143-.016-.184-.696-.091-1.519.092-.823.283-1.477.426-1.461zm.688-5.957c.143.017.182.697.086 1.519-.095.823-.288 1.476-.431 1.459-.143-.017-.182-.697-.086-1.519s.289-1.476.431-1.459zm.701-5.955c.143.017.179.697.082 1.519-.098.822-.293 1.475-.435 1.458-.143-.017-.179-.697-.082-1.519.098-.822.293-1.475.435-1.458zm.722-5.953c.143.017.177.698.077 1.52-.1.822-.297 1.474-.44 1.457-.143-.017-.177-.698-.077-1.52.101-.822.298-1.475.44-1.457zm.739-5.951c.143.018.175.698.072 1.52-.103.822-.302 1.473-.445 1.455-.143-.018-.175-.698-.072-1.52.103-.821.302-1.473.445-1.455zm.756-5.948c.143.018.173.699.068 1.52-.105.821-.306 1.472-.449 1.454-.143-.018-.173-.699-.068-1.52.105-.821.306-1.472.449-1.454zm.777-5.946c.143.019.171.699.063 1.52-.108.821-.311 1.471-.453 1.453-.143-.019-.171-.699-.063-1.52.108-.821.311-1.472.453-1.453zm.797-5.943c.143.019.169.7.058 1.52-.11.821-.315 1.47-.458 1.451-.143-.019-.169-.7-.058-1.521.11-.82.315-1.47.458-1.45zm.81-5.942c.143.02.167.701.054 1.521-.113.82-.32 1.469-.462 1.45-.142-.02-.166-.7-.054-1.521.112-.82.319-1.469.462-1.45zm.833-5.938c.142.02.164.701.049 1.521s-.324 1.468-.467 1.448c-.142-.02-.164-.701-.049-1.521.116-.82.325-1.468.467-1.448zm.851-5.936c.142.02.162.701.044 1.521-.118.82-.329 1.467-.471 1.447-.142-.021-.162-.701-.044-1.521.118-.82.329-1.467.471-1.447zm.866-5.933c.142.021.16.702.04 1.521s-.333 1.466-.476 1.445c-.142-.021-.16-.702-.039-1.521.12-.819.333-1.466.475-1.445zm.887-5.931c.142.021.158.703.035 1.521-.123.819-.338 1.465-.48 1.444-.142-.021-.158-.702-.035-1.521s.338-1.465.48-1.444zm.903-5.928c.142.022.156.703.03 1.521-.125.819-.342 1.464-.485 1.442-.142-.022-.156-.703-.03-1.521.125-.818.343-1.463.485-1.442zm.921-5.925c.142.022.154.703.025 1.521-.128.818-.347 1.463-.489 1.441-.142-.022-.154-.703-.025-1.521.128-.818.347-1.463.489-1.441zm.941-5.922c.142.023.151.704.021 1.521-.131.818-.352 1.462-.494 1.439-.142-.023-.151-.704-.021-1.521.131-.817.352-1.461.494-1.439zm.961-5.919c.142.023.149.704.016 1.521s-.356 1.461-.498 1.438c-.142-.023-.149-.704-.016-1.521s.356-1.461.498-1.438zm.976-5.916c.142.024.147.705.011 1.521-.136.817-.361 1.46-.502 1.436-.142-.024-.147-.705-.011-1.522.136-.815.361-1.459.502-1.435zm.996-5.913c.142.024.145.705.007 1.521-.138.816-.365 1.459-.507 1.435-.142-.024-.145-.705-.007-1.522.138-.816.365-1.458.507-1.434zm1.018-5.913c.142.025.141.707-.001 1.523s-.369 1.459-.511 1.435c-.142-.024-.143-.706-.002-1.523.142-.818.372-1.46.514-1.435zm1.186-5.877c.14.034.111.715-.064 1.52-.175.806-.431 1.437-.573 1.409-.141-.028-.113-.708.064-1.521.176-.811.433-1.442.573-1.408zm1.739-5.739c.134.052.029.726-.235 1.505-.264.779-.59 1.377-.728 1.337-.138-.04-.033-.714.235-1.505.268-.79.594-1.389.728-1.337zm1.893-4.07c.125.071.072.422-.119.784-.191.362-.45.604-.579.54-.129-.063-.076-.414.119-.783.194-.37.454-.612.579-.541zm2.152 86.154c.12.079.032.424-.197.769-.229.345-.511.561-.631.482-.12-.079-.032-.424.197-.769.229-.346.511-.561.631-.482zm3.268-5.031c.121.077-.144.705-.593 1.402-.449.697-.911 1.198-1.031 1.12-.121-.078.145-.706.593-1.402.448-.696.91-1.197 1.031-1.12zm3.191-5.078c.122.076-.134.707-.573 1.41-.439.703-.893 1.211-1.015 1.135-.122-.077.135-.708.573-1.41.438-.703.893-1.211 1.015-1.135zm3.12-5.125c.123.074-.124.709-.552 1.418-.428.71-.875 1.224-.998 1.149-.123-.075.124-.71.552-1.418.428-.708.875-1.223.998-1.149zm3.045-5.169c.125.072-.113.711-.531 1.426-.418.716-.857 1.237-.981 1.164-.124-.073.114-.712.531-1.426.417-.715.856-1.236.981-1.164zm2.967-5.214c.126.07-.103.712-.51 1.434-.408.722-.839 1.249-.964 1.178-.125-.071.104-.713.51-1.434.407-.721.839-1.248.964-1.178zm2.89-5.256c.127.068-.092.714-.489 1.441-.397.728-.82 1.262-.947 1.192-.126-.069.093-.715.489-1.441.397-.727.82-1.26.947-1.192zm2.814-5.3c.129.066-.079.717-.467 1.45-.387.734-.803 1.274-.93 1.206-.127-.068.083-.716.469-1.449.387-.732.801-1.272.928-1.207zm2.237-5.551c.14.028.109.727-.163 1.526-.27.799-.651 1.375-.781 1.319-.134-.058.027-.713.288-1.485.262-.771.514-1.389.656-1.36zm-.476-5.873c.127-.061.53.519.743 1.351.215.833.111 1.542-.012 1.544-.165.009-.292-.64-.493-1.414-.197-.776-.371-1.42-.238-1.481zm-3.414-4.911c.107-.096.623.353 1.152 1.002.529.649.862 1.243.745 1.327-.117.083-.633-.365-1.152-1.002-.519-.637-.853-1.231-.745-1.327zm-3.977-4.491c.108-.095.64.33 1.189.95.549.62.907 1.2.8 1.295-.108.095-.64-.33-1.189-.95-.549-.62-.907-1.199-.8-1.295zm-3.977-4.49c.108-.095.64.33 1.189.95.549.62.907 1.2.799 1.295-.108.095-.64-.33-1.189-.95-.549-.62-.907-1.2-.799-1.295zm-3.98-4.49c.108-.095.639.33 1.188.95.549.62.907 1.2.799 1.295-.108.095-.64-.33-1.189-.95-.548-.62-.905-1.2-.798-1.295zm-3.977-4.49c.108-.095.64.33 1.189.95.549.62.907 1.2.799 1.295-.108.095-.64-.33-1.189-.95-.549-.62-.907-1.2-.799-1.295zm-3.977-4.49c.108-.095.64.33 1.189.95.549.62.907 1.2.8 1.295-.108.095-.64-.33-1.189-.95-.549-.62-.907-1.2-.8-1.295zm-2.981-3.366c.108-.095.418.079.692.389.275.31.41.639.302.734-.108.095-.417-.079-.692-.389-.274-.31-.41-.639-.302-.734zm16.026-23.464c.015-.01.19.215.509.655l1.376 1.936a263.914 263.914 0 014.847 7.266c4.033 6.177 9.245 14.933 15.228 24.45a337.695 337.695 0 008.757 13.21c1.377 2.008 2.569 4.102 2.961 6.3.181 1.094.192 2.172.053 3.19a13.694 13.694 0 01-.788 2.824c-.706 1.727-1.577 3.165-2.337 4.417l-1.997 3.182-1.241 2.021c-.28.465-.435.705-.451.696-.016-.009.108-.266.359-.748.247-.484.639-1.183 1.159-2.074l1.921-3.227c.734-1.261 1.575-2.704 2.244-4.401.32-.853.587-1.769.733-2.746.122-.98.101-2.01-.08-3.055-.392-2.097-1.554-4.123-2.933-6.109a302.549 302.549 0 01-8.801-13.202c-5.99-9.529-11.148-18.309-15.098-24.53-1.957-3.122-3.582-5.622-4.705-7.351l-1.294-1.99c-.291-.458-.437-.704-.422-.714z" fill="#455A64"/><path d="M116.038 432.307l-.077-4.793 10.145-15.121 11.607 15.09v4.824h-21.675z" fill="url(#paint12_linear_997_1541)"/><path d="M116.038 432.307l-.077-4.793 10.145-15.121 11.607 15.09v4.824h-21.675z" fill="#000" opacity=".3"/><path d="M75.89 414.107c.236-.125 51.188 0 51.188 0v4.267H79.383l-3.492-4.267z" fill="url(#paint13_linear_997_1541)"/><path d="M75.89 414.107c.236-.125 51.188 0 51.188 0v4.267H79.383l-3.492-4.267z" fill="#000" opacity=".3"/><path d="M73.194 412.388l-12.319 15.525v37.798h23.793v-38.642l-11.474-14.681z" fill="url(#paint14_linear_997_1541)"/><path d="M141.972 465.711v-38.796l-10.642-14.527h-5.25l11.635 15.095v4.824H88.881v-6.101l-12.039-13.818h-3.647l11.474 14.681v38.642h57.303z" fill="url(#paint15_linear_997_1541)"/><path d="M141.73 435.43c0 .144-12.857.26-28.713.26-15.862 0-28.716-.117-28.716-.26 0-.144 12.854-.26 28.716-.26 15.856 0 28.713.116 28.713.26zm-.184 28.134c0 .144-12.857.26-28.713.26-15.862 0-28.716-.117-28.716-.26 0-.144 12.854-.26 28.716-.26 15.856 0 28.713.116 28.713.26z" fill="#263238"/><path d="M73.194 412.388l-12.319 15.525v37.798h23.793v-38.642l-11.474-14.681z" fill="#fff" opacity=".1"/><path d="M589.578 465.755v-1.987c0-4.6 3.729-8.329 8.328-8.329h70.191c4.6 0 8.328 3.729 8.328 8.329v1.987h-86.847z" fill="url(#paint16_linear_997_1541)"/><path d="M630.277 376.714l-25.39 78.725h54.238l-23.571-78.67c-.779-2.598-4.445-2.636-5.277-.055z" fill="url(#paint17_linear_997_1541)"/><path d="M622.007 402.355h21.213l9.172 30.614h-40.259l9.874-30.614z" fill="#fff" opacity=".5"/><path d="M604.883 455.439h54.238l-1.96-6.544-51.222 3.272-1.056 3.272z" fill="#000" opacity=".3"/><path d="M602.061 458.248c-.018.082-.676-.057-1.734-.032-1.051.019-2.522.261-3.93 1.023-1.408.763-2.414 1.864-3.004 2.734-.599.873-.841 1.5-.92 1.47-.056-.016.064-.699.608-1.666.533-.959 1.561-2.18 3.068-2.996 1.506-.816 3.09-1.011 4.185-.934 1.107.073 1.745.345 1.727.401zm12.329-23.137c.135.05-.899 3.191-2.308 7.016-1.41 3.826-2.662 6.886-2.797 6.836-.135-.05.898-3.191 2.308-7.016 1.41-3.824 2.662-6.885 2.797-6.836zm17.736-57.78c.069.025-.318 1.29-.975 3.324l-2.577 7.94-2.544 7.953c-.654 2.035-1.079 3.288-1.149 3.268-.068-.019.232-1.309.796-3.373.564-2.064 1.4-4.899 2.401-8.007a195.962 195.962 0 012.725-7.901c.747-2.006 1.257-3.228 1.323-3.204z" fill="#fff" opacity=".2"/><defs><linearGradient id="paint0_linear_997_1541" x1="367.232" y1="120.119" x2="367.232" y2="213.148" gradientUnits="userSpaceOnUse"><stop stop-color="#108dff"/><stop offset="1" stop-color="#06162E"/></linearGradient><linearGradient id="paint1_linear_997_1541" x1="504.574" y1="174.467" x2="504.574" y2="184.056" gradientUnits="userSpaceOnUse"><stop stop-color="#108dff"/><stop offset="1" stop-color="#06162E"/></linearGradient><linearGradient id="paint2_linear_997_1541" x1="505.428" y1="158.612" x2="505.428" y2="183.579" gradientUnits="userSpaceOnUse"><stop stop-color="#108dff"/><stop offset="1" stop-color="#06162E"/></linearGradient><linearGradient id="paint3_linear_997_1541" x1="551.855" y1="457.888" x2="551.855" y2="477.469" gradientUnits="userSpaceOnUse"><stop stop-color="#108dff"/><stop offset="1" stop-color="#06162E"/></linearGradient><linearGradient id="paint4_linear_997_1541" x1="493.846" y1="452.328" x2="493.846" y2="465.755" gradientUnits="userSpaceOnUse"><stop stop-color="#108dff"/><stop offset="1" stop-color="#06162E"/></linearGradient><linearGradient id="paint5_linear_997_1541" x1="506.225" y1="212.282" x2="506.225" y2="294.751" gradientUnits="userSpaceOnUse"><stop stop-color="#108dff"/><stop offset="1" stop-color="#06162E"/></linearGradient><linearGradient id="paint6_linear_997_1541" x1="506.112" y1="296.215" x2="506.112" y2="306.87" gradientUnits="userSpaceOnUse"><stop stop-color="#108dff"/><stop offset="1" stop-color="#06162E"/></linearGradient><linearGradient id="paint7_linear_997_1541" x1="260.652" y1="298.286" x2="260.652" y2="322.169" gradientUnits="userSpaceOnUse"><stop stop-color="#108dff"/><stop offset="1" stop-color="#06162E"/></linearGradient><linearGradient id="paint8_linear_997_1541" x1="244.723" y1="78.477" x2="244.723" y2="88.066" gradientUnits="userSpaceOnUse"><stop stop-color="#108dff"/><stop offset="1" stop-color="#06162E"/></linearGradient><linearGradient id="paint9_linear_997_1541" x1="243.865" y1="62.621" x2="243.865" y2="87.589" gradientUnits="userSpaceOnUse"><stop stop-color="#108dff"/><stop offset="1" stop-color="#06162E"/></linearGradient><linearGradient id="paint10_linear_997_1541" x1="242.014" y1="114.601" x2="242.014" y2="198.535" gradientUnits="userSpaceOnUse"><stop stop-color="#108dff"/><stop offset="1" stop-color="#06162E"/></linearGradient><linearGradient id="paint11_linear_997_1541" x1="219.562" y1="353.602" x2="219.562" y2="373.184" gradientUnits="userSpaceOnUse"><stop stop-color="#108dff"/><stop offset="1" stop-color="#06162E"/></linearGradient><linearGradient id="paint12_linear_997_1541" x1="126.837" y1="412.393" x2="126.837" y2="432.307" gradientUnits="userSpaceOnUse"><stop stop-color="#108dff"/><stop offset="1" stop-color="#06162E"/></linearGradient><linearGradient id="paint13_linear_997_1541" x1="101.484" y1="414.051" x2="101.484" y2="418.374" gradientUnits="userSpaceOnUse"><stop stop-color="#108dff"/><stop offset="1" stop-color="#06162E"/></linearGradient><linearGradient id="paint14_linear_997_1541" x1="72.772" y1="412.388" x2="72.772" y2="465.711" gradientUnits="userSpaceOnUse"><stop stop-color="#108dff"/><stop offset="1" stop-color="#06162E"/></linearGradient><linearGradient id="paint15_linear_997_1541" x1="107.584" y1="412.388" x2="107.584" y2="465.711" gradientUnits="userSpaceOnUse"><stop stop-color="#108dff"/><stop offset="1" stop-color="#06162E"/></linearGradient><linearGradient id="paint16_linear_997_1541" x1="633.002" y1="455.439" x2="633.002" y2="465.755" gradientUnits="userSpaceOnUse"><stop stop-color="#108dff"/><stop offset="1" stop-color="#06162E"/></linearGradient><linearGradient id="paint17_linear_997_1541" x1="632.006" y1="374.799" x2="632.006" y2="455.439" gradientUnits="userSpaceOnUse"><stop stop-color="#108dff"/><stop offset="1" stop-color="#06162E"/></linearGradient></defs></svg>