<svg width="1672" height="746" fill="none" xmlns="http://www.w3.org/2000/svg"><path d="M213.753 226h13.05c3.047 0 5.97 1.211 8.125 3.365a11.495 11.495 0 013.365 8.125v504h-36v-504a11.488 11.488 0 0111.46-11.49z" fill="url(#paint0_linear_984_758)"/><path d="M892.954 654.18v87.32h-36.04v-87.03" fill="url(#paint1_linear_984_758)"/><path d="M375.201 280.79h-236.01v87.85h236.01v-87.85z" fill="url(#paint2_linear_984_758)"/><path d="M261.131 280.79h-64.02l-57.92 85.2v2.65h62.22l59.72-87.85zm72.432 87.85l40.46-59.52-.19-28.33h-44.58l-59.71 87.85h64.02z" fill="#fff"/><path d="M374.911 436.41h-235.72v87.85h235.72v-87.85z" fill="url(#paint3_linear_984_758)"/><path d="M261.131 436.41h-64.02l-57.92 85.2v2.64h62.22l59.72-87.84zm72.432 87.84l40.89-60.14-.56-27.7h-44.64l-59.71 87.84h64.02z" fill="#fff"/><path d="M1455.46 3H424.892a50.815 50.815 0 00-46.936 31.407 50.8 50.8 0 00-3.854 19.453V603a50.83 50.83 0 0050.83 50.83H1455.46c12.53 0 24.55-4.977 33.41-13.836a47.274 47.274 0 0013.83-33.404V50.23c0-12.527-4.98-24.54-13.84-33.397A47.237 47.237 0 001455.46 3z" stroke="url(#paint4_linear_984_758)" stroke-width="6" stroke-linecap="round" stroke-linejoin="round"/><path d="M1457.55 602.94V50.75c0-28.22-22.75-47.61-50.82-47.61h44.89c28.07 0 50.82 19.39 50.82 47.61v552.19l-3 24.64-41.89-24.64z" fill="url(#paint5_linear_984_758)"/><path d="M436.802 50.42c8.03 0 14.54-6.51 14.54-14.54s-6.51-14.54-14.54-14.54c-8.031 0-14.54 6.51-14.54 14.54s6.509 14.54 14.54 14.54z" fill="url(#paint6_linear_984_758)"/><path d="M493.333 50.42c8.03 0 14.54-6.51 14.54-14.54s-6.51-14.54-14.54-14.54-14.54 6.51-14.54 14.54 6.51 14.54 14.54 14.54z" fill="url(#paint7_linear_984_758)"/><path d="M549.86 50.42c8.031 0 14.54-6.51 14.54-14.54s-6.509-14.54-14.54-14.54c-8.03 0-14.54 6.51-14.54 14.54s6.51 14.54 14.54 14.54z" fill="url(#paint8_linear_984_758)"/><path d="M1115.16 68.95l-.39 586.07" stroke="url(#paint9_linear_984_758)" stroke-width="6" stroke-linecap="round" stroke-linejoin="round"/><path d="M1457.55 69.35H374.293" stroke="url(#paint10_linear_984_758)" stroke-width="6" stroke-linecap="round" stroke-linejoin="round"/><path d="M1238.52 207.74h-2.32a4.448 4.448 0 00-4.45 4.45v6.47c0 2.458 1.99 4.45 4.45 4.45h2.32c2.45 0 4.45-1.992 4.45-4.45v-6.47c0-2.458-2-4.45-4.45-4.45z" fill="#06162E"/><path d="M1222.43 207.74h-67.13c-2.76 0-5 2.239-5 5v5.37c0 2.761 2.24 5 5 5h67.13c2.77 0 5-2.239 5-5v-5.37c0-2.761-2.23-5-5-5z" fill="url(#paint11_linear_984_758)"/><path d="M1229.41 279.11h-74.11c-2.76 0-5 2.239-5 5v5.37c0 2.761 2.24 5 5 5h74.11c2.77 0 5-2.239 5-5v-5.37c0-2.761-2.23-5-5-5z" fill="url(#paint12_linear_984_758)"/><path d="M1297.02 255.35h-120.45c-2.77 0-5 2.239-5 5v5.37c0 2.761 2.23 5 5 5h120.45c2.76 0 5-2.239 5-5v-5.37c0-2.761-2.24-5-5-5zm-21.05-83.19h-120.45c-2.76 0-5 2.239-5 5v5.37c0 2.761 2.24 5 5 5h120.45c2.76 0 5-2.239 5-5v-5.37c0-2.761-2.24-5-5-5zm0 183.04h-120.45c-2.76 0-5 2.239-5 5v5.37c0 2.761 2.24 5 5 5h120.45c2.76 0 5-2.239 5-5v-5.37c0-2.761-2.24-5-5-5zm98.81-99.85h-60.46c-2.77 0-5 2.239-5 5v5.37c0 2.761 2.23 5 5 5h60.46c2.76 0 5-2.239 5-5v-5.37c0-2.761-2.24-5-5-5z" fill="#06162E"/><path d="M1399.18 231.59h-2.32a4.455 4.455 0 00-4.45 4.45v6.47c0 2.458 2 4.45 4.45 4.45h2.32c2.46 0 4.45-1.992 4.45-4.45v-6.47c0-2.458-1.99-4.45-4.45-4.45z" fill="url(#paint13_linear_984_758)"/><path d="M1280.2 231.55h-124.9c-2.76 0-5 2.239-5 5v5.37c0 2.761 2.24 5 5 5h124.9c2.77 0 5-2.239 5-5v-5.37c0-2.761-2.23-5-5-5z" fill="url(#paint14_linear_984_758)"/><path d="M1320.04 207.74h-67.13c-2.77 0-5 2.239-5 5v5.37c0 2.761 2.23 5 5 5h67.13c2.76 0 5-2.239 5-5v-5.37c0-2.761-2.24-5-5-5z" fill="url(#paint15_linear_984_758)"/><path d="M1381.38 231.5h-85.15c-2.76 0-5 2.239-5 5v5.46c0 2.761 2.24 5 5 5h85.15c2.76 0 5-2.239 5-5v-5.46c0-2.761-2.24-5-5-5z" fill="#06162E"/><path d="M1222.43 415.58h-67.13c-2.76 0-5 2.239-5 5v5.37c0 2.761 2.24 5 5 5h67.13c2.77 0 5-2.239 5-5v-5.37c0-2.761-2.23-5-5-5z" fill="url(#paint16_linear_984_758)"/><path d="M1229.41 486.95h-74.11c-2.76 0-5 2.239-5 5v5.37c0 2.761 2.24 5 5 5h74.11c2.77 0 5-2.239 5-5v-5.37c0-2.761-2.23-5-5-5z" fill="url(#paint17_linear_984_758)"/><path d="M1297.02 463.19h-120.45c-2.77 0-5 2.239-5 5v5.37c0 2.761 2.23 5 5 5h120.45c2.76 0 5-2.239 5-5v-5.37c0-2.761-2.24-5-5-5zm77.76 0h-60.46c-2.77 0-5 2.239-5 5v5.37c0 2.761 2.23 5 5 5h60.46c2.76 0 5-2.239 5-5v-5.37c0-2.761-2.24-5-5-5z" fill="#06162E"/><path d="M1399.18 439.43h-2.32a4.455 4.455 0 00-4.45 4.45v6.47c0 2.458 2 4.45 4.45 4.45h2.32c2.46 0 4.45-1.992 4.45-4.45v-6.47c0-2.458-1.99-4.45-4.45-4.45z" fill="url(#paint18_linear_984_758)"/><path d="M1418.79 415.58h-2.32a4.455 4.455 0 00-4.45 4.45v6.47c0 2.458 2 4.45 4.45 4.45h2.32c2.46 0 4.45-1.992 4.45-4.45v-6.47c0-2.458-1.99-4.45-4.45-4.45z" fill="url(#paint19_linear_984_758)"/><path d="M1280.2 439.39h-124.9c-2.76 0-5 2.239-5 5v5.37c0 2.761 2.24 5 5 5h124.9c2.77 0 5-2.239 5-5v-5.37c0-2.761-2.23-5-5-5z" fill="url(#paint20_linear_984_758)"/><path d="M1320.04 415.58h-83.29c-2.77 0-5 2.239-5 5v5.37c0 2.761 2.23 5 5 5h83.29c2.76 0 5-2.239 5-5v-5.37c0-2.761-2.24-5-5-5zm83.07 0h-67.13c-2.76 0-5 2.239-5 5v5.37c0 2.761 2.24 5 5 5h67.13c2.76 0 5-2.239 5-5v-5.37c0-2.761-2.24-5-5-5zm-164.59-23.03h-2.32a4.448 4.448 0 00-4.45 4.45v6.47c0 2.458 1.99 4.45 4.45 4.45h2.32c2.45 0 4.45-1.992 4.45-4.45V397c0-2.458-2-4.45-4.45-4.45z" fill="#06162E"/><path d="M1222.43 392.55h-67.13c-2.76 0-5 2.239-5 5v5.37c0 2.761 2.24 5 5 5h67.13c2.77 0 5-2.239 5-5v-5.37c0-2.761-2.23-5-5-5z" fill="url(#paint21_linear_984_758)"/><path d="M1320.04 392.55h-67.13c-2.77 0-5 2.239-5 5v5.37c0 2.761 2.23 5 5 5h67.13c2.76 0 5-2.239 5-5v-5.37c0-2.761-2.24-5-5-5z" fill="url(#paint22_linear_984_758)"/><path d="M1381.38 439.34h-85.15c-2.76 0-5 2.239-5 5v5.46c0 2.761 2.24 5 5 5h85.15c2.76 0 5-2.239 5-5v-5.46c0-2.761-2.24-5-5-5z" fill="#06162E"/><path d="M846.312 604.91h117c6.865 0 12.43-5.565 12.43-12.43V472.61c0-6.865-5.565-12.43-12.43-12.43h-117c-6.865 0-12.43 5.565-12.43 12.43v119.87c0 6.865 5.565 12.43 12.43 12.43z" stroke="url(#paint23_linear_984_758)" stroke-width="6" stroke-linecap="round" stroke-linejoin="round"/><path d="M801.085 480.06h-91.64" stroke="url(#paint24_linear_984_758)" stroke-width="6" stroke-linecap="round" stroke-linejoin="round"/><path d="M801.694 520.35h-267.53" stroke="url(#paint25_linear_984_758)" stroke-width="6" stroke-linecap="round" stroke-linejoin="round"/><path d="M801.694 544.33h-267.53" stroke="url(#paint26_linear_984_758)" stroke-width="6" stroke-linecap="round" stroke-linejoin="round"/><path d="M801.694 568.32h-267.53" stroke="url(#paint27_linear_984_758)" stroke-width="6" stroke-linecap="round" stroke-linejoin="round"/><path d="M801.694 592.91h-267.53" stroke="url(#paint28_linear_984_758)" stroke-width="6" stroke-linecap="round" stroke-linejoin="round"/><path d="M837.285 599.96l135.32-136.62" stroke="url(#paint29_linear_984_758)" stroke-width="6" stroke-linecap="round" stroke-linejoin="round"/><path d="M663.594 270.41h-117c-6.865 0-12.43 5.565-12.43 12.43v119.87c0 6.865 5.565 12.43 12.43 12.43h117c6.865 0 12.43-5.565 12.43-12.43V282.84c0-6.865-5.565-12.43-12.43-12.43z" stroke="url(#paint30_linear_984_758)" stroke-width="6" stroke-linecap="round" stroke-linejoin="round"/><path d="M708.836 290.3h91.63" stroke="url(#paint31_linear_984_758)" stroke-width="6" stroke-linecap="round" stroke-linejoin="round"/><path d="M708.215 330.58h267.53" stroke="url(#paint32_linear_984_758)" stroke-width="6" stroke-linecap="round" stroke-linejoin="round"/><path d="M708.215 354.56h267.53" stroke="url(#paint33_linear_984_758)" stroke-width="6" stroke-linecap="round" stroke-linejoin="round"/><path d="M708.215 378.55h267.53" stroke="url(#paint34_linear_984_758)" stroke-width="6" stroke-linecap="round" stroke-linejoin="round"/><path d="M708.215 402.53h267.53" stroke="url(#paint35_linear_984_758)" stroke-width="6" stroke-linecap="round" stroke-linejoin="round"/><path d="M537.133 410.42l135.33-136.62" stroke="url(#paint36_linear_984_758)" stroke-width="6" stroke-linecap="round" stroke-linejoin="round"/><path d="M1060.81 115.97H420.864c-6.589 0-11.93 5.341-11.93 11.93v99.76c0 6.589 5.341 11.93 11.93 11.93h639.946c6.59 0 11.93-5.341 11.93-11.93V127.9c0-6.589-5.34-11.93-11.93-11.93z" stroke="url(#paint37_linear_984_758)" stroke-width="6" stroke-linecap="round" stroke-linejoin="round"/><path d="M1173.47 692l14.11 1.29c.3-1.11.61-2.22.93-3.32L1189 601c.01-1.479.31-2.941.88-4.304a11.222 11.222 0 012.46-3.641c1.05-1.04 2.3-1.862 3.66-2.421a11.3 11.3 0 014.32-.834l60.21.34a181.568 181.568 0 01104.83-32.66c100.18.57 182.24 83.3 182 183.49l-375.85-.27a21.017 21.017 0 01-14.9-6.197 21.044 21.044 0 01-4.54-6.857 20.9 20.9 0 01-1.56-8.076v-6.82c.02-2.91.65-5.783 1.84-8.438a21.015 21.015 0 0112.54-11.333 20.988 20.988 0 018.58-.979z" fill="#06162E"/><path d="M1529 679.27s-30.75-4.38-39.7 30.55c-.86 3.38-2.64 18.61-2.64 18.61s-189.16 4.87-293.94-34.68c0 0-2.87-29.55 35.22-71.08" stroke="url(#paint38_linear_984_758)" stroke-width="6" stroke-linecap="round" stroke-linejoin="round"/><path d="M618.589 705.07h-26.77l-96.06-252.91c-5.3-14-21.58-13.72-26.61.38l-90.07 252.53h-26.17c-5.45 0-9.87 5.4-9.87 12.06v16c0 6.66 4.42 12.06 9.87 12.06h265.68c5.45 0 9.86-5.4 9.86-12.06v-16c0-6.66-4.45-12.06-9.86-12.06z" fill="#06162E"/><path d="M382.969 705.07h204.34" stroke="url(#paint39_linear_984_758)" stroke-width="6" stroke-linecap="round" stroke-linejoin="round"/><path d="M578.049 667.92h-185.74l14.95-42.32h154.7l16.09 42.32zM424.898 576.6h118.12l-16.07-42.33h-86.95l-15.1 42.33z" fill="#fff"/><path d="M806.642 722.89h-14.87l-53.35-140.47c-2.94-7.74-12-7.61-14.78.21l-50 140.26h-14.56c-3 0-5.48 3-5.48 6.71v8.86c0 3.7 2.45 6.7 5.48 6.7h147.56c3 0 5.48-3 5.48-6.7v-8.86c0-3.71-2.45-6.71-5.48-6.71z" fill="#06162E"/><path d="M675.773 722.89h113.5" stroke="url(#paint40_linear_984_758)" stroke-width="6" stroke-linecap="round" stroke-linejoin="round"/><path d="M784.131 702.26h-103.17l8.31-23.5h85.92l8.94 23.5zm-85.061-50.72h65.6l-8.93-23.51h-48.29l-8.38 23.51z" fill="#fff"/><path d="M3 741.97h1665.54" stroke="url(#paint41_linear_984_758)" stroke-width="6" stroke-linecap="round" stroke-linejoin="round"/><defs><linearGradient id="paint0_linear_984_758" x1="220.293" y1="226" x2="220.293" y2="741.49" gradientUnits="userSpaceOnUse"><stop stop-color="#108dff"/><stop offset="1" stop-color="#06162E"/></linearGradient><linearGradient id="paint1_linear_984_758" x1="874.934" y1="654.18" x2="874.934" y2="741.5" gradientUnits="userSpaceOnUse"><stop stop-color="#108dff"/><stop offset="1" stop-color="#06162E"/></linearGradient><linearGradient id="paint2_linear_984_758" x1="257.196" y1="280.79" x2="257.196" y2="368.64" gradientUnits="userSpaceOnUse"><stop stop-color="#108dff"/><stop offset="1" stop-color="#06162E"/></linearGradient><linearGradient id="paint3_linear_984_758" x1="257.051" y1="436.41" x2="257.051" y2="524.26" gradientUnits="userSpaceOnUse"><stop stop-color="#108dff"/><stop offset="1" stop-color="#06162E"/></linearGradient><linearGradient id="paint4_linear_984_758" x1="938.402" y1="3" x2="938.402" y2="653.83" gradientUnits="userSpaceOnUse"><stop stop-color="#108dff"/><stop offset="1" stop-color="#06162E"/></linearGradient><linearGradient id="paint5_linear_984_758" x1="1454.59" y1="3.14" x2="1454.59" y2="627.58" gradientUnits="userSpaceOnUse"><stop stop-color="#108dff"/><stop offset="1" stop-color="#06162E"/></linearGradient><linearGradient id="paint6_linear_984_758" x1="436.802" y1="21.34" x2="436.802" y2="50.42" gradientUnits="userSpaceOnUse"><stop stop-color="#108dff"/><stop offset="1" stop-color="#06162E"/></linearGradient><linearGradient id="paint7_linear_984_758" x1="493.333" y1="21.34" x2="493.333" y2="50.42" gradientUnits="userSpaceOnUse"><stop stop-color="#108dff"/><stop offset="1" stop-color="#06162E"/></linearGradient><linearGradient id="paint8_linear_984_758" x1="549.86" y1="21.34" x2="549.86" y2="50.42" gradientUnits="userSpaceOnUse"><stop stop-color="#108dff"/><stop offset="1" stop-color="#06162E"/></linearGradient><linearGradient id="paint9_linear_984_758" x1="1114.97" y1="68.95" x2="1114.97" y2="655.02" gradientUnits="userSpaceOnUse"><stop stop-color="#108dff"/><stop offset="1" stop-color="#06162E"/></linearGradient><linearGradient id="paint10_linear_984_758" x1="915.923" y1="69.35" x2="915.923" y2="70.35" gradientUnits="userSpaceOnUse"><stop stop-color="#108dff"/><stop offset="1" stop-color="#06162E"/></linearGradient><linearGradient id="paint11_linear_984_758" x1="1188.87" y1="207.74" x2="1188.87" y2="223.11" gradientUnits="userSpaceOnUse"><stop stop-color="#108dff"/><stop offset="1" stop-color="#06162E"/></linearGradient><linearGradient id="paint12_linear_984_758" x1="1192.36" y1="279.11" x2="1192.36" y2="294.48" gradientUnits="userSpaceOnUse"><stop stop-color="#108dff"/><stop offset="1" stop-color="#06162E"/></linearGradient><linearGradient id="paint13_linear_984_758" x1="1398.02" y1="231.59" x2="1398.02" y2="246.96" gradientUnits="userSpaceOnUse"><stop stop-color="#108dff"/><stop offset="1" stop-color="#06162E"/></linearGradient><linearGradient id="paint14_linear_984_758" x1="1217.75" y1="231.55" x2="1217.75" y2="246.92" gradientUnits="userSpaceOnUse"><stop stop-color="#108dff"/><stop offset="1" stop-color="#06162E"/></linearGradient><linearGradient id="paint15_linear_984_758" x1="1286.47" y1="207.74" x2="1286.47" y2="223.11" gradientUnits="userSpaceOnUse"><stop stop-color="#108dff"/><stop offset="1" stop-color="#06162E"/></linearGradient><linearGradient id="paint16_linear_984_758" x1="1188.87" y1="415.58" x2="1188.87" y2="430.95" gradientUnits="userSpaceOnUse"><stop stop-color="#108dff"/><stop offset="1" stop-color="#06162E"/></linearGradient><linearGradient id="paint17_linear_984_758" x1="1192.36" y1="486.95" x2="1192.36" y2="502.32" gradientUnits="userSpaceOnUse"><stop stop-color="#108dff"/><stop offset="1" stop-color="#06162E"/></linearGradient><linearGradient id="paint18_linear_984_758" x1="1398.02" y1="439.43" x2="1398.02" y2="454.8" gradientUnits="userSpaceOnUse"><stop stop-color="#108dff"/><stop offset="1" stop-color="#06162E"/></linearGradient><linearGradient id="paint19_linear_984_758" x1="1417.63" y1="415.58" x2="1417.63" y2="430.95" gradientUnits="userSpaceOnUse"><stop stop-color="#108dff"/><stop offset="1" stop-color="#06162E"/></linearGradient><linearGradient id="paint20_linear_984_758" x1="1217.75" y1="439.39" x2="1217.75" y2="454.76" gradientUnits="userSpaceOnUse"><stop stop-color="#108dff"/><stop offset="1" stop-color="#06162E"/></linearGradient><linearGradient id="paint21_linear_984_758" x1="1188.87" y1="392.55" x2="1188.87" y2="407.92" gradientUnits="userSpaceOnUse"><stop stop-color="#108dff"/><stop offset="1" stop-color="#06162E"/></linearGradient><linearGradient id="paint22_linear_984_758" x1="1286.47" y1="392.55" x2="1286.47" y2="407.92" gradientUnits="userSpaceOnUse"><stop stop-color="#108dff"/><stop offset="1" stop-color="#06162E"/></linearGradient><linearGradient id="paint23_linear_984_758" x1="904.812" y1="604.91" x2="904.812" y2="460.18" gradientUnits="userSpaceOnUse"><stop stop-color="#108dff"/><stop offset="1" stop-color="#06162E"/></linearGradient><linearGradient id="paint24_linear_984_758" x1="755.265" y1="480.06" x2="755.265" y2="481.06" gradientUnits="userSpaceOnUse"><stop stop-color="#108dff"/><stop offset="1" stop-color="#06162E"/></linearGradient><linearGradient id="paint25_linear_984_758" x1="667.929" y1="520.35" x2="667.929" y2="521.35" gradientUnits="userSpaceOnUse"><stop stop-color="#108dff"/><stop offset="1" stop-color="#06162E"/></linearGradient><linearGradient id="paint26_linear_984_758" x1="667.929" y1="544.33" x2="667.929" y2="545.33" gradientUnits="userSpaceOnUse"><stop stop-color="#108dff"/><stop offset="1" stop-color="#06162E"/></linearGradient><linearGradient id="paint27_linear_984_758" x1="667.929" y1="568.32" x2="667.929" y2="569.32" gradientUnits="userSpaceOnUse"><stop stop-color="#108dff"/><stop offset="1" stop-color="#06162E"/></linearGradient><linearGradient id="paint28_linear_984_758" x1="667.929" y1="592.91" x2="667.929" y2="593.91" gradientUnits="userSpaceOnUse"><stop stop-color="#108dff"/><stop offset="1" stop-color="#06162E"/></linearGradient><linearGradient id="paint29_linear_984_758" x1="904.945" y1="463.34" x2="904.945" y2="599.96" gradientUnits="userSpaceOnUse"><stop stop-color="#108dff"/><stop offset="1" stop-color="#06162E"/></linearGradient><linearGradient id="paint30_linear_984_758" x1="605.094" y1="270.41" x2="605.094" y2="415.14" gradientUnits="userSpaceOnUse"><stop stop-color="#108dff"/><stop offset="1" stop-color="#06162E"/></linearGradient><linearGradient id="paint31_linear_984_758" x1="754.651" y1="290.3" x2="754.651" y2="291.3" gradientUnits="userSpaceOnUse"><stop stop-color="#108dff"/><stop offset="1" stop-color="#06162E"/></linearGradient><linearGradient id="paint32_linear_984_758" x1="841.98" y1="330.58" x2="841.98" y2="331.58" gradientUnits="userSpaceOnUse"><stop stop-color="#108dff"/><stop offset="1" stop-color="#06162E"/></linearGradient><linearGradient id="paint33_linear_984_758" x1="841.98" y1="354.56" x2="841.98" y2="355.56" gradientUnits="userSpaceOnUse"><stop stop-color="#108dff"/><stop offset="1" stop-color="#06162E"/></linearGradient><linearGradient id="paint34_linear_984_758" x1="841.98" y1="378.55" x2="841.98" y2="379.55" gradientUnits="userSpaceOnUse"><stop stop-color="#108dff"/><stop offset="1" stop-color="#06162E"/></linearGradient><linearGradient id="paint35_linear_984_758" x1="841.98" y1="402.53" x2="841.98" y2="403.53" gradientUnits="userSpaceOnUse"><stop stop-color="#108dff"/><stop offset="1" stop-color="#06162E"/></linearGradient><linearGradient id="paint36_linear_984_758" x1="604.798" y1="273.8" x2="604.798" y2="410.42" gradientUnits="userSpaceOnUse"><stop stop-color="#108dff"/><stop offset="1" stop-color="#06162E"/></linearGradient><linearGradient id="paint37_linear_984_758" x1="740.839" y1="115.97" x2="740.839" y2="239.59" gradientUnits="userSpaceOnUse"><stop stop-color="#108dff"/><stop offset="1" stop-color="#06162E"/></linearGradient><linearGradient id="paint38_linear_984_758" x1="1360.83" y1="622.67" x2="1360.83" y2="728.62" gradientUnits="userSpaceOnUse"><stop stop-color="#108dff"/><stop offset="1" stop-color="#06162E"/></linearGradient><linearGradient id="paint39_linear_984_758" x1="485.139" y1="705.07" x2="485.139" y2="706.07" gradientUnits="userSpaceOnUse"><stop stop-color="#108dff"/><stop offset="1" stop-color="#06162E"/></linearGradient><linearGradient id="paint40_linear_984_758" x1="732.523" y1="722.89" x2="732.523" y2="723.89" gradientUnits="userSpaceOnUse"><stop stop-color="#108dff"/><stop offset="1" stop-color="#06162E"/></linearGradient><linearGradient id="paint41_linear_984_758" x1="835.77" y1="741.97" x2="835.77" y2="742.97" gradientUnits="userSpaceOnUse"><stop stop-color="#108dff"/><stop offset="1" stop-color="#06162E"/></linearGradient></defs></svg>