<svg width="500" height="500" fill="none" xmlns="http://www.w3.org/2000/svg"><path d="M56.967 467.687c-1.327-1.137-4.286-4.742-2.004-8.935.837-1.537 2.614-2.297 4.222-2.975 1.609-.677 3.299-1.266 4.63-2.398 2.51-2.135 3.202-5.683 4.868-8.532 1.913-3.27 5.483-5.72 9.255-5.549 4.319.196 7.922 3.724 9.555 7.746s1.69 8.488 1.724 12.832c.019 2.402-.088 5.109-1.852 6.731-1.626 1.496-4.074 1.514-6.277 1.446l-23.604-.725" fill="#F5F5F5"/><path d="M102.114 402.779H40.039l11.182 66.676a7.445 7.445 0 005.3 5.936c.071.023.145.039.218.06.185.047.363.11.553.143.41.085.832.128 1.262.145l.01.064.303-.048h27.668c.521 0 1.028-.054 1.52-.151a7.476 7.476 0 006.28-6.517l5.39-45.941.243-1.827h-.029l2.135-18.194.04-.346zm-11.71 42.531h-6.37l.643-19.351h7.381l-1.654 19.351zm2.271-19.351h6.1l-2.272 19.351h-5.482l1.654-19.351zm-18.199 40.802l-.387-16.811h9.174l-.559 16.811h-8.228zm-9.918-16.81h8.914l.387 16.811h-7.995l-1.306-16.811zm.69 16.81h-7.474c-.71-4.539-1.634-10.437-2.635-16.811h8.802l1.306 16.811zm-1.05-21.451l-1.505-19.351H72.92l.446 19.351h-9.168zm9.783 0l-.446-19.351h10.523l-.643 19.351h-9.434zm-.552-23.991l-.413-17.921h11.792l-.595 17.921H73.43zm-.616 0h-10.48l-1.393-17.921H72.4l.413 17.921zm-11.098 0H50.627c-.392-2.475-.765-4.818-1.1-6.926-1.158-7.245-1.593-9.97-1.834-10.995h12.63l1.392 17.921zm.361 4.64l1.504 19.351h-9.17l-.933-5.937c-.719-4.568-1.438-9.134-2.115-13.413l10.714-.001zm-8.29 19.351h-5.99l-3.246-19.351h6.187c.946 5.98 1.994 12.636 3.05 19.351zm.73 4.641l2.634 16.811h-5.756l-2.819-16.811h5.94zm28.805 16.81l.558-16.811h6.128l-1.436 16.811h-5.25zm1.51-45.442l.594-17.921h8.56l-1.532 17.921H84.83zm-37.725-17.921c.246 1.296 1.38 8.347 2.897 17.921h-6.23l-3.007-17.921h6.34zm46.881 63.363H89.19l1.436-16.811h5.334l-1.972 16.811zm5.332-45.442h-6.247l1.531-17.921h6.818l-2.102 17.921z" fill="url(#paint0_linear_1005_1301)"/><path d="M151.125 44.886H51.027v145.089h100.098V44.886z" fill="url(#paint1_linear_1005_1301)"/><path d="M146.111 44.886h-100.1v145.089h100.1V44.886z" fill="#F5F5F5"/><path d="M133.675 60.6H58.449v113.66h75.226V60.6z" fill="#fff"/><path d="M133.677 174.26s-.01-.192-.015-.556l-.015-1.612-.03-6.234-.067-23.413-.123-81.845.25.25-75.216.022h-.01l.273-.272-.055 113.66-.217-.217 54.754.114 15.128.055 3.971.024c.898.009 1.372.024 1.372.024s-.443.016-1.327.023l-3.93.024-15.079.055-54.89.114h-.216v-.217l-.055-113.66v-.272h.282l75.216.023h.25v.25l-.123 82.009-.067 23.357-.03 6.184-.015 1.584a18.27 18.27 0 01-.016.526z" fill="url(#paint2_linear_1005_1301)"/><path d="M146.392 44.886c.059.045-.621 1.037-1.784 2.592a168.132 168.132 0 01-4.697 5.957 167.646 167.646 0 01-4.948 5.752c-1.303 1.439-2.147 2.296-2.202 2.248-.057-.05.683-.996 1.91-2.499l4.819-5.847 4.815-5.849c1.24-1.493 2.027-2.401 2.087-2.354z" fill="url(#paint3_linear_1005_1301)"/><path d="M134.059 173.894a93.156 93.156 0 0013.121 16.409z" fill="#fff"/><path d="M147.179 190.303c-.049.05-.942-.725-2.287-2.081a72.313 72.313 0 01-4.949-5.582 72.387 72.387 0 01-4.357-6.057c-1.027-1.61-1.586-2.652-1.527-2.689.068-.043.742.925 1.846 2.473a135.9 135.9 0 004.464 5.933 135.973 135.973 0 004.805 5.659c1.266 1.417 2.062 2.288 2.005 2.344z" fill="url(#paint4_linear_1005_1301)"/><path d="M46 189.86l13.111-16.177z" fill="#fff"/><path d="M59.11 173.683c.118.095-2.723 3.793-6.343 8.259-3.621 4.468-6.651 8.012-6.767 7.917-.117-.095 2.723-3.792 6.345-8.26 3.62-4.466 6.65-8.011 6.766-7.916z" fill="url(#paint5_linear_1005_1301)"/><path d="M46.015 44.886c.118-.093 2.967 3.313 6.364 7.608 3.397 4.296 6.055 7.853 5.937 7.946-.118.093-2.967-3.312-6.364-7.608-3.396-4.295-6.054-7.853-5.937-7.946z" fill="url(#paint6_linear_1005_1301)"/><path d="M110.239 83.677H85.051v71.517h25.188V83.677z" fill="url(#paint7_linear_1005_1301)"/><path d="M454.873 35.167h-94.494v98.502h94.494V35.167z" fill="url(#paint8_linear_1005_1301)"/><path d="M448.47 35.167h-94.493v98.502h94.493V35.167z" fill="#FAFAFA"/><path d="M448.501 133.698h-94.552v-98.56h94.552v98.56zm-94.494-.059h94.435V35.196h-94.435v98.443z" fill="url(#paint9_linear_1005_1301)"/><path d="M435.769 48.408H366.68v72.019h69.089V48.408z" fill="#fff"/><path d="M366.682 120.906c.054.064-.602.818-1.705 1.982a192.084 192.084 0 01-4.392 4.452 191.488 191.488 0 01-4.514 4.32c-1.178 1.083-1.937 1.723-1.997 1.663-.059-.06.592-.81 1.696-1.974a192.737 192.737 0 014.401-4.461 189.865 189.865 0 014.522-4.328c1.18-1.082 1.935-1.719 1.989-1.654z" fill="url(#paint10_linear_1005_1301)"/><path d="M435.77 120.729c.065-.054.818.602 1.982 1.705a194.144 194.144 0 014.452 4.392 189.544 189.544 0 014.32 4.514c1.082 1.178 1.723 1.937 1.663 1.997-.06.06-.809-.592-1.974-1.695a193.055 193.055 0 01-4.461-4.402 193.988 193.988 0 01-4.328-4.522c-1.082-1.18-1.718-1.935-1.654-1.989z" fill="url(#paint11_linear_1005_1301)"/><path d="M435.581 48.6c-.054-.065.602-.818 1.705-1.982a190.1 190.1 0 014.392-4.452 192.03 192.03 0 014.513-4.321c1.178-1.083 1.937-1.723 1.997-1.663.059.06-.592.809-1.696 1.974a191.027 191.027 0 01-4.402 4.46 191.904 191.904 0 01-4.522 4.329c-1.177 1.083-1.932 1.72-1.987 1.655z" fill="url(#paint12_linear_1005_1301)"/><path d="M366.491 48.777c-.065.055-.818-.601-1.982-1.705a192.084 192.084 0 01-4.452-4.392 189.45 189.45 0 01-4.32-4.514c-1.083-1.178-1.723-1.937-1.663-1.997.06-.06.809.592 1.974 1.695a189.073 189.073 0 014.461 4.402 191.904 191.904 0 014.328 4.522c1.082 1.179 1.719 1.934 1.654 1.989z" fill="url(#paint13_linear_1005_1301)"/><path d="M435.579 120.427a3.336 3.336 0 01-.015-.35l-.015-1.005-.031-3.888-.07-14.678-.136-52.098.267.266-68.893.04h-.007l.306-.306-.043 72.018-.263-.262 49.888.134 14.013.068 3.707.03.958.015c.217.006.329.011.334.016.005.005-.098.01-.304.015l-.93.015-3.657.03-13.953.069-50.055.134-.262.001v-.264l-.043-72.018v-.306h.313l68.893.039h.267l-.001.267-.135 52.268-.07 14.618-.031 3.836-.015.976a2.56 2.56 0 01-.017.32z" fill="url(#paint14_linear_1005_1301)"/><path d="M412.753 72.89h-23.054v23.055h23.054V72.89z" fill="url(#paint15_linear_1005_1301)"/><path d="M304.367 444.175v30.111h92.6v-30.111h-92.6z" fill="#F5F5F5"/><path d="M300.48 435.757v8.418h99.723v-8.418H300.48z" fill="url(#paint16_linear_1005_1301)"/><path d="M350.341 474.286h46.623v-30.111h3.238v-8.418h-51.804v7.64l1.943 30.889z" fill="url(#paint17_linear_1005_1301)"/><path d="M336.095 449.031h-18.779v4.532h18.779v-4.532z" fill="url(#paint18_linear_1005_1301)"/><path d="M339.015 459.23h-24.113v9.571h24.113v-9.571z" fill="#fff"/><path d="M318.613 405.686v30.111h92.6v-30.111h-92.6z" fill="#F5F5F5"/><path d="M315.172 397.268v8.418h99.723v-8.418h-99.723z" fill="url(#paint19_linear_1005_1301)"/><path d="M364.588 435.797h47.069v-30.111h2.793v-8.418h-51.805v7.639l1.943 30.89z" fill="url(#paint20_linear_1005_1301)"/><path d="M350.341 410.542h-18.779v4.532h18.779v-4.532z" fill="url(#paint21_linear_1005_1301)"/><path d="M353.258 420.741h-24.113v9.571h24.113v-9.571z" fill="#fff"/><path d="M482.205 475.278c0 .144-104.866.26-234.195.26-129.374 0-234.217-.117-234.217-.26 0-.144 104.843-.26 234.217-.26 129.329 0 234.195.116 234.195.26zm-236.47-250.889v1.007h-4.028v-.789l2.299-2.719h-2.241v-1.007h3.894v.789l-2.299 2.719h2.375zm-7.329-4.437v2.356h-9.426v-1.846l5.381-6.362h-5.244v-2.357h9.112v1.846l-5.381 6.363h5.558zm-13.473-5.365v4.75h-18.999v-3.721l10.845-12.824h-10.568v-4.75h18.366v3.721l-10.845 12.824h11.201z" fill="#263238"/><path d="M219.982 157.137h-14.495v18.676h-26.899v-18.676H127.02v-17.979l43.763-60.906h28.572l-39.722 57.004h19.791V118.67h26.063v16.585h14.495v21.882z" fill="url(#paint22_linear_1005_1301)"/><path d="M225.551 127.033c0-32.195 18.119-50.732 43.066-50.732 24.809 0 42.927 18.537 42.927 50.732s-18.118 50.732-42.927 50.732c-24.948-.001-43.066-18.537-43.066-50.732zm58.257 0c0-20.488-6.411-28.153-15.191-28.153-8.92 0-15.331 7.665-15.331 28.153s6.411 28.153 15.331 28.153c8.78 0 15.191-7.666 15.191-28.153z" fill="url(#paint23_linear_1005_1301)"/><path d="M413.005 157.137H398.51v18.676h-26.899v-18.676h-51.568v-17.979l43.764-60.906h28.571l-39.721 57.004h19.791V118.67h26.063v16.585h14.495l-.001 21.882z" fill="url(#paint24_linear_1005_1301)"/><path d="M219.982 157.137h-14.495v18.676h-26.899v-18.676H127.02v-17.979l43.763-60.906h28.572l-39.722 57.004h19.791V118.67h26.063v16.585h14.495v21.882zm5.569-30.104c0-32.195 18.119-50.732 43.066-50.732 24.809 0 42.927 18.537 42.927 50.732s-18.118 50.732-42.927 50.732c-24.948-.001-43.066-18.537-43.066-50.732zm58.257 0c0-20.488-6.411-28.153-15.191-28.153-8.92 0-15.331 7.665-15.331 28.153s6.411 28.153 15.331 28.153c8.78 0 15.191-7.666 15.191-28.153zm129.197 30.104H398.51v18.676h-26.899v-18.676h-51.568v-17.979l43.764-60.906h28.571l-39.721 57.004h19.791V118.67h26.063v16.585h14.495l-.001 21.882z" opacity=".3" fill="#000"/><path d="M211.904 157.137h-14.496v18.676h-26.899v-18.676h-51.568v-17.979l43.763-60.906h28.572l-39.722 57.004h19.791V118.67h26.063v16.585h14.495v21.882h.001z" fill="url(#paint25_linear_1005_1301)"/><path d="M217.473 127.033c0-32.195 18.119-50.732 43.067-50.732 24.808 0 42.927 18.537 42.927 50.732s-18.119 50.732-42.927 50.732c-24.948-.001-43.067-18.537-43.067-50.732zm58.258 0c0-20.488-6.411-28.153-15.191-28.153-8.92 0-15.332 7.665-15.332 28.153s6.412 28.153 15.332 28.153c8.78 0 15.191-7.666 15.191-28.153z" fill="url(#paint26_linear_1005_1301)"/><path d="M404.927 157.137h-14.495v18.676h-26.899v-18.676h-51.568v-17.979l43.764-60.906h28.57l-39.721 57.004h19.791V118.67h26.063v16.585h14.495v21.882z" fill="url(#paint27_linear_1005_1301)"/><path d="M228.789 54.175c0-5.761 4.527-9.986 10.672-9.986 6.146 0 10.672 4.225 10.672 9.986 0 5.762-4.526 9.987-10.672 9.987-6.145 0-10.672-4.225-10.672-9.987zm15.858 0c0-3.319-2.277-5.487-5.186-5.487-2.908 0-5.185 2.167-5.185 5.487 0 3.32 2.277 5.487 5.185 5.487 2.908 0 5.186-2.167 5.186-5.487zm7.162 2.14c0-4.472 3.539-7.654 8.395-7.654 4.911 0 8.396 3.182 8.396 7.654 0 4.5-3.484 7.709-8.396 7.709-4.856 0-8.395-3.21-8.395-7.71zm11.523 0c0-2.25-1.345-3.512-3.128-3.512-1.756 0-3.128 1.262-3.128 3.512 0 2.277 1.372 3.566 3.128 3.566 1.784 0 3.128-1.288 3.128-3.566zm24.338.028c0 4.719-3.266 7.682-7.298 7.682-1.728 0-3.128-.521-4.142-1.564V69.1h-5.214V48.908h4.967v1.482c.987-1.18 2.441-1.73 4.39-1.73 4.032 0 7.297 2.964 7.297 7.683zm-5.267 0c0-2.25-1.372-3.54-3.128-3.54s-3.128 1.29-3.128 3.54 1.372 3.539 3.128 3.539 3.128-1.29 3.128-3.54zm6.503 6.145l1.564-3.566c1.372.85 3.375 1.372 5.185 1.372 1.756 0 2.332-.384 2.332-1.015 0-2.002-8.779.275-8.779-5.68 0-2.797 2.579-4.937 7.242-4.937 2.086 0 4.39.439 5.872 1.262l-1.564 3.539a8.714 8.714 0 00-4.279-1.097c-1.756 0-2.388.494-2.388 1.042 0 2.058 8.752-.165 8.752 5.734 0 2.744-2.523 4.884-7.353 4.884-2.524-.001-5.13-.633-6.584-1.538zm15.528-1.344c0-1.619 1.29-2.826 3.128-2.826s3.101 1.207 3.101 2.826c0 1.591-1.263 2.881-3.101 2.881s-3.128-1.29-3.128-2.881zm.028-16.571h6.2l-1.043 12.208h-4.143l-1.014-12.208z" fill="#263238"/><path d="M136.491 383.348h-12.335v59.275h12.335v-59.275z" fill="url(#paint28_linear_1005_1301)"/><path d="M86.191 375.723c.202 0 37.964 11.851 37.964 11.851h12.336l43.292-11.851H86.191z" fill="url(#paint29_linear_1005_1301)"/><path d="M51.703 176.934c-5.474 1.221-10.36 6.271-9.542 16.358 0 0-4.362.818-4.09 8.724.273 7.906-.545 56.981 9.27 83.699 8.066 21.958 22.025 68.902 26.743 84.931a7.66 7.66 0 007.352 5.496H188.15c7.939 0 14.278-6.613 13.943-14.545-.318-7.528-6.555-13.444-14.089-13.366l-77.827.812s-4.765-25.705-9.673-25.978c0 0 2.181-16.085-5.998-20.72 0 0 1.636-19.853-7.09-21.65 0 0 1.364-16.62-5.997-19.569 0 0 4.09-14.945-3.544-22.578 0 0 2.18-17.449 0-30.535-2.181-13.085-2.984-36.251-26.173-31.079z" fill="url(#paint30_linear_1005_1301)"/><path d="M193.619 363.22s-.182.015-.538.023l-1.583.022-6.126.042-22.852.075-78.189.091h-.18l-.06-.171-10.97-31.901c-6.386-18.692-12.437-36.509-17.77-52.773a774.74 774.74 0 01-3.807-11.914c-.567-1.949-1.208-3.845-1.54-5.806-.229-.967-.345-1.938-.463-2.901-.11-.963-.276-1.915-.338-2.865-.692-7.592-.849-14.687-.972-21.158-.17-12.945.02-23.419.18-30.655l.235-8.331.086-2.166c.023-.488.05-.737.05-.737s.01.251.003.739l-.034 2.167-.137 8.332c-.099 7.235-.232 17.708-.014 30.645.146 6.465.326 13.556 1.033 21.121.065.949.231 1.891.343 2.849.12.957.238 1.923.464 2.872.33 1.922.974 3.82 1.542 5.76a792.63 792.63 0 003.825 11.899c5.356 16.251 11.421 34.063 17.806 52.754l10.955 31.905-.239-.17 78.189.091 22.852.075 6.126.042 1.583.022c.358.007.54.022.54.022z" fill="#263238"/><path d="M98.565 349.157c.021.029-.337.34-1 .877a76.775 76.775 0 00-2.758 2.327c-2.293 2.002-5.308 4.948-8.282 8.516a81.535 81.535 0 00-6.899 9.677 89.283 89.283 0 00-1.821 3.116c-.417.744-.664 1.148-.696 1.133-.032-.016.153-.451.516-1.226.357-.778.929-1.878 1.683-3.209 1.501-2.667 3.826-6.223 6.816-9.823 2.996-3.593 6.076-6.521 8.444-8.463 1.181-.974 2.167-1.726 2.874-2.208.704-.49 1.102-.746 1.123-.717z" fill="#263238"/><path d="M110.177 349.044s-.259.024-.764.04l-2.241.053-8.603.141-.103.002-.019-.112-.179-1.059c-.12-.34-.215-.708-.39-1.038a2.957 2.957 0 00-1.703-1.495c-1.559-.505-3.432.007-5.106.812l-.356.171.13-.368c1.108-3.147 1.442-7.003.498-10.951-.926-3.922-3.137-7.973-6.78-10.871l-.127-.1.057-.15c1.044-2.76 1.27-5.991.544-9.144-.717-3.143-2.39-6.24-4.997-8.503l-.123-.107.052-.155c1.29-3.872 1.271-8.342-.096-12.523-1.352-4.171-4.068-8.113-7.937-10.662l-.122-.08.005-.149a66.53 66.53 0 00-.258-8.264c-.274-2.839-.723-5.645-1.548-8.3-.824-2.617-2.06-5.237-4.252-6.759l-.155-.107.052-.184c1.162-4.101 1.644-8.339 1.353-12.381a22.276 22.276 0 00-1.267-5.823c-.682-1.844-1.762-3.458-2.994-4.883l-.12-.139.096-.157c2.211-3.629 3.482-7.72 3.474-11.611.057-3.908-1.353-7.525-3.435-10.289l-.04-.054v-.072c-.002-5.443-.982-10.446-2.915-14.337-.975-1.936-2.218-3.582-3.678-4.734a11.026 11.026 0 00-4.534-2.186c-1.493-.367-2.877-.33-4.056-.285l-1.632.184-1.337.266c-.8.151-1.387.369-1.795.462-.404.109-.616.151-.616.151s.803-.315 2.385-.726l1.34-.295 1.642-.213c1.19-.064 2.591-.118 4.117.238a11.225 11.225 0 014.656 2.191c1.505 1.168 2.786 2.841 3.791 4.802 1.99 3.95 3.002 8.973 3.028 14.493l-.04-.126c2.14 2.811 3.605 6.527 3.56 10.53.012 3.998-1.254 8.133-3.52 11.875l-.025-.295c1.281 1.469 2.398 3.14 3.104 5.034a22.73 22.73 0 011.308 5.957c.301 4.125-.177 8.387-1.36 12.577l-.102-.291c2.365 1.65 3.615 4.367 4.462 7.031.842 2.708 1.294 5.542 1.571 8.406.266 2.848.345 5.675.258 8.337l-.117-.229c3.98 2.626 6.756 6.669 8.135 10.939 1.394 4.28 1.41 8.86.076 12.835l-.072-.262c2.69 2.346 4.402 5.538 5.131 8.769.737 3.241.496 6.562-.589 9.403l-.069-.249c3.726 2.984 5.96 7.128 6.885 11.127.942 4.025.58 7.951-.57 11.148l-.227-.197a10.509 10.509 0 012.69-.907c.9-.164 1.83-.18 2.66.113.827.289 1.5.91 1.842 1.641.184.355.282.74.403 1.099l.175 1.097-.12-.11 8.603-.026 2.242.009c.505.006.764.025.764.025z" fill="#263238"/><path d="M95.897 301.979l-35.686 4.603c.947 1.956 3.062 3.133 5.2 3.525 2.138.392 4.334.12 6.495-.117a193.675 193.675 0 0127.823-1.033 40 40 0 00-3.832-6.978z" fill="#000" opacity=".3"/><path d="M78.26 236.593c.003.144-3.319.333-7.419.422-4.1.089-7.427.045-7.43-.099-.004-.144 3.317-.333 7.418-.422 4.101-.089 7.428-.045 7.431.099z" fill="#263238"/><path d="M77.934 466.032s5.707-17.427 13.577-21.642c12.646-6.773 41.787-10.015 41.787-10.015l3.195 8.248s-38.867 1.528-44.982 9.371c-5.647 7.243-9.758 14.038-9.758 14.038h-3.82z" fill="url(#paint31_linear_1005_1301)"/><path d="M82.906 475.258a8.254 8.254 0 008.254-8.254 8.254 8.254 0 00-8.254-8.254 8.254 8.254 0 00-8.254 8.254 8.254 8.254 0 008.254 8.254z" fill="#263238"/><path d="M183.282 465.694s-5.707-17.427-13.577-21.642c-12.646-6.773-41.787-10.015-41.787-10.015l-3.195 8.248s38.867 1.528 44.982 9.371c5.647 7.243 9.759 14.038 9.759 14.038h3.818z" fill="url(#paint32_linear_1005_1301)"/><path d="M180.375 475.258a8.253 8.253 0 008.254-8.254 8.254 8.254 0 10-8.254 8.254z" fill="#263238"/><path d="M126.07 438.801l1.809 22.421 5.097 1.007v-23.428" fill="url(#paint33_linear_1005_1301)"/><path d="M130.324 475.258a8.253 8.253 0 008.254-8.254 8.254 8.254 0 10-8.254 8.254zm-61.355-212.02c-.026-.142 2.698-.822 6.084-1.52 3.386-.698 6.157-1.15 6.189-1.01.032.14-2.691.82-6.084 1.52-3.392.699-6.163 1.151-6.19 1.01zm17.709 17.455c.016.067-.762.33-2.047.658a56.887 56.887 0 01-5.076 1.028c-2 .314-3.824.499-5.147.581-1.324.082-2.145.072-2.15.002-.01-.151 3.242-.467 7.216-1.097 3.975-.62 7.168-1.319 7.204-1.172zm14.743 43.219c.006.07-.904.214-2.383.358a86.872 86.872 0 01-5.796.348 87.06 87.06 0 01-5.807-.021c-1.485-.061-2.402-.153-2.4-.224.002-.074.921-.112 2.403-.145l5.79-.131 5.787-.195c1.48-.049 2.4-.063 2.406.01zm4.153 15.661c.035.158-3.323.874-7.192 2.523-3.88 1.626-6.734 3.536-6.822 3.4-.037-.054.63-.602 1.801-1.356a32.731 32.731 0 014.82-2.524 32.602 32.602 0 015.167-1.697c1.355-.314 2.213-.41 2.226-.346zm66.719 36.753c0 .144-19.673.22-43.934.169-24.27-.051-43.937-.208-43.937-.352s19.669-.219 43.938-.169c24.261.051 43.933.208 43.933.352zm-36.406 11.658c0 .144-2.632.26-5.879.26-3.247 0-5.879-.116-5.879-.26 0-.144 2.632-.26 5.879-.26 3.247 0 5.879.117 5.879.26zm.55 47.793c.085.092-2.42 1.562-5.901 1.635-3.481.109-6.06-1.228-5.98-1.325.049-.161 2.622.914 5.967.804 3.345-.065 5.857-1.272 5.914-1.114z" fill="#263238"/><path d="M257.925 250.528s-4.703-7.204-7.425-9.666c-2.097-1.896-12.291-5.645-16.867-7.268a14.01 14.01 0 00-4.573-.809c-5.971-.052-21.859-.036-29.936 1.444-10.069 1.845 56.737 54.384 56.737 54.384l55.647.124 3.644-13.748-37.116-7.657-20.498-16.264" fill="url(#paint34_linear_1005_1301)"/><path d="M214.504 236.131s3.675.179 8.803.992c5.128.813 10.766 1.073 13.585 3.574 1.884 1.671 13.443 1.957 13.443 1.957l-15.974-.591-19.857-5.932z" fill="#000" opacity=".3"/><path d="M209.215 234.815c.006-.033.374-.001 1.031.113.655.119 1.598.317 2.751.604 2.309.564 5.468 1.449 8.937 2.492l3.831 1.183-.056-.011c3.446.297 6.25.598 7.736 1.091l.046.015.018.042c.35.787.519 1.217.483 1.235-.036.018-.274-.378-.685-1.135l.064.056c-1.439-.348-4.27-.559-7.697-.809l-.028-.002-.028-.009-3.834-1.158-8.882-2.635a2502.15 2502.15 0 00-2.701-.762c-.638-.173-.992-.273-.986-.31z" fill="#263238"/><path d="M354.605 288.219c.079-.416-1.104-5.207-1.224-5.685-.12-.478-3.783-6.048-3.783-6.048l-1.991-.607s-9.298-2.206-11.176-2.08l-1.316.138s-2.432.184-3.395.354c-.963.171-6.907 2.262-6.907 2.262s-2.465.538-4.448.324c-1.983-.213-6.088-1.316-6.088-1.316l-2.379 13.095 4.502-.138s2.705.955 4.327 1.066c1.622.111 6.211.612 6.211.612s7.086 2.985 8.87-1.181c1.726-4.03-5.063-4.609-5.063-4.609l2.12-1.494 5.438-.568 1.404.449 1.555 2.405s-.427 5.297 3.036 4.935l.901-.094.482-5.443-1.625-5.503 3.579 5.439s.309 4.691 1.861 5.31a.917.917 0 00.381.066c1.884-.064 2.249-.593 2.249-.593l.391-.951c.003.003 1.818 1.284 2.088-.145z" fill="#FFBF9D"/><path d="M334.274 274.006c.008-.066.659-.067 1.701.077 1.038.15 2.477.439 3.973 1.068 1.497.618 2.728 1.527 3.371 2.396.66.861.789 1.538.741 1.549-.086.037-.334-.568-1.022-1.31-.673-.755-1.85-1.556-3.293-2.154-2.902-1.184-5.503-1.446-5.471-1.626zm3.492 5.712c.146.005.244.569.317 1.254.071.686.092 1.258-.05 1.293-.137.035-.393-.513-.468-1.238-.077-.725.059-1.314.201-1.309z" fill="#FF9A6C"/><path d="M334.268 279.902c.117-.104 1.108.975 2.684 1.757 1.565.804 3.021.962 3.007 1.117.013.132-1.56.207-3.242-.652-1.689-.843-2.563-2.154-2.449-2.222zm-11.34.491c.021-.06.586.053 1.398.493.808.434 1.847 1.239 2.652 2.412.224.326.415.662.579.988l-.264-.137c2.266-.308 3.921.225 3.883.326-.02.138-1.66-.172-3.807.177l-.176.028-.089-.165a9.54 9.54 0 00-.555-.921c-1.523-2.243-3.703-3.066-3.621-3.201zm24.868-4.524c.047-.041.611.496 1.354 1.508.743 1.009 1.631 2.519 2.302 4.321.666 1.804.978 3.528 1.073 4.777.097 1.252.019 2.027-.043 2.026-.168.014-.189-3.098-1.518-6.623-1.291-3.536-3.304-5.91-3.168-6.009z" fill="#FF9A6C"/><path d="M259.224 432.781l-1.029 27.057s27.156 10.132 27.453 15.151l-52.533-.11-.127-42.223 26.236.125z" fill="url(#paint35_linear_1005_1301)"/><path d="M241.955 457.527c-1.017.276-1.722 1.417-1.488 2.445.234 1.028 1.389 1.755 2.411 1.497 1.022-.258 1.91-1.602 1.563-2.598-.347-.995-1.75-1.774-2.68-1.279" fill="url(#paint36_linear_1005_1301)"/><path d="M233.117 474.878l.154-4.257 50.31 1.698s2.337 1.022 2.069 2.669l-52.533-.11z" fill="#263238"/><path d="M259.048 459.572c-.009.257-1.292.37-2.556 1.192-1.285.789-1.939 1.899-2.174 1.797-.236-.05.149-1.583 1.697-2.551 1.539-.983 3.089-.674 3.033-.438zm5.504 2.29c.058.249-1.054.683-1.927 1.766-.905 1.057-1.128 2.23-1.383 2.218-.241.04-.415-1.463.696-2.788 1.1-1.336 2.609-1.441 2.614-1.196zm3.117 6.601c-.233.054-.587-1.228.074-2.632.652-1.409 1.862-1.96 1.971-1.746.145.211-.636.963-1.161 2.124-.554 1.148-.629 2.23-.884 2.254zm-9.07-15.084c-.108.234-1.284-.123-2.734-.027-1.452.066-2.581.55-2.715.33-.148-.186.956-1.133 2.665-1.221 1.709-.102 2.911.717 2.784.918z" fill="#fff"/><path d="M217.115 429.972L200.07 451.01s15.659 24.391 12.888 28.585L170.98 448.01l25.214-33.869 20.921 15.831z" fill="url(#paint37_linear_1005_1301)"/><path d="M188.458 439.424c-.98-.389-2.228.102-2.657 1.065-.429.963.059 2.237 1.032 2.643.972.406 2.49-.137 2.808-1.142.319-1.004-.337-2.469-1.379-2.63" fill="url(#paint38_linear_1005_1301)"/><path d="M170.98 448.011l2.675-3.314 39.247 31.522s1.257 2.219.055 3.377l-41.977-31.585z" fill="#263238"/><path d="M200.912 451.308c-.161.2-1.256-.479-2.76-.578-1.502-.139-2.69.358-2.818.134-.159-.182 1.069-1.177 2.888-1.024 1.82.136 2.876 1.314 2.69 1.468zm3.033 5.134c-.103.234-1.253-.086-2.601.258-1.358.304-2.239 1.109-2.437.946-.217-.112.545-1.419 2.229-1.814 1.681-.41 2.952.411 2.809.61zm-1.465 7.151c-.219-.097.266-1.335 1.637-2.062 1.366-.737 2.666-.452 2.624-.216-.011.256-1.086.39-2.203 1.003-1.13.588-1.839 1.408-2.058 1.275zm1.785-17.51c-.227.122-.954-.868-2.172-1.661-1.202-.818-2.396-1.108-2.37-1.364-.007-.238 1.444-.334 2.865.621 1.428.942 1.899 2.318 1.677 2.404z" fill="#fff"/><path d="M256.508 243.27c5.126-1.216 10.287-2.41 15.546-2.726 5.258-.316 10.665.283 15.438 2.513.723.338 5.536 3.11 5.394 3.896-.102.562-4.653-1.275-5.168-1.029-4.914 2.35-10.617 2.633-15.994 1.757-5.377-.878-10.153-2.4-15.216-4.411z" fill="#263238"/><path d="M229.321 241.27l47.262 3.114c13.196.644 23.821 8.861 22.812 22.035l-.164 1.212c-1.654 12.197-12.394 21.083-24.684 20.415-11.435-.622-24.061-1.456-30.119-2.354-12.541-1.859-12.791-14.689-12.791-14.689.003-.028-1.113-.142-4.818-.482l-11.983-8.646 14.485-20.605z" fill="#FFBF9D"/><path d="M231.638 271.003s.609-7.981 7.054-15.701c0 0-9.978 2.654-10.547 15.343l3.493.358z" fill="#FF9A6C"/><path d="M265.646 276.644c.262.193-.572 1.681-.322 3.614.222 1.933 1.396 3.226 1.186 3.465-.092.116-.543-.057-1.071-.618-.525-.551-1.091-1.533-1.238-2.737-.146-1.205.168-2.273.548-2.913.38-.653.778-.908.897-.811zm1.406-17.261c.233.229-.803 1.586-.829 3.533-.053 1.945.927 3.391.685 3.598-.107.102-.529-.131-.973-.763-.442-.619-.864-1.671-.84-2.885.026-1.214.489-2.227.955-2.807.469-.591.899-.788 1.002-.676zm-11.346 11.167c.111.006.156 1.234.141 3.212-.016.5.018.98.344 1.108.34.164.9.03 1.506-.131l3.951-.949c5.619-1.3 10.212-2.169 10.263-1.943.05.227-4.463 1.464-10.082 2.764-1.384.309-2.703.604-3.966.884-.586.11-1.264.345-1.969-.007-.35-.183-.569-.581-.611-.908-.054-.329-.021-.607-.003-.853.159-1.969.315-3.184.426-3.177zm21.728-3.469c-.457-.329.315-2.132.673-4.406.404-2.267.263-4.223.803-4.385.256-.068.648.377.938 1.234.291.85.438 2.117.211 3.479-.23 1.361-.782 2.51-1.335 3.219-.555.714-1.071 1.007-1.29.859zm-2.409 18.399c-.391-.455.255-1.975.505-3.866.305-1.883.126-3.533.63-3.846.242-.135.652.17.984.921.331.74.531 1.936.341 3.233-.192 1.297-.726 2.377-1.255 2.981-.533.615-1.012.78-1.205.577z" fill="#263238"/><path d="M267.142 244.148c.122-.202 3.724-8.286-4.902-9.176-8.626-.89-7.74 7.953-7.495 7.994.246.041 12.397 1.182 12.397 1.182z" fill="#FFBF9D"/><path d="M258.285 240.668c.031-.035-.09-.161-.18-.427a1.51 1.51 0 01.093-1.126c.428-.876 1.954-1.494 3.514-1.376a4.989 4.989 0 012.108.643c.604.329 1.003.782 1.037 1.249a.769.769 0 01-.504.844c-.253.091-.419.018-.439.062-.024.022.125.2.489.167a.964.964 0 00.576-.284c.19-.189.307-.485.305-.808.023-.67-.527-1.332-1.175-1.708a5.12 5.12 0 00-2.35-.769c-1.744-.124-3.462.598-3.951 1.807-.221.59-.09 1.116.086 1.398.184.292.372.357.391.328z" fill="#FF9A6C"/><path d="M289.374 283.809c.639 1.47 5.56-2.296 7.441-5.583 2.844-4.967 5.041-12.755 4.136-17.668-1.09-5.915-3.505-10.971-8.475-14.358-4.97-3.387-10.977-5.05-16.978-5.447-1.831-.121-3.753-.111-5.389.719-2.023 1.025-3.443 3.226-6.066 2.876-.959-.128-1.956.055-2.72.648-1.83 1.421-.433 3.502 1.066 4.54 3.203 2.217 7.22 2.809 11.078 3.341 2.742.378 5.544.755 8.262.229 1.479-.286 2.903-.837 4.395-1.041 1.493-.205 3.145-.004 4.252 1.018.18.166.402.433.643.768a9.045 9.045 0 01.858 9.093c-2.179 4.699-5.53 12.759-4.085 15.083 2.079 3.343 3.557 4.235 3.557 4.235l-1.975 1.547z" fill="#263238"/><path d="M267.294 239.935c-.15.02-.171-1.478-1.289-2.754-1.11-1.283-2.591-1.509-2.551-1.656.006-.064.383-.107.967.053a4.147 4.147 0 012.953 3.39c.078.602-.015.97-.08.967z" fill="#fff"/><path d="M251.485 266.071c-.381-.901-1.493-1.433-2.423-1.127l.251-.118c-.871-.155-1.791.436-2.079 1.272-.288.836.034 1.825.715 2.39.753.625 1.92.711 2.734.169.814-.543 1.183-1.685.802-2.586z" fill="#FF9A6C"/><path d="M250.973 268.3c-.036-.053.445-.369.445-1.225-.001-.398-.009-.96-.272-1.341-.265-.38-.873-.591-1.481-.668-.614-.074-1.201.052-1.628.346-.432.289-.686.711-.746 1.093-.124.806.334 1.229.266 1.272-.019.023-.161-.032-.326-.242a1.59 1.59 0 01-.306-1.07c.021-.491.313-1.063.833-1.443.515-.393 1.253-.563 1.965-.473.692.095 1.412.316 1.82.918.357.623.276 1.187.24 1.642-.061.462-.245.829-.445 1.012-.196.188-.354.205-.365.179z" fill="#263238"/><path d="M299.941 258.251a23.259 23.259 0 00-7.679-11.241 23.256 23.256 0 00-12.678-4.96l-3.482-.159c-.609-.036-1.245-.069-1.807.169-.562.238-1.023.835-.895 1.432.145.675.905.999 1.571 1.179 3.954 1.07 8.201.869 12.065 2.231a15.787 15.787 0 018.61 7.421 15.789 15.789 0 011.297 11.293c-.153.579-.341 1.169-.266 1.763.075.594.505 1.195 1.102 1.235.555.037 1.023-.401 1.356-.846 1.982-2.646 1.783-6.357.806-9.517z" fill="#fff" opacity=".1"/><path d="M264.941 266.707c-.009.061-.448.07-1.08-.219-.623-.279-1.425-.919-1.861-1.915-.433-.998-.355-2.021-.135-2.667.219-.66.524-.975.575-.94.07.04-.108.409-.217 1.03-.113.613-.119 1.507.255 2.37.377.861 1.036 1.465 1.562 1.8.527.342.92.462.901.541zm-2.485 16.434c-.118.068-.697-1.135-.414-2.686.268-1.554 1.224-2.484 1.312-2.38.123.093-.564 1.07-.799 2.471-.261 1.395.048 2.55-.099 2.595z" fill="#FF9A6C"/><path d="M170.977 316.311c.598-.222 43.043 1.849 56.761 3.057 13.718 1.208 37.609 7.7 38.795 23.9.951 12.993.761 103.6.761 103.6h-37.033l-.884-95.752-57.471-14.494-.929-20.311z" fill="#263238"/><path d="M201.387 322.414s20.597 3.718 37.049 8.387c16.453 4.669 23.71 14.655 26.112 20.607 2.403 5.952 3.536 14.843-1.51 23.183-3.194 5.279-19.184 23.857-19.184 23.857s-3.294-53.319-3.455-54.124c-.16-.805-39.012-21.91-39.012-21.91z" fill="#000" opacity=".3"/><path d="M262.741 357.475c-1.746-10.283-13.381-17.453-27.657-22.824-14.052-5.286-50.844-18.356-50.844-18.356l-8.816-2.171h-3.931l-1.3-3.906s-24.992-7.223-61.111 6.094l-1.229 1.027s-1.095 26.339 3.998 31.969c0 0 57.515-.805 60.534-.559 3.02.246 45.202 19.391 45.202 19.391l-36.105 55.391 29.857 20.86s18.028-25.665 29.015-41.044c15.699-21.976 24.447-33.739 22.387-45.872z" fill="#263238"/><path d="M262.742 357.475s.092.617.241 1.824c.114 1.208.146 3.03-.202 5.372-.35 2.345-1.224 5.162-2.629 8.306-1.408 3.147-3.367 6.608-5.758 10.366-4.776 7.526-11.26 16.245-18.443 26.521l-24.441 34.644-.119.169-.169-.118-29.87-20.841-.183-.128.122-.187 36.084-55.405.108.371a2375.923 2375.923 0 00-24.627-10.986c-4.194-1.834-8.428-3.674-12.718-5.463-2.148-.877-4.303-1.793-6.499-2.551-.276-.11-.543-.173-.81-.241-.264-.077-.531-.15-.828-.133a45.796 45.796 0 00-1.747-.028l-3.527-.003c-18.846.103-37.226.368-54.872.595l-.12.002-.072-.085c-.955-1.127-1.491-2.471-1.926-3.802-.426-1.341-.725-2.705-.973-4.07-.487-2.732-.756-5.471-.941-8.19-.354-5.442-.387-10.809-.214-16.087l.003-.108.084-.07 1.229-1.026.033-.028.039-.014c10.617-3.842 21.281-6.399 31.642-7.444 5.176-.569 10.278-.688 15.236-.501 4.959.21 9.785.724 14.376 1.878l.105.027.036.11 1.297 3.907-.197-.142 3.931.003h.025l.024.006 8.814 2.179.01.003.009.003 35.764 12.954 14.701 5.332c4.509 1.683 8.537 3.489 12.023 5.373 6.999 3.724 11.665 8.093 13.729 11.759.299.432.495.886.702 1.298.191.419.421.788.541 1.168.251.754.528 1.368.634 1.895.237 1.047.343 1.586.343 1.586s-.144-.532-.397-1.571c-.114-.523-.399-1.131-.658-1.878-.124-.377-.357-.741-.551-1.156-.21-.408-.409-.857-.71-1.284-2.084-3.624-6.744-7.941-13.736-11.624-3.484-1.864-7.507-3.649-12.013-5.315l-14.715-5.288-35.787-12.878.019.006-8.817-2.164.049.006-3.931.003h-.15l-.048-.143-1.302-3.905.142.136c-4.521-1.129-9.348-1.641-14.277-1.841-4.936-.18-10.016-.055-15.171.517-10.319 1.051-20.942 3.609-31.52 7.445l.072-.042-1.228 1.027.088-.178c-.168 5.254-.132 10.617.224 16.033.186 2.707.455 5.432.939 8.135.246 1.35.543 2.696.959 4.005.421 1.298.955 2.597 1.82 3.615l-.192-.084c17.648-.235 36.025-.503 54.878-.607l3.533.003c.586 0 1.176.007 1.774.029.296-.017.597.058.898.142.302.075.605.15.873.258 2.233.771 4.377 1.684 6.534 2.564 4.296 1.791 8.53 3.633 12.726 5.469a2323.455 2323.455 0 0124.629 10.997l.27.122-.162.249-36.125 55.378-.061-.314 29.844 20.879-.288.051 24.508-34.599c7.209-10.26 13.719-18.96 18.517-26.455 2.401-3.743 4.371-7.186 5.791-10.314 1.417-3.125 2.305-5.923 2.672-8.252.365-2.328.354-4.141.26-5.348-.13-1.206-.18-1.829-.18-1.829z" fill="url(#paint39_linear_1005_1301)"/><path d="M235.508 361.394c.005.084-1.1.185-2.855.503a36.357 36.357 0 00-6.683 1.889 36.34 36.34 0 00-6.183 3.166c-1.502.962-2.38 1.641-2.434 1.575-.038-.045.761-.828 2.228-1.88 1.463-1.053 3.628-2.332 6.198-3.346 2.572-1.007 5.028-1.544 6.817-1.768 1.791-.227 2.91-.198 2.912-.139z" fill="url(#paint40_linear_1005_1301)"/><path d="M229.024 270.365v3.173l-7.726.719-.446-1.621 2.078-4.826 6.094 2.555z" fill="url(#paint41_linear_1005_1301)"/><path d="M222.983 272.865l-9.979 19.988 2.207 35.854-5.012 7.823-5.269-9.023.915-34.113 15.535-21.99 1.603 1.461z" fill="url(#paint42_linear_1005_1301)"/><path d="M225.989 239.532s-14.076-5.343-27.69-6.236c-13.614-.893-30.44 8.242-38.474 11.813-8.035 3.571-38.787 33.959-45.435 44.125-3.805 5.818-8.893 19.028-8.893 19.028-.859 4.595 2.359 9.076 2.359 9.076l61.885.463h11.606l4.91-10.49s9.374-.67 12.052-5.803c2.678-5.133 12.498-12.722 12.498-12.722l11.159-18.524 7.365 1.562 4.079-31.432-7.421-.86z" fill="url(#paint43_linear_1005_1301)"/><path d="M180.121 253.604c.034.012-.066.397-.276 1.08l-.869 2.895a92.444 92.444 0 00-2.262 9.692 92.58 92.58 0 00-1.168 9.885l-.167 3.018c-.035.714-.072 1.109-.108 1.109-.036 0-.068-.395-.095-1.111a45.827 45.827 0 01.002-3.033c.068-2.561.35-6.101 1.023-9.958.678-3.855 1.616-7.28 2.424-9.711a45.036 45.036 0 011.03-2.853c.268-.665.433-1.025.466-1.013z" fill="#263238"/><path d="M207.254 376.907s4.234 4.947 5.545 6.729c1.179 1.603 2.354 7.461 2.799 13.183.114 1.462-1.317 2.67-2.688 2.15-.502-.191-.919-.59-1.085-1.342-.913-4.136-1.156-5.9-1.156-5.9-.122-2.007-.331-1.717-.392-.363-.06 1.354 1.003 8.819 1.003 8.819s2.862 10.186 2.089 11.327c-.774 1.141-2.367.875-2.909.135-.39-.533-3.613-9.046-3.613-9.046l-.829-4.63s1.663 14.664.733 15.812c-.93 1.149-1.933.704-2.574.119-.641-.585-1.31-7.064-1.31-7.064l-1.507-8.652.273 16.491s-.173 1.562-1.399 1.618c-1.226.057-2.046-1.748-2.046-1.748l-1.77-16.993s.57 9.448-.064 9.941c-.848.661-1.624.443-1.903-.281-.569-1.474-1.397-9.969-1.397-9.969l-.78-16.176-.571-5.355 14.153-5.066 1.398 6.261z" fill="#FFBF9D"/><path d="M176.572 275.862a226.698 226.698 0 00-9.263 41.83s.133 7.198 1.764 15.282c1.63 8.084 14.893 43.17 14.893 43.17l9.094.787-7.661-62.321 7.661-29.13-16.488-9.618z" fill="#000" opacity=".3"/><path d="M217.324 249.294c6.229 1.911 7.396 14.542 6.056 18.149-4.287 11.543-17.988 22.399-17.801 21.767l-8.907 35.437 12.629 47.967-20.423 7.31s-18.624-49.288-18.954-57.038c-.33-7.75 5.181-27.832 6.005-39.869.529-7.728 4.457-23.407 13.963-32.639" fill="url(#paint44_linear_1005_1301)"/><path d="M189.892 250.378s-.15.183-.461.521c-.305.344-.79.828-1.376 1.506a43.492 43.492 0 00-4.48 6.438c-1.684 2.966-3.456 6.782-4.904 11.427a62.8 62.8 0 00-1.888 7.557c-.241 1.359-.464 2.762-.595 4.213-.146 1.444-.22 2.961-.426 4.486-.721 6.126-2.062 12.755-3.408 19.889-.666 3.568-1.366 7.263-1.861 11.097-.21 1.914-.452 3.88-.274 5.834l.209 1.46.343 1.465c.213.983.486 1.962.766 2.947 1.096 3.942 2.393 7.944 3.752 12.022 1.35 4.082 2.805 8.231 4.289 12.46 2.99 8.449 6.184 17.187 9.544 26.132l-.33-.153 9.491-3.398 10.932-3.912-.164.31-12.606-47.972-.016-.059.015-.059 8.949-35.427.374.101c.046-.121-.099-.247-.186-.221h-.006l.059-.03.139-.083.283-.194.556-.417c.366-.284.724-.578 1.076-.873a60.206 60.206 0 002.043-1.803 73.46 73.46 0 003.724-3.69c2.327-2.479 4.355-4.977 6.032-7.463 1.667-2.484 3.023-4.961 3.852-7.377.628-2.461.43-4.876.182-6.953-.555-4.187-1.942-7.307-3.442-8.948-1.519-1.655-2.809-1.84-2.754-1.919 0 0 .275.098.808.318.281.084.567.303.919.545.375.215.71.583 1.109.98 1.549 1.641 2.98 4.78 3.572 8.994.157 1.053.238 2.176.26 3.358-.003 1.181-.051 2.432-.404 3.703-.83 2.468-2.179 4.957-3.847 7.47-1.677 2.51-3.704 5.03-6.033 7.53a73.564 73.564 0 01-3.729 3.721 58.959 58.959 0 01-2.05 1.821 36.86 36.86 0 01-1.084.886l-.567.428-.298.206-.164.099-.099.049a.464.464 0 01-.091.025c-.124.029-.288-.114-.233-.272l.374.102-8.865 35.448-.001-.118 12.651 47.961.061.23-.224.08-10.932 3.914-9.491 3.397-.241.086-.09-.239c-3.36-8.95-6.549-17.692-9.532-26.148-1.481-4.232-2.931-8.385-4.277-12.473-1.355-4.085-2.647-8.092-3.741-12.052-.279-.988-.552-1.971-.765-2.967l-.343-1.48-.214-1.513c-.178-2.021.073-3.998.287-5.926.506-3.855 1.215-7.551 1.891-11.12 1.366-7.133 2.725-13.751 3.467-19.852.212-1.526.289-3.011.443-4.477.138-1.463.369-2.874.617-4.239a62.502 62.502 0 011.935-7.583c1.48-4.657 3.286-8.477 5.003-11.44a41.767 41.767 0 014.573-6.407c1.226-1.314 1.912-1.959 1.912-1.959z" fill="#263238"/><path d="M222.983 257.492c-.068-.002-.108-1.018-.045-2.658.062-1.64.247-3.903.617-6.381a60.187 60.187 0 011.282-6.283c.421-1.587.758-2.545.823-2.527.074.02-.137 1.011-.464 2.611-.328 1.6-.755 3.814-1.125 6.276a121.765 121.765 0 00-.765 6.329c-.158 1.626-.247 2.635-.323 2.633z" fill="#263238"/><path d="M225.263 240.38c-.216-.087-.43.12-.572.305-1.217 1.585-2.454 3.208-3.089 5.102-1.115 3.327.074 7.039 1.079 10.401s1.224 6.451 1.005 10.042l-.254 1.174c1.21-2.008 1.226-4.519.857-6.834-.369-2.315-1.085-4.58-1.214-6.921-.238-4.287 1.492-8.406 2.361-12.611.049-.242.056-.565-.173-.658z" fill="#000" opacity=".3"/><path d="M155.492 334.341h-6.375v45.583h6.375v-45.583z" fill="url(#paint45_linear_1005_1301)"/><path d="M58.048 304.557a5.96 5.96 0 007.16 3.417c8.02-2.317 24.96-5.613 45.676-.47 21.069 5.231 28.759 16.572 31.625 23.712 1.405 3.501 4.854 5.749 8.626 5.749h.828c3.801 0 6.638-3.509 5.823-7.221-2.173-9.901-15.345-27.102-38.885-33.464-28.335-7.657-48.013-2.556-57.15.294-3.348 1.044-5.058 4.749-3.703 7.983z" fill="url(#paint46_linear_1005_1301)"/><path d="M58.05 304.557s-.087-.19-.234-.575c-.108-.393-.291-.99-.28-1.8a5.933 5.933 0 01.737-2.861 5.962 5.962 0 012.989-2.673c5.754-1.92 14.365-4.107 25.245-4.516 5.428-.211 11.396.051 17.726.923 1.577.253 3.185.484 4.811.767l4.927 1.001 5.026 1.24c1.668.536 3.393.977 5.077 1.61 1.679.644 3.4 1.247 5.056 2.06.831.397 1.696.737 2.512 1.188l2.475 1.332c3.253 1.891 6.481 4.015 9.454 6.572 2.976 2.545 5.779 5.41 8.231 8.634l.918 1.213.847 1.272c.278.428.572.846.837 1.284l.762 1.338a28.516 28.516 0 012.482 5.69c.136.507.288 1.005.41 1.518a6.218 6.218 0 01-.874 4.618c-1.16 1.792-3.277 2.909-5.376 2.831-2.031.095-4.145-.405-5.857-1.511-1.734-1.077-3.054-2.758-3.767-4.615a30.042 30.042 0 00-2.665-5.089c-.488-.816-1.081-1.557-1.625-2.324-.606-.719-1.159-1.479-1.813-2.145-2.511-2.756-5.388-5.059-8.416-6.939-3.031-1.879-6.193-3.368-9.355-4.572-3.185-1.139-6.336-2.098-9.447-2.764a89.923 89.923 0 00-17.526-2.253c-10.835-.342-19.56 1.285-25.386 2.86-.722.201-1.438.397-2.121.412a6.197 6.197 0 01-1.89-.217 5.995 5.995 0 01-2.554-1.484 5.927 5.927 0 01-1.088-1.459c-.18-.367-.248-.566-.248-.566.047-.035.265.839 1.408 1.953a5.967 5.967 0 002.523 1.411 6.073 6.073 0 001.84.188c.666-.024 1.342-.216 2.075-.429 5.827-1.639 14.57-3.328 25.45-3.032a89.63 89.63 0 0117.611 2.2c3.127.66 6.302 1.616 9.513 2.756 3.188 1.206 6.382 2.7 9.448 4.593 3.063 1.894 5.98 4.22 8.53 7.011.664.674 1.226 1.444 1.842 2.173.554.777 1.155 1.529 1.653 2.357a30.559 30.559 0 012.713 5.168c.689 1.784 1.926 3.349 3.571 4.374 1.637 1.046 3.587 1.518 5.581 1.427 1.954.07 3.868-.953 4.94-2.596.533-.82.845-1.781.903-2.761a5.763 5.763 0 00-.104-1.469c-.117-.489-.267-.981-.398-1.473a28.06 28.06 0 00-2.438-5.587l-.751-1.32c-.262-.432-.553-.846-.827-1.269l-.836-1.257-.908-1.201c-2.425-3.191-5.201-6.032-8.148-8.558-2.945-2.537-6.145-4.647-9.37-6.528l-2.454-1.325c-.809-.449-1.667-.787-2.491-1.183-1.642-.811-3.349-1.411-5.015-2.054-1.67-.632-3.382-1.073-5.038-1.609l-5.005-1.247-4.906-1.009c-1.619-.286-3.22-.521-4.79-.778-6.302-.887-12.245-1.169-17.654-.983-10.833.358-19.447 2.488-25.182 4.336a5.81 5.81 0 00-2.93 2.56 5.885 5.885 0 00-.766 2.787c-.007 1.598.47 2.363.41 2.374z" fill="#263238"/><path d="M68.498 302.145a4.823 4.823 0 11-9.646 0 4.823 4.823 0 019.646 0z" fill="#fff"/><path d="M303.247 289.017h-66.913a2.26 2.26 0 01-2.26-2.26v-.133a2.26 2.26 0 012.26-2.26h66.913a2.26 2.26 0 012.26 2.26v.133a2.259 2.259 0 01-2.26 2.26z" fill="url(#paint47_linear_1005_1301)"/><path d="M322.286 226.946l-16.727 60.158a2.443 2.443 0 01-4.707-1.309l16.727-60.158a2.444 2.444 0 014.707 1.309z" fill="url(#paint48_linear_1005_1301)"/><path d="M308.667 231.652c-.1.103-4.777-4.27-10.445-9.766-5.67-5.498-10.184-10.037-10.084-10.141.1-.103 4.776 4.269 10.446 9.767 5.668 5.496 10.183 10.037 10.083 10.14zm-2.279 7.187c-.015.033-.605-.193-1.66-.63l-4.459-1.867a687.006 687.006 0 00-14.768-6.009 684.888 684.888 0 00-14.917-5.636l-4.539-1.663c-1.07-.397-1.657-.633-1.646-.667.012-.034.62.137 1.711.475 1.091.337 2.662.851 4.596 1.508a355.12 355.12 0 0114.985 5.499 353.477 353.477 0 0114.724 6.156c1.865.833 3.366 1.524 4.396 2.02 1.03.492 1.592.781 1.577.814zm-.909 7.144c-.006.144-1.852.183-4.123.089-2.272-.095-4.108-.288-4.102-.432.006-.144 1.852-.183 4.124-.089 2.27.095 4.107.289 4.101.432z" fill="#263238"/><path d="M354.973 269.848h22.778l-1.704 12.528s-1.487 6.169-4.949 6.169h-9.872s-3.99-2.251-4.798-6.751l-1.455-11.946z" fill="url(#paint49_linear_1005_1301)"/><path d="M354.971 269.848c.007.006.03.142.068.397l.158 1.117.562 4.17.844 6.386c.467 2.404 2.162 4.889 4.707 6.474l-.086-.022 7.892-.015c.691-.007 1.408.012 2.099-.016.669-.006 1.306-.329 1.829-.778 1.06-.913 1.754-2.252 2.287-3.62.204-.53.384-1.075.522-1.611l-.004.019 1.719-12.525.179.205-16.344-.091-4.715-.048-1.267-.021a4.398 4.398 0 01-.45-.021c-.008-.007.132-.013.408-.02l1.228-.021 4.671-.048 16.471-.091.207-.001-.028.206-1.689 12.53-.001.011-.002.008a15.435 15.435 0 01-.537 1.66c-.55 1.402-1.252 2.783-2.403 3.777-.567.486-1.293.857-2.061.865-.727.028-1.418.007-2.117.012l-7.892-.015h-.051l-.036-.022c-2.643-1.666-4.35-4.218-4.82-6.729-.326-2.505-.551-4.699-.757-6.5l-.453-4.171-.111-1.089c-.026-.245-.034-.368-.027-.362z" fill="#263238"/><path d="M376.033 276.309c.111-.03.222-.055.334-.081.026-.006.217-.041.043-.012-.185.031.055-.003.101-.007.25-.018.492.003.741.011-.242-.007-.036-.006.087.019.131.026.261.059.389.096.11.032.216.077.326.109.147.044-.044-.021-.063-.03.069.032.139.064.207.098.223.113.427.248.634.387.129.087-.038-.027-.052-.04.041.039.087.074.129.112.099.089.194.182.284.28.068.074.211.266.076.074.077.11.153.22.221.335.059.101.106.209.165.309.077.132-.013-.039-.022-.061.027.073.055.145.079.219.043.129.079.26.109.392.012.053.07.379.047.219-.023-.16.011.169.013.224.006.136.007.273.001.409-.003.078-.01.155-.015.233-.002.027-.032.217-.004.049.027-.159-.037.167-.049.219a4.963 4.963 0 01-.092.338c-.028.089-.157.4-.047.163a4.57 4.57 0 01-.367.66c-.033.048-.066.096-.101.143.016-.021.14-.153.032-.051-.111.105-.207.227-.321.331-.041.038-.286.229-.169.147.12-.083-.146.091-.19.118-.097.06-.197.116-.298.168l-.154.076c.169-.086.084-.032-.042.014-.254.092-.513.14-.773.207-.154.039.063-.005.082-.007-.076.007-.152.016-.228.021a4.66 4.66 0 01-.629-.001c-.033-.002-.28-.029-.101-.005.174.023-.016-.005-.043-.01-.074-.016-.149-.03-.223-.048a5.49 5.49 0 01-.437-.131c-.023-.008-.198-.081-.048-.016.172.075-.146-.077-.146-.077-.639-.328-1.519-.188-1.879.493-.332.628-.19 1.529.493 1.879 2.666 1.367 6.159.535 7.702-2.108.758-1.299.962-2.866.647-4.328-.312-1.45-1.261-2.691-2.501-3.48a5.926 5.926 0 00-4.678-.707c-.693.189-1.187.984-.959 1.689.23.709.947 1.162 1.689.959z" fill="url(#paint50_linear_1005_1301)"/><path d="M376.034 276.309s-.149.092-.469.082c-.307-.006-.822-.17-1.152-.706-.375-.496-.275-1.502.518-1.981.409-.228.851-.276 1.331-.342a6.075 6.075 0 011.523.036 5.973 5.973 0 013.131 1.482c.94.836 1.684 2.084 1.841 3.513.178 1.406-.105 2.98-1.009 4.265-.885 1.292-2.387 2.193-4.023 2.406a6.32 6.32 0 01-2.136-.067 7.07 7.07 0 01-1.01-.299l-.476-.215a1.372 1.372 0 01-.459-.342c-.506-.604-.47-1.487-.007-2.067.503-.588 1.359-.64 1.966-.325l-.268.16c-.01-.017.03-.162.161-.178.108-.001.112.027.106.017l.005.002.009.004.018.009.035.017.071.035.037.019.027.015.028.019c.018-.104.143.286-.08.321-.071.009-.07-.002-.073 0l-.006-.001-.012-.003-.026-.01-.077-.034-.02-.009-.007-.004-.005-.002-.002-.001c-.002-.005.004.013-.057-.044-.093-.404.283-.288.17-.299.049.012.036.011.044.013l.038.015.061.024.142.043c.184.06.385.116.568.143l.02.003c.019.015-.037-.034.103.049.006.016.061.031.051.165-.047.145-.146.137-.157.143-.052.002-.035-.001-.039 0l-.004-.001-.008-.001-.039-.005-.079-.011-.013-.002c.004.001-.037-.008-.052-.016-.009-.006.002.005-.035-.022.001-.009-.102-.051-.046-.221.087-.119.13-.085.144-.097h.025l.028.002.039.004.075.008c.088.006.19.015.283.011.191-.002.379-.001.57-.024l.033.349-.064.012-.043.007-.014.002-.016.002-.019.001c-.018-.003-.053.004-.115-.046-.07-.057-.063-.169-.045-.194.035-.067.029-.044.039-.059.1-.07.065-.034.081-.046l.014-.004.154-.041.297-.078.294-.077a.637.637 0 00.132-.046l.027-.013-.032.025c-.078-.074-.045.339.096.29.051.004.053-.003.057-.003l.004-.001.008-.002.014-.005-.001.001-.013.006-.065.032-.153-.302c.139-.064.263-.135.388-.205.063-.033.12-.072.184-.113l.047-.03.025-.016.015-.009.01-.006a.172.172 0 01.105-.018c.014.005.035-.003.094.05.081.071.028.224.001.227l-.025.022-.055.038-.012.007-.006.003s-.043.029-.104.02a.172.172 0 01-.132-.1c-.054-.093.067-.222.042-.185l.01-.009.025-.021c.123-.092.21-.174.313-.285l.148-.152.038-.038.023-.021c.009-.006.001-.004.035-.026l.005-.003.023-.01c-.003-.018.172-.026.208.107.006.156-.011.085-.006.107l-.004.009-.018.028-.009.011-.065.073-.256-.191c.183-.252.306-.525.457-.772l.279.129-.024.051-.014.028c-.005.008.002.001-.023.036l-.015.018c-.015.003-.006.034-.117.041-.166-.038-.141-.173-.141-.168l.003-.02.005-.018.041-.109c.027-.07.049-.122.065-.19.035-.134.076-.254.101-.389l.022-.101.006-.027.002-.009.001-.005c.004.002-.006-.03.058-.084.035-.03.111-.034.145-.014.036.017.048.034.056.044.035.039.03.107.028.113l-.001.008-.009.054-.005.025-.003.013-.001.008-.001.005-.005.018c.103.116-.422.058-.283-.025l-.001-.018.009-.073c.006-.04.009-.053.011-.089.013-.131.018-.259.016-.385a2.895 2.895 0 00-.011-.373l-.007-.11c.003-.015-.004-.063.066-.115.08-.042.131-.007.143-.001a.132.132 0 01.046.048c.026.054.019.052.019.052l.003.016.003.025.003.025.002.016c-.001.008.003-.013-.001.042a.146.146 0 01-.021.055c-.006.005-.011.029-.073.054-.083.031-.167-.052-.164-.072-.035-.126-.03-.142-.046-.217a5.05 5.05 0 00-.192-.669l.24-.089.022.045.014.029.008.017.007.016.003.01.002.005.004.021s.018.099-.107.137c-.094.001-.091-.028-.104-.03-.015-.014-.013-.014-.02-.022-.036-.056-.046-.079-.067-.119l-.109-.21c-.076-.132-.158-.249-.233-.369l.193-.136.035.051.019.029.003.005.002.003s.034.052.003.115c-.129.153-.217-.018-.194.022l-.013-.015-.073-.091c-.042-.055-.098-.104-.146-.154a4.404 4.404 0 00-.297-.284l.148-.157.053.039.034.025.001.001c.005.006-.011-.014.024.025-.24.325-.098.076-.142.152l-.001-.001-.004-.002-.005-.004-.009-.006-.017-.011-.129-.082-.246-.155a3.36 3.36 0 00-.461-.264l.077-.166.078.03.023.009.02.009.021.015c.019-.011.05.112-.012.139-.035.019-.04.013-.046.015h-.004l-.017-.002-.012-.003-.046-.014-.163-.057a2.65 2.65 0 00-.305-.096c-.096-.025-.193-.055-.278-.072l-.131-.017-.017-.001h-.003c.064-.023-.118.073 0-.141h.021l.033.002.065.004-.004.137-.656-.026c-.048-.002-.09-.005-.133.001l-.063.006-.031.003-.017.001h-.009c.013-.008-.043.026-.037-.067.035-.033.017-.013.023-.019l.004-.001.012-.002.113-.015.014-.002h.006c-.012.012.023-.034.043.049-.03.044-.033.021-.034.028l-.026.004-.048.007c-.239.046-.367.068-.37.055-.003-.011.116-.054.363-.123l.048-.011.024-.006c.004.001.003-.011-.012.029-.005.076.046.035.028.046l-.004.001-.012.003-.109.023-.003.001-.007-.02c-.004-.015-.013-.019.001-.016-.008-.036-.011-.018-.009-.043 0-.013.002-.007.002-.007l.013-.002.03-.005.063-.01c.043-.009.092-.009.138-.009l.666-.007-.004.137-.066-.001h-.044c.003.008-.008-.014.007 0 .119-.215-.064-.118.001-.141h.002l.017.001.143.012c.1.016.193.042.296.064.104.021.207.051.313.086l.164.052.039.01c-.058.24-.064.149-.076.16l-.092-.033.077-.166c.161.065.318.155.483.257l.259.154.135.081.017.011.008.005.003.002-.047.077c-.014.023.044-.071-.038.034.004.022.003.012-.011.034-.044.06-.013.016-.023.03l-.032-.022-.078-.057.148-.157c.101.081.203.178.309.282.052.052.11.1.163.165l.075.089.006.007c.02-.015-.049.048-.066.044a.036.036 0 00-.017.033c.004.015-.006-.02-.024-.007-.021.009-.017.032-.033.043l-.045.026-.001-.001-.014-.02-.035-.048.193-.136c.081.123.172.246.252.38l.114.208c.005.04.071.062.028.114a.331.331 0 00-.071.056c-.017.008-.057.015-.082.029-.077.038-.022.009-.04.016l-.006-.012-.014-.027-.033-.069.239-.089c.088.221.155.456.217.708l.018.091.009.045.005.022.002.01.001.002s.023.004-.083.015c-.009-.006-.044-.017-.055.001-.011.012.013.029.003.021a.093.093 0 00-.073-.013c-.071.031-.058.021-.058.021l-.001-.008-.003-.022-.003-.021-.001-.007v-.002c.039-.012.054.012.081.002.022 0 .048-.027.049-.031-.022.03.051.025.059.001.118-.002.07 0 .081 0v.002l.001.01.002.022.004.046c.016.123.019.267.019.396a3.434 3.434 0 01-.022.516l-.005.025-.002.012-.001.005v.002c.026.002-.046-.018-.117-.015a4.352 4.352 0 00-.17-.031v-.001l.001-.004.002-.012.004-.025.007-.046.001-.004s-.002-.004.001.01c.017.01.035.017.054.021.028.014.096-.02.081-.01.221.045.131.035.149.038l-.005.023-.02.099c-.023.134-.067.279-.102.416-.016.069-.047.149-.07.211l-.033.091c-.392-.156-.249-.116-.266-.14l.022-.047.279.129c-.155.267-.284.558-.48.833l-.256-.191.074-.086c.004.003-.023-.016.057.044.043.046.064.033.084.072a.246.246 0 00.039.051c.006.001.06.072.045.053l-.002.001-.016.015-.036.037-.148.155a2.301 2.301 0 01-.323.3l-.016.014-.018-.018c-.067-.061-.072-.108-.094-.098.024-.016-.016-.038-.033-.052l-.051-.091.036-.025.001-.001c-.014-.016.053.058.032.068-.005.019.004.09.041.09.025.01.034-.053.027-.013-.005.039.019.08.059.102.045.056.012.016.021.029l-.008.005-.022.014-.046.03c-.06.038-.124.084-.193.121-.134.077-.27.156-.406.22l-.153-.302.072-.036.022-.01.007-.003.018-.007.01-.003.005-.001c.004.001.006-.006.057-.002.141-.049.174.364.096.29-.063.048-.036.024-.049.034l-.043.02a.816.816 0 01-.158.057l-.306.084-.309.084-.151.041c-.014-.019.019.077-.056-.152-.011.011-.019-.206-.025-.183l.005-.001.035-.007.093-.017.033.349c-.196.025-.401.027-.608.03-.105.005-.203-.003-.314-.01l-.075-.007-.036-.003c-.003-.013-.015.028-.009-.029.004-.083.006-.171.014-.173.027-.046.013-.105.025-.152l.005.001.071.009.035.004h.002c-.001.01.003-.023-.001.023-.004.043-.004.084-.021.092-.004.008-.031.02-.032.056.007.031.024.023.029.02.022-.026-.028.049-.017.076 0 .018.006.035-.007.087l-.001.001h-.002l-.017-.003a3.833 3.833 0 01-.615-.15l-.153-.045-.083-.032-.034-.013-.003-.001.028-.062a.588.588 0 00.033-.106c.135-.262.066-.138.086-.167l.016.007.065.028.003.001c.001.006-.002-.026-.027.048-.022.043-.021.119-.046.14l-.084.14-.008-.004-.032-.016-.069-.033-.035-.017-.018-.008-.008-.004-.004-.002c-.007-.01-.005.017.102.015a.186.186 0 00.134-.092.202.202 0 00.019-.053c.018-.011.016-.031-.139-.038l-.126.163c-.479-.248-1.159-.186-1.508.241-.344.417-.368 1.15.007 1.57.167.211.489.306.787.45a6.7 6.7 0 00.947.278 5.95 5.95 0 002.003.061c1.536-.2 2.936-1.04 3.763-2.238.846-1.191 1.124-2.67.965-4.001-.138-1.344-.819-2.51-1.702-3.317a5.732 5.732 0 00-2.955-1.448c-.996-.156-1.995-.088-2.698.22a1.349 1.349 0 00-.63.838c-.086.325-.006.636.132.878.278.495.738.674 1.026.704.305.036.465-.024.468-.002zm-5.659-10.893c-.027-.029.327-.234.704-.82.374-.566.733-1.598.438-2.801a3.136 3.136 0 00-1.069-1.639c-.549-.476-1.252-.852-1.897-1.425a3.703 3.703 0 01-.817-1.047c-.207-.409-.31-.916-.186-1.398.104-.489.416-.895.741-1.243.331-.351.699-.654 1.033-.988.337-.329.626-.691.776-1.099.155-.406.143-.854.035-1.269-.221-.847-.779-1.527-1.321-2.152-.542-.628-1.078-1.256-1.355-1.984a4.29 4.29 0 01-.218-2.092c.199-1.289.856-2.183 1.39-2.646a3.15 3.15 0 01.672-.472c.168-.084.258-.123.263-.113.018.031-.35.189-.85.674-.493.475-1.092 1.355-1.254 2.586a4.116 4.116 0 00.24 1.967c.264.668.781 1.266 1.331 1.89.546.62 1.151 1.333 1.399 2.263.122.458.141.978-.039 1.453-.173.477-.499.874-.848 1.215-.683.68-1.497 1.248-1.696 2.08-.211.831.324 1.628.9 2.162.598.545 1.303.936 1.871 1.441.288.249.533.531.725.836.186.307.306.631.389.946.285 1.29-.133 2.356-.552 2.923-.424.588-.805.752-.805.752zm-4.363 0c-.027-.029.327-.234.704-.82.374-.566.733-1.598.438-2.801a3.142 3.142 0 00-1.069-1.639c-.549-.476-1.252-.852-1.897-1.425a3.703 3.703 0 01-.817-1.047c-.207-.409-.311-.916-.186-1.398.104-.489.416-.895.741-1.243.331-.351.699-.654 1.033-.988.337-.329.626-.691.775-1.099.155-.406.143-.854.035-1.269-.221-.847-.779-1.527-1.32-2.152-.542-.628-1.078-1.256-1.355-1.984a4.29 4.29 0 01-.218-2.092c.199-1.289.856-2.183 1.39-2.646a3.15 3.15 0 01.672-.472c.168-.084.258-.123.262-.113.018.031-.35.189-.85.674-.493.475-1.092 1.355-1.254 2.586a4.116 4.116 0 00.24 1.967c.264.668.781 1.266 1.331 1.89.547.62 1.151 1.333 1.4 2.263.122.458.141.978-.039 1.453-.173.477-.499.874-.847 1.215-.683.68-1.497 1.248-1.696 2.08-.211.831.324 1.628.9 2.162.597.545 1.303.936 1.871 1.441.288.249.533.531.725.836.186.307.306.631.389.946.285 1.29-.133 2.356-.552 2.923-.425.588-.806.752-.806.752zm32.088-60.099l-2.205 1.848 27.976 33.401 2.205-1.848-27.976-33.401zm3.281-4.729l-2.205 1.848 27.98 33.4 2.206-1.847-27.981-33.401z" fill="#263238"/><path d="M427.573 240.005l-2.432-1.536-27.967 44.303 2.433 1.535 27.966-44.302zm6.305 1.22l-2.433-1.536-27.422 43.441 2.433 1.535 27.422-43.44z" fill="#263238"/><path d="M427.745 234.437l-4.397 5.941a3.683 3.683 0 004.624 5.477l5.912-2.993a3.686 3.686 0 001.963-2.642l.065-.364a3.684 3.684 0 00-1.347-3.538l-3.033-2.39a2.663 2.663 0 00-3.787.509z" fill="#263238"/><path d="M427.745 234.437c-.01-.007.05-.138.229-.34.177-.202.486-.477.972-.674.48-.19 1.158-.29 1.879-.046.356.109.72.346 1.027.595l1.019.779 1.119.86c.377.309.816.578 1.2 1.004.761.817 1.181 2.077.949 3.325-.114 1.217-.883 2.527-2.134 3.145l-3.571 1.814-1.814.917c-.567.303-1.25.631-1.941.672a3.913 3.913 0 01-4.135-4.94 4.12 4.12 0 01.736-1.418l.853-1.125 2.6-3.374c.625-.789.983-1.216 1.012-1.194.029.021-.275.489-.848 1.316l-2.467 3.473c-.491.754-1.227 1.473-1.468 2.437-.254.96-.08 2.114.612 2.995.667.891 1.853 1.446 3.059 1.324.616-.047 1.149-.303 1.755-.626l1.813-.919a8723.63 8723.63 0 013.575-1.804c1.095-.55 1.766-1.629 1.893-2.775a3.476 3.476 0 00-.799-2.953c-.317-.372-.752-.657-1.127-.976l-1.098-.887a516.81 516.81 0 01-.996-.809c-.314-.269-.595-.462-.92-.581a2.579 2.579 0 00-1.713-.037c-.929.327-1.228.875-1.271.822z" fill="url(#paint51_linear_1005_1301)"/><path d="M383.293 288.738s3.421-7.26 16.848-7.242l6.182-.018s12.065 2.602 13.518 7.26h-36.548zm8.326-89.977l2.785 10.947a.66.66 0 001.147.26l8.292-8.492a.66.66 0 00-.404-1.075l-11.077-2.454a.66.66 0 00-.743.814z" fill="#263238"/><path d="M391.619 198.762c-.008.004-.067-.083-.055-.275a.707.707 0 01.527-.614c.199-.057.405.006.598.04l.668.129 1.641.328 4.352.906 2.626.561 1.407.303c.24.015.647.202.77.521a.911.911 0 01-.117.976l-.008.009-.005.005a9619.34 9619.34 0 00-3.685 3.789l-4.611 4.7.013-.014c-.417.536-1.333.357-1.531-.256-.135-.484-.221-.874-.33-1.302l-.583-2.377-.94-3.922-.582-2.572c-.127-.601-.182-.929-.155-.935.027-.007.135.307.311.895l.718 2.537 1.048 3.894.624 2.367.33 1.245c.094.282.527.362.712.112l.003-.004.01-.01 4.589-4.721 3.7-3.775-.013.014c.211-.257.061-.679-.359-.697l-1.404-.319-2.618-.601-4.331-1.018-1.628-.396-.661-.166c-.211-.052-.381-.115-.522-.08a.618.618 0 00-.479.463c-.036.161-.01.256-.03.26z" fill="url(#paint52_linear_1005_1301)"/><path d="M383.422 230.12c5.491-7.355 8.595-14.828 8.077-22.479l-10.305-9.931c-10.028-3.331-23.749 7.164-23.749 7.164s3.404 18.494 25.977 25.246z" fill="#263238"/><path d="M388.408 211.305l-11.287-10.586 9.314-9.931a7.515 7.515 0 0110.623-.341l.323.303a7.515 7.515 0 01.341 10.623l-9.314 9.932z" fill="#263238"/><path d="M390.801 207.287c-.005.053-.86.038-2.176-.353-1.312-.384-3.058-1.225-4.639-2.614-1.576-1.397-2.627-3.025-3.171-4.279-.551-1.257-.672-2.104-.62-2.115.086-.025.333.775.951 1.954a14.539 14.539 0 003.185 4.05 14.521 14.521 0 004.413 2.656c1.246.467 2.072.613 2.057.701z" fill="url(#paint53_linear_1005_1301)"/><path d="M431.317 238.019a.93.93 0 11-1.859.001.93.93 0 011.859-.001z" fill="url(#paint54_linear_1005_1301)"/><path d="M396.872 205.804a.93.93 0 11-1.859.001.93.93 0 011.859-.001z" fill="url(#paint55_linear_1005_1301)"/><path d="M400.399 202.192a.93.93 0 11-1.86 0 .93.93 0 011.86 0z" fill="url(#paint56_linear_1005_1301)"/><path d="M427.54 241.378a.93.93 0 11-1.859.001.93.93 0 011.859-.001z" fill="url(#paint57_linear_1005_1301)"/><path d="M390.674 304.965l-.276 161.349H239.911V304.523h-9.645v170.755h169.777v-8.964l.276-161.349h-9.645z" fill="url(#paint58_linear_1005_1301)"/><path d="M390.673 304.965l9.645-.049h.049v.05l-.127 170.313v.199h-.199l-169.777.049h-.248v-.248l-.012-152.121v-18.894h10.165v.26l-.019 161.791-.241-.241 150.486.05-.191.19.469-161.349-.086 161.349v.191h-.191l-150.486.05h-.241v-.241l-.019-161.791.26.26h-9.645l.26-.26v18.634l-.012 152.121-.248-.248 169.777.049-.199.199.427-170.313.049.049-9.646-.049z" fill="#263238"/><path d="M429.385 288.738H211.344v17.396h218.041v-17.396z" fill="#AE7461"/><path d="M266.008 288.42s-.189.054-.553.126c-.363.078-.904.159-1.591.315-1.38.279-3.362.758-5.778 1.468-2.417.705-5.256 1.674-8.394 2.794-3.139 1.115-6.583 2.378-10.267 3.506-3.689 1.115-7.289 1.915-10.611 2.303-3.321.384-6.354.383-8.864.062-2.511-.311-4.501-.841-5.826-1.33-.674-.211-1.166-.465-1.512-.598-.341-.147-.514-.238-.514-.238s.19.052.538.18c.353.114.849.349 1.527.541 1.331.452 3.316.946 5.812 1.226 2.496.29 5.506.269 8.805-.129 3.3-.401 6.879-1.206 10.554-2.316 3.672-1.124 7.115-2.377 10.261-3.478 3.145-1.106 5.997-2.055 8.428-2.735 2.43-.684 4.425-1.132 5.816-1.375.692-.138 1.238-.199 1.604-.258.37-.053.565-.064.565-.064zm111.203 16.074s-.078-.079-.217-.241c-.142-.16-.334-.415-.634-.705-.575-.599-1.504-1.426-2.886-2.198-1.372-.781-3.215-1.462-5.432-1.816-2.218-.364-4.805-.292-7.592.189-2.793.471-5.774 1.36-8.973 2.31-3.197.934-6.662 1.936-10.437 2.191-1.881.125-3.836.036-5.771-.383-1.936-.411-3.849-1.084-5.719-1.918-3.75-1.653-7.364-3.893-11.367-5.512-8.049-3.238-16.558-3.491-23.944-2.541-7.441.958-13.901 3.11-19.194 5.113-5.296 2.033-9.472 3.954-12.366 5.257l-3.327 1.513c-.761.345-1.168.511-1.168.511s.389-.205 1.141-.568l3.303-1.566c2.879-1.337 7.042-3.29 12.337-5.353 5.292-2.033 11.762-4.214 19.237-5.193 7.418-.97 15.981-.728 24.098 2.537 4.036 1.634 7.65 3.877 11.374 5.522 1.857.831 3.748 1.498 5.656 1.906 1.907.416 3.831.507 5.692.387 3.733-.244 7.185-1.23 10.382-2.153 3.2-.939 6.196-1.82 9.009-2.279 2.806-.47 5.42-.528 7.656-.144 2.235.374 4.089 1.079 5.464 1.883 1.385.795 2.309 1.643 2.872 2.26.569.617.806.991.806.991zm50.9-10.376s-2.622 1.114-7.092 2.164c-1.118.257-2.346.528-3.682.722-1.327.251-2.763.384-4.272.552-3.024.25-6.367.326-9.863.087a65.954 65.954 0 01-9.749-1.52c-1.468-.385-2.87-.726-4.147-1.167-1.294-.386-2.469-.833-3.538-1.25-4.27-1.689-6.702-3.172-6.702-3.172.005-.009.168.061.474.203l1.329.636a28.41 28.41 0 002.12.966c.839.348 1.775.789 2.858 1.16 1.07.402 2.244.835 3.536 1.209 1.274.429 2.673.758 4.135 1.134a67.929 67.929 0 009.705 1.489c3.479.238 6.805.17 9.816-.063 1.502-.159 2.933-.282 4.256-.521 1.332-.182 2.557-.44 3.674-.682 1.125-.209 2.116-.509 2.996-.732.883-.215 1.63-.448 2.238-.648l1.408-.436c.325-.096.497-.141.5-.131z" fill="#6F4439"/><path d="M427.228 446.837s-4.158-28.588-3.812-45.221c.347-16.633-.021-35.345-.021-35.345h1.916s-1.297 33.015.115 52.927c1.411 19.897 5.129 27.639 5.129 27.639h-3.327z" fill="#263238"/><path d="M439.611 334.105c-.385-.977-.859-1.994-1.746-2.556-1.216-.77-2.809-.45-4.166.03-5.789 2.047-10.922 12.842-13.261 18.52l7.685 25.899c13.874-12.872 16.277-29.756 11.488-41.893z" fill="url(#paint59_linear_1005_1301)"/><path d="M437.42 332.597c.01.004-.029.121-.112.338l-.376.944c-.337.815-.81 2-1.375 3.471a130.668 130.668 0 00-3.863 11.685 130.461 130.461 0 00-2.713 12.006c-.274 1.552-.48 2.811-.611 3.683l-.164 1.003c-.041.229-.068.348-.079.347-.011-.001-.005-.124.015-.355l.105-1.011c.094-.878.266-2.144.512-3.703.49-3.119 1.342-7.406 2.629-12.053a110.963 110.963 0 013.96-11.682 80.098 80.098 0 011.47-3.438l.431-.921c.102-.211.161-.319.171-.314z" fill="#263238"/><path d="M424.708 382.207c-7.205-3.981-11.451-11.47-11.847-19.692-.277-5.747 1.489-11.387 3.49-16.782.173-.468.379-.972.814-1.218.604-.342 1.36-.038 1.964.306 5.235 2.981 8.407 8.665 10.095 14.448 1.123 3.848 1.705 7.906 1.185 11.881-.519 3.975-2.791 8.299-5.701 11.057z" fill="url(#paint60_linear_1005_1301)"/><path d="M424.708 382.207c-.011 0-.02-.12-.028-.347l-.019-.994a89.092 89.092 0 00-.108-3.651c-.139-3.08-.542-7.326-1.337-11.964-.799-4.639-1.769-8.793-2.484-11.795l-.853-3.555-.222-.969c-.047-.223-.067-.341-.056-.344.011-.003.051.11.118.327l.279.955c.237.831.564 2.037.951 3.532.771 2.991 1.777 7.144 2.579 11.796.797 4.651 1.167 8.918 1.249 12.009.042 1.545.043 2.797.007 3.661l-.04.994c-.013.226-.025.345-.036.345z" fill="#263238"/><path d="M424.708 382.207c-7.205-3.981-11.451-11.47-11.847-19.692-.277-5.747 1.489-11.387 3.49-16.782.173-.468.379-.972.814-1.218.604-.342 1.36-.038 1.964.306 5.235 2.981 8.407 8.665 10.095 14.448 1.123 3.848 1.705 7.906 1.185 11.881-.519 3.975-2.791 8.299-5.701 11.057z" fill="#000" opacity=".3"/><path d="M432.836 425.948c7.091 1.558 12.929 6.559 19.77 8.991 4.526 1.609 9.644 2.178 13.258 5.343-.867-2.189-2.923-3.647-4.92-4.895a88.171 88.171 0 00-17.919-8.554c-3.218-1.111-6.71-2.04-9.99-1.125" fill="url(#paint61_linear_1005_1301)"/><path d="M422.585 432.265c-8.88-.143-18.23-7.703-27.069-8.154 9.25-2.987 22.494-.547 27.069 8.154z" fill="url(#paint62_linear_1005_1301)"/><path d="M426.055 410.963c4.509-1.625 9.46-1.703 14.197-.966 4.736.736 9.311 2.255 13.859 3.767-.456-3.081-2.951-5.398-5.295-7.448-1.764-1.543-3.541-3.096-5.565-4.278-2.024-1.182-4.333-1.982-6.674-1.883-2.825.12-5.514 1.577-7.366 3.713-1.853 2.136-2.849 4.285-3.156 7.095z" fill="url(#paint63_linear_1005_1301)"/><path d="M407.831 401.159c-5.59-4.772-14.057-4.306-21.405-4.14 11.296 5.401 23.468 12.805 33.196 20.687.298-5.196-4.73-10.519-11.791-16.547z" fill="url(#paint64_linear_1005_1301)"/><path d="M407.831 401.159c-5.59-4.772-14.057-4.306-21.405-4.14 11.296 5.401 23.468 12.805 33.196 20.687.298-5.196-4.73-10.519-11.791-16.547z" fill="#000" opacity=".3"/><path d="M428.569 394.571c2.811-1.874 5.654-3.66 8.596-4.997 2.942-1.337 5.687-3.466 8.529-5.005 3.685-1.995 6.877-4.769 10.259-7.242 3.382-2.474 7.097-4.706 11.236-5.362-3.375-.696-6.901-.317-10.225.591-3.324.908-6.482 2.329-9.624 3.744-4.361 1.965-8.797 3.977-12.361 7.166-3.565 3.19-6.787 6.337-6.41 11.105z" fill="url(#paint65_linear_1005_1301)"/><path d="M452.444 432.265c-.005.01-.102-.033-.281-.121l-.775-.401c-.669-.356-1.629-.883-2.838-1.491a46.546 46.546 0 00-1.981-.983 47.632 47.632 0 00-2.306-1.057c-1.64-.7-3.471-1.431-5.468-1.906-1.991-.489-3.975-.596-5.696-.143-.868.21-1.686.417-2.414.721a12.419 12.419 0 00-4.396 3.023c-.514.551-.765.888-.788.871-.009-.006.046-.096.159-.261a8.15 8.15 0 01.536-.692 11.444 11.444 0 012.419-2.128c.57-.377 1.228-.742 1.97-1.055.741-.322 1.577-.543 2.446-.762 1.759-.481 3.821-.379 5.836.119 2.028.482 3.869 1.227 5.512 1.947.821.364 1.595.723 2.304 1.089.718.349 1.377.692 1.97 1.021a59.712 59.712 0 012.794 1.582l.746.453c.171.104.257.165.251.174zm-36.483-4.4c.008-.021.205.038.556.163.353.12.85.332 1.447.629 1.195.59 2.767 1.595 4.243 3.009 1.472 1.419 2.539 2.949 3.177 4.12.32.585.553 1.072.686 1.42.138.346.205.541.185.549-.051.022-.383-.73-1.065-1.857a20.11 20.11 0 00-3.202-4.004 20.156 20.156 0 00-4.128-3.039c-1.155-.637-1.919-.938-1.899-.99zm-19.644-27.152c.004-.01.134.028.378.112l1.066.379 1.681.62c.655.243 1.366.602 2.171.957 3.197 1.452 7.452 3.894 11.561 7.366 2.026 1.764 3.859 3.557 5.391 5.309 1.526 1.756 2.819 3.407 3.826 4.848a83.33 83.33 0 012.309 3.46l.607.952c.138.219.207.337.198.343-.009.006-.094-.099-.249-.306s-.38-.516-.658-.921c-.559-.807-1.356-1.983-2.39-3.398-1.027-1.42-2.331-3.049-3.862-4.785-1.537-1.732-3.364-3.508-5.378-5.261-4.084-3.45-8.291-5.907-11.451-7.404-.795-.366-1.497-.738-2.144-.996l-1.656-.668-1.043-.435c-.238-.103-.361-.162-.357-.172zm43.062 5.259c-.006.021-.258-.013-.708-.091l-.816-.151c-.317-.061-.688-.063-1.091-.105-1.597-.116-3.923.016-6.103 1.204-1.1.557-2.022 1.308-2.777 2.061a12.56 12.56 0 00-1.785 2.207c-.891 1.364-1.166 2.349-1.221 2.33-.017-.004.033-.255.181-.692.163-.43.415-1.053.85-1.756.421-.708.995-1.518 1.768-2.294.761-.782 1.704-1.562 2.837-2.136 2.248-1.225 4.655-1.324 6.27-1.147.409.057.783.075 1.101.153l.813.205c.445.117.687.191.681.212zm8.926-27.687c.005.01-.111.081-.336.207l-.991.538a107.68 107.68 0 00-3.608 2.037 75.801 75.801 0 00-5.144 3.347c-1.873 1.346-3.886 2.911-5.744 4.812-.916.956-1.76 1.955-2.349 3.041a165.954 165.954 0 00-1.649 3.233c-1.027 2.071-1.863 3.978-2.467 5.617a34.102 34.102 0 00-1.2 3.955c-.227.95-.309 1.486-.341 1.481-.011-.002.002-.137.036-.393.032-.256.086-.634.184-1.115.187-.963.531-2.346 1.11-4.005.58-1.658 1.4-3.584 2.416-5.669a148.395 148.395 0 011.635-3.248c.611-1.136 1.469-2.149 2.397-3.119 1.88-1.924 3.91-3.49 5.802-4.83a68.214 68.214 0 015.2-3.302 71.594 71.594 0 013.664-1.953l1.019-.486c.235-.106.361-.158.366-.148zm-24.9 26.887c-.022.003-.083-.264-.176-.748l-.388-2.052c-.338-1.728-.855-4.109-1.679-6.663-.816-2.558-1.81-4.783-2.536-6.389l-.866-1.901c-.202-.451-.304-.704-.285-.714.02-.01.159.225.395.659.236.434.567 1.067.958 1.86.779 1.583 1.812 3.809 2.635 6.387a46.35 46.35 0 011.598 6.721c.139.873.239 1.581.29 2.073.056.491.076.764.054.767z" fill="#263238"/><path d="M422.761 384.969c-.223-3.355-1.316-6.615-2.888-9.587-4.31-8.149-12.411-14.19-21.451-15.996l19.859 29.599 2.564 5.283c1.751-2.871 2.139-5.944 1.916-9.299z" fill="url(#paint66_linear_1005_1301)"/><path d="M456.163 436.555h-55.925v9.912h55.925v-9.912z" fill="url(#paint67_linear_1005_1301)"/><path d="M404.414 444.501l7.497 30.757h34.392l5.683-30.757h-47.572z" fill="url(#paint68_linear_1005_1301)"/><path d="M456.132 446.48c0 .109-12.615.197-28.172.197-15.563 0-28.175-.088-28.175-.197 0-.108 12.612-.197 28.175-.197 15.557 0 28.172.088 28.172.197z" fill="#263238"/><defs><linearGradient id="paint0_linear_1005_1301" x1="71.077" y1="402.779" x2="71.077" y2="475.803" gradientUnits="userSpaceOnUse"><stop stop-color="#108dff"/><stop offset="1" stop-color="#06162E"/></linearGradient><linearGradient id="paint1_linear_1005_1301" x1="101.076" y1="44.886" x2="101.076" y2="189.975" gradientUnits="userSpaceOnUse"><stop stop-color="#108dff"/><stop offset="1" stop-color="#06162E"/></linearGradient><linearGradient id="paint2_linear_1005_1301" x1="96.054" y1="60.327" x2="96.054" y2="174.476" gradientUnits="userSpaceOnUse"><stop stop-color="#108dff"/><stop offset="1" stop-color="#06162E"/></linearGradient><linearGradient id="paint3_linear_1005_1301" x1="139.577" y1="44.884" x2="139.577" y2="61.437" gradientUnits="userSpaceOnUse"><stop stop-color="#108dff"/><stop offset="1" stop-color="#06162E"/></linearGradient><linearGradient id="paint4_linear_1005_1301" x1="140.618" y1="173.893" x2="140.618" y2="190.305" gradientUnits="userSpaceOnUse"><stop stop-color="#108dff"/><stop offset="1" stop-color="#06162E"/></linearGradient><linearGradient id="paint5_linear_1005_1301" x1="52.555" y1="173.681" x2="52.555" y2="189.861" gradientUnits="userSpaceOnUse"><stop stop-color="#108dff"/><stop offset="1" stop-color="#06162E"/></linearGradient><linearGradient id="paint6_linear_1005_1301" x1="52.166" y1="44.884" x2="52.166" y2="60.442" gradientUnits="userSpaceOnUse"><stop stop-color="#108dff"/><stop offset="1" stop-color="#06162E"/></linearGradient><linearGradient id="paint7_linear_1005_1301" x1="97.645" y1="83.677" x2="97.645" y2="155.194" gradientUnits="userSpaceOnUse"><stop stop-color="#108dff"/><stop offset="1" stop-color="#06162E"/></linearGradient><linearGradient id="paint8_linear_1005_1301" x1="407.626" y1="35.167" x2="407.626" y2="133.669" gradientUnits="userSpaceOnUse"><stop stop-color="#108dff"/><stop offset="1" stop-color="#06162E"/></linearGradient><linearGradient id="paint9_linear_1005_1301" x1="401.225" y1="35.138" x2="401.225" y2="133.698" gradientUnits="userSpaceOnUse"><stop stop-color="#108dff"/><stop offset="1" stop-color="#06162E"/></linearGradient><linearGradient id="paint10_linear_1005_1301" x1="360.378" y1="120.901" x2="360.378" y2="133.327" gradientUnits="userSpaceOnUse"><stop stop-color="#108dff"/><stop offset="1" stop-color="#06162E"/></linearGradient><linearGradient id="paint11_linear_1005_1301" x1="441.978" y1="120.726" x2="441.978" y2="133.341" gradientUnits="userSpaceOnUse"><stop stop-color="#108dff"/><stop offset="1" stop-color="#06162E"/></linearGradient><linearGradient id="paint12_linear_1005_1301" x1="441.885" y1="36.178" x2="441.885" y2="48.604" gradientUnits="userSpaceOnUse"><stop stop-color="#108dff"/><stop offset="1" stop-color="#06162E"/></linearGradient><linearGradient id="paint13_linear_1005_1301" x1="360.283" y1="36.165" x2="360.283" y2="48.78" gradientUnits="userSpaceOnUse"><stop stop-color="#108dff"/><stop offset="1" stop-color="#06162E"/></linearGradient><linearGradient id="paint14_linear_1005_1301" x1="401.111" y1="48.103" x2="401.111" y2="120.691" gradientUnits="userSpaceOnUse"><stop stop-color="#108dff"/><stop offset="1" stop-color="#06162E"/></linearGradient><linearGradient id="paint15_linear_1005_1301" x1="401.226" y1="72.891" x2="401.226" y2="95.945" gradientUnits="userSpaceOnUse"><stop stop-color="#108dff"/><stop offset="1" stop-color="#858585"/></linearGradient><linearGradient id="paint16_linear_1005_1301" x1="350.342" y1="435.757" x2="350.342" y2="444.175" gradientUnits="userSpaceOnUse"><stop stop-color="#108dff"/><stop offset="1" stop-color="#06162E"/></linearGradient><linearGradient id="paint17_linear_1005_1301" x1="374.3" y1="435.757" x2="374.3" y2="474.286" gradientUnits="userSpaceOnUse"><stop stop-color="#108dff"/><stop offset="1" stop-color="#06162E"/></linearGradient><linearGradient id="paint18_linear_1005_1301" x1="326.706" y1="449.031" x2="326.706" y2="453.563" gradientUnits="userSpaceOnUse"><stop stop-color="#108dff"/><stop offset="1" stop-color="#06162E"/></linearGradient><linearGradient id="paint19_linear_1005_1301" x1="365.033" y1="397.268" x2="365.033" y2="405.686" gradientUnits="userSpaceOnUse"><stop stop-color="#108dff"/><stop offset="1" stop-color="#858585"/></linearGradient><linearGradient id="paint20_linear_1005_1301" x1="388.547" y1="397.268" x2="388.547" y2="435.797" gradientUnits="userSpaceOnUse"><stop stop-color="#108dff"/><stop offset="1" stop-color="#858585"/></linearGradient><linearGradient id="paint21_linear_1005_1301" x1="340.952" y1="410.542" x2="340.952" y2="415.074" gradientUnits="userSpaceOnUse"><stop stop-color="#108dff"/><stop offset="1" stop-color="#06162E"/></linearGradient><linearGradient id="paint22_linear_1005_1301" x1="173.501" y1="78.252" x2="173.501" y2="175.813" gradientUnits="userSpaceOnUse"><stop stop-color="#108dff"/><stop offset="1" stop-color="#06162E"/></linearGradient><linearGradient id="paint23_linear_1005_1301" x1="268.547" y1="76.301" x2="268.547" y2="177.765" gradientUnits="userSpaceOnUse"><stop stop-color="#108dff"/><stop offset="1" stop-color="#06162E"/></linearGradient><linearGradient id="paint24_linear_1005_1301" x1="366.524" y1="78.252" x2="366.524" y2="175.813" gradientUnits="userSpaceOnUse"><stop stop-color="#108dff"/><stop offset="1" stop-color="#06162E"/></linearGradient><linearGradient id="paint25_linear_1005_1301" x1="165.423" y1="78.252" x2="165.423" y2="175.813" gradientUnits="userSpaceOnUse"><stop stop-color="#108dff"/><stop offset="1" stop-color="#06162E"/></linearGradient><linearGradient id="paint26_linear_1005_1301" x1="260.47" y1="76.301" x2="260.47" y2="177.765" gradientUnits="userSpaceOnUse"><stop stop-color="#108dff"/><stop offset="1" stop-color="#06162E"/></linearGradient><linearGradient id="paint27_linear_1005_1301" x1="358.446" y1="78.252" x2="358.446" y2="175.813" gradientUnits="userSpaceOnUse"><stop stop-color="#108dff"/><stop offset="1" stop-color="#06162E"/></linearGradient><linearGradient id="paint28_linear_1005_1301" x1="130.324" y1="383.348" x2="130.324" y2="442.623" gradientUnits="userSpaceOnUse"><stop stop-color="#108dff"/><stop offset="1" stop-color="#06162E"/></linearGradient><linearGradient id="paint29_linear_1005_1301" x1="132.987" y1="375.723" x2="132.987" y2="387.574" gradientUnits="userSpaceOnUse"><stop stop-color="#108dff"/><stop offset="1" stop-color="#06162E"/></linearGradient><linearGradient id="paint30_linear_1005_1301" x1="120.083" y1="176.194" x2="120.083" y2="376.142" gradientUnits="userSpaceOnUse"><stop stop-color="#108dff"/><stop offset="1" stop-color="#06162E"/></linearGradient><linearGradient id="paint31_linear_1005_1301" x1="107.213" y1="434.375" x2="107.213" y2="466.032" gradientUnits="userSpaceOnUse"><stop stop-color="#108dff"/><stop offset="1" stop-color="#06162E"/></linearGradient><linearGradient id="paint32_linear_1005_1301" x1="154.002" y1="434.037" x2="154.002" y2="465.694" gradientUnits="userSpaceOnUse"><stop stop-color="#108dff"/><stop offset="1" stop-color="#06162E"/></linearGradient><linearGradient id="paint33_linear_1005_1301" x1="129.523" y1="438.801" x2="129.523" y2="462.229" gradientUnits="userSpaceOnUse"><stop stop-color="#108dff"/><stop offset="1" stop-color="#06162E"/></linearGradient><linearGradient id="paint34_linear_1005_1301" x1="256.621" y1="232.771" x2="256.621" y2="288.737" gradientUnits="userSpaceOnUse"><stop stop-color="#108dff"/><stop offset="1" stop-color="#06162E"/></linearGradient><linearGradient id="paint35_linear_1005_1301" x1="259.318" y1="432.656" x2="259.318" y2="474.989" gradientUnits="userSpaceOnUse"><stop stop-color="#108dff"/><stop offset="1" stop-color="#06162E"/></linearGradient><linearGradient id="paint36_linear_1005_1301" x1="242.47" y1="457.439" x2="242.47" y2="461.521" gradientUnits="userSpaceOnUse"><stop stop-color="#108dff"/><stop offset="1" stop-color="#06162E"/></linearGradient><linearGradient id="paint37_linear_1005_1301" x1="194.048" y1="414.141" x2="194.048" y2="479.595" gradientUnits="userSpaceOnUse"><stop stop-color="#108dff"/><stop offset="1" stop-color="#06162E"/></linearGradient><linearGradient id="paint38_linear_1005_1301" x1="187.683" y1="439.29" x2="187.683" y2="443.267" gradientUnits="userSpaceOnUse"><stop stop-color="#108dff"/><stop offset="1" stop-color="#06162E"/></linearGradient><linearGradient id="paint39_linear_1005_1301" x1="185.285" y1="308.054" x2="185.285" y2="444.677" gradientUnits="userSpaceOnUse"><stop stop-color="#108dff"/><stop offset="1" stop-color="#06162E"/></linearGradient><linearGradient id="paint40_linear_1005_1301" x1="226.43" y1="361.352" x2="226.43" y2="368.532" gradientUnits="userSpaceOnUse"><stop stop-color="#108dff"/><stop offset="1" stop-color="#06162E"/></linearGradient><linearGradient id="paint41_linear_1005_1301" x1="224.938" y1="267.81" x2="224.938" y2="274.257" gradientUnits="userSpaceOnUse"><stop stop-color="#108dff"/><stop offset="1" stop-color="#06162E"/></linearGradient><linearGradient id="paint42_linear_1005_1301" x1="213.956" y1="271.404" x2="213.956" y2="336.53" gradientUnits="userSpaceOnUse"><stop stop-color="#108dff"/><stop offset="1" stop-color="#06162E"/></linearGradient><linearGradient id="paint43_linear_1005_1301" x1="169.381" y1="233.235" x2="169.381" y2="317.801" gradientUnits="userSpaceOnUse"><stop stop-color="#108dff"/><stop offset="1" stop-color="#06162E"/></linearGradient><linearGradient id="paint44_linear_1005_1301" x1="196.893" y1="249.294" x2="196.893" y2="379.924" gradientUnits="userSpaceOnUse"><stop stop-color="#108dff"/><stop offset="1" stop-color="#06162E"/></linearGradient><linearGradient id="paint45_linear_1005_1301" x1="152.305" y1="334.341" x2="152.305" y2="379.924" gradientUnits="userSpaceOnUse"><stop stop-color="#108dff"/><stop offset="1" stop-color="#06162E"/></linearGradient><linearGradient id="paint46_linear_1005_1301" x1="107.754" y1="292.253" x2="107.754" y2="336.965" gradientUnits="userSpaceOnUse"><stop stop-color="#108dff"/><stop offset="1" stop-color="#06162E"/></linearGradient><linearGradient id="paint47_linear_1005_1301" x1="269.791" y1="284.364" x2="269.791" y2="289.017" gradientUnits="userSpaceOnUse"><stop stop-color="#108dff"/><stop offset="1" stop-color="#06162E"/></linearGradient><linearGradient id="paint48_linear_1005_1301" x1="311.569" y1="223.848" x2="311.569" y2="288.893" gradientUnits="userSpaceOnUse"><stop stop-color="#108dff"/><stop offset="1" stop-color="#06162E"/></linearGradient><linearGradient id="paint49_linear_1005_1301" x1="366.362" y1="269.848" x2="366.362" y2="288.545" gradientUnits="userSpaceOnUse"><stop stop-color="#108dff"/><stop offset="1" stop-color="#06162E"/></linearGradient><linearGradient id="paint50_linear_1005_1301" x1="378.047" y1="273.46" x2="378.047" y2="284.934" gradientUnits="userSpaceOnUse"><stop stop-color="#108dff"/><stop offset="1" stop-color="#06162E"/></linearGradient><linearGradient id="paint51_linear_1005_1301" x1="429.303" y1="233.233" x2="429.303" y2="246.506" gradientUnits="userSpaceOnUse"><stop stop-color="#108dff"/><stop offset="1" stop-color="#06162E"/></linearGradient><linearGradient id="paint52_linear_1005_1301" x1="397.903" y1="197.85" x2="397.903" y2="210.444" gradientUnits="userSpaceOnUse"><stop stop-color="#108dff"/><stop offset="1" stop-color="#06162E"/></linearGradient><linearGradient id="paint53_linear_1005_1301" x1="385.492" y1="197.926" x2="385.492" y2="207.309" gradientUnits="userSpaceOnUse"><stop stop-color="#108dff"/><stop offset="1" stop-color="#06162E"/></linearGradient><linearGradient id="paint54_linear_1005_1301" x1="430.387" y1="237.089" x2="430.387" y2="238.949" gradientUnits="userSpaceOnUse"><stop stop-color="#108dff"/><stop offset="1" stop-color="#06162E"/></linearGradient><linearGradient id="paint55_linear_1005_1301" x1="395.942" y1="204.874" x2="395.942" y2="206.734" gradientUnits="userSpaceOnUse"><stop stop-color="#108dff"/><stop offset="1" stop-color="#06162E"/></linearGradient><linearGradient id="paint56_linear_1005_1301" x1="399.469" y1="201.262" x2="399.469" y2="203.122" gradientUnits="userSpaceOnUse"><stop stop-color="#108dff"/><stop offset="1" stop-color="#06162E"/></linearGradient><linearGradient id="paint57_linear_1005_1301" x1="426.61" y1="240.448" x2="426.61" y2="242.308" gradientUnits="userSpaceOnUse"><stop stop-color="#108dff"/><stop offset="1" stop-color="#06162E"/></linearGradient><linearGradient id="paint58_linear_1005_1301" x1="315.292" y1="304.523" x2="315.292" y2="475.278" gradientUnits="userSpaceOnUse"><stop stop-color="#108dff"/><stop offset="1" stop-color="#06162E"/></linearGradient><linearGradient id="paint59_linear_1005_1301" x1="431.151" y1="331.086" x2="431.151" y2="375.998" gradientUnits="userSpaceOnUse"><stop stop-color="#108dff"/><stop offset="1" stop-color="#06162E"/></linearGradient><linearGradient id="paint60_linear_1005_1301" x1="421.716" y1="344.365" x2="421.716" y2="382.207" gradientUnits="userSpaceOnUse"><stop stop-color="#108dff"/><stop offset="1" stop-color="#06162E"/></linearGradient><linearGradient id="paint61_linear_1005_1301" x1="449.35" y1="425.337" x2="449.35" y2="440.282" gradientUnits="userSpaceOnUse"><stop stop-color="#108dff"/><stop offset="1" stop-color="#06162E"/></linearGradient><linearGradient id="paint62_linear_1005_1301" x1="409.05" y1="422.895" x2="409.05" y2="432.265" gradientUnits="userSpaceOnUse"><stop stop-color="#108dff"/><stop offset="1" stop-color="#06162E"/></linearGradient><linearGradient id="paint63_linear_1005_1301" x1="440.083" y1="400.147" x2="440.083" y2="413.764" gradientUnits="userSpaceOnUse"><stop stop-color="#108dff"/><stop offset="1" stop-color="#06162E"/></linearGradient><linearGradient id="paint64_linear_1005_1301" x1="403.03" y1="396.924" x2="403.03" y2="417.706" gradientUnits="userSpaceOnUse"><stop stop-color="#108dff"/><stop offset="1" stop-color="#06162E"/></linearGradient><linearGradient id="paint65_linear_1005_1301" x1="447.864" y1="371.606" x2="447.864" y2="394.571" gradientUnits="userSpaceOnUse"><stop stop-color="#108dff"/><stop offset="1" stop-color="#06162E"/></linearGradient><linearGradient id="paint66_linear_1005_1301" x1="410.62" y1="359.386" x2="410.62" y2="394.268" gradientUnits="userSpaceOnUse"><stop stop-color="#108dff"/><stop offset="1" stop-color="#06162E"/></linearGradient><linearGradient id="paint67_linear_1005_1301" x1="428.201" y1="436.555" x2="428.201" y2="446.467" gradientUnits="userSpaceOnUse"><stop stop-color="#108dff"/><stop offset="1" stop-color="#06162E"/></linearGradient><linearGradient id="paint68_linear_1005_1301" x1="428.2" y1="444.501" x2="428.2" y2="475.258" gradientUnits="userSpaceOnUse"><stop stop-color="#108dff"/><stop offset="1" stop-color="#06162E"/></linearGradient></defs></svg>