<svg width="746" height="306" fill="none" xmlns="http://www.w3.org/2000/svg"><g clip-path="url(#clip0_1002_81)" fill-rule="evenodd" clip-rule="evenodd"><path d="M268.61 106.269c-2.9 0-4.427-1.525-5.655-2.751-1.145-1.144-2.05-2.049-3.956-2.049-1.907 0-2.811.905-3.956 2.049-1.229 1.226-2.755 2.751-5.655 2.751-2.895 0-4.421-1.525-5.645-2.751-1.144-1.146-2.047-2.049-3.948-2.049-1.903 0-2.805.903-3.95 2.049-1.224 1.226-2.75 2.751-5.644 2.751-2.896 0-4.419-1.526-5.645-2.751-1.143-1.146-2.047-2.049-3.946-2.049a1.2 1.2 0 110-2.4c2.896 0 4.419 1.527 5.644 2.752 1.143 1.145 2.046 2.048 3.947 2.048 1.901 0 2.805-.903 3.948-2.048 1.225-1.227 2.75-2.752 5.646-2.752 2.894 0 4.419 1.525 5.644 2.752 1.145 1.145 2.047 2.048 3.949 2.048 1.907 0 2.813-.905 3.957-2.05 1.229-1.225 2.755-2.75 5.654-2.75 2.898 0 4.424 1.525 5.653 2.75 1.145 1.145 2.052 2.05 3.958 2.05a1.201 1.201 0 010 2.4z" fill="url(#paint0_linear_1002_81)"/><path d="M268.61 119.069c-2.9 0-4.427-1.525-5.655-2.752-1.145-1.144-2.05-2.048-3.956-2.048-1.907 0-2.811.904-3.956 2.048-1.229 1.227-2.755 2.752-5.655 2.752-2.895 0-4.421-1.525-5.645-2.752-1.144-1.145-2.047-2.048-3.948-2.048-1.903 0-2.805.903-3.95 2.048-1.224 1.227-2.75 2.752-5.644 2.752-2.896 0-4.419-1.527-5.645-2.752-1.143-1.145-2.047-2.048-3.946-2.048a1.2 1.2 0 010-2.4c2.896 0 4.419 1.526 5.644 2.751 1.143 1.146 2.046 2.049 3.947 2.049 1.901 0 2.805-.903 3.948-2.049 1.225-1.226 2.75-2.751 5.646-2.751 2.894 0 4.419 1.525 5.644 2.751 1.145 1.146 2.047 2.049 3.949 2.049 1.907 0 2.813-.905 3.957-2.05 1.229-1.225 2.755-2.75 5.654-2.75 2.898 0 4.424 1.525 5.653 2.75 1.145 1.145 2.052 2.05 3.958 2.05a1.2 1.2 0 010 2.4z" fill="url(#paint1_linear_1002_81)"/><path d="M268.61 131.869c-2.9 0-4.427-1.525-5.655-2.751-1.145-1.145-2.05-2.049-3.956-2.049-1.907 0-2.811.904-3.956 2.049-1.229 1.226-2.755 2.751-5.655 2.751-2.895 0-4.421-1.525-5.645-2.751-1.144-1.146-2.047-2.049-3.948-2.049-1.903 0-2.805.903-3.95 2.049-1.224 1.226-2.75 2.751-5.644 2.751-2.896 0-4.419-1.526-5.645-2.751-1.143-1.146-2.047-2.049-3.946-2.049a1.2 1.2 0 110-2.4c2.896 0 4.419 1.527 5.644 2.752 1.143 1.145 2.046 2.048 3.947 2.048 1.901 0 2.805-.903 3.948-2.048 1.225-1.227 2.75-2.752 5.646-2.752 2.894 0 4.419 1.525 5.644 2.752 1.145 1.145 2.047 2.048 3.949 2.048 1.907 0 2.813-.905 3.957-2.05 1.229-1.225 2.755-2.75 5.654-2.75 2.898 0 4.424 1.525 5.653 2.75 1.145 1.145 2.052 2.05 3.958 2.05a1.201 1.201 0 010 2.4z" fill="url(#paint2_linear_1002_81)"/><path d="M268.61 144.669c-2.9 0-4.427-1.526-5.655-2.752-1.145-1.144-2.05-2.049-3.956-2.049-1.907 0-2.811.905-3.956 2.049-1.229 1.226-2.755 2.752-5.655 2.752-2.895 0-4.421-1.526-5.645-2.752-1.144-1.145-2.047-2.049-3.948-2.049-1.903 0-2.805.904-3.95 2.049-1.224 1.226-2.75 2.752-5.644 2.752-2.896 0-4.419-1.527-5.645-2.752-1.143-1.145-2.047-2.049-3.946-2.049a1.199 1.199 0 110-2.399c2.896 0 4.419 1.527 5.644 2.752 1.143 1.145 2.046 2.047 3.947 2.047 1.901 0 2.805-.902 3.948-2.047 1.225-1.227 2.75-2.752 5.646-2.752 2.894 0 4.419 1.525 5.644 2.752 1.145 1.145 2.047 2.047 3.949 2.047 1.907 0 2.813-.904 3.957-2.049 1.229-1.225 2.755-2.75 5.654-2.75 2.898 0 4.424 1.525 5.653 2.75 1.145 1.145 2.052 2.049 3.958 2.049a1.2 1.2 0 010 2.401z" fill="url(#paint3_linear_1002_81)"/><path d="M610.096 71.674a4.8 4.8 0 11-9.6 0 4.8 4.8 0 019.6 0z" fill="url(#paint4_linear_1002_81)"/><path d="M642.096 71.674a4.8 4.8 0 11-9.6 0 4.8 4.8 0 019.6 0z" fill="url(#paint5_linear_1002_81)"/><path d="M674.096 71.674a4.8 4.8 0 11-9.6 0 4.8 4.8 0 019.6 0z" fill="url(#paint6_linear_1002_81)"/><path d="M704.498 71.674a3.2 3.2 0 11-6.4 0 3.2 3.2 0 016.4 0z" fill="url(#paint7_linear_1002_81)"/><path d="M610.096 103.674a4.8 4.8 0 11-9.6 0 4.8 4.8 0 019.6 0z" fill="url(#paint8_linear_1002_81)"/><path d="M642.096 103.674a4.8 4.8 0 11-9.6 0 4.8 4.8 0 019.6 0z" fill="url(#paint9_linear_1002_81)"/><path d="M674.096 103.674a4.8 4.8 0 11-9.6 0 4.8 4.8 0 019.6 0z" fill="url(#paint10_linear_1002_81)"/><path d="M704.498 103.674a3.2 3.2 0 11-6.4 0 3.2 3.2 0 016.4 0z" fill="url(#paint11_linear_1002_81)"/><path d="M610.096 135.674a4.8 4.8 0 11-9.6 0 4.8 4.8 0 019.6 0z" fill="url(#paint12_linear_1002_81)"/><path d="M642.096 135.674a4.8 4.8 0 11-9.6 0 4.8 4.8 0 019.6 0z" fill="url(#paint13_linear_1002_81)"/><path d="M672.498 135.674a3.2 3.2 0 11-6.4 0 3.2 3.2 0 016.4 0z" fill="url(#paint14_linear_1002_81)"/><path d="M704.498 135.674a3.2 3.2 0 11-6.4 0 3.2 3.2 0 016.4 0z" fill="url(#paint15_linear_1002_81)"/><path d="M608.498 167.674a3.2 3.2 0 11-6.4 0 3.2 3.2 0 016.4 0z" fill="url(#paint16_linear_1002_81)"/><path d="M640.498 167.674a3.2 3.2 0 11-6.4 0 3.2 3.2 0 016.4 0z" fill="url(#paint17_linear_1002_81)"/><path d="M672.498 167.674a3.2 3.2 0 11-6.4 0 3.2 3.2 0 016.4 0z" fill="url(#paint18_linear_1002_81)"/><path d="M704.498 167.674a3.2 3.2 0 11-6.4 0 3.2 3.2 0 016.4 0z" fill="url(#paint19_linear_1002_81)"/><path d="M147.068 58.513c-.502-.378-.999-.506-1.522-.422-3.526.635-4.886 8.982-5.308 14.951h11.943c-.785-4.86-2.411-12.497-5.113-14.529z" fill="url(#paint20_linear_1002_81)"/><path d="M145.349 56.988c.829-.158 1.639.062 2.392.63 3.031 2.28 4.758 10.297 5.564 15.31a11.057 11.057 0 004.321-1.357c-2.823-14.915-7.701-32.938-12.136-32.938h-.032c-2.965.058-3.919 3.503-5.02 7.494-1.169 4.235-2.495 9.031-6.906 9.7a2.823 2.823 0 01-.437.033c-5.315 0-9.375-14.717-11.429-24.105-1.902 2.007-3.088 4.702-3.088 7.687v22.4c0 6.186 5.015 11.2 11.201 11.2h9.325c.371-5.716 1.673-15.23 6.245-16.054z" fill="url(#paint21_linear_1002_81)"/><path d="M152.179 28.242H129.78c-2.733 0-5.203 1.017-7.147 2.642 2.176 9.999 6.143 23.859 10.432 23.859.1 0 .199-.008.299-.022 3.693-.561 4.864-4.795 5.995-8.89 1.119-4.053 2.276-8.244 6.078-8.316.015-.002.031-.002.047-.002 5.99 0 10.997 22.153 13.162 33.448 2.856-2.03 4.733-5.348 4.733-9.12v-22.4c0-6.184-5.014-11.2-11.2-11.2z" fill="url(#paint22_linear_1002_81)"/><path d="M745.696 54.867h-19.199c0-19.41-15.791-35.2-35.2-35.2V.467c29.997 0 54.399 24.403 54.399 54.4z" fill="url(#paint23_linear_1002_81)"/><path d="M16.305 237.164l-8 8-8-8 8-8 8 8z" fill="url(#paint24_linear_1002_81)"/><path d="M745.695 213.419l-8 8-8-8 8-8 8 8z" fill="url(#paint25_linear_1002_81)"/><path d="M259.188 266.222H87.785a10.172 10.172 0 01-9.71-7.139L43.647 148.917c-2-6.404 2.783-12.911 9.492-12.911h166.18c4.45 0 8.383 2.892 9.71 7.139l35.985 115.152c1.229 3.931-1.708 7.925-5.826 7.925z" fill="url(#paint26_linear_1002_81)"/><path d="M268.328 258.297l-35.985-115.152a10.175 10.175 0 00-9.71-7.139H57.858c-4.118 0-7.054 3.994-5.826 7.924l35.985 115.153a10.175 10.175 0 009.71 7.139h164.775c4.117 0 7.054-3.994 5.826-7.925z" fill="#1D213A"/><path d="M97.728 256.276L63.09 145.951h159.543l34.638 110.325H97.728z" fill="#fff"/><path d="M367.442 276.515h-266.52a9.164 9.164 0 01-9.164-9.163v-3.045h284.848v3.045a9.163 9.163 0 01-9.164 9.163z" fill="url(#paint27_linear_1002_81)"/><path d="M181.028 277.315a.8.8 0 110-1.601c5.042 0 9.145-4.101 9.145-9.143v-2.263a.8.8 0 111.6 0v2.263c0 5.924-4.82 10.744-10.745 10.744zm306.247-159.637c-47.118 6.696-105.693 41.749-112.82 75.487-5.991 28.351 21.826 87.931 21.826 87.931h245.89s-3.053-95.601-21.267-118.496c-18.778-23.604-85.099-51.818-133.629-44.922z" fill="#1D213A"/><path d="M425.298 21.66s-27.961-3.542-35.195 21.265c-6.36 21.808 8.213 42.426 8.213 42.426l26.982-63.69z" fill="#825656"/><path d="M451.071 281.897a.799.799 0 01-.719-.449l-30.291-62.266a.8.8 0 111.438-.7l30.291 62.266a.799.799 0 01-.719 1.149z" fill="url(#paint28_linear_1002_81)"/><path d="M419.65 261.76s1.131-27.43-5.528-27.43c-5.956 0-3.849 27.43-3.849 27.43h-16.8c-7.636-102.847 19.855-153.766 19.855-153.766l38.945-.122c-1.008 88.703 8.399 153.888 8.399 153.888H419.65z" fill="#825656"/><path d="M433.953 129.26s22.909 45.436 33.6 53.836c8.326 6.541 32.681-.616 43.527-17.563 12.219-19.091 9.053-37.115 9.053-37.115l-38.834-36.449-47.346 37.291z" fill="#FFC4A3"/><path d="M461.636 225.974c-.4 0-.746-.3-.795-.708-4.214-36.438-8.484-87.902-8.526-88.417a.797.797 0 01.731-.863.825.825 0 01.862.732c.044.515 4.312 51.952 8.524 88.363a.803.803 0 01-.796.893zm-74.263 36.578a.802.802 0 01-.8-.771c-4.35-117.223 23.88-154.043 24.165-154.401a.801.801 0 011.252.997c-.283.354-28.142 36.853-23.817 153.345a.802.802 0 01-.771.83h-.029z" fill="#825656"/><path d="M457.356 170.48c.018-.009 9.63-4.693 14.911-20.79l-22.845-32.614-15.469 12.185s12.546 24.877 23.403 41.219z" fill="#F99175"/><path d="M479.814 35.792s-45.86-14.205-67.052.114c-20.539 13.878-26.598 71.924-10.69 102.826 16.609 32.264 65.759 32.591 79.152-3.745 14.393-39.047-1.41-99.195-1.41-99.195z" fill="#FFC4A3"/><path d="M487.25 91.97s-2.899-21.637-13.591-39.2c0 0-20.363 2.545-39.709-5.6-19.346-8.146-27.873-25.774-24.953-32.377 5.231-11.832 58.796-15.739 98.262 12.522 30.928 22.145 46.964 52.691 58.291 124.217 11.397 71.967 8.655 129.564 8.655 129.564h-90.873s-3.31-77.89 16.98-175.389L487.25 91.969z" fill="#825656"/><path d="M575.545 228.583a.8.8 0 01-.8-.778c-2.611-97.935-19.251-135.293-35.182-158.921a.8.8 0 111.328-.893c16.058 23.818 32.831 61.426 35.454 159.77a.803.803 0 01-.779.822h-.021z" fill="#825656"/><path d="M540.225 173.565s-12.215 1.431-19.724 5.982c-7.498 4.544-6.302 18.194 3.899 18.182 8.509-.01 15.825-1.268 15.825-1.268v-22.896z" fill="#FFC4A3"/><path d="M549.77 198.858s-2.235 1.047-2.613 13.379c-.382 12.473-18.515 16.041-19.33-2.546-.748-17.046 7.688-51.222 24.488-57.331 16.801-6.109 52.943 7.56 67.2 25.2 11.264 13.936 22.401 103.536 22.401 103.536h-73.819l2.291-66.691s-7.51-3.574-9.928-9.673c0 0-7.127-.293-10.69-5.874z" fill="#FFC4A3"/><path d="M528.493 198.43a.801.801 0 01-.795-.904c1.053-7.946 3.158-16.198 5.932-23.239a.797.797 0 011.037-.449c.411.16.612.625.45 1.037-2.726 6.922-4.797 15.041-5.831 22.86a.801.801 0 01-.793.695zm21.278 1.229a.801.801 0 01-.687-.389c-2.317-3.874-2.547-11.893-.563-19.507 2.146-8.234 6.473-14.574 12.183-17.855a.8.8 0 11.796 1.387c-7.197 4.136-10.25 12.345-11.431 16.872-2.102 8.062-1.396 15.3.388 18.281a.798.798 0 01-.686 1.211zm33.867 11.972c-1.061 0-2.13-.082-3.195-.253-4.639-.742-8.399-2.967-10.873-6.433-2.927-4.099-3.886-9.656-2.771-16.068 2.104-12.101 9.822-19.953 10.151-20.281a.799.799 0 011.132 1.129c-.077.078-7.694 7.84-9.708 19.427-1.039 5.981-.174 11.12 2.497 14.864 2.222 3.109 5.619 5.109 9.825 5.781 5.088.814 10.254-.514 13.839-3.549 2.645-2.238 4.114-5.211 4.137-8.37.015-1.94-.529-3.481-1.615-4.581-1.854-1.875-4.721-1.911-4.748-1.911a.798.798 0 01-.797-.802c0-.441.357-.798.798-.798.143 0 3.542.027 5.872 2.373 1.404 1.416 2.107 3.344 2.092 5.732-.028 3.631-1.698 7.034-4.704 9.58-3.18 2.69-7.479 4.16-11.932 4.16z" fill="#1D213A"/><path d="M477.226 281.897a.8.8 0 01-.8-.8c-.065-96.815 25.92-177.737 26.183-178.543a.801.801 0 011.522.496c-.262.804-26.169 81.495-26.105 178.047a.8.8 0 01-.8.8z" fill="#825656"/><path d="M587.633 198.685a.798.798 0 01-.674-1.231l9.355-14.597a.8.8 0 011.347.862l-9.355 14.597a.796.796 0 01-.673.369zm-27.173 6.848a.8.8 0 110-1.601c6.039 0 7.599-2.398 7.612-2.421a.808.808 0 011.094-.272c.375.224.505.7.287 1.078-.074.131-1.922 3.216-8.993 3.216zM592 219.649c-6.662 0-17.067-1.463-22.034-4.564a.8.8 0 11.847-1.356c5.975 3.73 20.914 4.983 25.434 4.001a.792.792 0 01.951.611.799.799 0 01-.61.952c-1.078.236-2.68.356-4.588.356z" fill="#1D213A"/><path d="M477.227 85.351s8.208-10.423 20.618-7.062c13.706 3.712 13.299 26.421 2.625 32.497-8.896 5.064-17.972 2.918-17.972 2.918l-5.271-28.353z" fill="#FFC4A3"/><path d="M486.026 95.425a.801.801 0 01-.753-1.07c3.289-9.164 12.737-7.922 12.844-7.905a.8.8 0 01-.227 1.584c-.331-.05-8.27-1.056-11.11 6.86a.8.8 0 01-.754.53z" fill="#1D213A"/><path d="M457.523 58.801c-6.352 0-13.333-.906-19.989-3.623-24.152-9.863-24.174-28.816-24.171-29.006a.8.8 0 01.801-.789h.008a.8.8 0 01.791.81c-.002.178.077 18.071 23.177 27.504 19.281 7.872 41.459.067 41.681-.013a.806.806 0 011.023.483.8.8 0 01-.482 1.023c-.151.055-10.255 3.611-22.839 3.611z" fill="#825656"/><path d="M448.831 99.112a3.59 3.59 0 11-7.179-.002 3.59 3.59 0 017.179.002zm-44.578 0a3.59 3.59 0 11-7.178-.002 3.59 3.59 0 017.178.002z" fill="#1D213A"/><path d="M459.704 83.845c-1.363.646-6.134.387-11.102-.011-4.962-.47-9.755-1.05-10.987-1.922-1.306-.846 3.53-2.24 11.267-1.566 7.734.68 12.255 2.892 10.822 3.499zm-52.391-2.301c-.934.826-4.624 1.21-8.44 1.58-3.823.3-7.489.558-8.551-.093-1.115-.614 2.33-2.678 8.28-3.202 5.951-.516 9.702.918 8.711 1.716z" fill="#825656"/><path d="M415.885 116.47c-1.786 0-3.472-.565-4.7-1.466-1.919-1.406-2.634-3.451-1.914-5.471.455-1.277 1.253-2.172 2.377-2.662 1.61-.698 3.482-.348 4.559-.034l1.887-7.476a.793.793 0 01.971-.58.8.8 0 01.58.97l-2.101 8.322a.795.795 0 01-1.091.539c-.024-.011-2.441-1.022-4.172-.27-.708.309-1.199.873-1.503 1.728-.677 1.899.721 3.18 1.352 3.644 1.903 1.394 5.185 1.773 7.783-.196a.8.8 0 01.966 1.275 8.211 8.211 0 01-4.994 1.677z" fill="#F99175"/><path d="M414.456 262.56a.8.8 0 01-.795-.722c-2.086-21.119-.015-34.056.008-34.184a.797.797 0 01.918-.659.8.8 0 01.66.918c-.02.126-2.057 12.879.008 33.769a.802.802 0 01-.719.875l-.08.003z" fill="#825656"/><path d="M431.067 126.282c-5.361.948-8.08-2.542-10.686.567-3.023 3.609 3.093 12.676 12.299 10.331 7.882-2.008 9.579-11.349 6.004-12.809-2.723-1.111-4.24 1.314-7.617 1.911z" fill="#1D213A"/><path d="M426.801 137.121c1.745.492 3.718.61 5.884.059 4.937-1.258 7.445-5.393 7.753-8.666-.972-.289-1.981-.491-3.046-.491-5.372 0-9.787 3.951-10.591 9.098z" fill="#1D213A"/><path d="M440.656 128.782c.265-2.11-.316-3.923-1.743-4.505-2.795-1.141-4.35 1.347-7.815 1.96-5.5.973-8.289-2.609-10.963.582-.776.926-.963 2.203-.663 3.56 2.328 1.03 5.531 1.897 9.717 1.642 5.123-.313 8.973-1.872 11.467-3.239z" fill="url(#paint29_linear_1002_81)"/><path d="M308.527 204.733c-13.496 0-24.437 10.941-24.437 24.437v27.905a2.64 2.64 0 005.162.787l3.413-10.921a16.618 16.618 0 0115.862-11.662v-30.546zm24.434 0c13.496 0 24.437 10.941 24.437 24.437v27.905a2.64 2.64 0 01-5.162.787l-3.413-10.921a16.618 16.618 0 00-15.862-11.662v-30.546z" fill="#1D213A"/><path d="M332.964 250.551h-24.437a3.054 3.054 0 01-3.054-3.055v-9.163h30.546v9.163a3.055 3.055 0 01-3.055 3.055z" fill="#848CAE"/><path d="M335.635 241.388c2.769 0 5.211-1.839 5.905-4.519 1.962-7.569 3.641-17.442 3.641-29.082 0-37.113-13.655-76.363-24.437-76.363-10.78 0-24.435 39.25-24.435 76.363 0 11.64 1.679 21.513 3.64 29.082.695 2.68 3.137 4.519 5.906 4.519h29.78z" fill="url(#paint30_linear_1002_81)"/><path d="M326.851 232.224c0 15.183-2.735 27.491-6.109 27.491-3.373 0-6.109-12.308-6.109-27.491s2.736-27.491 6.109-27.491c3.374 0 6.109 12.308 6.109 27.491zm-22.421-76.363h32.632c-4.77-14.544-10.904-24.437-16.317-24.437-5.411 0-11.545 9.893-16.315 24.437z" fill="#1D213A"/><path d="M378.78 278.042H262.707l6.109-18.327h103.855l6.109 18.327z" fill="url(#paint31_linear_1002_81)"/><path d="M559.854 265.824h-39.709v-21.382a9.164 9.164 0 019.163-9.164h21.382a9.164 9.164 0 019.164 9.164v21.382zM378.78 278.042h-30.546l-6.109-18.327h30.546l6.109 18.327z" fill="#1D213A"/><path d="M585.817 278.042H494.18l6.11-18.327h79.418l6.109 18.327z" fill="url(#paint32_linear_1002_81)"/><path d="M558.327 278.842a.8.8 0 01-.788-.668l-3.055-18.328a.8.8 0 111.578-.263l3.055 18.328a.798.798 0 01-.79.931z" fill="#1D213A"/><path d="M692.571 305.533H57.225l-18.327-30.546h672l-18.327 30.546z" fill="url(#paint33_linear_1002_81)"/><path d="M692.571 305.533H545.953l18.327-30.546h146.618l-18.327 30.546z" fill="#1D213A"/></g><defs><linearGradient id="paint0_linear_1002_81" x1="244.61" y1="99.069" x2="244.61" y2="106.269" gradientUnits="userSpaceOnUse"><stop stop-color="#108dff"/><stop offset="1" stop-color="#06162E"/></linearGradient><linearGradient id="paint1_linear_1002_81" x1="244.61" y1="111.869" x2="244.61" y2="119.069" gradientUnits="userSpaceOnUse"><stop stop-color="#108dff"/><stop offset="1" stop-color="#06162E"/></linearGradient><linearGradient id="paint2_linear_1002_81" x1="244.61" y1="124.669" x2="244.61" y2="131.869" gradientUnits="userSpaceOnUse"><stop stop-color="#108dff"/><stop offset="1" stop-color="#06162E"/></linearGradient><linearGradient id="paint3_linear_1002_81" x1="244.61" y1="137.469" x2="244.61" y2="144.669" gradientUnits="userSpaceOnUse"><stop stop-color="#108dff"/><stop offset="1" stop-color="#06162E"/></linearGradient><linearGradient id="paint4_linear_1002_81" x1="605.296" y1="66.874" x2="605.296" y2="76.474" gradientUnits="userSpaceOnUse"><stop stop-color="#108dff"/><stop offset="1" stop-color="#06162E"/></linearGradient><linearGradient id="paint5_linear_1002_81" x1="637.296" y1="66.874" x2="637.296" y2="76.474" gradientUnits="userSpaceOnUse"><stop stop-color="#108dff"/><stop offset="1" stop-color="#06162E"/></linearGradient><linearGradient id="paint6_linear_1002_81" x1="669.296" y1="66.874" x2="669.296" y2="76.474" gradientUnits="userSpaceOnUse"><stop stop-color="#108dff"/><stop offset="1" stop-color="#06162E"/></linearGradient><linearGradient id="paint7_linear_1002_81" x1="701.298" y1="68.474" x2="701.298" y2="74.874" gradientUnits="userSpaceOnUse"><stop stop-color="#108dff"/><stop offset="1" stop-color="#06162E"/></linearGradient><linearGradient id="paint8_linear_1002_81" x1="605.296" y1="98.874" x2="605.296" y2="108.474" gradientUnits="userSpaceOnUse"><stop stop-color="#108dff"/><stop offset="1" stop-color="#06162E"/></linearGradient><linearGradient id="paint9_linear_1002_81" x1="637.296" y1="98.874" x2="637.296" y2="108.474" gradientUnits="userSpaceOnUse"><stop stop-color="#108dff"/><stop offset="1" stop-color="#06162E"/></linearGradient><linearGradient id="paint10_linear_1002_81" x1="669.296" y1="98.874" x2="669.296" y2="108.474" gradientUnits="userSpaceOnUse"><stop stop-color="#108dff"/><stop offset="1" stop-color="#06162E"/></linearGradient><linearGradient id="paint11_linear_1002_81" x1="701.298" y1="100.474" x2="701.298" y2="106.874" gradientUnits="userSpaceOnUse"><stop stop-color="#108dff"/><stop offset="1" stop-color="#06162E"/></linearGradient><linearGradient id="paint12_linear_1002_81" x1="605.296" y1="130.874" x2="605.296" y2="140.474" gradientUnits="userSpaceOnUse"><stop stop-color="#108dff"/><stop offset="1" stop-color="#06162E"/></linearGradient><linearGradient id="paint13_linear_1002_81" x1="637.296" y1="130.874" x2="637.296" y2="140.474" gradientUnits="userSpaceOnUse"><stop stop-color="#108dff"/><stop offset="1" stop-color="#06162E"/></linearGradient><linearGradient id="paint14_linear_1002_81" x1="669.298" y1="132.474" x2="669.298" y2="138.874" gradientUnits="userSpaceOnUse"><stop stop-color="#108dff"/><stop offset="1" stop-color="#06162E"/></linearGradient><linearGradient id="paint15_linear_1002_81" x1="701.298" y1="132.474" x2="701.298" y2="138.874" gradientUnits="userSpaceOnUse"><stop stop-color="#108dff"/><stop offset="1" stop-color="#06162E"/></linearGradient><linearGradient id="paint16_linear_1002_81" x1="605.298" y1="164.474" x2="605.298" y2="170.874" gradientUnits="userSpaceOnUse"><stop stop-color="#108dff"/><stop offset="1" stop-color="#06162E"/></linearGradient><linearGradient id="paint17_linear_1002_81" x1="637.298" y1="164.474" x2="637.298" y2="170.874" gradientUnits="userSpaceOnUse"><stop stop-color="#108dff"/><stop offset="1" stop-color="#06162E"/></linearGradient><linearGradient id="paint18_linear_1002_81" x1="669.298" y1="164.474" x2="669.298" y2="170.874" gradientUnits="userSpaceOnUse"><stop stop-color="#108dff"/><stop offset="1" stop-color="#06162E"/></linearGradient><linearGradient id="paint19_linear_1002_81" x1="701.298" y1="164.474" x2="701.298" y2="170.874" gradientUnits="userSpaceOnUse"><stop stop-color="#108dff"/><stop offset="1" stop-color="#06162E"/></linearGradient><linearGradient id="paint20_linear_1002_81" x1="146.21" y1="58.067" x2="146.21" y2="73.042" gradientUnits="userSpaceOnUse"><stop stop-color="#108dff"/><stop offset="1" stop-color="#06162E"/></linearGradient><linearGradient id="paint21_linear_1002_81" x1="138.102" y1="31.755" x2="138.102" y2="73.042" gradientUnits="userSpaceOnUse"><stop stop-color="#108dff"/><stop offset="1" stop-color="#06162E"/></linearGradient><linearGradient id="paint22_linear_1002_81" x1="143.006" y1="28.242" x2="143.006" y2="70.961" gradientUnits="userSpaceOnUse"><stop stop-color="#108dff"/><stop offset="1" stop-color="#06162E"/></linearGradient><linearGradient id="paint23_linear_1002_81" x1="718.496" y1=".467" x2="718.496" y2="54.867" gradientUnits="userSpaceOnUse"><stop stop-color="#108dff"/><stop offset="1" stop-color="#06162E"/></linearGradient><linearGradient id="paint24_linear_1002_81" x1="8.305" y1="229.164" x2="8.305" y2="245.164" gradientUnits="userSpaceOnUse"><stop stop-color="#108dff"/><stop offset="1" stop-color="#06162E"/></linearGradient><linearGradient id="paint25_linear_1002_81" x1="737.695" y1="205.419" x2="737.695" y2="221.419" gradientUnits="userSpaceOnUse"><stop stop-color="#108dff"/><stop offset="1" stop-color="#06162E"/></linearGradient><linearGradient id="paint26_linear_1002_81" x1="154.242" y1="136.006" x2="154.242" y2="266.222" gradientUnits="userSpaceOnUse"><stop stop-color="#E8EAEF"/><stop offset="1" stop-color="#06162E"/></linearGradient><linearGradient id="paint27_linear_1002_81" x1="234.182" y1="264.307" x2="234.182" y2="276.515" gradientUnits="userSpaceOnUse"><stop stop-color="#E8EAEF"/><stop offset="1" stop-color="#06162E"/></linearGradient><linearGradient id="paint28_linear_1002_81" x1="435.926" y1="218.033" x2="435.926" y2="281.897" gradientUnits="userSpaceOnUse"><stop stop-color="#E8EAEF"/><stop offset="1" stop-color="#06162E"/></linearGradient><linearGradient id="paint29_linear_1002_81" x1="430.027" y1="123.982" x2="430.027" y2="132.066" gradientUnits="userSpaceOnUse"><stop stop-color="#E8EAEF"/><stop offset="1" stop-color="#06162E"/></linearGradient><linearGradient id="paint30_linear_1002_81" x1="320.745" y1="131.424" x2="320.745" y2="241.388" gradientUnits="userSpaceOnUse"><stop stop-color="#E8EAEF"/><stop offset="1" stop-color="#06162E"/></linearGradient><linearGradient id="paint31_linear_1002_81" x1="320.744" y1="259.715" x2="320.744" y2="278.042" gradientUnits="userSpaceOnUse"><stop stop-color="#108dff"/><stop offset="1" stop-color="#06162E"/></linearGradient><linearGradient id="paint32_linear_1002_81" x1="539.998" y1="259.715" x2="539.998" y2="278.042" gradientUnits="userSpaceOnUse"><stop stop-color="#E8EAEF"/><stop offset="1" stop-color="#06162E"/></linearGradient><linearGradient id="paint33_linear_1002_81" x1="374.898" y1="274.987" x2="374.898" y2="305.533" gradientUnits="userSpaceOnUse"><stop stop-color="#108dff"/><stop offset="1" stop-color="#06162E"/></linearGradient><clipPath id="clip0_1002_81"><path fill="#fff" d="M0 0h746v306H0z"/></clipPath></defs></svg>